<?xml version="1.0" encoding="utf-8" standalone="no"?>
<!DOCTYPE svg PUBLIC "-//W3C//DTD SVG 1.1//EN"
  "http://www.w3.org/Graphics/SVG/1.1/DTD/svg11.dtd">
<svg xmlns:xlink="http://www.w3.org/1999/xlink" width="861.455312pt" height="213.426563pt" viewBox="0 0 861.455312 213.426563" xmlns="http://www.w3.org/2000/svg" version="1.1">
 <metadata>
  <rdf:RDF xmlns:dc="http://purl.org/dc/elements/1.1/" xmlns:cc="http://creativecommons.org/ns#" xmlns:rdf="http://www.w3.org/1999/02/22-rdf-syntax-ns#">
   <cc:Work>
    <dc:type rdf:resource="http://purl.org/dc/dcmitype/StillImage"/>
    <dc:date>2025-11-12T15:39:15.585461</dc:date>
    <dc:format>image/svg+xml</dc:format>
    <dc:creator>
     <cc:Agent>
      <dc:title>Matplotlib v3.10.7, https://matplotlib.org/</dc:title>
     </cc:Agent>
    </dc:creator>
   </cc:Work>
  </rdf:RDF>
 </metadata>
 <defs>
  <style type="text/css">*{stroke-linejoin: round; stroke-linecap: butt}</style>
 </defs>
 <g id="figure_1">
  <g id="patch_1">
   <path d="M 0 213.426563 
L 861.455312 213.426563 
L 861.455312 0 
L 0 0 
z
" style="fill: #ffffff"/>
  </g>
  <g id="axes_1">
   <g id="patch_2">
    <path d="M 58.045313 176.81875 
L 284.215663 176.81875 
L 284.215663 50.0325 
L 58.045313 50.0325 
z
" style="fill: #ffffff"/>
   </g>
   <g id="matplotlib.axis_1">
    <g id="xtick_1">
     <g id="line2d_1">
      <path d="M 100.127512 176.81875 
L 100.127512 50.0325 
" clip-path="url(#pb63902fe65)" style="fill: none; stroke: #cccccc; stroke-width: 0.8; stroke-linecap: round"/>
     </g>
     <g id="text_1">
      <!-- 100 -->
      <g style="fill: #262626" transform="translate(91.786106 190.976562) scale(0.1 -0.1)">
       <defs>
        <path id="ArialMT-31" d="M 2384 0 
L 1822 0 
L 1822 3584 
Q 1619 3391 1289 3197 
Q 959 3003 697 2906 
L 697 3450 
Q 1169 3672 1522 3987 
Q 1875 4303 2022 4600 
L 2384 4600 
L 2384 0 
z
" transform="scale(0.015625)"/>
        <path id="ArialMT-30" d="M 266 2259 
Q 266 3072 433 3567 
Q 600 4063 929 4331 
Q 1259 4600 1759 4600 
Q 2128 4600 2406 4451 
Q 2684 4303 2865 4023 
Q 3047 3744 3150 3342 
Q 3253 2941 3253 2259 
Q 3253 1453 3087 958 
Q 2922 463 2592 192 
Q 2263 -78 1759 -78 
Q 1097 -78 719 397 
Q 266 969 266 2259 
z
M 844 2259 
Q 844 1131 1108 757 
Q 1372 384 1759 384 
Q 2147 384 2411 759 
Q 2675 1134 2675 2259 
Q 2675 3391 2411 3762 
Q 2147 4134 1753 4134 
Q 1366 4134 1134 3806 
Q 844 3388 844 2259 
z
" transform="scale(0.015625)"/>
       </defs>
       <use xlink:href="#ArialMT-31"/>
       <use xlink:href="#ArialMT-30" transform="translate(55.615234 0)"/>
       <use xlink:href="#ArialMT-30" transform="translate(111.230469 0)"/>
      </g>
     </g>
    </g>
    <g id="xtick_2">
     <g id="line2d_2">
      <path d="M 159.015192 176.81875 
L 159.015192 50.0325 
" clip-path="url(#pb63902fe65)" style="fill: none; stroke: #cccccc; stroke-width: 0.8; stroke-linecap: round"/>
     </g>
     <g id="text_2">
      <!-- 200 -->
      <g style="fill: #262626" transform="translate(150.673786 190.976562) scale(0.1 -0.1)">
       <defs>
        <path id="ArialMT-32" d="M 3222 541 
L 3222 0 
L 194 0 
Q 188 203 259 391 
Q 375 700 629 1000 
Q 884 1300 1366 1694 
Q 2113 2306 2375 2664 
Q 2638 3022 2638 3341 
Q 2638 3675 2398 3904 
Q 2159 4134 1775 4134 
Q 1369 4134 1125 3890 
Q 881 3647 878 3216 
L 300 3275 
Q 359 3922 746 4261 
Q 1134 4600 1788 4600 
Q 2447 4600 2831 4234 
Q 3216 3869 3216 3328 
Q 3216 3053 3103 2787 
Q 2991 2522 2730 2228 
Q 2469 1934 1863 1422 
Q 1356 997 1212 845 
Q 1069 694 975 541 
L 3222 541 
z
" transform="scale(0.015625)"/>
       </defs>
       <use xlink:href="#ArialMT-32"/>
       <use xlink:href="#ArialMT-30" transform="translate(55.615234 0)"/>
       <use xlink:href="#ArialMT-30" transform="translate(111.230469 0)"/>
      </g>
     </g>
    </g>
    <g id="xtick_3">
     <g id="line2d_3">
      <path d="M 217.902872 176.81875 
L 217.902872 50.0325 
" clip-path="url(#pb63902fe65)" style="fill: none; stroke: #cccccc; stroke-width: 0.8; stroke-linecap: round"/>
     </g>
     <g id="text_3">
      <!-- 300 -->
      <g style="fill: #262626" transform="translate(209.561465 190.976562) scale(0.1 -0.1)">
       <defs>
        <path id="ArialMT-33" d="M 269 1209 
L 831 1284 
Q 928 806 1161 595 
Q 1394 384 1728 384 
Q 2125 384 2398 659 
Q 2672 934 2672 1341 
Q 2672 1728 2419 1979 
Q 2166 2231 1775 2231 
Q 1616 2231 1378 2169 
L 1441 2663 
Q 1497 2656 1531 2656 
Q 1891 2656 2178 2843 
Q 2466 3031 2466 3422 
Q 2466 3731 2256 3934 
Q 2047 4138 1716 4138 
Q 1388 4138 1169 3931 
Q 950 3725 888 3313 
L 325 3413 
Q 428 3978 793 4289 
Q 1159 4600 1703 4600 
Q 2078 4600 2393 4439 
Q 2709 4278 2876 4000 
Q 3044 3722 3044 3409 
Q 3044 3113 2884 2869 
Q 2725 2625 2413 2481 
Q 2819 2388 3044 2092 
Q 3269 1797 3269 1353 
Q 3269 753 2831 336 
Q 2394 -81 1725 -81 
Q 1122 -81 723 278 
Q 325 638 269 1209 
z
" transform="scale(0.015625)"/>
       </defs>
       <use xlink:href="#ArialMT-33"/>
       <use xlink:href="#ArialMT-30" transform="translate(55.615234 0)"/>
       <use xlink:href="#ArialMT-30" transform="translate(111.230469 0)"/>
      </g>
     </g>
    </g>
    <g id="xtick_4">
     <g id="line2d_4">
      <path d="M 276.790551 176.81875 
L 276.790551 50.0325 
" clip-path="url(#pb63902fe65)" style="fill: none; stroke: #cccccc; stroke-width: 0.8; stroke-linecap: round"/>
     </g>
     <g id="text_4">
      <!-- 400 -->
      <g style="fill: #262626" transform="translate(268.449145 190.976562) scale(0.1 -0.1)">
       <defs>
        <path id="ArialMT-34" d="M 2069 0 
L 2069 1097 
L 81 1097 
L 81 1613 
L 2172 4581 
L 2631 4581 
L 2631 1613 
L 3250 1613 
L 3250 1097 
L 2631 1097 
L 2631 0 
L 2069 0 
z
M 2069 1613 
L 2069 3678 
L 634 1613 
L 2069 1613 
z
" transform="scale(0.015625)"/>
       </defs>
       <use xlink:href="#ArialMT-34"/>
       <use xlink:href="#ArialMT-30" transform="translate(55.615234 0)"/>
       <use xlink:href="#ArialMT-30" transform="translate(111.230469 0)"/>
      </g>
     </g>
    </g>
    <g id="text_5">
     <!-- latency_ms -->
     <g style="fill: #262626" transform="translate(145.843769 204.121875) scale(0.1 -0.1)">
      <defs>
       <path id="ArialMT-6c" d="M 409 0 
L 409 4581 
L 972 4581 
L 972 0 
L 409 0 
z
" transform="scale(0.015625)"/>
       <path id="ArialMT-61" d="M 2588 409 
Q 2275 144 1986 34 
Q 1697 -75 1366 -75 
Q 819 -75 525 192 
Q 231 459 231 875 
Q 231 1119 342 1320 
Q 453 1522 633 1644 
Q 813 1766 1038 1828 
Q 1203 1872 1538 1913 
Q 2219 1994 2541 2106 
Q 2544 2222 2544 2253 
Q 2544 2597 2384 2738 
Q 2169 2928 1744 2928 
Q 1347 2928 1158 2789 
Q 969 2650 878 2297 
L 328 2372 
Q 403 2725 575 2942 
Q 747 3159 1072 3276 
Q 1397 3394 1825 3394 
Q 2250 3394 2515 3294 
Q 2781 3194 2906 3042 
Q 3031 2891 3081 2659 
Q 3109 2516 3109 2141 
L 3109 1391 
Q 3109 606 3145 398 
Q 3181 191 3288 0 
L 2700 0 
Q 2613 175 2588 409 
z
M 2541 1666 
Q 2234 1541 1622 1453 
Q 1275 1403 1131 1340 
Q 988 1278 909 1158 
Q 831 1038 831 891 
Q 831 666 1001 516 
Q 1172 366 1500 366 
Q 1825 366 2078 508 
Q 2331 650 2450 897 
Q 2541 1088 2541 1459 
L 2541 1666 
z
" transform="scale(0.015625)"/>
       <path id="ArialMT-74" d="M 1650 503 
L 1731 6 
Q 1494 -44 1306 -44 
Q 1000 -44 831 53 
Q 663 150 594 308 
Q 525 466 525 972 
L 525 2881 
L 113 2881 
L 113 3319 
L 525 3319 
L 525 4141 
L 1084 4478 
L 1084 3319 
L 1650 3319 
L 1650 2881 
L 1084 2881 
L 1084 941 
Q 1084 700 1114 631 
Q 1144 563 1211 522 
Q 1278 481 1403 481 
Q 1497 481 1650 503 
z
" transform="scale(0.015625)"/>
       <path id="ArialMT-65" d="M 2694 1069 
L 3275 997 
Q 3138 488 2766 206 
Q 2394 -75 1816 -75 
Q 1088 -75 661 373 
Q 234 822 234 1631 
Q 234 2469 665 2931 
Q 1097 3394 1784 3394 
Q 2450 3394 2872 2941 
Q 3294 2488 3294 1666 
Q 3294 1616 3291 1516 
L 816 1516 
Q 847 969 1125 678 
Q 1403 388 1819 388 
Q 2128 388 2347 550 
Q 2566 713 2694 1069 
z
M 847 1978 
L 2700 1978 
Q 2663 2397 2488 2606 
Q 2219 2931 1791 2931 
Q 1403 2931 1139 2672 
Q 875 2413 847 1978 
z
" transform="scale(0.015625)"/>
       <path id="ArialMT-6e" d="M 422 0 
L 422 3319 
L 928 3319 
L 928 2847 
Q 1294 3394 1984 3394 
Q 2284 3394 2536 3286 
Q 2788 3178 2913 3003 
Q 3038 2828 3088 2588 
Q 3119 2431 3119 2041 
L 3119 0 
L 2556 0 
L 2556 2019 
Q 2556 2363 2490 2533 
Q 2425 2703 2258 2804 
Q 2091 2906 1866 2906 
Q 1506 2906 1245 2678 
Q 984 2450 984 1813 
L 984 0 
L 422 0 
z
" transform="scale(0.015625)"/>
       <path id="ArialMT-63" d="M 2588 1216 
L 3141 1144 
Q 3050 572 2676 248 
Q 2303 -75 1759 -75 
Q 1078 -75 664 370 
Q 250 816 250 1647 
Q 250 2184 428 2587 
Q 606 2991 970 3192 
Q 1334 3394 1763 3394 
Q 2303 3394 2647 3120 
Q 2991 2847 3088 2344 
L 2541 2259 
Q 2463 2594 2264 2762 
Q 2066 2931 1784 2931 
Q 1359 2931 1093 2626 
Q 828 2322 828 1663 
Q 828 994 1084 691 
Q 1341 388 1753 388 
Q 2084 388 2306 591 
Q 2528 794 2588 1216 
z
" transform="scale(0.015625)"/>
       <path id="ArialMT-79" d="M 397 -1278 
L 334 -750 
Q 519 -800 656 -800 
Q 844 -800 956 -737 
Q 1069 -675 1141 -563 
Q 1194 -478 1313 -144 
Q 1328 -97 1363 -6 
L 103 3319 
L 709 3319 
L 1400 1397 
Q 1534 1031 1641 628 
Q 1738 1016 1872 1384 
L 2581 3319 
L 3144 3319 
L 1881 -56 
Q 1678 -603 1566 -809 
Q 1416 -1088 1222 -1217 
Q 1028 -1347 759 -1347 
Q 597 -1347 397 -1278 
z
" transform="scale(0.015625)"/>
       <path id="ArialMT-5f" d="M -97 -1272 
L -97 -866 
L 3631 -866 
L 3631 -1272 
L -97 -1272 
z
" transform="scale(0.015625)"/>
       <path id="ArialMT-6d" d="M 422 0 
L 422 3319 
L 925 3319 
L 925 2853 
Q 1081 3097 1340 3245 
Q 1600 3394 1931 3394 
Q 2300 3394 2536 3241 
Q 2772 3088 2869 2813 
Q 3263 3394 3894 3394 
Q 4388 3394 4653 3120 
Q 4919 2847 4919 2278 
L 4919 0 
L 4359 0 
L 4359 2091 
Q 4359 2428 4304 2576 
Q 4250 2725 4106 2815 
Q 3963 2906 3769 2906 
Q 3419 2906 3187 2673 
Q 2956 2441 2956 1928 
L 2956 0 
L 2394 0 
L 2394 2156 
Q 2394 2531 2256 2718 
Q 2119 2906 1806 2906 
Q 1569 2906 1367 2781 
Q 1166 2656 1075 2415 
Q 984 2175 984 1722 
L 984 0 
L 422 0 
z
" transform="scale(0.015625)"/>
       <path id="ArialMT-73" d="M 197 991 
L 753 1078 
Q 800 744 1014 566 
Q 1228 388 1613 388 
Q 2000 388 2187 545 
Q 2375 703 2375 916 
Q 2375 1106 2209 1216 
Q 2094 1291 1634 1406 
Q 1016 1563 777 1677 
Q 538 1791 414 1992 
Q 291 2194 291 2438 
Q 291 2659 392 2848 
Q 494 3038 669 3163 
Q 800 3259 1026 3326 
Q 1253 3394 1513 3394 
Q 1903 3394 2198 3281 
Q 2494 3169 2634 2976 
Q 2775 2784 2828 2463 
L 2278 2388 
Q 2241 2644 2061 2787 
Q 1881 2931 1553 2931 
Q 1166 2931 1000 2803 
Q 834 2675 834 2503 
Q 834 2394 903 2306 
Q 972 2216 1119 2156 
Q 1203 2125 1616 2013 
Q 2213 1853 2448 1751 
Q 2684 1650 2818 1456 
Q 2953 1263 2953 975 
Q 2953 694 2789 445 
Q 2625 197 2315 61 
Q 2006 -75 1616 -75 
Q 969 -75 630 194 
Q 291 463 197 991 
z
" transform="scale(0.015625)"/>
      </defs>
      <use xlink:href="#ArialMT-6c"/>
      <use xlink:href="#ArialMT-61" transform="translate(22.216797 0)"/>
      <use xlink:href="#ArialMT-74" transform="translate(77.832031 0)"/>
      <use xlink:href="#ArialMT-65" transform="translate(105.615234 0)"/>
      <use xlink:href="#ArialMT-6e" transform="translate(161.230469 0)"/>
      <use xlink:href="#ArialMT-63" transform="translate(216.845703 0)"/>
      <use xlink:href="#ArialMT-79" transform="translate(266.845703 0)"/>
      <use xlink:href="#ArialMT-5f" transform="translate(316.845703 0)"/>
      <use xlink:href="#ArialMT-6d" transform="translate(372.460938 0)"/>
      <use xlink:href="#ArialMT-73" transform="translate(455.761719 0)"/>
     </g>
    </g>
   </g>
   <g id="matplotlib.axis_2">
    <g id="ytick_1">
     <g id="line2d_5">
      <path d="M 58.045313 176.81875 
L 284.215663 176.81875 
" clip-path="url(#pb63902fe65)" style="fill: none; stroke: #cccccc; stroke-width: 0.8; stroke-linecap: round"/>
     </g>
     <g id="text_6">
      <!-- 0.0000 -->
      <g style="fill: #262626" transform="translate(20.4625 180.397656) scale(0.1 -0.1)">
       <defs>
        <path id="ArialMT-2e" d="M 581 0 
L 581 641 
L 1222 641 
L 1222 0 
L 581 0 
z
" transform="scale(0.015625)"/>
       </defs>
       <use xlink:href="#ArialMT-30"/>
       <use xlink:href="#ArialMT-2e" transform="translate(55.615234 0)"/>
       <use xlink:href="#ArialMT-30" transform="translate(83.398438 0)"/>
       <use xlink:href="#ArialMT-30" transform="translate(139.013672 0)"/>
       <use xlink:href="#ArialMT-30" transform="translate(194.628906 0)"/>
       <use xlink:href="#ArialMT-30" transform="translate(250.244141 0)"/>
      </g>
     </g>
    </g>
    <g id="ytick_2">
     <g id="line2d_6">
      <path d="M 58.045313 154.009065 
L 284.215663 154.009065 
" clip-path="url(#pb63902fe65)" style="fill: none; stroke: #cccccc; stroke-width: 0.8; stroke-linecap: round"/>
     </g>
     <g id="text_7">
      <!-- 0.0025 -->
      <g style="fill: #262626" transform="translate(20.4625 157.587971) scale(0.1 -0.1)">
       <defs>
        <path id="ArialMT-35" d="M 266 1200 
L 856 1250 
Q 922 819 1161 601 
Q 1400 384 1738 384 
Q 2144 384 2425 690 
Q 2706 997 2706 1503 
Q 2706 1984 2436 2262 
Q 2166 2541 1728 2541 
Q 1456 2541 1237 2417 
Q 1019 2294 894 2097 
L 366 2166 
L 809 4519 
L 3088 4519 
L 3088 3981 
L 1259 3981 
L 1013 2750 
Q 1425 3038 1878 3038 
Q 2478 3038 2890 2622 
Q 3303 2206 3303 1553 
Q 3303 931 2941 478 
Q 2500 -78 1738 -78 
Q 1113 -78 717 272 
Q 322 622 266 1200 
z
" transform="scale(0.015625)"/>
       </defs>
       <use xlink:href="#ArialMT-30"/>
       <use xlink:href="#ArialMT-2e" transform="translate(55.615234 0)"/>
       <use xlink:href="#ArialMT-30" transform="translate(83.398438 0)"/>
       <use xlink:href="#ArialMT-30" transform="translate(139.013672 0)"/>
       <use xlink:href="#ArialMT-32" transform="translate(194.628906 0)"/>
       <use xlink:href="#ArialMT-35" transform="translate(250.244141 0)"/>
      </g>
     </g>
    </g>
    <g id="ytick_3">
     <g id="line2d_7">
      <path d="M 58.045313 131.19938 
L 284.215663 131.19938 
" clip-path="url(#pb63902fe65)" style="fill: none; stroke: #cccccc; stroke-width: 0.8; stroke-linecap: round"/>
     </g>
     <g id="text_8">
      <!-- 0.0050 -->
      <g style="fill: #262626" transform="translate(20.4625 134.778286) scale(0.1 -0.1)">
       <use xlink:href="#ArialMT-30"/>
       <use xlink:href="#ArialMT-2e" transform="translate(55.615234 0)"/>
       <use xlink:href="#ArialMT-30" transform="translate(83.398438 0)"/>
       <use xlink:href="#ArialMT-30" transform="translate(139.013672 0)"/>
       <use xlink:href="#ArialMT-35" transform="translate(194.628906 0)"/>
       <use xlink:href="#ArialMT-30" transform="translate(250.244141 0)"/>
      </g>
     </g>
    </g>
    <g id="ytick_4">
     <g id="line2d_8">
      <path d="M 58.045313 108.389695 
L 284.215663 108.389695 
" clip-path="url(#pb63902fe65)" style="fill: none; stroke: #cccccc; stroke-width: 0.8; stroke-linecap: round"/>
     </g>
     <g id="text_9">
      <!-- 0.0075 -->
      <g style="fill: #262626" transform="translate(20.4625 111.968601) scale(0.1 -0.1)">
       <defs>
        <path id="ArialMT-37" d="M 303 3981 
L 303 4522 
L 3269 4522 
L 3269 4084 
Q 2831 3619 2401 2847 
Q 1972 2075 1738 1259 
Q 1569 684 1522 0 
L 944 0 
Q 953 541 1156 1306 
Q 1359 2072 1739 2783 
Q 2119 3494 2547 3981 
L 303 3981 
z
" transform="scale(0.015625)"/>
       </defs>
       <use xlink:href="#ArialMT-30"/>
       <use xlink:href="#ArialMT-2e" transform="translate(55.615234 0)"/>
       <use xlink:href="#ArialMT-30" transform="translate(83.398438 0)"/>
       <use xlink:href="#ArialMT-30" transform="translate(139.013672 0)"/>
       <use xlink:href="#ArialMT-37" transform="translate(194.628906 0)"/>
       <use xlink:href="#ArialMT-35" transform="translate(250.244141 0)"/>
      </g>
     </g>
    </g>
    <g id="ytick_5">
     <g id="line2d_9">
      <path d="M 58.045313 85.580009 
L 284.215663 85.580009 
" clip-path="url(#pb63902fe65)" style="fill: none; stroke: #cccccc; stroke-width: 0.8; stroke-linecap: round"/>
     </g>
     <g id="text_10">
      <!-- 0.0100 -->
      <g style="fill: #262626" transform="translate(20.4625 89.158916) scale(0.1 -0.1)">
       <use xlink:href="#ArialMT-30"/>
       <use xlink:href="#ArialMT-2e" transform="translate(55.615234 0)"/>
       <use xlink:href="#ArialMT-30" transform="translate(83.398438 0)"/>
       <use xlink:href="#ArialMT-31" transform="translate(139.013672 0)"/>
       <use xlink:href="#ArialMT-30" transform="translate(194.628906 0)"/>
       <use xlink:href="#ArialMT-30" transform="translate(250.244141 0)"/>
      </g>
     </g>
    </g>
    <g id="ytick_6">
     <g id="line2d_10">
      <path d="M 58.045313 62.770324 
L 284.215663 62.770324 
" clip-path="url(#pb63902fe65)" style="fill: none; stroke: #cccccc; stroke-width: 0.8; stroke-linecap: round"/>
     </g>
     <g id="text_11">
      <!-- 0.0125 -->
      <g style="fill: #262626" transform="translate(20.4625 66.349231) scale(0.1 -0.1)">
       <use xlink:href="#ArialMT-30"/>
       <use xlink:href="#ArialMT-2e" transform="translate(55.615234 0)"/>
       <use xlink:href="#ArialMT-30" transform="translate(83.398438 0)"/>
       <use xlink:href="#ArialMT-31" transform="translate(139.013672 0)"/>
       <use xlink:href="#ArialMT-32" transform="translate(194.628906 0)"/>
       <use xlink:href="#ArialMT-35" transform="translate(250.244141 0)"/>
      </g>
     </g>
    </g>
    <g id="text_12">
     <!-- Density -->
     <g style="fill: #262626" transform="translate(14.357813 130.0975) rotate(-90) scale(0.1 -0.1)">
      <defs>
       <path id="ArialMT-44" d="M 494 0 
L 494 4581 
L 2072 4581 
Q 2606 4581 2888 4516 
Q 3281 4425 3559 4188 
Q 3922 3881 4101 3404 
Q 4281 2928 4281 2316 
Q 4281 1794 4159 1391 
Q 4038 988 3847 723 
Q 3656 459 3429 307 
Q 3203 156 2883 78 
Q 2563 0 2147 0 
L 494 0 
z
M 1100 541 
L 2078 541 
Q 2531 541 2789 625 
Q 3047 709 3200 863 
Q 3416 1078 3536 1442 
Q 3656 1806 3656 2325 
Q 3656 3044 3420 3430 
Q 3184 3816 2847 3947 
Q 2603 4041 2063 4041 
L 1100 4041 
L 1100 541 
z
" transform="scale(0.015625)"/>
       <path id="ArialMT-69" d="M 425 3934 
L 425 4581 
L 988 4581 
L 988 3934 
L 425 3934 
z
M 425 0 
L 425 3319 
L 988 3319 
L 988 0 
L 425 0 
z
" transform="scale(0.015625)"/>
      </defs>
      <use xlink:href="#ArialMT-44"/>
      <use xlink:href="#ArialMT-65" transform="translate(72.216797 0)"/>
      <use xlink:href="#ArialMT-6e" transform="translate(127.832031 0)"/>
      <use xlink:href="#ArialMT-73" transform="translate(183.447266 0)"/>
      <use xlink:href="#ArialMT-69" transform="translate(233.447266 0)"/>
      <use xlink:href="#ArialMT-74" transform="translate(255.664062 0)"/>
      <use xlink:href="#ArialMT-79" transform="translate(283.447266 0)"/>
     </g>
    </g>
   </g>
   <g id="FillBetweenPolyCollection_1">
    <defs>
     <path id="m27febd1ec5" d="M 68.325783 -36.799548 
L 68.325783 -36.607813 
L 69.358996 -36.607813 
L 70.392209 -36.607813 
L 71.425422 -36.607813 
L 72.458635 -36.607813 
L 73.491849 -36.607813 
L 74.525062 -36.607813 
L 75.558275 -36.607813 
L 76.591488 -36.607813 
L 77.624701 -36.607813 
L 78.657914 -36.607813 
L 79.691127 -36.607813 
L 80.72434 -36.607813 
L 81.757553 -36.607813 
L 82.790767 -36.607813 
L 83.82398 -36.607813 
L 84.857193 -36.607813 
L 85.890406 -36.607813 
L 86.923619 -36.607813 
L 87.956832 -36.607813 
L 88.990045 -36.607813 
L 90.023258 -36.607813 
L 91.056471 -36.607813 
L 92.089685 -36.607813 
L 93.122898 -36.607813 
L 94.156111 -36.607813 
L 95.189324 -36.607813 
L 96.222537 -36.607813 
L 97.25575 -36.607813 
L 98.288963 -36.607813 
L 99.322176 -36.607813 
L 100.355389 -36.607813 
L 101.388603 -36.607813 
L 102.421816 -36.607813 
L 103.455029 -36.607813 
L 104.488242 -36.607813 
L 105.521455 -36.607813 
L 106.554668 -36.607813 
L 107.587881 -36.607813 
L 108.621094 -36.607813 
L 109.654307 -36.607813 
L 110.687521 -36.607813 
L 111.720734 -36.607813 
L 112.753947 -36.607813 
L 113.78716 -36.607813 
L 114.820373 -36.607813 
L 115.853586 -36.607813 
L 116.886799 -36.607813 
L 117.920012 -36.607813 
L 118.953226 -36.607813 
L 119.986439 -36.607813 
L 121.019652 -36.607813 
L 122.052865 -36.607813 
L 123.086078 -36.607813 
L 124.119291 -36.607813 
L 125.152504 -36.607813 
L 126.185717 -36.607813 
L 127.21893 -36.607813 
L 128.252144 -36.607813 
L 129.285357 -36.607813 
L 130.31857 -36.607813 
L 131.351783 -36.607813 
L 132.384996 -36.607813 
L 133.418209 -36.607813 
L 134.451422 -36.607813 
L 135.484635 -36.607813 
L 136.517848 -36.607813 
L 137.551062 -36.607813 
L 138.584275 -36.607813 
L 139.617488 -36.607813 
L 140.650701 -36.607813 
L 141.683914 -36.607813 
L 142.717127 -36.607813 
L 143.75034 -36.607813 
L 144.783553 -36.607813 
L 145.816766 -36.607813 
L 146.84998 -36.607813 
L 147.883193 -36.607813 
L 148.916406 -36.607813 
L 149.949619 -36.607813 
L 150.982832 -36.607813 
L 152.016045 -36.607813 
L 153.049258 -36.607813 
L 154.082471 -36.607813 
L 155.115684 -36.607813 
L 156.148898 -36.607813 
L 157.182111 -36.607813 
L 158.215324 -36.607813 
L 159.248537 -36.607813 
L 160.28175 -36.607813 
L 161.314963 -36.607813 
L 162.348176 -36.607813 
L 163.381389 -36.607813 
L 164.414602 -36.607813 
L 165.447816 -36.607813 
L 166.481029 -36.607813 
L 167.514242 -36.607813 
L 168.547455 -36.607813 
L 169.580668 -36.607813 
L 170.613881 -36.607813 
L 171.647094 -36.607813 
L 172.680307 -36.607813 
L 173.71352 -36.607813 
L 174.746734 -36.607813 
L 175.779947 -36.607813 
L 176.81316 -36.607813 
L 177.846373 -36.607813 
L 178.879586 -36.607813 
L 179.912799 -36.607813 
L 180.946012 -36.607813 
L 181.979225 -36.607813 
L 183.012438 -36.607813 
L 184.045652 -36.607813 
L 185.078865 -36.607813 
L 186.112078 -36.607813 
L 187.145291 -36.607813 
L 188.178504 -36.607813 
L 189.211717 -36.607813 
L 190.24493 -36.607813 
L 191.278143 -36.607813 
L 192.311357 -36.607813 
L 193.34457 -36.607813 
L 194.377783 -36.607813 
L 195.410996 -36.607813 
L 196.444209 -36.607813 
L 197.477422 -36.607813 
L 198.510635 -36.607813 
L 199.543848 -36.607813 
L 200.577061 -36.607813 
L 201.610275 -36.607813 
L 202.643488 -36.607813 
L 203.676701 -36.607813 
L 204.709914 -36.607813 
L 205.743127 -36.607813 
L 206.77634 -36.607813 
L 207.809553 -36.607813 
L 208.842766 -36.607813 
L 209.875979 -36.607813 
L 210.909193 -36.607813 
L 211.942406 -36.607813 
L 212.975619 -36.607813 
L 214.008832 -36.607813 
L 215.042045 -36.607813 
L 216.075258 -36.607813 
L 217.108471 -36.607813 
L 218.141684 -36.607813 
L 219.174897 -36.607813 
L 220.208111 -36.607813 
L 221.241324 -36.607813 
L 222.274537 -36.607813 
L 223.30775 -36.607813 
L 224.340963 -36.607813 
L 225.374176 -36.607813 
L 226.407389 -36.607813 
L 227.440602 -36.607813 
L 228.473815 -36.607813 
L 229.507029 -36.607813 
L 230.540242 -36.607813 
L 231.573455 -36.607813 
L 232.606668 -36.607813 
L 233.639881 -36.607813 
L 234.673094 -36.607813 
L 235.706307 -36.607813 
L 236.73952 -36.607813 
L 237.772733 -36.607813 
L 238.805947 -36.607813 
L 239.83916 -36.607813 
L 240.872373 -36.607813 
L 241.905586 -36.607813 
L 242.938799 -36.607813 
L 243.972012 -36.607813 
L 245.005225 -36.607813 
L 246.038438 -36.607813 
L 247.071651 -36.607813 
L 248.104865 -36.607813 
L 249.138078 -36.607813 
L 250.171291 -36.607813 
L 251.204504 -36.607813 
L 252.237717 -36.607813 
L 253.27093 -36.607813 
L 254.304143 -36.607813 
L 255.337356 -36.607813 
L 256.37057 -36.607813 
L 257.403783 -36.607813 
L 258.436996 -36.607813 
L 259.470209 -36.607813 
L 260.503422 -36.607813 
L 261.536635 -36.607813 
L 262.569848 -36.607813 
L 263.603061 -36.607813 
L 264.636274 -36.607813 
L 265.669488 -36.607813 
L 266.702701 -36.607813 
L 267.735914 -36.607813 
L 268.769127 -36.607813 
L 269.80234 -36.607813 
L 270.835553 -36.607813 
L 271.868766 -36.607813 
L 272.901979 -36.607813 
L 273.935192 -36.607813 
L 273.935192 -36.620861 
L 273.935192 -36.620861 
L 272.901979 -36.625148 
L 271.868766 -36.630632 
L 270.835553 -36.637575 
L 269.80234 -36.646271 
L 268.769127 -36.657051 
L 267.735914 -36.670273 
L 266.702701 -36.686315 
L 265.669488 -36.70557 
L 264.636274 -36.728428 
L 263.603061 -36.755264 
L 262.569848 -36.786414 
L 261.536635 -36.822162 
L 260.503422 -36.862708 
L 259.470209 -36.90815 
L 258.436996 -36.958463 
L 257.403783 -37.013475 
L 256.37057 -37.072855 
L 255.337356 -37.136104 
L 254.304143 -37.202548 
L 253.27093 -37.271354 
L 252.237717 -37.341536 
L 251.204504 -37.41199 
L 250.171291 -37.481526 
L 249.138078 -37.548914 
L 248.104865 -37.612933 
L 247.071651 -37.672432 
L 246.038438 -37.72638 
L 245.005225 -37.773927 
L 243.972012 -37.814449 
L 242.938799 -37.847589 
L 241.905586 -37.873286 
L 240.872373 -37.891787 
L 239.83916 -37.903647 
L 238.805947 -37.909711 
L 237.772733 -37.911077 
L 236.73952 -37.909055 
L 235.706307 -37.9051 
L 234.673094 -37.900755 
L 233.639881 -37.897576 
L 232.606668 -37.897065 
L 231.573455 -37.90061 
L 230.540242 -37.909423 
L 229.507029 -37.924508 
L 228.473815 -37.946624 
L 227.440602 -37.976274 
L 226.407389 -38.013708 
L 225.374176 -38.058936 
L 224.340963 -38.111753 
L 223.30775 -38.171772 
L 222.274537 -38.238464 
L 221.241324 -38.311197 
L 220.208111 -38.389272 
L 219.174897 -38.471961 
L 218.141684 -38.558536 
L 217.108471 -38.648293 
L 216.075258 -38.74058 
L 215.042045 -38.83482 
L 214.008832 -38.930541 
L 212.975619 -39.027416 
L 211.942406 -39.125318 
L 210.909193 -39.224394 
L 209.875979 -39.325167 
L 208.842766 -39.42865 
L 207.809553 -39.536503 
L 206.77634 -39.651197 
L 205.743127 -39.776202 
L 204.709914 -39.916177 
L 203.676701 -40.077159 
L 202.643488 -40.266724 
L 201.610275 -40.494121 
L 200.577061 -40.770337 
L 199.543848 -41.108092 
L 198.510635 -41.521745 
L 197.477422 -42.027076 
L 196.444209 -42.640957 
L 195.410996 -43.380886 
L 194.377783 -44.264388 
L 193.34457 -45.308292 
L 192.311357 -46.527898 
L 191.278143 -47.936053 
L 190.24493 -49.542187 
L 189.211717 -51.351328 
L 188.178504 -53.363172 
L 187.145291 -55.571245 
L 186.112078 -57.962233 
L 185.078865 -60.515525 
L 184.045652 -63.203027 
L 183.012438 -65.9893 
L 181.979225 -68.832037 
L 180.946012 -71.682898 
L 179.912799 -74.488706 
L 178.879586 -77.192952 
L 177.846373 -79.737579 
L 176.81316 -82.064958 
L 175.779947 -84.119977 
L 174.746734 -85.852123 
L 173.71352 -87.217477 
L 172.680307 -88.180484 
L 171.647094 -88.71542 
L 170.613881 -88.807469 
L 169.580668 -88.453339 
L 168.547455 -87.661396 
L 167.514242 -86.451295 
L 166.481029 -84.853149 
L 165.447816 -82.90627 
L 164.414602 -80.657568 
L 163.381389 -78.159702 
L 162.348176 -75.469084 
L 161.314963 -72.643852 
L 160.28175 -69.741917 
L 159.248537 -66.819176 
L 158.215324 -63.927992 
L 157.182111 -61.115969 
L 156.148898 -58.425107 
L 155.115684 -55.8913 
L 154.082471 -53.544226 
L 153.049258 -51.407549 
L 152.016045 -49.499438 
L 150.982832 -47.833303 
L 149.949619 -46.418719 
L 148.916406 -45.262442 
L 147.883193 -44.369468 
L 146.84998 -43.744047 
L 145.816766 -43.390606 
L 144.783553 -43.314531 
L 143.75034 -43.522743 
L 142.717127 -44.024054 
L 141.683914 -44.829276 
L 140.650701 -45.951061 
L 139.617488 -47.403491 
L 138.584275 -49.201413 
L 137.551062 -51.359554 
L 136.517848 -53.891444 
L 135.484635 -56.8082 
L 134.451422 -60.117225 
L 133.418209 -63.82088 
L 132.384996 -67.9152 
L 131.351783 -72.388726 
L 130.31857 -77.221525 
L 129.285357 -82.384445 
L 128.252144 -87.838688 
L 127.21893 -93.535716 
L 126.185717 -99.417534 
L 125.152504 -105.417354 
L 124.119291 -111.46063 
L 123.086078 -117.466443 
L 122.052865 -123.349185 
L 121.019652 -129.020493 
L 119.986439 -134.391352 
L 118.953226 -139.374308 
L 117.920012 -143.885694 
L 116.886799 -147.847809 
L 115.853586 -151.19096 
L 114.820373 -153.855318 
L 113.78716 -155.792508 
L 112.753947 -156.966912 
L 111.720734 -157.356622 
L 110.687521 -156.954037 
L 109.654307 -155.766072 
L 108.621094 -153.813988 
L 107.587881 -151.132829 
L 106.554668 -147.770503 
L 105.521455 -143.786509 
L 104.488242 -139.250361 
L 103.455029 -134.239745 
L 102.421816 -128.838479 
L 101.388603 -123.13432 
L 100.355389 -117.216706 
L 99.322176 -111.174512 
L 98.288963 -105.09388 
L 97.25575 -99.056224 
L 96.222537 -93.136458 
L 95.189324 -87.401518 
L 94.156111 -81.909221 
L 93.122898 -76.707485 
L 92.089685 -71.833929 
L 91.056471 -67.315839 
L 90.023258 -63.170477 
L 88.990045 -59.405692 
L 87.956832 -56.020788 
L 86.923619 -53.007575 
L 85.890406 -50.351559 
L 84.857193 -48.033188 
L 83.82398 -46.029106 
L 82.790767 -44.313362 
L 81.757553 -42.858522 
L 80.72434 -41.63666 
L 79.691127 -40.620202 
L 78.657914 -39.782613 
L 77.624701 -39.098921 
L 76.591488 -38.546097 
L 75.558275 -38.10328 
L 74.525062 -37.751898 
L 73.491849 -37.475674 
L 72.458635 -37.260554 
L 71.425422 -37.09458 
L 70.392209 -36.967712 
L 69.358996 -36.871635 
L 68.325783 -36.799548 
z
" style="stroke: #1f77b4"/>
    </defs>
    <g clip-path="url(#pb63902fe65)">
     <use xlink:href="#m27febd1ec5" x="0" y="213.426563" style="fill: #1f77b4; fill-opacity: 0.25; stroke: #1f77b4"/>
    </g>
   </g>
   <g id="patch_3">
    <path d="M 58.045313 176.81875 
L 58.045313 50.0325 
" style="fill: none; stroke: #cccccc; stroke-width: 0.8; stroke-linejoin: miter; stroke-linecap: square"/>
   </g>
   <g id="patch_4">
    <path d="M 284.215663 176.81875 
L 284.215663 50.0325 
" style="fill: none; stroke: #cccccc; stroke-width: 0.8; stroke-linejoin: miter; stroke-linecap: square"/>
   </g>
   <g id="patch_5">
    <path d="M 58.045313 176.81875 
L 284.215663 176.81875 
" style="fill: none; stroke: #cccccc; stroke-width: 0.8; stroke-linejoin: miter; stroke-linecap: square"/>
   </g>
   <g id="patch_6">
    <path d="M 58.045313 50.0325 
L 284.215663 50.0325 
" style="fill: none; stroke: #cccccc; stroke-width: 0.8; stroke-linejoin: miter; stroke-linecap: square"/>
   </g>
   <g id="text_13">
    <!-- Latency dist -->
    <g style="fill: #262626" transform="translate(139.113925 44.0325) scale(0.12 -0.12)">
     <defs>
      <path id="ArialMT-4c" d="M 469 0 
L 469 4581 
L 1075 4581 
L 1075 541 
L 3331 541 
L 3331 0 
L 469 0 
z
" transform="scale(0.015625)"/>
      <path id="ArialMT-20" transform="scale(0.015625)"/>
      <path id="ArialMT-64" d="M 2575 0 
L 2575 419 
Q 2259 -75 1647 -75 
Q 1250 -75 917 144 
Q 584 363 401 755 
Q 219 1147 219 1656 
Q 219 2153 384 2558 
Q 550 2963 881 3178 
Q 1213 3394 1622 3394 
Q 1922 3394 2156 3267 
Q 2391 3141 2538 2938 
L 2538 4581 
L 3097 4581 
L 3097 0 
L 2575 0 
z
M 797 1656 
Q 797 1019 1065 703 
Q 1334 388 1700 388 
Q 2069 388 2326 689 
Q 2584 991 2584 1609 
Q 2584 2291 2321 2609 
Q 2059 2928 1675 2928 
Q 1300 2928 1048 2622 
Q 797 2316 797 1656 
z
" transform="scale(0.015625)"/>
     </defs>
     <use xlink:href="#ArialMT-4c"/>
     <use xlink:href="#ArialMT-61" transform="translate(55.615234 0)"/>
     <use xlink:href="#ArialMT-74" transform="translate(111.230469 0)"/>
     <use xlink:href="#ArialMT-65" transform="translate(139.013672 0)"/>
     <use xlink:href="#ArialMT-6e" transform="translate(194.628906 0)"/>
     <use xlink:href="#ArialMT-63" transform="translate(250.244141 0)"/>
     <use xlink:href="#ArialMT-79" transform="translate(300.244141 0)"/>
     <use xlink:href="#ArialMT-20" transform="translate(350.244141 0)"/>
     <use xlink:href="#ArialMT-64" transform="translate(378.027344 0)"/>
     <use xlink:href="#ArialMT-69" transform="translate(433.642578 0)"/>
     <use xlink:href="#ArialMT-73" transform="translate(455.859375 0)"/>
     <use xlink:href="#ArialMT-74" transform="translate(505.859375 0)"/>
    </g>
   </g>
  </g>
  <g id="axes_2">
   <g id="patch_7">
    <path d="M 343.065137 176.81875 
L 569.235488 176.81875 
L 569.235488 50.0325 
L 343.065137 50.0325 
z
" style="fill: #ffffff"/>
   </g>
   <g id="matplotlib.axis_3">
    <g id="xtick_5">
     <g id="line2d_11">
      <path d="M 372.245174 176.81875 
L 372.245174 50.0325 
" clip-path="url(#p4dabc405ab)" style="fill: none; stroke: #cccccc; stroke-width: 0.8; stroke-linecap: round"/>
     </g>
     <g id="text_14">
      <!-- 0 -->
      <g style="fill: #262626" transform="translate(369.464706 190.976562) scale(0.1 -0.1)">
       <use xlink:href="#ArialMT-30"/>
      </g>
     </g>
    </g>
    <g id="xtick_6">
     <g id="line2d_12">
      <path d="M 410.505437 176.81875 
L 410.505437 50.0325 
" clip-path="url(#p4dabc405ab)" style="fill: none; stroke: #cccccc; stroke-width: 0.8; stroke-linecap: round"/>
     </g>
     <g id="text_15">
      <!-- 20 -->
      <g style="fill: #262626" transform="translate(404.944499 190.976562) scale(0.1 -0.1)">
       <use xlink:href="#ArialMT-32"/>
       <use xlink:href="#ArialMT-30" transform="translate(55.615234 0)"/>
      </g>
     </g>
    </g>
    <g id="xtick_7">
     <g id="line2d_13">
      <path d="M 448.765699 176.81875 
L 448.765699 50.0325 
" clip-path="url(#p4dabc405ab)" style="fill: none; stroke: #cccccc; stroke-width: 0.8; stroke-linecap: round"/>
     </g>
     <g id="text_16">
      <!-- 40 -->
      <g style="fill: #262626" transform="translate(443.204762 190.976562) scale(0.1 -0.1)">
       <use xlink:href="#ArialMT-34"/>
       <use xlink:href="#ArialMT-30" transform="translate(55.615234 0)"/>
      </g>
     </g>
    </g>
    <g id="xtick_8">
     <g id="line2d_14">
      <path d="M 487.025961 176.81875 
L 487.025961 50.0325 
" clip-path="url(#p4dabc405ab)" style="fill: none; stroke: #cccccc; stroke-width: 0.8; stroke-linecap: round"/>
     </g>
     <g id="text_17">
      <!-- 60 -->
      <g style="fill: #262626" transform="translate(481.465024 190.976562) scale(0.1 -0.1)">
       <defs>
        <path id="ArialMT-36" d="M 3184 3459 
L 2625 3416 
Q 2550 3747 2413 3897 
Q 2184 4138 1850 4138 
Q 1581 4138 1378 3988 
Q 1113 3794 959 3422 
Q 806 3050 800 2363 
Q 1003 2672 1297 2822 
Q 1591 2972 1913 2972 
Q 2475 2972 2870 2558 
Q 3266 2144 3266 1488 
Q 3266 1056 3080 686 
Q 2894 316 2569 119 
Q 2244 -78 1831 -78 
Q 1128 -78 684 439 
Q 241 956 241 2144 
Q 241 3472 731 4075 
Q 1159 4600 1884 4600 
Q 2425 4600 2770 4297 
Q 3116 3994 3184 3459 
z
M 888 1484 
Q 888 1194 1011 928 
Q 1134 663 1356 523 
Q 1578 384 1822 384 
Q 2178 384 2434 671 
Q 2691 959 2691 1453 
Q 2691 1928 2437 2201 
Q 2184 2475 1800 2475 
Q 1419 2475 1153 2201 
Q 888 1928 888 1484 
z
" transform="scale(0.015625)"/>
       </defs>
       <use xlink:href="#ArialMT-36"/>
       <use xlink:href="#ArialMT-30" transform="translate(55.615234 0)"/>
      </g>
     </g>
    </g>
    <g id="xtick_9">
     <g id="line2d_15">
      <path d="M 525.286224 176.81875 
L 525.286224 50.0325 
" clip-path="url(#p4dabc405ab)" style="fill: none; stroke: #cccccc; stroke-width: 0.8; stroke-linecap: round"/>
     </g>
     <g id="text_18">
      <!-- 80 -->
      <g style="fill: #262626" transform="translate(519.725286 190.976562) scale(0.1 -0.1)">
       <defs>
        <path id="ArialMT-38" d="M 1131 2484 
Q 781 2613 612 2850 
Q 444 3088 444 3419 
Q 444 3919 803 4259 
Q 1163 4600 1759 4600 
Q 2359 4600 2725 4251 
Q 3091 3903 3091 3403 
Q 3091 3084 2923 2848 
Q 2756 2613 2416 2484 
Q 2838 2347 3058 2040 
Q 3278 1734 3278 1309 
Q 3278 722 2862 322 
Q 2447 -78 1769 -78 
Q 1091 -78 675 323 
Q 259 725 259 1325 
Q 259 1772 486 2073 
Q 713 2375 1131 2484 
z
M 1019 3438 
Q 1019 3113 1228 2906 
Q 1438 2700 1772 2700 
Q 2097 2700 2305 2904 
Q 2513 3109 2513 3406 
Q 2513 3716 2298 3927 
Q 2084 4138 1766 4138 
Q 1444 4138 1231 3931 
Q 1019 3725 1019 3438 
z
M 838 1322 
Q 838 1081 952 856 
Q 1066 631 1291 507 
Q 1516 384 1775 384 
Q 2178 384 2440 643 
Q 2703 903 2703 1303 
Q 2703 1709 2433 1975 
Q 2163 2241 1756 2241 
Q 1359 2241 1098 1978 
Q 838 1716 838 1322 
z
" transform="scale(0.015625)"/>
       </defs>
       <use xlink:href="#ArialMT-38"/>
       <use xlink:href="#ArialMT-30" transform="translate(55.615234 0)"/>
      </g>
     </g>
    </g>
    <g id="xtick_10">
     <g id="line2d_16">
      <path d="M 563.546486 176.81875 
L 563.546486 50.0325 
" clip-path="url(#p4dabc405ab)" style="fill: none; stroke: #cccccc; stroke-width: 0.8; stroke-linecap: round"/>
     </g>
     <g id="text_19">
      <!-- 100 -->
      <g style="fill: #262626" transform="translate(555.20508 190.976562) scale(0.1 -0.1)">
       <use xlink:href="#ArialMT-31"/>
       <use xlink:href="#ArialMT-30" transform="translate(55.615234 0)"/>
       <use xlink:href="#ArialMT-30" transform="translate(111.230469 0)"/>
      </g>
     </g>
    </g>
    <g id="text_20">
     <!-- throughput_rps -->
     <g style="fill: #262626" transform="translate(422.518281 204.121875) scale(0.1 -0.1)">
      <defs>
       <path id="ArialMT-68" d="M 422 0 
L 422 4581 
L 984 4581 
L 984 2938 
Q 1378 3394 1978 3394 
Q 2347 3394 2619 3248 
Q 2891 3103 3008 2847 
Q 3125 2591 3125 2103 
L 3125 0 
L 2563 0 
L 2563 2103 
Q 2563 2525 2380 2717 
Q 2197 2909 1863 2909 
Q 1613 2909 1392 2779 
Q 1172 2650 1078 2428 
Q 984 2206 984 1816 
L 984 0 
L 422 0 
z
" transform="scale(0.015625)"/>
       <path id="ArialMT-72" d="M 416 0 
L 416 3319 
L 922 3319 
L 922 2816 
Q 1116 3169 1280 3281 
Q 1444 3394 1641 3394 
Q 1925 3394 2219 3213 
L 2025 2691 
Q 1819 2813 1613 2813 
Q 1428 2813 1281 2702 
Q 1134 2591 1072 2394 
Q 978 2094 978 1738 
L 978 0 
L 416 0 
z
" transform="scale(0.015625)"/>
       <path id="ArialMT-6f" d="M 213 1659 
Q 213 2581 725 3025 
Q 1153 3394 1769 3394 
Q 2453 3394 2887 2945 
Q 3322 2497 3322 1706 
Q 3322 1066 3130 698 
Q 2938 331 2570 128 
Q 2203 -75 1769 -75 
Q 1072 -75 642 372 
Q 213 819 213 1659 
z
M 791 1659 
Q 791 1022 1069 705 
Q 1347 388 1769 388 
Q 2188 388 2466 706 
Q 2744 1025 2744 1678 
Q 2744 2294 2464 2611 
Q 2184 2928 1769 2928 
Q 1347 2928 1069 2612 
Q 791 2297 791 1659 
z
" transform="scale(0.015625)"/>
       <path id="ArialMT-75" d="M 2597 0 
L 2597 488 
Q 2209 -75 1544 -75 
Q 1250 -75 995 37 
Q 741 150 617 320 
Q 494 491 444 738 
Q 409 903 409 1263 
L 409 3319 
L 972 3319 
L 972 1478 
Q 972 1038 1006 884 
Q 1059 663 1231 536 
Q 1403 409 1656 409 
Q 1909 409 2131 539 
Q 2353 669 2445 892 
Q 2538 1116 2538 1541 
L 2538 3319 
L 3100 3319 
L 3100 0 
L 2597 0 
z
" transform="scale(0.015625)"/>
       <path id="ArialMT-67" d="M 319 -275 
L 866 -356 
Q 900 -609 1056 -725 
Q 1266 -881 1628 -881 
Q 2019 -881 2231 -725 
Q 2444 -569 2519 -288 
Q 2563 -116 2559 434 
Q 2191 0 1641 0 
Q 956 0 581 494 
Q 206 988 206 1678 
Q 206 2153 378 2554 
Q 550 2956 876 3175 
Q 1203 3394 1644 3394 
Q 2231 3394 2613 2919 
L 2613 3319 
L 3131 3319 
L 3131 450 
Q 3131 -325 2973 -648 
Q 2816 -972 2473 -1159 
Q 2131 -1347 1631 -1347 
Q 1038 -1347 672 -1080 
Q 306 -813 319 -275 
z
M 784 1719 
Q 784 1066 1043 766 
Q 1303 466 1694 466 
Q 2081 466 2343 764 
Q 2606 1063 2606 1700 
Q 2606 2309 2336 2618 
Q 2066 2928 1684 2928 
Q 1309 2928 1046 2623 
Q 784 2319 784 1719 
z
" transform="scale(0.015625)"/>
       <path id="ArialMT-70" d="M 422 -1272 
L 422 3319 
L 934 3319 
L 934 2888 
Q 1116 3141 1344 3267 
Q 1572 3394 1897 3394 
Q 2322 3394 2647 3175 
Q 2972 2956 3137 2557 
Q 3303 2159 3303 1684 
Q 3303 1175 3120 767 
Q 2938 359 2589 142 
Q 2241 -75 1856 -75 
Q 1575 -75 1351 44 
Q 1128 163 984 344 
L 984 -1272 
L 422 -1272 
z
M 931 1641 
Q 931 1000 1190 694 
Q 1450 388 1819 388 
Q 2194 388 2461 705 
Q 2728 1022 2728 1688 
Q 2728 2322 2467 2637 
Q 2206 2953 1844 2953 
Q 1484 2953 1207 2617 
Q 931 2281 931 1641 
z
" transform="scale(0.015625)"/>
      </defs>
      <use xlink:href="#ArialMT-74"/>
      <use xlink:href="#ArialMT-68" transform="translate(27.783203 0)"/>
      <use xlink:href="#ArialMT-72" transform="translate(83.398438 0)"/>
      <use xlink:href="#ArialMT-6f" transform="translate(116.699219 0)"/>
      <use xlink:href="#ArialMT-75" transform="translate(172.314453 0)"/>
      <use xlink:href="#ArialMT-67" transform="translate(227.929688 0)"/>
      <use xlink:href="#ArialMT-68" transform="translate(283.544922 0)"/>
      <use xlink:href="#ArialMT-70" transform="translate(339.160156 0)"/>
      <use xlink:href="#ArialMT-75" transform="translate(394.775391 0)"/>
      <use xlink:href="#ArialMT-74" transform="translate(450.390625 0)"/>
      <use xlink:href="#ArialMT-5f" transform="translate(478.173828 0)"/>
      <use xlink:href="#ArialMT-72" transform="translate(533.789062 0)"/>
      <use xlink:href="#ArialMT-70" transform="translate(567.089844 0)"/>
      <use xlink:href="#ArialMT-73" transform="translate(622.705078 0)"/>
     </g>
    </g>
   </g>
   <g id="matplotlib.axis_4">
    <g id="ytick_7">
     <g id="line2d_17">
      <path d="M 343.065137 176.81875 
L 569.235488 176.81875 
" clip-path="url(#p4dabc405ab)" style="fill: none; stroke: #cccccc; stroke-width: 0.8; stroke-linecap: round"/>
     </g>
     <g id="text_21">
      <!-- 0.000 -->
      <g style="fill: #262626" transform="translate(311.043262 180.397656) scale(0.1 -0.1)">
       <use xlink:href="#ArialMT-30"/>
       <use xlink:href="#ArialMT-2e" transform="translate(55.615234 0)"/>
       <use xlink:href="#ArialMT-30" transform="translate(83.398438 0)"/>
       <use xlink:href="#ArialMT-30" transform="translate(139.013672 0)"/>
       <use xlink:href="#ArialMT-30" transform="translate(194.628906 0)"/>
      </g>
     </g>
    </g>
    <g id="ytick_8">
     <g id="line2d_18">
      <path d="M 343.065137 149.863932 
L 569.235488 149.863932 
" clip-path="url(#p4dabc405ab)" style="fill: none; stroke: #cccccc; stroke-width: 0.8; stroke-linecap: round"/>
     </g>
     <g id="text_22">
      <!-- 0.005 -->
      <g style="fill: #262626" transform="translate(311.043262 153.442838) scale(0.1 -0.1)">
       <use xlink:href="#ArialMT-30"/>
       <use xlink:href="#ArialMT-2e" transform="translate(55.615234 0)"/>
       <use xlink:href="#ArialMT-30" transform="translate(83.398438 0)"/>
       <use xlink:href="#ArialMT-30" transform="translate(139.013672 0)"/>
       <use xlink:href="#ArialMT-35" transform="translate(194.628906 0)"/>
      </g>
     </g>
    </g>
    <g id="ytick_9">
     <g id="line2d_19">
      <path d="M 343.065137 122.909114 
L 569.235488 122.909114 
" clip-path="url(#p4dabc405ab)" style="fill: none; stroke: #cccccc; stroke-width: 0.8; stroke-linecap: round"/>
     </g>
     <g id="text_23">
      <!-- 0.010 -->
      <g style="fill: #262626" transform="translate(311.043262 126.48802) scale(0.1 -0.1)">
       <use xlink:href="#ArialMT-30"/>
       <use xlink:href="#ArialMT-2e" transform="translate(55.615234 0)"/>
       <use xlink:href="#ArialMT-30" transform="translate(83.398438 0)"/>
       <use xlink:href="#ArialMT-31" transform="translate(139.013672 0)"/>
       <use xlink:href="#ArialMT-30" transform="translate(194.628906 0)"/>
      </g>
     </g>
    </g>
    <g id="ytick_10">
     <g id="line2d_20">
      <path d="M 343.065137 95.954296 
L 569.235488 95.954296 
" clip-path="url(#p4dabc405ab)" style="fill: none; stroke: #cccccc; stroke-width: 0.8; stroke-linecap: round"/>
     </g>
     <g id="text_24">
      <!-- 0.015 -->
      <g style="fill: #262626" transform="translate(311.043262 99.533202) scale(0.1 -0.1)">
       <use xlink:href="#ArialMT-30"/>
       <use xlink:href="#ArialMT-2e" transform="translate(55.615234 0)"/>
       <use xlink:href="#ArialMT-30" transform="translate(83.398438 0)"/>
       <use xlink:href="#ArialMT-31" transform="translate(139.013672 0)"/>
       <use xlink:href="#ArialMT-35" transform="translate(194.628906 0)"/>
      </g>
     </g>
    </g>
    <g id="ytick_11">
     <g id="line2d_21">
      <path d="M 343.065137 68.999478 
L 569.235488 68.999478 
" clip-path="url(#p4dabc405ab)" style="fill: none; stroke: #cccccc; stroke-width: 0.8; stroke-linecap: round"/>
     </g>
     <g id="text_25">
      <!-- 0.020 -->
      <g style="fill: #262626" transform="translate(311.043262 72.578384) scale(0.1 -0.1)">
       <use xlink:href="#ArialMT-30"/>
       <use xlink:href="#ArialMT-2e" transform="translate(55.615234 0)"/>
       <use xlink:href="#ArialMT-30" transform="translate(83.398438 0)"/>
       <use xlink:href="#ArialMT-32" transform="translate(139.013672 0)"/>
       <use xlink:href="#ArialMT-30" transform="translate(194.628906 0)"/>
      </g>
     </g>
    </g>
    <g id="text_26">
     <!-- Density -->
     <g style="fill: #262626" transform="translate(304.938575 130.0975) rotate(-90) scale(0.1 -0.1)">
      <use xlink:href="#ArialMT-44"/>
      <use xlink:href="#ArialMT-65" transform="translate(72.216797 0)"/>
      <use xlink:href="#ArialMT-6e" transform="translate(127.832031 0)"/>
      <use xlink:href="#ArialMT-73" transform="translate(183.447266 0)"/>
      <use xlink:href="#ArialMT-69" transform="translate(233.447266 0)"/>
      <use xlink:href="#ArialMT-74" transform="translate(255.664062 0)"/>
      <use xlink:href="#ArialMT-79" transform="translate(283.447266 0)"/>
     </g>
    </g>
   </g>
   <g id="FillBetweenPolyCollection_2">
    <defs>
     <path id="m2674cbb762" d="M 353.345608 -36.677 
L 353.345608 -36.607813 
L 354.378821 -36.607813 
L 355.412034 -36.607813 
L 356.445247 -36.607813 
L 357.47846 -36.607813 
L 358.511673 -36.607813 
L 359.544886 -36.607813 
L 360.5781 -36.607813 
L 361.611313 -36.607813 
L 362.644526 -36.607813 
L 363.677739 -36.607813 
L 364.710952 -36.607813 
L 365.744165 -36.607813 
L 366.777378 -36.607813 
L 367.810591 -36.607813 
L 368.843804 -36.607813 
L 369.877018 -36.607813 
L 370.910231 -36.607813 
L 371.943444 -36.607813 
L 372.976657 -36.607813 
L 374.00987 -36.607813 
L 375.043083 -36.607813 
L 376.076296 -36.607813 
L 377.109509 -36.607813 
L 378.142722 -36.607813 
L 379.175936 -36.607813 
L 380.209149 -36.607813 
L 381.242362 -36.607813 
L 382.275575 -36.607813 
L 383.308788 -36.607813 
L 384.342001 -36.607813 
L 385.375214 -36.607813 
L 386.408427 -36.607813 
L 387.44164 -36.607813 
L 388.474854 -36.607813 
L 389.508067 -36.607813 
L 390.54128 -36.607813 
L 391.574493 -36.607813 
L 392.607706 -36.607813 
L 393.640919 -36.607813 
L 394.674132 -36.607813 
L 395.707345 -36.607813 
L 396.740559 -36.607813 
L 397.773772 -36.607813 
L 398.806985 -36.607813 
L 399.840198 -36.607813 
L 400.873411 -36.607813 
L 401.906624 -36.607813 
L 402.939837 -36.607813 
L 403.97305 -36.607813 
L 405.006263 -36.607813 
L 406.039477 -36.607813 
L 407.07269 -36.607813 
L 408.105903 -36.607813 
L 409.139116 -36.607813 
L 410.172329 -36.607813 
L 411.205542 -36.607813 
L 412.238755 -36.607813 
L 413.271968 -36.607813 
L 414.305181 -36.607813 
L 415.338395 -36.607813 
L 416.371608 -36.607813 
L 417.404821 -36.607813 
L 418.438034 -36.607813 
L 419.471247 -36.607813 
L 420.50446 -36.607813 
L 421.537673 -36.607813 
L 422.570886 -36.607813 
L 423.604099 -36.607813 
L 424.637313 -36.607813 
L 425.670526 -36.607813 
L 426.703739 -36.607813 
L 427.736952 -36.607813 
L 428.770165 -36.607813 
L 429.803378 -36.607813 
L 430.836591 -36.607813 
L 431.869804 -36.607813 
L 432.903017 -36.607813 
L 433.936231 -36.607813 
L 434.969444 -36.607813 
L 436.002657 -36.607813 
L 437.03587 -36.607813 
L 438.069083 -36.607813 
L 439.102296 -36.607813 
L 440.135509 -36.607813 
L 441.168722 -36.607813 
L 442.201935 -36.607813 
L 443.235149 -36.607813 
L 444.268362 -36.607813 
L 445.301575 -36.607813 
L 446.334788 -36.607813 
L 447.368001 -36.607813 
L 448.401214 -36.607813 
L 449.434427 -36.607813 
L 450.46764 -36.607813 
L 451.500853 -36.607813 
L 452.534067 -36.607813 
L 453.56728 -36.607813 
L 454.600493 -36.607813 
L 455.633706 -36.607813 
L 456.666919 -36.607813 
L 457.700132 -36.607813 
L 458.733345 -36.607813 
L 459.766558 -36.607813 
L 460.799772 -36.607813 
L 461.832985 -36.607813 
L 462.866198 -36.607813 
L 463.899411 -36.607813 
L 464.932624 -36.607813 
L 465.965837 -36.607813 
L 466.99905 -36.607813 
L 468.032263 -36.607813 
L 469.065476 -36.607813 
L 470.09869 -36.607813 
L 471.131903 -36.607813 
L 472.165116 -36.607813 
L 473.198329 -36.607813 
L 474.231542 -36.607813 
L 475.264755 -36.607813 
L 476.297968 -36.607813 
L 477.331181 -36.607813 
L 478.364394 -36.607813 
L 479.397608 -36.607813 
L 480.430821 -36.607813 
L 481.464034 -36.607813 
L 482.497247 -36.607813 
L 483.53046 -36.607813 
L 484.563673 -36.607813 
L 485.596886 -36.607813 
L 486.630099 -36.607813 
L 487.663312 -36.607813 
L 488.696526 -36.607813 
L 489.729739 -36.607813 
L 490.762952 -36.607813 
L 491.796165 -36.607813 
L 492.829378 -36.607813 
L 493.862591 -36.607813 
L 494.895804 -36.607813 
L 495.929017 -36.607813 
L 496.96223 -36.607813 
L 497.995444 -36.607813 
L 499.028657 -36.607813 
L 500.06187 -36.607813 
L 501.095083 -36.607813 
L 502.128296 -36.607813 
L 503.161509 -36.607813 
L 504.194722 -36.607813 
L 505.227935 -36.607813 
L 506.261148 -36.607813 
L 507.294362 -36.607813 
L 508.327575 -36.607813 
L 509.360788 -36.607813 
L 510.394001 -36.607813 
L 511.427214 -36.607813 
L 512.460427 -36.607813 
L 513.49364 -36.607813 
L 514.526853 -36.607813 
L 515.560066 -36.607813 
L 516.59328 -36.607813 
L 517.626493 -36.607813 
L 518.659706 -36.607813 
L 519.692919 -36.607813 
L 520.726132 -36.607813 
L 521.759345 -36.607813 
L 522.792558 -36.607813 
L 523.825771 -36.607813 
L 524.858985 -36.607813 
L 525.892198 -36.607813 
L 526.925411 -36.607813 
L 527.958624 -36.607813 
L 528.991837 -36.607813 
L 530.02505 -36.607813 
L 531.058263 -36.607813 
L 532.091476 -36.607813 
L 533.124689 -36.607813 
L 534.157903 -36.607813 
L 535.191116 -36.607813 
L 536.224329 -36.607813 
L 537.257542 -36.607813 
L 538.290755 -36.607813 
L 539.323968 -36.607813 
L 540.357181 -36.607813 
L 541.390394 -36.607813 
L 542.423607 -36.607813 
L 543.456821 -36.607813 
L 544.490034 -36.607813 
L 545.523247 -36.607813 
L 546.55646 -36.607813 
L 547.589673 -36.607813 
L 548.622886 -36.607813 
L 549.656099 -36.607813 
L 550.689312 -36.607813 
L 551.722525 -36.607813 
L 552.755739 -36.607813 
L 553.788952 -36.607813 
L 554.822165 -36.607813 
L 555.855378 -36.607813 
L 556.888591 -36.607813 
L 557.921804 -36.607813 
L 558.955017 -36.607813 
L 558.955017 -36.797717 
L 558.955017 -36.797717 
L 557.921804 -36.85007 
L 556.888591 -36.915361 
L 555.855378 -36.99636 
L 554.822165 -37.096322 
L 553.788952 -37.219035 
L 552.755739 -37.368885 
L 551.722525 -37.550904 
L 550.689312 -37.770823 
L 549.656099 -38.035119 
L 548.622886 -38.351047 
L 547.589673 -38.726664 
L 546.55646 -39.170834 
L 545.523247 -39.69322 
L 544.490034 -40.304243 
L 543.456821 -41.01502 
L 542.423607 -41.837269 
L 541.390394 -42.783187 
L 540.357181 -43.865279 
L 539.323968 -45.096166 
L 538.290755 -46.488343 
L 537.257542 -48.053912 
L 536.224329 -49.80427 
L 535.191116 -51.749781 
L 534.157903 -53.899416 
L 533.124689 -56.260388 
L 532.091476 -58.837774 
L 531.058263 -61.63415 
L 530.02505 -64.649247 
L 528.991837 -67.879641 
L 527.958624 -71.318488 
L 526.925411 -74.955331 
L 525.892198 -78.775979 
L 524.858985 -82.762475 
L 523.825771 -86.893171 
L 522.792558 -91.142904 
L 521.759345 -95.483297 
L 520.726132 -99.883155 
L 519.692919 -104.308994 
L 518.659706 -108.725649 
L 517.626493 -113.096988 
L 516.59328 -117.38669 
L 515.560066 -121.559064 
L 514.526853 -125.579906 
L 513.49364 -129.417341 
L 512.460427 -133.042631 
L 511.427214 -136.43092 
L 510.394001 -139.56188 
L 509.360788 -142.420237 
L 508.327575 -144.996148 
L 507.294362 -147.285406 
L 506.261148 -149.289472 
L 505.227935 -151.01531 
L 504.194722 -152.475037 
L 503.161509 -153.685392 
L 502.128296 -154.66704 
L 501.095083 -155.443725 
L 500.06187 -156.041323 
L 499.028657 -156.486801 
L 497.995444 -156.807143 
L 496.96223 -157.028272 
L 495.929017 -157.174015 
L 494.895804 -157.265152 
L 493.862591 -157.318582 
L 492.829378 -157.346644 
L 491.796165 -157.356622 
L 490.762952 -157.350451 
L 489.729739 -157.324635 
L 488.696526 -157.270382 
L 487.663312 -157.173957 
L 486.630099 -157.017223 
L 485.596886 -156.778368 
L 484.563673 -156.432773 
L 483.53046 -155.953989 
L 482.497247 -155.314796 
L 481.464034 -154.488282 
L 480.430821 -153.448925 
L 479.397608 -152.173611 
L 478.364394 -150.642573 
L 477.331181 -148.840205 
L 476.297968 -146.755725 
L 475.264755 -144.383667 
L 474.231542 -141.724196 
L 473.198329 -138.783227 
L 472.165116 -135.572356 
L 471.131903 -132.10862 
L 470.09869 -128.414086 
L 469.065476 -124.515307 
L 468.032263 -120.442653 
L 466.99905 -116.229568 
L 465.965837 -111.911758 
L 464.932624 -107.526366 
L 463.899411 -103.111145 
L 462.866198 -98.703672 
L 461.832985 -94.340609 
L 460.799772 -90.05706 
L 459.766558 -85.886011 
L 458.733345 -81.857881 
L 457.700132 -78.000197 
L 456.666919 -74.337369 
L 455.633706 -70.890592 
L 454.600493 -67.677845 
L 453.56728 -64.713989 
L 452.534067 -62.010944 
L 451.500853 -59.577931 
L 450.46764 -57.421759 
L 449.434427 -55.547141 
L 448.401214 -53.957025 
L 447.368001 -52.652907 
L 446.334788 -51.635134 
L 445.301575 -50.903155 
L 444.268362 -50.455733 
L 443.235149 -50.291094 
L 442.201935 -50.407009 
L 441.168722 -50.800807 
L 440.135509 -51.469328 
L 439.102296 -52.408795 
L 438.069083 -53.614642 
L 437.03587 -55.081283 
L 436.002657 -56.801843 
L 434.969444 -58.767863 
L 433.936231 -60.969001 
L 432.903017 -63.39273 
L 431.869804 -66.024067 
L 430.836591 -68.845337 
L 429.803378 -71.835998 
L 428.770165 -74.97253 
L 427.736952 -78.22842 
L 426.703739 -81.574228 
L 425.670526 -84.977759 
L 424.637313 -88.404346 
L 423.604099 -91.817223 
L 422.570886 -95.178007 
L 421.537673 -98.447268 
L 420.50446 -101.585167 
L 419.471247 -104.552165 
L 418.438034 -107.309767 
L 417.404821 -109.821283 
L 416.371608 -112.052583 
L 415.338395 -113.97283 
L 414.305181 -115.555148 
L 413.271968 -116.777222 
L 412.238755 -117.621797 
L 411.205542 -118.077066 
L 410.172329 -118.136929 
L 409.139116 -117.801114 
L 408.105903 -117.075161 
L 407.07269 -115.970261 
L 406.039477 -114.502968 
L 405.006263 -112.694774 
L 403.97305 -110.571589 
L 402.939837 -108.163116 
L 401.906624 -105.502159 
L 400.873411 -102.623885 
L 399.840198 -99.565052 
L 398.806985 -96.363237 
L 397.773772 -93.056086 
L 396.740559 -89.680596 
L 395.707345 -86.272462 
L 394.674132 -82.865492 
L 393.640919 -79.491102 
L 392.607706 -76.177914 
L 391.574493 -72.951442 
L 390.54128 -69.833876 
L 389.508067 -66.843963 
L 388.474854 -63.99698 
L 387.44164 -61.304786 
L 386.408427 -58.775947 
L 385.375214 -56.415925 
L 384.342001 -54.227316 
L 383.308788 -52.210125 
L 382.275575 -50.36207 
L 381.242362 -48.678896 
L 380.209149 -47.1547 
L 379.175936 -45.782245 
L 378.142722 -44.553267 
L 377.109509 -43.458757 
L 376.076296 -42.489226 
L 375.043083 -41.634936 
L 374.00987 -40.886108 
L 372.976657 -40.233094 
L 371.943444 -39.666523 
L 370.910231 -39.177417 
L 369.877018 -38.757279 
L 368.843804 -38.398153 
L 367.810591 -38.092673 
L 366.777378 -37.834076 
L 365.744165 -37.616212 
L 364.710952 -37.433535 
L 363.677739 -37.281084 
L 362.644526 -37.154453 
L 361.611313 -37.049757 
L 360.5781 -36.963597 
L 359.544886 -36.89302 
L 358.511673 -36.835471 
L 357.47846 -36.788761 
L 356.445247 -36.751021 
L 355.412034 -36.720668 
L 354.378821 -36.696367 
L 353.345608 -36.677 
z
" style="stroke: #1f77b4"/>
    </defs>
    <g clip-path="url(#p4dabc405ab)">
     <use xlink:href="#m2674cbb762" x="0" y="213.426563" style="fill: #1f77b4; fill-opacity: 0.25; stroke: #1f77b4"/>
    </g>
   </g>
   <g id="patch_8">
    <path d="M 343.065137 176.81875 
L 343.065137 50.0325 
" style="fill: none; stroke: #cccccc; stroke-width: 0.8; stroke-linejoin: miter; stroke-linecap: square"/>
   </g>
   <g id="patch_9">
    <path d="M 569.235488 176.81875 
L 569.235488 50.0325 
" style="fill: none; stroke: #cccccc; stroke-width: 0.8; stroke-linejoin: miter; stroke-linecap: square"/>
   </g>
   <g id="patch_10">
    <path d="M 343.065137 176.81875 
L 569.235488 176.81875 
" style="fill: none; stroke: #cccccc; stroke-width: 0.8; stroke-linejoin: miter; stroke-linecap: square"/>
   </g>
   <g id="patch_11">
    <path d="M 343.065137 50.0325 
L 569.235488 50.0325 
" style="fill: none; stroke: #cccccc; stroke-width: 0.8; stroke-linejoin: miter; stroke-linecap: square"/>
   </g>
   <g id="text_27">
    <!-- Throughput dist -->
    <g style="fill: #262626" transform="translate(414.461563 44.0325) scale(0.12 -0.12)">
     <defs>
      <path id="ArialMT-54" d="M 1659 0 
L 1659 4041 
L 150 4041 
L 150 4581 
L 3781 4581 
L 3781 4041 
L 2266 4041 
L 2266 0 
L 1659 0 
z
" transform="scale(0.015625)"/>
     </defs>
     <use xlink:href="#ArialMT-54"/>
     <use xlink:href="#ArialMT-68" transform="translate(61.083984 0)"/>
     <use xlink:href="#ArialMT-72" transform="translate(116.699219 0)"/>
     <use xlink:href="#ArialMT-6f" transform="translate(150 0)"/>
     <use xlink:href="#ArialMT-75" transform="translate(205.615234 0)"/>
     <use xlink:href="#ArialMT-67" transform="translate(261.230469 0)"/>
     <use xlink:href="#ArialMT-68" transform="translate(316.845703 0)"/>
     <use xlink:href="#ArialMT-70" transform="translate(372.460938 0)"/>
     <use xlink:href="#ArialMT-75" transform="translate(428.076172 0)"/>
     <use xlink:href="#ArialMT-74" transform="translate(483.691406 0)"/>
     <use xlink:href="#ArialMT-20" transform="translate(511.474609 0)"/>
     <use xlink:href="#ArialMT-64" transform="translate(539.257812 0)"/>
     <use xlink:href="#ArialMT-69" transform="translate(594.873047 0)"/>
     <use xlink:href="#ArialMT-73" transform="translate(617.089844 0)"/>
     <use xlink:href="#ArialMT-74" transform="translate(667.089844 0)"/>
    </g>
   </g>
  </g>
  <g id="axes_3">
   <g id="patch_12">
    <path d="M 628.084962 176.81875 
L 854.255312 176.81875 
L 854.255312 50.0325 
L 628.084962 50.0325 
z
" style="fill: #ffffff"/>
   </g>
   <g id="matplotlib.axis_5">
    <g id="xtick_11">
     <g id="line2d_22">
      <path d="M 666.551009 176.81875 
L 666.551009 50.0325 
" clip-path="url(#p5a0d2eb6d2)" style="fill: none; stroke: #cccccc; stroke-width: 0.8; stroke-linecap: round"/>
     </g>
     <g id="text_28">
      <!-- 0.0 -->
      <g style="fill: #262626" transform="translate(659.601009 190.976562) scale(0.1 -0.1)">
       <use xlink:href="#ArialMT-30"/>
       <use xlink:href="#ArialMT-2e" transform="translate(55.615234 0)"/>
       <use xlink:href="#ArialMT-30" transform="translate(83.398438 0)"/>
      </g>
     </g>
    </g>
    <g id="xtick_12">
     <g id="line2d_23">
      <path d="M 714.180491 176.81875 
L 714.180491 50.0325 
" clip-path="url(#p5a0d2eb6d2)" style="fill: none; stroke: #cccccc; stroke-width: 0.8; stroke-linecap: round"/>
     </g>
     <g id="text_29">
      <!-- 0.2 -->
      <g style="fill: #262626" transform="translate(707.230491 190.976562) scale(0.1 -0.1)">
       <use xlink:href="#ArialMT-30"/>
       <use xlink:href="#ArialMT-2e" transform="translate(55.615234 0)"/>
       <use xlink:href="#ArialMT-32" transform="translate(83.398438 0)"/>
      </g>
     </g>
    </g>
    <g id="xtick_13">
     <g id="line2d_24">
      <path d="M 761.809973 176.81875 
L 761.809973 50.0325 
" clip-path="url(#p5a0d2eb6d2)" style="fill: none; stroke: #cccccc; stroke-width: 0.8; stroke-linecap: round"/>
     </g>
     <g id="text_30">
      <!-- 0.4 -->
      <g style="fill: #262626" transform="translate(754.859973 190.976562) scale(0.1 -0.1)">
       <use xlink:href="#ArialMT-30"/>
       <use xlink:href="#ArialMT-2e" transform="translate(55.615234 0)"/>
       <use xlink:href="#ArialMT-34" transform="translate(83.398438 0)"/>
      </g>
     </g>
    </g>
    <g id="xtick_14">
     <g id="line2d_25">
      <path d="M 809.439455 176.81875 
L 809.439455 50.0325 
" clip-path="url(#p5a0d2eb6d2)" style="fill: none; stroke: #cccccc; stroke-width: 0.8; stroke-linecap: round"/>
     </g>
     <g id="text_31">
      <!-- 0.6 -->
      <g style="fill: #262626" transform="translate(802.489455 190.976562) scale(0.1 -0.1)">
       <use xlink:href="#ArialMT-30"/>
       <use xlink:href="#ArialMT-2e" transform="translate(55.615234 0)"/>
       <use xlink:href="#ArialMT-36" transform="translate(83.398438 0)"/>
      </g>
     </g>
    </g>
    <g id="text_32">
     <!-- error_rate -->
     <g style="fill: #262626" transform="translate(719.219356 204.121875) scale(0.1 -0.1)">
      <use xlink:href="#ArialMT-65"/>
      <use xlink:href="#ArialMT-72" transform="translate(55.615234 0)"/>
      <use xlink:href="#ArialMT-72" transform="translate(88.916016 0)"/>
      <use xlink:href="#ArialMT-6f" transform="translate(122.216797 0)"/>
      <use xlink:href="#ArialMT-72" transform="translate(177.832031 0)"/>
      <use xlink:href="#ArialMT-5f" transform="translate(211.132812 0)"/>
      <use xlink:href="#ArialMT-72" transform="translate(266.748047 0)"/>
      <use xlink:href="#ArialMT-61" transform="translate(300.048828 0)"/>
      <use xlink:href="#ArialMT-74" transform="translate(355.664062 0)"/>
      <use xlink:href="#ArialMT-65" transform="translate(383.447266 0)"/>
     </g>
    </g>
   </g>
   <g id="matplotlib.axis_6">
    <g id="ytick_12">
     <g id="line2d_26">
      <path d="M 628.084962 176.81875 
L 854.255312 176.81875 
" clip-path="url(#p5a0d2eb6d2)" style="fill: none; stroke: #cccccc; stroke-width: 0.8; stroke-linecap: round"/>
     </g>
     <g id="text_33">
      <!-- 0 -->
      <g style="fill: #262626" transform="translate(615.524025 180.397656) scale(0.1 -0.1)">
       <use xlink:href="#ArialMT-30"/>
      </g>
     </g>
    </g>
    <g id="ytick_13">
     <g id="line2d_27">
      <path d="M 628.084962 151.149181 
L 854.255312 151.149181 
" clip-path="url(#p5a0d2eb6d2)" style="fill: none; stroke: #cccccc; stroke-width: 0.8; stroke-linecap: round"/>
     </g>
     <g id="text_34">
      <!-- 2 -->
      <g style="fill: #262626" transform="translate(615.524025 154.728087) scale(0.1 -0.1)">
       <use xlink:href="#ArialMT-32"/>
      </g>
     </g>
    </g>
    <g id="ytick_14">
     <g id="line2d_28">
      <path d="M 628.084962 125.479612 
L 854.255312 125.479612 
" clip-path="url(#p5a0d2eb6d2)" style="fill: none; stroke: #cccccc; stroke-width: 0.8; stroke-linecap: round"/>
     </g>
     <g id="text_35">
      <!-- 4 -->
      <g style="fill: #262626" transform="translate(615.524025 129.058518) scale(0.1 -0.1)">
       <use xlink:href="#ArialMT-34"/>
      </g>
     </g>
    </g>
    <g id="ytick_15">
     <g id="line2d_29">
      <path d="M 628.084962 99.810043 
L 854.255312 99.810043 
" clip-path="url(#p5a0d2eb6d2)" style="fill: none; stroke: #cccccc; stroke-width: 0.8; stroke-linecap: round"/>
     </g>
     <g id="text_36">
      <!-- 6 -->
      <g style="fill: #262626" transform="translate(615.524025 103.38895) scale(0.1 -0.1)">
       <use xlink:href="#ArialMT-36"/>
      </g>
     </g>
    </g>
    <g id="ytick_16">
     <g id="line2d_30">
      <path d="M 628.084962 74.140474 
L 854.255312 74.140474 
" clip-path="url(#p5a0d2eb6d2)" style="fill: none; stroke: #cccccc; stroke-width: 0.8; stroke-linecap: round"/>
     </g>
     <g id="text_37">
      <!-- 8 -->
      <g style="fill: #262626" transform="translate(615.524025 77.719381) scale(0.1 -0.1)">
       <use xlink:href="#ArialMT-38"/>
      </g>
     </g>
    </g>
    <g id="text_38">
     <!-- Density -->
     <g style="fill: #262626" transform="translate(609.419337 130.0975) rotate(-90) scale(0.1 -0.1)">
      <use xlink:href="#ArialMT-44"/>
      <use xlink:href="#ArialMT-65" transform="translate(72.216797 0)"/>
      <use xlink:href="#ArialMT-6e" transform="translate(127.832031 0)"/>
      <use xlink:href="#ArialMT-73" transform="translate(183.447266 0)"/>
      <use xlink:href="#ArialMT-69" transform="translate(233.447266 0)"/>
      <use xlink:href="#ArialMT-74" transform="translate(255.664062 0)"/>
      <use xlink:href="#ArialMT-79" transform="translate(283.447266 0)"/>
     </g>
    </g>
   </g>
   <g id="FillBetweenPolyCollection_3">
    <defs>
     <path id="m9eb3423799" d="M 638.365433 -37.947879 
L 638.365433 -36.607813 
L 639.398646 -36.607813 
L 640.431859 -36.607813 
L 641.465072 -36.607813 
L 642.498285 -36.607813 
L 643.531498 -36.607813 
L 644.564711 -36.607813 
L 645.597924 -36.607813 
L 646.631137 -36.607813 
L 647.664351 -36.607813 
L 648.697564 -36.607813 
L 649.730777 -36.607813 
L 650.76399 -36.607813 
L 651.797203 -36.607813 
L 652.830416 -36.607813 
L 653.863629 -36.607813 
L 654.896842 -36.607813 
L 655.930055 -36.607813 
L 656.963269 -36.607813 
L 657.996482 -36.607813 
L 659.029695 -36.607813 
L 660.062908 -36.607813 
L 661.096121 -36.607813 
L 662.129334 -36.607813 
L 663.162547 -36.607813 
L 664.19576 -36.607813 
L 665.228974 -36.607813 
L 666.262187 -36.607813 
L 667.2954 -36.607813 
L 668.328613 -36.607813 
L 669.361826 -36.607813 
L 670.395039 -36.607813 
L 671.428252 -36.607813 
L 672.461465 -36.607813 
L 673.494678 -36.607813 
L 674.527892 -36.607813 
L 675.561105 -36.607813 
L 676.594318 -36.607813 
L 677.627531 -36.607813 
L 678.660744 -36.607813 
L 679.693957 -36.607813 
L 680.72717 -36.607813 
L 681.760383 -36.607813 
L 682.793596 -36.607813 
L 683.82681 -36.607813 
L 684.860023 -36.607813 
L 685.893236 -36.607813 
L 686.926449 -36.607813 
L 687.959662 -36.607813 
L 688.992875 -36.607813 
L 690.026088 -36.607813 
L 691.059301 -36.607813 
L 692.092514 -36.607813 
L 693.125728 -36.607813 
L 694.158941 -36.607813 
L 695.192154 -36.607813 
L 696.225367 -36.607813 
L 697.25858 -36.607813 
L 698.291793 -36.607813 
L 699.325006 -36.607813 
L 700.358219 -36.607813 
L 701.391432 -36.607813 
L 702.424646 -36.607813 
L 703.457859 -36.607813 
L 704.491072 -36.607813 
L 705.524285 -36.607813 
L 706.557498 -36.607813 
L 707.590711 -36.607813 
L 708.623924 -36.607813 
L 709.657137 -36.607813 
L 710.69035 -36.607813 
L 711.723564 -36.607813 
L 712.756777 -36.607813 
L 713.78999 -36.607813 
L 714.823203 -36.607813 
L 715.856416 -36.607813 
L 716.889629 -36.607813 
L 717.922842 -36.607813 
L 718.956055 -36.607813 
L 719.989268 -36.607813 
L 721.022482 -36.607813 
L 722.055695 -36.607813 
L 723.088908 -36.607813 
L 724.122121 -36.607813 
L 725.155334 -36.607813 
L 726.188547 -36.607813 
L 727.22176 -36.607813 
L 728.254973 -36.607813 
L 729.288187 -36.607813 
L 730.3214 -36.607813 
L 731.354613 -36.607813 
L 732.387826 -36.607813 
L 733.421039 -36.607813 
L 734.454252 -36.607813 
L 735.487465 -36.607813 
L 736.520678 -36.607813 
L 737.553891 -36.607813 
L 738.587105 -36.607813 
L 739.620318 -36.607813 
L 740.653531 -36.607813 
L 741.686744 -36.607813 
L 742.719957 -36.607813 
L 743.75317 -36.607813 
L 744.786383 -36.607813 
L 745.819596 -36.607813 
L 746.852809 -36.607813 
L 747.886023 -36.607813 
L 748.919236 -36.607813 
L 749.952449 -36.607813 
L 750.985662 -36.607813 
L 752.018875 -36.607813 
L 753.052088 -36.607813 
L 754.085301 -36.607813 
L 755.118514 -36.607813 
L 756.151727 -36.607813 
L 757.184941 -36.607813 
L 758.218154 -36.607813 
L 759.251367 -36.607813 
L 760.28458 -36.607813 
L 761.317793 -36.607813 
L 762.351006 -36.607813 
L 763.384219 -36.607813 
L 764.417432 -36.607813 
L 765.450645 -36.607813 
L 766.483859 -36.607813 
L 767.517072 -36.607813 
L 768.550285 -36.607813 
L 769.583498 -36.607813 
L 770.616711 -36.607813 
L 771.649924 -36.607813 
L 772.683137 -36.607813 
L 773.71635 -36.607813 
L 774.749563 -36.607813 
L 775.782777 -36.607813 
L 776.81599 -36.607813 
L 777.849203 -36.607813 
L 778.882416 -36.607813 
L 779.915629 -36.607813 
L 780.948842 -36.607813 
L 781.982055 -36.607813 
L 783.015268 -36.607813 
L 784.048481 -36.607813 
L 785.081695 -36.607813 
L 786.114908 -36.607813 
L 787.148121 -36.607813 
L 788.181334 -36.607813 
L 789.214547 -36.607813 
L 790.24776 -36.607813 
L 791.280973 -36.607813 
L 792.314186 -36.607813 
L 793.347399 -36.607813 
L 794.380613 -36.607813 
L 795.413826 -36.607813 
L 796.447039 -36.607813 
L 797.480252 -36.607813 
L 798.513465 -36.607813 
L 799.546678 -36.607813 
L 800.579891 -36.607813 
L 801.613104 -36.607813 
L 802.646318 -36.607813 
L 803.679531 -36.607813 
L 804.712744 -36.607813 
L 805.745957 -36.607813 
L 806.77917 -36.607813 
L 807.812383 -36.607813 
L 808.845596 -36.607813 
L 809.878809 -36.607813 
L 810.912022 -36.607813 
L 811.945236 -36.607813 
L 812.978449 -36.607813 
L 814.011662 -36.607813 
L 815.044875 -36.607813 
L 816.078088 -36.607813 
L 817.111301 -36.607813 
L 818.144514 -36.607813 
L 819.177727 -36.607813 
L 820.21094 -36.607813 
L 821.244154 -36.607813 
L 822.277367 -36.607813 
L 823.31058 -36.607813 
L 824.343793 -36.607813 
L 825.377006 -36.607813 
L 826.410219 -36.607813 
L 827.443432 -36.607813 
L 828.476645 -36.607813 
L 829.509858 -36.607813 
L 830.543072 -36.607813 
L 831.576285 -36.607813 
L 832.609498 -36.607813 
L 833.642711 -36.607813 
L 834.675924 -36.607813 
L 835.709137 -36.607813 
L 836.74235 -36.607813 
L 837.775563 -36.607813 
L 838.808776 -36.607813 
L 839.84199 -36.607813 
L 840.875203 -36.607813 
L 841.908416 -36.607813 
L 842.941629 -36.607813 
L 843.974842 -36.607813 
L 843.974842 -36.617092 
L 843.974842 -36.617092 
L 842.941629 -36.62073 
L 841.908416 -36.625587 
L 840.875203 -36.63199 
L 839.84199 -36.640322 
L 838.808776 -36.651027 
L 837.775563 -36.664603 
L 836.74235 -36.681599 
L 835.709137 -36.702598 
L 834.675924 -36.728204 
L 833.642711 -36.759014 
L 832.609498 -36.795591 
L 831.576285 -36.838428 
L 830.543072 -36.887911 
L 829.509858 -36.944275 
L 828.476645 -37.00757 
L 827.443432 -37.077624 
L 826.410219 -37.154011 
L 825.377006 -37.236043 
L 824.343793 -37.32276 
L 823.31058 -37.412947 
L 822.277367 -37.505166 
L 821.244154 -37.597807 
L 820.21094 -37.689157 
L 819.177727 -37.777485 
L 818.144514 -37.861138 
L 817.111301 -37.938641 
L 816.078088 -38.008799 
L 815.044875 -38.070792 
L 814.011662 -38.124249 
L 812.978449 -38.169306 
L 811.945236 -38.206632 
L 810.912022 -38.237422 
L 809.878809 -38.263354 
L 808.845596 -38.286513 
L 807.812383 -38.309275 
L 806.77917 -38.334171 
L 805.745957 -38.363724 
L 804.712744 -38.400278 
L 803.679531 -38.445827 
L 802.646318 -38.501857 
L 801.613104 -38.569209 
L 800.579891 -38.647984 
L 799.546678 -38.737482 
L 798.513465 -38.8362 
L 797.480252 -38.941873 
L 796.447039 -39.051576 
L 795.413826 -39.161863 
L 794.380613 -39.268949 
L 793.347399 -39.368913 
L 792.314186 -39.457919 
L 791.280973 -39.532429 
L 790.24776 -39.589399 
L 789.214547 -39.626446 
L 788.181334 -39.641973 
L 787.148121 -39.635234 
L 786.114908 -39.606358 
L 785.081695 -39.556308 
L 784.048481 -39.486792 
L 783.015268 -39.400131 
L 781.982055 -39.299099 
L 780.948842 -39.186738 
L 779.915629 -39.066178 
L 778.882416 -38.940458 
L 777.849203 -38.812377 
L 776.81599 -38.684373 
L 775.782777 -38.558447 
L 774.749563 -38.436118 
L 773.71635 -38.318438 
L 772.683137 -38.206022 
L 771.649924 -38.099129 
L 770.616711 -37.997748 
L 769.583498 -37.901702 
L 768.550285 -37.81075 
L 767.517072 -37.724676 
L 766.483859 -37.643368 
L 765.450645 -37.566863 
L 764.417432 -37.495374 
L 763.384219 -37.429288 
L 762.351006 -37.369139 
L 761.317793 -37.315558 
L 760.28458 -37.269216 
L 759.251367 -37.23075 
L 758.218154 -37.200688 
L 757.184941 -37.179382 
L 756.151727 -37.166949 
L 755.118514 -37.163223 
L 754.085301 -37.167729 
L 753.052088 -37.179677 
L 752.018875 -37.197971 
L 750.985662 -37.221249 
L 749.952449 -37.247929 
L 748.919236 -37.276284 
L 747.886023 -37.304519 
L 746.852809 -37.330859 
L 745.819596 -37.353641 
L 744.786383 -37.371397 
L 743.75317 -37.382935 
L 742.719957 -37.3874 
L 741.686744 -37.384323 
L 740.653531 -37.373649 
L 739.620318 -37.35574 
L 738.587105 -37.331367 
L 737.553891 -37.301672 
L 736.520678 -37.268129 
L 735.487465 -37.232478 
L 734.454252 -37.196662 
L 733.421039 -37.162757 
L 732.387826 -37.132901 
L 731.354613 -37.109221 
L 730.3214 -37.093769 
L 729.288187 -37.088459 
L 728.254973 -37.095 
L 727.22176 -37.114843 
L 726.188547 -37.14912 
L 725.155334 -37.198586 
L 724.122121 -37.263566 
L 723.088908 -37.343908 
L 722.055695 -37.438933 
L 721.022482 -37.547414 
L 719.989268 -37.667556 
L 718.956055 -37.797013 
L 717.922842 -37.93292 
L 716.889629 -38.071963 
L 715.856416 -38.210482 
L 714.823203 -38.344602 
L 713.78999 -38.470391 
L 712.756777 -38.584041 
L 711.723564 -38.682059 
L 710.69035 -38.761465 
L 709.657137 -38.819977 
L 708.623924 -38.856187 
L 707.590711 -38.869703 
L 706.557498 -38.861282 
L 705.524285 -38.832926 
L 704.491072 -38.787966 
L 703.457859 -38.731148 
L 702.424646 -38.668722 
L 701.391432 -38.608567 
L 700.358219 -38.560368 
L 699.325006 -38.535865 
L 698.291793 -38.54918 
L 697.25858 -38.617238 
L 696.225367 -38.760264 
L 695.192154 -39.002337 
L 694.158941 -39.371945 
L 693.125728 -39.902497 
L 692.092514 -40.632682 
L 691.059301 -41.606579 
L 690.026088 -42.873402 
L 688.992875 -44.486757 
L 687.959662 -46.503293 
L 686.926449 -48.980672 
L 685.893236 -51.974798 
L 684.860023 -55.536341 
L 683.82681 -59.706619 
L 682.793596 -64.513043 
L 681.760383 -69.96437 
L 680.72717 -76.046109 
L 679.693957 -82.716492 
L 678.660744 -89.903452 
L 677.627531 -97.503024 
L 676.594318 -105.379556 
L 675.561105 -113.368007 
L 674.527892 -121.278448 
L 673.494678 -128.902729 
L 672.461465 -136.023036 
L 671.428252 -142.421922 
L 670.395039 -147.89316 
L 669.361826 -152.252692 
L 668.328613 -155.34886 
L 667.2954 -157.071134 
L 666.262187 -157.356622 
L 665.228974 -156.193848 
L 664.19576 -153.623463 
L 663.162547 -149.735844 
L 662.129334 -144.665767 
L 661.096121 -138.584611 
L 660.062908 -131.690699 
L 659.029695 -124.198559 
L 657.996482 -116.3279 
L 656.963269 -108.293089 
L 655.930055 -100.293814 
L 654.896842 -92.507465 
L 653.863629 -85.083589 
L 652.830416 -78.140544 
L 651.797203 -71.764331 
L 650.76399 -66.009383 
L 649.730777 -60.900986 
L 648.697564 -56.438911 
L 647.664351 -52.601842 
L 646.631137 -49.352156 
L 645.597924 -46.640687 
L 644.564711 -44.41117 
L 643.531498 -42.604145 
L 642.498285 -41.160187 
L 641.465072 -40.0224 
L 640.431859 -39.138196 
L 639.398646 -38.460416 
L 638.365433 -37.947879 
z
" style="stroke: #1f77b4"/>
    </defs>
    <g clip-path="url(#p5a0d2eb6d2)">
     <use xlink:href="#m9eb3423799" x="0" y="213.426563" style="fill: #1f77b4; fill-opacity: 0.25; stroke: #1f77b4"/>
    </g>
   </g>
   <g id="patch_13">
    <path d="M 628.084962 176.81875 
L 628.084962 50.0325 
" style="fill: none; stroke: #cccccc; stroke-width: 0.8; stroke-linejoin: miter; stroke-linecap: square"/>
   </g>
   <g id="patch_14">
    <path d="M 854.255312 176.81875 
L 854.255312 50.0325 
" style="fill: none; stroke: #cccccc; stroke-width: 0.8; stroke-linejoin: miter; stroke-linecap: square"/>
   </g>
   <g id="patch_15">
    <path d="M 628.084962 176.81875 
L 854.255312 176.81875 
" style="fill: none; stroke: #cccccc; stroke-width: 0.8; stroke-linejoin: miter; stroke-linecap: square"/>
   </g>
   <g id="patch_16">
    <path d="M 628.084962 50.0325 
L 854.255312 50.0325 
" style="fill: none; stroke: #cccccc; stroke-width: 0.8; stroke-linejoin: miter; stroke-linecap: square"/>
   </g>
   <g id="text_39">
    <!-- Error rate dist -->
    <g style="fill: #262626" transform="translate(704.829825 44.0325) scale(0.12 -0.12)">
     <defs>
      <path id="ArialMT-45" d="M 506 0 
L 506 4581 
L 3819 4581 
L 3819 4041 
L 1113 4041 
L 1113 2638 
L 3647 2638 
L 3647 2100 
L 1113 2100 
L 1113 541 
L 3925 541 
L 3925 0 
L 506 0 
z
" transform="scale(0.015625)"/>
     </defs>
     <use xlink:href="#ArialMT-45"/>
     <use xlink:href="#ArialMT-72" transform="translate(66.699219 0)"/>
     <use xlink:href="#ArialMT-72" transform="translate(100 0)"/>
     <use xlink:href="#ArialMT-6f" transform="translate(133.300781 0)"/>
     <use xlink:href="#ArialMT-72" transform="translate(188.916016 0)"/>
     <use xlink:href="#ArialMT-20" transform="translate(222.216797 0)"/>
     <use xlink:href="#ArialMT-72" transform="translate(250 0)"/>
     <use xlink:href="#ArialMT-61" transform="translate(283.300781 0)"/>
     <use xlink:href="#ArialMT-74" transform="translate(338.916016 0)"/>
     <use xlink:href="#ArialMT-65" transform="translate(366.699219 0)"/>
     <use xlink:href="#ArialMT-20" transform="translate(422.314453 0)"/>
     <use xlink:href="#ArialMT-64" transform="translate(450.097656 0)"/>
     <use xlink:href="#ArialMT-69" transform="translate(505.712891 0)"/>
     <use xlink:href="#ArialMT-73" transform="translate(527.929688 0)"/>
     <use xlink:href="#ArialMT-74" transform="translate(577.929688 0)"/>
    </g>
   </g>
  </g>
  <g id="text_40">
   <!-- Distributions  retry-on-error -->
   <g style="fill: #262626" transform="translate(355.376875 15.789375) scale(0.12 -0.12)">
    <defs>
     <path id="ArialMT-62" d="M 941 0 
L 419 0 
L 419 4581 
L 981 4581 
L 981 2947 
Q 1338 3394 1891 3394 
Q 2197 3394 2470 3270 
Q 2744 3147 2920 2923 
Q 3097 2700 3197 2384 
Q 3297 2069 3297 1709 
Q 3297 856 2875 390 
Q 2453 -75 1863 -75 
Q 1275 -75 941 416 
L 941 0 
z
M 934 1684 
Q 934 1088 1097 822 
Q 1363 388 1816 388 
Q 2184 388 2453 708 
Q 2722 1028 2722 1663 
Q 2722 2313 2464 2622 
Q 2206 2931 1841 2931 
Q 1472 2931 1203 2611 
Q 934 2291 934 1684 
z
" transform="scale(0.015625)"/>
     <path id="ArialMT-2014" d="M 0 1431 
L 0 1884 
L 6400 1884 
L 6400 1431 
L 0 1431 
z
" transform="scale(0.015625)"/>
     <path id="ArialMT-2d" d="M 203 1375 
L 203 1941 
L 1931 1941 
L 1931 1375 
L 203 1375 
z
" transform="scale(0.015625)"/>
    </defs>
    <use xlink:href="#ArialMT-44"/>
    <use xlink:href="#ArialMT-69" transform="translate(72.216797 0)"/>
    <use xlink:href="#ArialMT-73" transform="translate(94.433594 0)"/>
    <use xlink:href="#ArialMT-74" transform="translate(144.433594 0)"/>
    <use xlink:href="#ArialMT-72" transform="translate(172.216797 0)"/>
    <use xlink:href="#ArialMT-69" transform="translate(205.517578 0)"/>
    <use xlink:href="#ArialMT-62" transform="translate(227.734375 0)"/>
    <use xlink:href="#ArialMT-75" transform="translate(283.349609 0)"/>
    <use xlink:href="#ArialMT-74" transform="translate(338.964844 0)"/>
    <use xlink:href="#ArialMT-69" transform="translate(366.748047 0)"/>
    <use xlink:href="#ArialMT-6f" transform="translate(388.964844 0)"/>
    <use xlink:href="#ArialMT-6e" transform="translate(444.580078 0)"/>
    <use xlink:href="#ArialMT-73" transform="translate(500.195312 0)"/>
    <use xlink:href="#ArialMT-20" transform="translate(550.195312 0)"/>
    <use xlink:href="#ArialMT-2014" transform="translate(577.978516 0)"/>
    <use xlink:href="#ArialMT-20" transform="translate(677.978516 0)"/>
    <use xlink:href="#ArialMT-72" transform="translate(705.761719 0)"/>
    <use xlink:href="#ArialMT-65" transform="translate(739.0625 0)"/>
    <use xlink:href="#ArialMT-74" transform="translate(794.677734 0)"/>
    <use xlink:href="#ArialMT-72" transform="translate(822.460938 0)"/>
    <use xlink:href="#ArialMT-79" transform="translate(855.761719 0)"/>
    <use xlink:href="#ArialMT-2d" transform="translate(905.761719 0)"/>
    <use xlink:href="#ArialMT-6f" transform="translate(939.0625 0)"/>
    <use xlink:href="#ArialMT-6e" transform="translate(994.677734 0)"/>
    <use xlink:href="#ArialMT-2d" transform="translate(1050.292969 0)"/>
    <use xlink:href="#ArialMT-65" transform="translate(1083.59375 0)"/>
    <use xlink:href="#ArialMT-72" transform="translate(1139.208984 0)"/>
    <use xlink:href="#ArialMT-72" transform="translate(1172.509766 0)"/>
    <use xlink:href="#ArialMT-6f" transform="translate(1205.810547 0)"/>
    <use xlink:href="#ArialMT-72" transform="translate(1261.425781 0)"/>
   </g>
  </g>
 </g>
 <defs>
  <clipPath id="pb63902fe65">
   <rect x="58.045313" y="50.0325" width="226.17035" height="126.78625"/>
  </clipPath>
  <clipPath id="p4dabc405ab">
   <rect x="343.065137" y="50.0325" width="226.17035" height="126.78625"/>
  </clipPath>
  <clipPath id="p5a0d2eb6d2">
   <rect x="628.084962" y="50.0325" width="226.17035" height="126.78625"/>
  </clipPath>
 </defs>
</svg>
