<?xml version="1.0" encoding="utf-8" standalone="no"?>
<!DOCTYPE svg PUBLIC "-//W3C//DTD SVG 1.1//EN"
  "http://www.w3.org/Graphics/SVG/1.1/DTD/svg11.dtd">
<svg xmlns:xlink="http://www.w3.org/1999/xlink" width="855.894375pt" height="213.426563pt" viewBox="0 0 855.894375 213.426563" xmlns="http://www.w3.org/2000/svg" version="1.1">
 <metadata>
  <rdf:RDF xmlns:dc="http://purl.org/dc/elements/1.1/" xmlns:cc="http://creativecommons.org/ns#" xmlns:rdf="http://www.w3.org/1999/02/22-rdf-syntax-ns#">
   <cc:Work>
    <dc:type rdf:resource="http://purl.org/dc/dcmitype/StillImage"/>
    <dc:date>2025-11-12T15:39:13.738583</dc:date>
    <dc:format>image/svg+xml</dc:format>
    <dc:creator>
     <cc:Agent>
      <dc:title>Matplotlib v3.10.7, https://matplotlib.org/</dc:title>
     </cc:Agent>
    </dc:creator>
   </cc:Work>
  </rdf:RDF>
 </metadata>
 <defs>
  <style type="text/css">*{stroke-linejoin: round; stroke-linecap: butt}</style>
 </defs>
 <g id="figure_1">
  <g id="patch_1">
   <path d="M 0 213.426563 
L 855.894375 213.426563 
L 855.894375 0 
L 0 0 
z
" style="fill: #ffffff"/>
  </g>
  <g id="axes_1">
   <g id="patch_2">
    <path d="M 52.484375 176.81875 
L 283.614375 176.81875 
L 283.614375 50.0325 
L 52.484375 50.0325 
z
" style="fill: #ffffff"/>
   </g>
   <g id="matplotlib.axis_1">
    <g id="xtick_1">
     <g id="line2d_1">
      <path d="M 89.406021 176.81875 
L 89.406021 50.0325 
" clip-path="url(#pcb7456af67)" style="fill: none; stroke: #cccccc; stroke-width: 0.8; stroke-linecap: round"/>
     </g>
     <g id="text_1">
      <!-- 100 -->
      <g style="fill: #262626" transform="translate(81.064615 190.976562) scale(0.1 -0.1)">
       <defs>
        <path id="ArialMT-31" d="M 2384 0 
L 1822 0 
L 1822 3584 
Q 1619 3391 1289 3197 
Q 959 3003 697 2906 
L 697 3450 
Q 1169 3672 1522 3987 
Q 1875 4303 2022 4600 
L 2384 4600 
L 2384 0 
z
" transform="scale(0.015625)"/>
        <path id="ArialMT-30" d="M 266 2259 
Q 266 3072 433 3567 
Q 600 4063 929 4331 
Q 1259 4600 1759 4600 
Q 2128 4600 2406 4451 
Q 2684 4303 2865 4023 
Q 3047 3744 3150 3342 
Q 3253 2941 3253 2259 
Q 3253 1453 3087 958 
Q 2922 463 2592 192 
Q 2263 -78 1759 -78 
Q 1097 -78 719 397 
Q 266 969 266 2259 
z
M 844 2259 
Q 844 1131 1108 757 
Q 1372 384 1759 384 
Q 2147 384 2411 759 
Q 2675 1134 2675 2259 
Q 2675 3391 2411 3762 
Q 2147 4134 1753 4134 
Q 1366 4134 1134 3806 
Q 844 3388 844 2259 
z
" transform="scale(0.015625)"/>
       </defs>
       <use xlink:href="#ArialMT-31"/>
       <use xlink:href="#ArialMT-30" transform="translate(55.615234 0)"/>
       <use xlink:href="#ArialMT-30" transform="translate(111.230469 0)"/>
      </g>
     </g>
    </g>
    <g id="xtick_2">
     <g id="line2d_2">
      <path d="M 129.671092 176.81875 
L 129.671092 50.0325 
" clip-path="url(#pcb7456af67)" style="fill: none; stroke: #cccccc; stroke-width: 0.8; stroke-linecap: round"/>
     </g>
     <g id="text_2">
      <!-- 125 -->
      <g style="fill: #262626" transform="translate(121.329686 190.976562) scale(0.1 -0.1)">
       <defs>
        <path id="ArialMT-32" d="M 3222 541 
L 3222 0 
L 194 0 
Q 188 203 259 391 
Q 375 700 629 1000 
Q 884 1300 1366 1694 
Q 2113 2306 2375 2664 
Q 2638 3022 2638 3341 
Q 2638 3675 2398 3904 
Q 2159 4134 1775 4134 
Q 1369 4134 1125 3890 
Q 881 3647 878 3216 
L 300 3275 
Q 359 3922 746 4261 
Q 1134 4600 1788 4600 
Q 2447 4600 2831 4234 
Q 3216 3869 3216 3328 
Q 3216 3053 3103 2787 
Q 2991 2522 2730 2228 
Q 2469 1934 1863 1422 
Q 1356 997 1212 845 
Q 1069 694 975 541 
L 3222 541 
z
" transform="scale(0.015625)"/>
        <path id="ArialMT-35" d="M 266 1200 
L 856 1250 
Q 922 819 1161 601 
Q 1400 384 1738 384 
Q 2144 384 2425 690 
Q 2706 997 2706 1503 
Q 2706 1984 2436 2262 
Q 2166 2541 1728 2541 
Q 1456 2541 1237 2417 
Q 1019 2294 894 2097 
L 366 2166 
L 809 4519 
L 3088 4519 
L 3088 3981 
L 1259 3981 
L 1013 2750 
Q 1425 3038 1878 3038 
Q 2478 3038 2890 2622 
Q 3303 2206 3303 1553 
Q 3303 931 2941 478 
Q 2500 -78 1738 -78 
Q 1113 -78 717 272 
Q 322 622 266 1200 
z
" transform="scale(0.015625)"/>
       </defs>
       <use xlink:href="#ArialMT-31"/>
       <use xlink:href="#ArialMT-32" transform="translate(55.615234 0)"/>
       <use xlink:href="#ArialMT-35" transform="translate(111.230469 0)"/>
      </g>
     </g>
    </g>
    <g id="xtick_3">
     <g id="line2d_3">
      <path d="M 169.936163 176.81875 
L 169.936163 50.0325 
" clip-path="url(#pcb7456af67)" style="fill: none; stroke: #cccccc; stroke-width: 0.8; stroke-linecap: round"/>
     </g>
     <g id="text_3">
      <!-- 150 -->
      <g style="fill: #262626" transform="translate(161.594757 190.976562) scale(0.1 -0.1)">
       <use xlink:href="#ArialMT-31"/>
       <use xlink:href="#ArialMT-35" transform="translate(55.615234 0)"/>
       <use xlink:href="#ArialMT-30" transform="translate(111.230469 0)"/>
      </g>
     </g>
    </g>
    <g id="xtick_4">
     <g id="line2d_4">
      <path d="M 210.201234 176.81875 
L 210.201234 50.0325 
" clip-path="url(#pcb7456af67)" style="fill: none; stroke: #cccccc; stroke-width: 0.8; stroke-linecap: round"/>
     </g>
     <g id="text_4">
      <!-- 175 -->
      <g style="fill: #262626" transform="translate(201.859828 190.976562) scale(0.1 -0.1)">
       <defs>
        <path id="ArialMT-37" d="M 303 3981 
L 303 4522 
L 3269 4522 
L 3269 4084 
Q 2831 3619 2401 2847 
Q 1972 2075 1738 1259 
Q 1569 684 1522 0 
L 944 0 
Q 953 541 1156 1306 
Q 1359 2072 1739 2783 
Q 2119 3494 2547 3981 
L 303 3981 
z
" transform="scale(0.015625)"/>
       </defs>
       <use xlink:href="#ArialMT-31"/>
       <use xlink:href="#ArialMT-37" transform="translate(55.615234 0)"/>
       <use xlink:href="#ArialMT-35" transform="translate(111.230469 0)"/>
      </g>
     </g>
    </g>
    <g id="xtick_5">
     <g id="line2d_5">
      <path d="M 250.466305 176.81875 
L 250.466305 50.0325 
" clip-path="url(#pcb7456af67)" style="fill: none; stroke: #cccccc; stroke-width: 0.8; stroke-linecap: round"/>
     </g>
     <g id="text_5">
      <!-- 200 -->
      <g style="fill: #262626" transform="translate(242.124899 190.976562) scale(0.1 -0.1)">
       <use xlink:href="#ArialMT-32"/>
       <use xlink:href="#ArialMT-30" transform="translate(55.615234 0)"/>
       <use xlink:href="#ArialMT-30" transform="translate(111.230469 0)"/>
      </g>
     </g>
    </g>
    <g id="text_6">
     <!-- latency_ms -->
     <g style="fill: #262626" transform="translate(142.762656 204.121875) scale(0.1 -0.1)">
      <defs>
       <path id="ArialMT-6c" d="M 409 0 
L 409 4581 
L 972 4581 
L 972 0 
L 409 0 
z
" transform="scale(0.015625)"/>
       <path id="ArialMT-61" d="M 2588 409 
Q 2275 144 1986 34 
Q 1697 -75 1366 -75 
Q 819 -75 525 192 
Q 231 459 231 875 
Q 231 1119 342 1320 
Q 453 1522 633 1644 
Q 813 1766 1038 1828 
Q 1203 1872 1538 1913 
Q 2219 1994 2541 2106 
Q 2544 2222 2544 2253 
Q 2544 2597 2384 2738 
Q 2169 2928 1744 2928 
Q 1347 2928 1158 2789 
Q 969 2650 878 2297 
L 328 2372 
Q 403 2725 575 2942 
Q 747 3159 1072 3276 
Q 1397 3394 1825 3394 
Q 2250 3394 2515 3294 
Q 2781 3194 2906 3042 
Q 3031 2891 3081 2659 
Q 3109 2516 3109 2141 
L 3109 1391 
Q 3109 606 3145 398 
Q 3181 191 3288 0 
L 2700 0 
Q 2613 175 2588 409 
z
M 2541 1666 
Q 2234 1541 1622 1453 
Q 1275 1403 1131 1340 
Q 988 1278 909 1158 
Q 831 1038 831 891 
Q 831 666 1001 516 
Q 1172 366 1500 366 
Q 1825 366 2078 508 
Q 2331 650 2450 897 
Q 2541 1088 2541 1459 
L 2541 1666 
z
" transform="scale(0.015625)"/>
       <path id="ArialMT-74" d="M 1650 503 
L 1731 6 
Q 1494 -44 1306 -44 
Q 1000 -44 831 53 
Q 663 150 594 308 
Q 525 466 525 972 
L 525 2881 
L 113 2881 
L 113 3319 
L 525 3319 
L 525 4141 
L 1084 4478 
L 1084 3319 
L 1650 3319 
L 1650 2881 
L 1084 2881 
L 1084 941 
Q 1084 700 1114 631 
Q 1144 563 1211 522 
Q 1278 481 1403 481 
Q 1497 481 1650 503 
z
" transform="scale(0.015625)"/>
       <path id="ArialMT-65" d="M 2694 1069 
L 3275 997 
Q 3138 488 2766 206 
Q 2394 -75 1816 -75 
Q 1088 -75 661 373 
Q 234 822 234 1631 
Q 234 2469 665 2931 
Q 1097 3394 1784 3394 
Q 2450 3394 2872 2941 
Q 3294 2488 3294 1666 
Q 3294 1616 3291 1516 
L 816 1516 
Q 847 969 1125 678 
Q 1403 388 1819 388 
Q 2128 388 2347 550 
Q 2566 713 2694 1069 
z
M 847 1978 
L 2700 1978 
Q 2663 2397 2488 2606 
Q 2219 2931 1791 2931 
Q 1403 2931 1139 2672 
Q 875 2413 847 1978 
z
" transform="scale(0.015625)"/>
       <path id="ArialMT-6e" d="M 422 0 
L 422 3319 
L 928 3319 
L 928 2847 
Q 1294 3394 1984 3394 
Q 2284 3394 2536 3286 
Q 2788 3178 2913 3003 
Q 3038 2828 3088 2588 
Q 3119 2431 3119 2041 
L 3119 0 
L 2556 0 
L 2556 2019 
Q 2556 2363 2490 2533 
Q 2425 2703 2258 2804 
Q 2091 2906 1866 2906 
Q 1506 2906 1245 2678 
Q 984 2450 984 1813 
L 984 0 
L 422 0 
z
" transform="scale(0.015625)"/>
       <path id="ArialMT-63" d="M 2588 1216 
L 3141 1144 
Q 3050 572 2676 248 
Q 2303 -75 1759 -75 
Q 1078 -75 664 370 
Q 250 816 250 1647 
Q 250 2184 428 2587 
Q 606 2991 970 3192 
Q 1334 3394 1763 3394 
Q 2303 3394 2647 3120 
Q 2991 2847 3088 2344 
L 2541 2259 
Q 2463 2594 2264 2762 
Q 2066 2931 1784 2931 
Q 1359 2931 1093 2626 
Q 828 2322 828 1663 
Q 828 994 1084 691 
Q 1341 388 1753 388 
Q 2084 388 2306 591 
Q 2528 794 2588 1216 
z
" transform="scale(0.015625)"/>
       <path id="ArialMT-79" d="M 397 -1278 
L 334 -750 
Q 519 -800 656 -800 
Q 844 -800 956 -737 
Q 1069 -675 1141 -563 
Q 1194 -478 1313 -144 
Q 1328 -97 1363 -6 
L 103 3319 
L 709 3319 
L 1400 1397 
Q 1534 1031 1641 628 
Q 1738 1016 1872 1384 
L 2581 3319 
L 3144 3319 
L 1881 -56 
Q 1678 -603 1566 -809 
Q 1416 -1088 1222 -1217 
Q 1028 -1347 759 -1347 
Q 597 -1347 397 -1278 
z
" transform="scale(0.015625)"/>
       <path id="ArialMT-5f" d="M -97 -1272 
L -97 -866 
L 3631 -866 
L 3631 -1272 
L -97 -1272 
z
" transform="scale(0.015625)"/>
       <path id="ArialMT-6d" d="M 422 0 
L 422 3319 
L 925 3319 
L 925 2853 
Q 1081 3097 1340 3245 
Q 1600 3394 1931 3394 
Q 2300 3394 2536 3241 
Q 2772 3088 2869 2813 
Q 3263 3394 3894 3394 
Q 4388 3394 4653 3120 
Q 4919 2847 4919 2278 
L 4919 0 
L 4359 0 
L 4359 2091 
Q 4359 2428 4304 2576 
Q 4250 2725 4106 2815 
Q 3963 2906 3769 2906 
Q 3419 2906 3187 2673 
Q 2956 2441 2956 1928 
L 2956 0 
L 2394 0 
L 2394 2156 
Q 2394 2531 2256 2718 
Q 2119 2906 1806 2906 
Q 1569 2906 1367 2781 
Q 1166 2656 1075 2415 
Q 984 2175 984 1722 
L 984 0 
L 422 0 
z
" transform="scale(0.015625)"/>
       <path id="ArialMT-73" d="M 197 991 
L 753 1078 
Q 800 744 1014 566 
Q 1228 388 1613 388 
Q 2000 388 2187 545 
Q 2375 703 2375 916 
Q 2375 1106 2209 1216 
Q 2094 1291 1634 1406 
Q 1016 1563 777 1677 
Q 538 1791 414 1992 
Q 291 2194 291 2438 
Q 291 2659 392 2848 
Q 494 3038 669 3163 
Q 800 3259 1026 3326 
Q 1253 3394 1513 3394 
Q 1903 3394 2198 3281 
Q 2494 3169 2634 2976 
Q 2775 2784 2828 2463 
L 2278 2388 
Q 2241 2644 2061 2787 
Q 1881 2931 1553 2931 
Q 1166 2931 1000 2803 
Q 834 2675 834 2503 
Q 834 2394 903 2306 
Q 972 2216 1119 2156 
Q 1203 2125 1616 2013 
Q 2213 1853 2448 1751 
Q 2684 1650 2818 1456 
Q 2953 1263 2953 975 
Q 2953 694 2789 445 
Q 2625 197 2315 61 
Q 2006 -75 1616 -75 
Q 969 -75 630 194 
Q 291 463 197 991 
z
" transform="scale(0.015625)"/>
      </defs>
      <use xlink:href="#ArialMT-6c"/>
      <use xlink:href="#ArialMT-61" transform="translate(22.216797 0)"/>
      <use xlink:href="#ArialMT-74" transform="translate(77.832031 0)"/>
      <use xlink:href="#ArialMT-65" transform="translate(105.615234 0)"/>
      <use xlink:href="#ArialMT-6e" transform="translate(161.230469 0)"/>
      <use xlink:href="#ArialMT-63" transform="translate(216.845703 0)"/>
      <use xlink:href="#ArialMT-79" transform="translate(266.845703 0)"/>
      <use xlink:href="#ArialMT-5f" transform="translate(316.845703 0)"/>
      <use xlink:href="#ArialMT-6d" transform="translate(372.460938 0)"/>
      <use xlink:href="#ArialMT-73" transform="translate(455.761719 0)"/>
     </g>
    </g>
   </g>
   <g id="matplotlib.axis_2">
    <g id="ytick_1">
     <g id="line2d_6">
      <path d="M 52.484375 176.81875 
L 283.614375 176.81875 
" clip-path="url(#pcb7456af67)" style="fill: none; stroke: #cccccc; stroke-width: 0.8; stroke-linecap: round"/>
     </g>
     <g id="text_7">
      <!-- 0.000 -->
      <g style="fill: #262626" transform="translate(20.4625 180.397656) scale(0.1 -0.1)">
       <defs>
        <path id="ArialMT-2e" d="M 581 0 
L 581 641 
L 1222 641 
L 1222 0 
L 581 0 
z
" transform="scale(0.015625)"/>
       </defs>
       <use xlink:href="#ArialMT-30"/>
       <use xlink:href="#ArialMT-2e" transform="translate(55.615234 0)"/>
       <use xlink:href="#ArialMT-30" transform="translate(83.398438 0)"/>
       <use xlink:href="#ArialMT-30" transform="translate(139.013672 0)"/>
       <use xlink:href="#ArialMT-30" transform="translate(194.628906 0)"/>
      </g>
     </g>
    </g>
    <g id="ytick_2">
     <g id="line2d_7">
      <path d="M 52.484375 145.287421 
L 283.614375 145.287421 
" clip-path="url(#pcb7456af67)" style="fill: none; stroke: #cccccc; stroke-width: 0.8; stroke-linecap: round"/>
     </g>
     <g id="text_8">
      <!-- 0.005 -->
      <g style="fill: #262626" transform="translate(20.4625 148.866327) scale(0.1 -0.1)">
       <use xlink:href="#ArialMT-30"/>
       <use xlink:href="#ArialMT-2e" transform="translate(55.615234 0)"/>
       <use xlink:href="#ArialMT-30" transform="translate(83.398438 0)"/>
       <use xlink:href="#ArialMT-30" transform="translate(139.013672 0)"/>
       <use xlink:href="#ArialMT-35" transform="translate(194.628906 0)"/>
      </g>
     </g>
    </g>
    <g id="ytick_3">
     <g id="line2d_8">
      <path d="M 52.484375 113.756091 
L 283.614375 113.756091 
" clip-path="url(#pcb7456af67)" style="fill: none; stroke: #cccccc; stroke-width: 0.8; stroke-linecap: round"/>
     </g>
     <g id="text_9">
      <!-- 0.010 -->
      <g style="fill: #262626" transform="translate(20.4625 117.334998) scale(0.1 -0.1)">
       <use xlink:href="#ArialMT-30"/>
       <use xlink:href="#ArialMT-2e" transform="translate(55.615234 0)"/>
       <use xlink:href="#ArialMT-30" transform="translate(83.398438 0)"/>
       <use xlink:href="#ArialMT-31" transform="translate(139.013672 0)"/>
       <use xlink:href="#ArialMT-30" transform="translate(194.628906 0)"/>
      </g>
     </g>
    </g>
    <g id="ytick_4">
     <g id="line2d_9">
      <path d="M 52.484375 82.224762 
L 283.614375 82.224762 
" clip-path="url(#pcb7456af67)" style="fill: none; stroke: #cccccc; stroke-width: 0.8; stroke-linecap: round"/>
     </g>
     <g id="text_10">
      <!-- 0.015 -->
      <g style="fill: #262626" transform="translate(20.4625 85.803668) scale(0.1 -0.1)">
       <use xlink:href="#ArialMT-30"/>
       <use xlink:href="#ArialMT-2e" transform="translate(55.615234 0)"/>
       <use xlink:href="#ArialMT-30" transform="translate(83.398438 0)"/>
       <use xlink:href="#ArialMT-31" transform="translate(139.013672 0)"/>
       <use xlink:href="#ArialMT-35" transform="translate(194.628906 0)"/>
      </g>
     </g>
    </g>
    <g id="ytick_5">
     <g id="line2d_10">
      <path d="M 52.484375 50.693433 
L 283.614375 50.693433 
" clip-path="url(#pcb7456af67)" style="fill: none; stroke: #cccccc; stroke-width: 0.8; stroke-linecap: round"/>
     </g>
     <g id="text_11">
      <!-- 0.020 -->
      <g style="fill: #262626" transform="translate(20.4625 54.272339) scale(0.1 -0.1)">
       <use xlink:href="#ArialMT-30"/>
       <use xlink:href="#ArialMT-2e" transform="translate(55.615234 0)"/>
       <use xlink:href="#ArialMT-30" transform="translate(83.398438 0)"/>
       <use xlink:href="#ArialMT-32" transform="translate(139.013672 0)"/>
       <use xlink:href="#ArialMT-30" transform="translate(194.628906 0)"/>
      </g>
     </g>
    </g>
    <g id="text_12">
     <!-- Density -->
     <g style="fill: #262626" transform="translate(14.357813 130.0975) rotate(-90) scale(0.1 -0.1)">
      <defs>
       <path id="ArialMT-44" d="M 494 0 
L 494 4581 
L 2072 4581 
Q 2606 4581 2888 4516 
Q 3281 4425 3559 4188 
Q 3922 3881 4101 3404 
Q 4281 2928 4281 2316 
Q 4281 1794 4159 1391 
Q 4038 988 3847 723 
Q 3656 459 3429 307 
Q 3203 156 2883 78 
Q 2563 0 2147 0 
L 494 0 
z
M 1100 541 
L 2078 541 
Q 2531 541 2789 625 
Q 3047 709 3200 863 
Q 3416 1078 3536 1442 
Q 3656 1806 3656 2325 
Q 3656 3044 3420 3430 
Q 3184 3816 2847 3947 
Q 2603 4041 2063 4041 
L 1100 4041 
L 1100 541 
z
" transform="scale(0.015625)"/>
       <path id="ArialMT-69" d="M 425 3934 
L 425 4581 
L 988 4581 
L 988 3934 
L 425 3934 
z
M 425 0 
L 425 3319 
L 988 3319 
L 988 0 
L 425 0 
z
" transform="scale(0.015625)"/>
      </defs>
      <use xlink:href="#ArialMT-44"/>
      <use xlink:href="#ArialMT-65" transform="translate(72.216797 0)"/>
      <use xlink:href="#ArialMT-6e" transform="translate(127.832031 0)"/>
      <use xlink:href="#ArialMT-73" transform="translate(183.447266 0)"/>
      <use xlink:href="#ArialMT-69" transform="translate(233.447266 0)"/>
      <use xlink:href="#ArialMT-74" transform="translate(255.664062 0)"/>
      <use xlink:href="#ArialMT-79" transform="translate(283.447266 0)"/>
     </g>
    </g>
   </g>
   <g id="FillBetweenPolyCollection_1">
    <defs>
     <path id="m66122c9984" d="M 62.990284 -36.651416 
L 62.990284 -36.607813 
L 64.046154 -36.607813 
L 65.102025 -36.607813 
L 66.157895 -36.607813 
L 67.213765 -36.607813 
L 68.269635 -36.607813 
L 69.325506 -36.607813 
L 70.381376 -36.607813 
L 71.437246 -36.607813 
L 72.493116 -36.607813 
L 73.548987 -36.607813 
L 74.604857 -36.607813 
L 75.660727 -36.607813 
L 76.716597 -36.607813 
L 77.772468 -36.607813 
L 78.828338 -36.607813 
L 79.884208 -36.607813 
L 80.940079 -36.607813 
L 81.995949 -36.607813 
L 83.051819 -36.607813 
L 84.107689 -36.607813 
L 85.16356 -36.607813 
L 86.21943 -36.607813 
L 87.2753 -36.607813 
L 88.33117 -36.607813 
L 89.387041 -36.607813 
L 90.442911 -36.607813 
L 91.498781 -36.607813 
L 92.554651 -36.607813 
L 93.610522 -36.607813 
L 94.666392 -36.607813 
L 95.722262 -36.607813 
L 96.778132 -36.607813 
L 97.834003 -36.607813 
L 98.889873 -36.607813 
L 99.945743 -36.607813 
L 101.001613 -36.607813 
L 102.057484 -36.607813 
L 103.113354 -36.607813 
L 104.169224 -36.607813 
L 105.225095 -36.607813 
L 106.280965 -36.607813 
L 107.336835 -36.607813 
L 108.392705 -36.607813 
L 109.448576 -36.607813 
L 110.504446 -36.607813 
L 111.560316 -36.607813 
L 112.616186 -36.607813 
L 113.672057 -36.607813 
L 114.727927 -36.607813 
L 115.783797 -36.607813 
L 116.839667 -36.607813 
L 117.895538 -36.607813 
L 118.951408 -36.607813 
L 120.007278 -36.607813 
L 121.063148 -36.607813 
L 122.119019 -36.607813 
L 123.174889 -36.607813 
L 124.230759 -36.607813 
L 125.286629 -36.607813 
L 126.3425 -36.607813 
L 127.39837 -36.607813 
L 128.45424 -36.607813 
L 129.51011 -36.607813 
L 130.565981 -36.607813 
L 131.621851 -36.607813 
L 132.677721 -36.607813 
L 133.733592 -36.607813 
L 134.789462 -36.607813 
L 135.845332 -36.607813 
L 136.901202 -36.607813 
L 137.957073 -36.607813 
L 139.012943 -36.607813 
L 140.068813 -36.607813 
L 141.124683 -36.607813 
L 142.180554 -36.607813 
L 143.236424 -36.607813 
L 144.292294 -36.607813 
L 145.348164 -36.607813 
L 146.404035 -36.607813 
L 147.459905 -36.607813 
L 148.515775 -36.607813 
L 149.571645 -36.607813 
L 150.627516 -36.607813 
L 151.683386 -36.607813 
L 152.739256 -36.607813 
L 153.795126 -36.607813 
L 154.850997 -36.607813 
L 155.906867 -36.607813 
L 156.962737 -36.607813 
L 158.018608 -36.607813 
L 159.074478 -36.607813 
L 160.130348 -36.607813 
L 161.186218 -36.607813 
L 162.242089 -36.607813 
L 163.297959 -36.607813 
L 164.353829 -36.607813 
L 165.409699 -36.607813 
L 166.46557 -36.607813 
L 167.52144 -36.607813 
L 168.57731 -36.607813 
L 169.63318 -36.607813 
L 170.689051 -36.607813 
L 171.744921 -36.607813 
L 172.800791 -36.607813 
L 173.856661 -36.607813 
L 174.912532 -36.607813 
L 175.968402 -36.607813 
L 177.024272 -36.607813 
L 178.080142 -36.607813 
L 179.136013 -36.607813 
L 180.191883 -36.607813 
L 181.247753 -36.607813 
L 182.303624 -36.607813 
L 183.359494 -36.607813 
L 184.415364 -36.607813 
L 185.471234 -36.607813 
L 186.527105 -36.607813 
L 187.582975 -36.607813 
L 188.638845 -36.607813 
L 189.694715 -36.607813 
L 190.750586 -36.607813 
L 191.806456 -36.607813 
L 192.862326 -36.607813 
L 193.918196 -36.607813 
L 194.974067 -36.607813 
L 196.029937 -36.607813 
L 197.085807 -36.607813 
L 198.141677 -36.607813 
L 199.197548 -36.607813 
L 200.253418 -36.607813 
L 201.309288 -36.607813 
L 202.365158 -36.607813 
L 203.421029 -36.607813 
L 204.476899 -36.607813 
L 205.532769 -36.607813 
L 206.58864 -36.607813 
L 207.64451 -36.607813 
L 208.70038 -36.607813 
L 209.75625 -36.607813 
L 210.812121 -36.607813 
L 211.867991 -36.607813 
L 212.923861 -36.607813 
L 213.979731 -36.607813 
L 215.035602 -36.607813 
L 216.091472 -36.607813 
L 217.147342 -36.607813 
L 218.203212 -36.607813 
L 219.259083 -36.607813 
L 220.314953 -36.607813 
L 221.370823 -36.607813 
L 222.426693 -36.607813 
L 223.482564 -36.607813 
L 224.538434 -36.607813 
L 225.594304 -36.607813 
L 226.650174 -36.607813 
L 227.706045 -36.607813 
L 228.761915 -36.607813 
L 229.817785 -36.607813 
L 230.873655 -36.607813 
L 231.929526 -36.607813 
L 232.985396 -36.607813 
L 234.041266 -36.607813 
L 235.097137 -36.607813 
L 236.153007 -36.607813 
L 237.208877 -36.607813 
L 238.264747 -36.607813 
L 239.320618 -36.607813 
L 240.376488 -36.607813 
L 241.432358 -36.607813 
L 242.488228 -36.607813 
L 243.544099 -36.607813 
L 244.599969 -36.607813 
L 245.655839 -36.607813 
L 246.711709 -36.607813 
L 247.76758 -36.607813 
L 248.82345 -36.607813 
L 249.87932 -36.607813 
L 250.93519 -36.607813 
L 251.991061 -36.607813 
L 253.046931 -36.607813 
L 254.102801 -36.607813 
L 255.158671 -36.607813 
L 256.214542 -36.607813 
L 257.270412 -36.607813 
L 258.326282 -36.607813 
L 259.382153 -36.607813 
L 260.438023 -36.607813 
L 261.493893 -36.607813 
L 262.549763 -36.607813 
L 263.605634 -36.607813 
L 264.661504 -36.607813 
L 265.717374 -36.607813 
L 266.773244 -36.607813 
L 267.829115 -36.607813 
L 268.884985 -36.607813 
L 269.940855 -36.607813 
L 270.996725 -36.607813 
L 272.052596 -36.607813 
L 273.108466 -36.607813 
L 273.108466 -36.647057 
L 273.108466 -36.647057 
L 272.052596 -36.659861 
L 270.996725 -36.676406 
L 269.940855 -36.697643 
L 268.884985 -36.724724 
L 267.829115 -36.759031 
L 266.773244 -36.802207 
L 265.717374 -36.856196 
L 264.661504 -36.923271 
L 263.605634 -37.006074 
L 262.549763 -37.107646 
L 261.493893 -37.23146 
L 260.438023 -37.381447 
L 259.382153 -37.562017 
L 258.326282 -37.778073 
L 257.270412 -38.035016 
L 256.214542 -38.338735 
L 255.158671 -38.695587 
L 254.102801 -39.112363 
L 253.046931 -39.596229 
L 251.991061 -40.154654 
L 250.93519 -40.795316 
L 249.87932 -41.525982 
L 248.82345 -42.354369 
L 247.76758 -43.287978 
L 246.711709 -44.333907 
L 245.655839 -45.498644 
L 244.599969 -46.787836 
L 243.544099 -48.206047 
L 242.488228 -49.756503 
L 241.432358 -51.440829 
L 240.376488 -53.258794 
L 239.320618 -55.208062 
L 238.264747 -57.283961 
L 237.208877 -59.47929 
L 236.153007 -61.784158 
L 235.097137 -64.185885 
L 234.041266 -66.668952 
L 232.985396 -69.215042 
L 231.929526 -71.803142 
L 230.873655 -74.409749 
L 229.817785 -77.009149 
L 228.761915 -79.573802 
L 227.706045 -82.0748 
L 226.650174 -84.482409 
L 225.594304 -86.76668 
L 224.538434 -88.898105 
L 223.482564 -90.848319 
L 222.426693 -92.590805 
L 221.370823 -94.1016 
L 220.314953 -95.359965 
L 219.259083 -96.349006 
L 218.203212 -97.056223 
L 217.147342 -97.473959 
L 216.091472 -97.599752 
L 215.035602 -97.436562 
L 213.979731 -96.992874 
L 212.923861 -96.282671 
L 211.867991 -95.32528 
L 210.812121 -94.145098 
L 209.75625 -92.771204 
L 208.70038 -91.23687 
L 207.64451 -89.578988 
L 206.58864 -87.837426 
L 205.532769 -86.054321 
L 204.476899 -84.273341 
L 203.421029 -82.538917 
L 202.365158 -80.895455 
L 201.309288 -79.386553 
L 200.253418 -78.054227 
L 199.197548 -76.938138 
L 198.141677 -76.074861 
L 197.085807 -75.497173 
L 196.029937 -75.233379 
L 194.974067 -75.306693 
L 193.918196 -75.73466 
L 192.862326 -76.528657 
L 191.806456 -77.693467 
L 190.750586 -79.22694 
L 189.694715 -81.119768 
L 188.638845 -83.355376 
L 187.582975 -85.909954 
L 186.527105 -88.752631 
L 185.471234 -91.845817 
L 184.415364 -95.145713 
L 183.359494 -98.602985 
L 182.303624 -102.163618 
L 181.247753 -105.769919 
L 180.191883 -109.361668 
L 179.136013 -112.877393 
L 178.080142 -116.255733 
L 177.024272 -119.436857 
L 175.968402 -122.363909 
L 174.912532 -124.984413 
L 173.856661 -127.251625 
L 172.800791 -129.12576 
L 171.744921 -130.575068 
L 170.689051 -131.576725 
L 169.63318 -132.117492 
L 168.57731 -132.19414 
L 167.52144 -131.813611 
L 166.46557 -130.992913 
L 165.409699 -129.758765 
L 164.353829 -128.146989 
L 163.297959 -126.201678 
L 162.242089 -123.974172 
L 161.186218 -121.521869 
L 160.130348 -118.906911 
L 159.074478 -116.194783 
L 158.018608 -113.452866 
L 156.962737 -110.748982 
L 155.906867 -108.149961 
L 154.850997 -105.720266 
L 153.795126 -103.5207 
L 152.739256 -101.60722 
L 151.683386 -100.029871 
L 150.627516 -98.83186 
L 149.571645 -98.04877 
L 148.515775 -97.707925 
L 147.459905 -97.827921 
L 146.404035 -98.418294 
L 145.348164 -99.479367 
L 144.292294 -101.002234 
L 143.236424 -102.968913 
L 142.180554 -105.352648 
L 141.124683 -108.118356 
L 140.068813 -111.223223 
L 139.012943 -114.617442 
L 137.957073 -118.245073 
L 136.901202 -122.045029 
L 135.845332 -125.952168 
L 134.789462 -129.898466 
L 133.733592 -133.814268 
L 132.677721 -137.629582 
L 131.621851 -141.275387 
L 130.565981 -144.684945 
L 129.51011 -147.795066 
L 128.45424 -150.547314 
L 127.39837 -152.889118 
L 126.3425 -154.774756 
L 125.286629 -156.166195 
L 124.230759 -157.033761 
L 123.174889 -157.356622 
L 122.119019 -157.123071 
L 121.063148 -156.330602 
L 120.007278 -154.985783 
L 118.951408 -153.103918 
L 117.895538 -150.708531 
L 116.839667 -147.830665 
L 115.783797 -144.508036 
L 114.727927 -140.784057 
L 113.672057 -136.706774 
L 112.616186 -132.327727 
L 111.560316 -127.70079 
L 110.504446 -122.881009 
L 109.448576 -117.923476 
L 108.392705 -112.88226 
L 107.336835 -107.809434 
L 106.280965 -102.754209 
L 105.225095 -97.76219 
L 104.169224 -92.874782 
L 103.113354 -88.128726 
L 102.057484 -83.555795 
L 101.001613 -79.182621 
L 99.945743 -75.030666 
L 98.889873 -71.116309 
L 97.834003 -67.451045 
L 96.778132 -64.041776 
L 95.722262 -60.891176 
L 94.666392 -57.998112 
L 93.610522 -55.358106 
L 92.554651 -52.963808 
L 91.498781 -50.805493 
L 90.442911 -48.871529 
L 89.387041 -47.148842 
L 88.33117 -45.623336 
L 87.2753 -44.280292 
L 86.21943 -43.104714 
L 85.16356 -42.081629 
L 84.107689 -41.19635 
L 83.051819 -40.434687 
L 81.995949 -39.783112 
L 80.940079 -39.228886 
L 79.884208 -38.760153 
L 78.828338 -38.365985 
L 77.772468 -38.036417 
L 76.716597 -37.762443 
L 75.660727 -37.535997 
L 74.604857 -37.349917 
L 73.548987 -37.197896 
L 72.493116 -37.074427 
L 71.437246 -36.974737 
L 70.381376 -36.894724 
L 69.325506 -36.830886 
L 68.269635 -36.78026 
L 67.213765 -36.740353 
L 66.157895 -36.709088 
L 65.102025 -36.684743 
L 64.046154 -36.665903 
L 62.990284 -36.651416 
z
" style="stroke: #1f77b4"/>
    </defs>
    <g clip-path="url(#pcb7456af67)">
     <use xlink:href="#m66122c9984" x="0" y="213.426563" style="fill: #1f77b4; fill-opacity: 0.25; stroke: #1f77b4"/>
    </g>
   </g>
   <g id="patch_3">
    <path d="M 52.484375 176.81875 
L 52.484375 50.0325 
" style="fill: none; stroke: #cccccc; stroke-width: 0.8; stroke-linejoin: miter; stroke-linecap: square"/>
   </g>
   <g id="patch_4">
    <path d="M 283.614375 176.81875 
L 283.614375 50.0325 
" style="fill: none; stroke: #cccccc; stroke-width: 0.8; stroke-linejoin: miter; stroke-linecap: square"/>
   </g>
   <g id="patch_5">
    <path d="M 52.484375 176.81875 
L 283.614375 176.81875 
" style="fill: none; stroke: #cccccc; stroke-width: 0.8; stroke-linejoin: miter; stroke-linecap: square"/>
   </g>
   <g id="patch_6">
    <path d="M 52.484375 50.0325 
L 283.614375 50.0325 
" style="fill: none; stroke: #cccccc; stroke-width: 0.8; stroke-linejoin: miter; stroke-linecap: square"/>
   </g>
   <g id="text_13">
    <!-- Latency dist -->
    <g style="fill: #262626" transform="translate(136.032812 44.0325) scale(0.12 -0.12)">
     <defs>
      <path id="ArialMT-4c" d="M 469 0 
L 469 4581 
L 1075 4581 
L 1075 541 
L 3331 541 
L 3331 0 
L 469 0 
z
" transform="scale(0.015625)"/>
      <path id="ArialMT-20" transform="scale(0.015625)"/>
      <path id="ArialMT-64" d="M 2575 0 
L 2575 419 
Q 2259 -75 1647 -75 
Q 1250 -75 917 144 
Q 584 363 401 755 
Q 219 1147 219 1656 
Q 219 2153 384 2558 
Q 550 2963 881 3178 
Q 1213 3394 1622 3394 
Q 1922 3394 2156 3267 
Q 2391 3141 2538 2938 
L 2538 4581 
L 3097 4581 
L 3097 0 
L 2575 0 
z
M 797 1656 
Q 797 1019 1065 703 
Q 1334 388 1700 388 
Q 2069 388 2326 689 
Q 2584 991 2584 1609 
Q 2584 2291 2321 2609 
Q 2059 2928 1675 2928 
Q 1300 2928 1048 2622 
Q 797 2316 797 1656 
z
" transform="scale(0.015625)"/>
     </defs>
     <use xlink:href="#ArialMT-4c"/>
     <use xlink:href="#ArialMT-61" transform="translate(55.615234 0)"/>
     <use xlink:href="#ArialMT-74" transform="translate(111.230469 0)"/>
     <use xlink:href="#ArialMT-65" transform="translate(139.013672 0)"/>
     <use xlink:href="#ArialMT-6e" transform="translate(194.628906 0)"/>
     <use xlink:href="#ArialMT-63" transform="translate(250.244141 0)"/>
     <use xlink:href="#ArialMT-79" transform="translate(300.244141 0)"/>
     <use xlink:href="#ArialMT-20" transform="translate(350.244141 0)"/>
     <use xlink:href="#ArialMT-64" transform="translate(378.027344 0)"/>
     <use xlink:href="#ArialMT-69" transform="translate(433.642578 0)"/>
     <use xlink:href="#ArialMT-73" transform="translate(455.859375 0)"/>
     <use xlink:href="#ArialMT-74" transform="translate(505.859375 0)"/>
    </g>
   </g>
  </g>
  <g id="axes_2">
   <g id="patch_7">
    <path d="M 335.024375 176.81875 
L 566.154375 176.81875 
L 566.154375 50.0325 
L 335.024375 50.0325 
z
" style="fill: #ffffff"/>
   </g>
   <g id="matplotlib.axis_3">
    <g id="xtick_6">
     <g id="line2d_11">
      <path d="M 366.438201 176.81875 
L 366.438201 50.0325 
" clip-path="url(#pf3499c52f0)" style="fill: none; stroke: #cccccc; stroke-width: 0.8; stroke-linecap: round"/>
     </g>
     <g id="text_14">
      <!-- 20 -->
      <g style="fill: #262626" transform="translate(360.877264 190.976562) scale(0.1 -0.1)">
       <use xlink:href="#ArialMT-32"/>
       <use xlink:href="#ArialMT-30" transform="translate(55.615234 0)"/>
      </g>
     </g>
    </g>
    <g id="xtick_7">
     <g id="line2d_12">
      <path d="M 399.981705 176.81875 
L 399.981705 50.0325 
" clip-path="url(#pf3499c52f0)" style="fill: none; stroke: #cccccc; stroke-width: 0.8; stroke-linecap: round"/>
     </g>
     <g id="text_15">
      <!-- 30 -->
      <g style="fill: #262626" transform="translate(394.420767 190.976562) scale(0.1 -0.1)">
       <defs>
        <path id="ArialMT-33" d="M 269 1209 
L 831 1284 
Q 928 806 1161 595 
Q 1394 384 1728 384 
Q 2125 384 2398 659 
Q 2672 934 2672 1341 
Q 2672 1728 2419 1979 
Q 2166 2231 1775 2231 
Q 1616 2231 1378 2169 
L 1441 2663 
Q 1497 2656 1531 2656 
Q 1891 2656 2178 2843 
Q 2466 3031 2466 3422 
Q 2466 3731 2256 3934 
Q 2047 4138 1716 4138 
Q 1388 4138 1169 3931 
Q 950 3725 888 3313 
L 325 3413 
Q 428 3978 793 4289 
Q 1159 4600 1703 4600 
Q 2078 4600 2393 4439 
Q 2709 4278 2876 4000 
Q 3044 3722 3044 3409 
Q 3044 3113 2884 2869 
Q 2725 2625 2413 2481 
Q 2819 2388 3044 2092 
Q 3269 1797 3269 1353 
Q 3269 753 2831 336 
Q 2394 -81 1725 -81 
Q 1122 -81 723 278 
Q 325 638 269 1209 
z
" transform="scale(0.015625)"/>
       </defs>
       <use xlink:href="#ArialMT-33"/>
       <use xlink:href="#ArialMT-30" transform="translate(55.615234 0)"/>
      </g>
     </g>
    </g>
    <g id="xtick_8">
     <g id="line2d_13">
      <path d="M 433.525209 176.81875 
L 433.525209 50.0325 
" clip-path="url(#pf3499c52f0)" style="fill: none; stroke: #cccccc; stroke-width: 0.8; stroke-linecap: round"/>
     </g>
     <g id="text_16">
      <!-- 40 -->
      <g style="fill: #262626" transform="translate(427.964271 190.976562) scale(0.1 -0.1)">
       <defs>
        <path id="ArialMT-34" d="M 2069 0 
L 2069 1097 
L 81 1097 
L 81 1613 
L 2172 4581 
L 2631 4581 
L 2631 1613 
L 3250 1613 
L 3250 1097 
L 2631 1097 
L 2631 0 
L 2069 0 
z
M 2069 1613 
L 2069 3678 
L 634 1613 
L 2069 1613 
z
" transform="scale(0.015625)"/>
       </defs>
       <use xlink:href="#ArialMT-34"/>
       <use xlink:href="#ArialMT-30" transform="translate(55.615234 0)"/>
      </g>
     </g>
    </g>
    <g id="xtick_9">
     <g id="line2d_14">
      <path d="M 467.068712 176.81875 
L 467.068712 50.0325 
" clip-path="url(#pf3499c52f0)" style="fill: none; stroke: #cccccc; stroke-width: 0.8; stroke-linecap: round"/>
     </g>
     <g id="text_17">
      <!-- 50 -->
      <g style="fill: #262626" transform="translate(461.507775 190.976562) scale(0.1 -0.1)">
       <use xlink:href="#ArialMT-35"/>
       <use xlink:href="#ArialMT-30" transform="translate(55.615234 0)"/>
      </g>
     </g>
    </g>
    <g id="xtick_10">
     <g id="line2d_15">
      <path d="M 500.612216 176.81875 
L 500.612216 50.0325 
" clip-path="url(#pf3499c52f0)" style="fill: none; stroke: #cccccc; stroke-width: 0.8; stroke-linecap: round"/>
     </g>
     <g id="text_18">
      <!-- 60 -->
      <g style="fill: #262626" transform="translate(495.051279 190.976562) scale(0.1 -0.1)">
       <defs>
        <path id="ArialMT-36" d="M 3184 3459 
L 2625 3416 
Q 2550 3747 2413 3897 
Q 2184 4138 1850 4138 
Q 1581 4138 1378 3988 
Q 1113 3794 959 3422 
Q 806 3050 800 2363 
Q 1003 2672 1297 2822 
Q 1591 2972 1913 2972 
Q 2475 2972 2870 2558 
Q 3266 2144 3266 1488 
Q 3266 1056 3080 686 
Q 2894 316 2569 119 
Q 2244 -78 1831 -78 
Q 1128 -78 684 439 
Q 241 956 241 2144 
Q 241 3472 731 4075 
Q 1159 4600 1884 4600 
Q 2425 4600 2770 4297 
Q 3116 3994 3184 3459 
z
M 888 1484 
Q 888 1194 1011 928 
Q 1134 663 1356 523 
Q 1578 384 1822 384 
Q 2178 384 2434 671 
Q 2691 959 2691 1453 
Q 2691 1928 2437 2201 
Q 2184 2475 1800 2475 
Q 1419 2475 1153 2201 
Q 888 1928 888 1484 
z
" transform="scale(0.015625)"/>
       </defs>
       <use xlink:href="#ArialMT-36"/>
       <use xlink:href="#ArialMT-30" transform="translate(55.615234 0)"/>
      </g>
     </g>
    </g>
    <g id="xtick_11">
     <g id="line2d_16">
      <path d="M 534.15572 176.81875 
L 534.15572 50.0325 
" clip-path="url(#pf3499c52f0)" style="fill: none; stroke: #cccccc; stroke-width: 0.8; stroke-linecap: round"/>
     </g>
     <g id="text_19">
      <!-- 70 -->
      <g style="fill: #262626" transform="translate(528.594782 190.976562) scale(0.1 -0.1)">
       <use xlink:href="#ArialMT-37"/>
       <use xlink:href="#ArialMT-30" transform="translate(55.615234 0)"/>
      </g>
     </g>
    </g>
    <g id="text_20">
     <!-- throughput_rps -->
     <g style="fill: #262626" transform="translate(416.957344 204.121875) scale(0.1 -0.1)">
      <defs>
       <path id="ArialMT-68" d="M 422 0 
L 422 4581 
L 984 4581 
L 984 2938 
Q 1378 3394 1978 3394 
Q 2347 3394 2619 3248 
Q 2891 3103 3008 2847 
Q 3125 2591 3125 2103 
L 3125 0 
L 2563 0 
L 2563 2103 
Q 2563 2525 2380 2717 
Q 2197 2909 1863 2909 
Q 1613 2909 1392 2779 
Q 1172 2650 1078 2428 
Q 984 2206 984 1816 
L 984 0 
L 422 0 
z
" transform="scale(0.015625)"/>
       <path id="ArialMT-72" d="M 416 0 
L 416 3319 
L 922 3319 
L 922 2816 
Q 1116 3169 1280 3281 
Q 1444 3394 1641 3394 
Q 1925 3394 2219 3213 
L 2025 2691 
Q 1819 2813 1613 2813 
Q 1428 2813 1281 2702 
Q 1134 2591 1072 2394 
Q 978 2094 978 1738 
L 978 0 
L 416 0 
z
" transform="scale(0.015625)"/>
       <path id="ArialMT-6f" d="M 213 1659 
Q 213 2581 725 3025 
Q 1153 3394 1769 3394 
Q 2453 3394 2887 2945 
Q 3322 2497 3322 1706 
Q 3322 1066 3130 698 
Q 2938 331 2570 128 
Q 2203 -75 1769 -75 
Q 1072 -75 642 372 
Q 213 819 213 1659 
z
M 791 1659 
Q 791 1022 1069 705 
Q 1347 388 1769 388 
Q 2188 388 2466 706 
Q 2744 1025 2744 1678 
Q 2744 2294 2464 2611 
Q 2184 2928 1769 2928 
Q 1347 2928 1069 2612 
Q 791 2297 791 1659 
z
" transform="scale(0.015625)"/>
       <path id="ArialMT-75" d="M 2597 0 
L 2597 488 
Q 2209 -75 1544 -75 
Q 1250 -75 995 37 
Q 741 150 617 320 
Q 494 491 444 738 
Q 409 903 409 1263 
L 409 3319 
L 972 3319 
L 972 1478 
Q 972 1038 1006 884 
Q 1059 663 1231 536 
Q 1403 409 1656 409 
Q 1909 409 2131 539 
Q 2353 669 2445 892 
Q 2538 1116 2538 1541 
L 2538 3319 
L 3100 3319 
L 3100 0 
L 2597 0 
z
" transform="scale(0.015625)"/>
       <path id="ArialMT-67" d="M 319 -275 
L 866 -356 
Q 900 -609 1056 -725 
Q 1266 -881 1628 -881 
Q 2019 -881 2231 -725 
Q 2444 -569 2519 -288 
Q 2563 -116 2559 434 
Q 2191 0 1641 0 
Q 956 0 581 494 
Q 206 988 206 1678 
Q 206 2153 378 2554 
Q 550 2956 876 3175 
Q 1203 3394 1644 3394 
Q 2231 3394 2613 2919 
L 2613 3319 
L 3131 3319 
L 3131 450 
Q 3131 -325 2973 -648 
Q 2816 -972 2473 -1159 
Q 2131 -1347 1631 -1347 
Q 1038 -1347 672 -1080 
Q 306 -813 319 -275 
z
M 784 1719 
Q 784 1066 1043 766 
Q 1303 466 1694 466 
Q 2081 466 2343 764 
Q 2606 1063 2606 1700 
Q 2606 2309 2336 2618 
Q 2066 2928 1684 2928 
Q 1309 2928 1046 2623 
Q 784 2319 784 1719 
z
" transform="scale(0.015625)"/>
       <path id="ArialMT-70" d="M 422 -1272 
L 422 3319 
L 934 3319 
L 934 2888 
Q 1116 3141 1344 3267 
Q 1572 3394 1897 3394 
Q 2322 3394 2647 3175 
Q 2972 2956 3137 2557 
Q 3303 2159 3303 1684 
Q 3303 1175 3120 767 
Q 2938 359 2589 142 
Q 2241 -75 1856 -75 
Q 1575 -75 1351 44 
Q 1128 163 984 344 
L 984 -1272 
L 422 -1272 
z
M 931 1641 
Q 931 1000 1190 694 
Q 1450 388 1819 388 
Q 2194 388 2461 705 
Q 2728 1022 2728 1688 
Q 2728 2322 2467 2637 
Q 2206 2953 1844 2953 
Q 1484 2953 1207 2617 
Q 931 2281 931 1641 
z
" transform="scale(0.015625)"/>
      </defs>
      <use xlink:href="#ArialMT-74"/>
      <use xlink:href="#ArialMT-68" transform="translate(27.783203 0)"/>
      <use xlink:href="#ArialMT-72" transform="translate(83.398438 0)"/>
      <use xlink:href="#ArialMT-6f" transform="translate(116.699219 0)"/>
      <use xlink:href="#ArialMT-75" transform="translate(172.314453 0)"/>
      <use xlink:href="#ArialMT-67" transform="translate(227.929688 0)"/>
      <use xlink:href="#ArialMT-68" transform="translate(283.544922 0)"/>
      <use xlink:href="#ArialMT-70" transform="translate(339.160156 0)"/>
      <use xlink:href="#ArialMT-75" transform="translate(394.775391 0)"/>
      <use xlink:href="#ArialMT-74" transform="translate(450.390625 0)"/>
      <use xlink:href="#ArialMT-5f" transform="translate(478.173828 0)"/>
      <use xlink:href="#ArialMT-72" transform="translate(533.789062 0)"/>
      <use xlink:href="#ArialMT-70" transform="translate(567.089844 0)"/>
      <use xlink:href="#ArialMT-73" transform="translate(622.705078 0)"/>
     </g>
    </g>
   </g>
   <g id="matplotlib.axis_4">
    <g id="ytick_6">
     <g id="line2d_17">
      <path d="M 335.024375 176.81875 
L 566.154375 176.81875 
" clip-path="url(#pf3499c52f0)" style="fill: none; stroke: #cccccc; stroke-width: 0.8; stroke-linecap: round"/>
     </g>
     <g id="text_21">
      <!-- 0.00 -->
      <g style="fill: #262626" transform="translate(308.563438 180.397656) scale(0.1 -0.1)">
       <use xlink:href="#ArialMT-30"/>
       <use xlink:href="#ArialMT-2e" transform="translate(55.615234 0)"/>
       <use xlink:href="#ArialMT-30" transform="translate(83.398438 0)"/>
       <use xlink:href="#ArialMT-30" transform="translate(139.013672 0)"/>
      </g>
     </g>
    </g>
    <g id="ytick_7">
     <g id="line2d_18">
      <path d="M 335.024375 146.003161 
L 566.154375 146.003161 
" clip-path="url(#pf3499c52f0)" style="fill: none; stroke: #cccccc; stroke-width: 0.8; stroke-linecap: round"/>
     </g>
     <g id="text_22">
      <!-- 0.01 -->
      <g style="fill: #262626" transform="translate(308.563438 149.582067) scale(0.1 -0.1)">
       <use xlink:href="#ArialMT-30"/>
       <use xlink:href="#ArialMT-2e" transform="translate(55.615234 0)"/>
       <use xlink:href="#ArialMT-30" transform="translate(83.398438 0)"/>
       <use xlink:href="#ArialMT-31" transform="translate(139.013672 0)"/>
      </g>
     </g>
    </g>
    <g id="ytick_8">
     <g id="line2d_19">
      <path d="M 335.024375 115.187572 
L 566.154375 115.187572 
" clip-path="url(#pf3499c52f0)" style="fill: none; stroke: #cccccc; stroke-width: 0.8; stroke-linecap: round"/>
     </g>
     <g id="text_23">
      <!-- 0.02 -->
      <g style="fill: #262626" transform="translate(308.563438 118.766478) scale(0.1 -0.1)">
       <use xlink:href="#ArialMT-30"/>
       <use xlink:href="#ArialMT-2e" transform="translate(55.615234 0)"/>
       <use xlink:href="#ArialMT-30" transform="translate(83.398438 0)"/>
       <use xlink:href="#ArialMT-32" transform="translate(139.013672 0)"/>
      </g>
     </g>
    </g>
    <g id="ytick_9">
     <g id="line2d_20">
      <path d="M 335.024375 84.371983 
L 566.154375 84.371983 
" clip-path="url(#pf3499c52f0)" style="fill: none; stroke: #cccccc; stroke-width: 0.8; stroke-linecap: round"/>
     </g>
     <g id="text_24">
      <!-- 0.03 -->
      <g style="fill: #262626" transform="translate(308.563438 87.950889) scale(0.1 -0.1)">
       <use xlink:href="#ArialMT-30"/>
       <use xlink:href="#ArialMT-2e" transform="translate(55.615234 0)"/>
       <use xlink:href="#ArialMT-30" transform="translate(83.398438 0)"/>
       <use xlink:href="#ArialMT-33" transform="translate(139.013672 0)"/>
      </g>
     </g>
    </g>
    <g id="ytick_10">
     <g id="line2d_21">
      <path d="M 335.024375 53.556394 
L 566.154375 53.556394 
" clip-path="url(#pf3499c52f0)" style="fill: none; stroke: #cccccc; stroke-width: 0.8; stroke-linecap: round"/>
     </g>
     <g id="text_25">
      <!-- 0.04 -->
      <g style="fill: #262626" transform="translate(308.563438 57.1353) scale(0.1 -0.1)">
       <use xlink:href="#ArialMT-30"/>
       <use xlink:href="#ArialMT-2e" transform="translate(55.615234 0)"/>
       <use xlink:href="#ArialMT-30" transform="translate(83.398438 0)"/>
       <use xlink:href="#ArialMT-34" transform="translate(139.013672 0)"/>
      </g>
     </g>
    </g>
    <g id="text_26">
     <!-- Density -->
     <g style="fill: #262626" transform="translate(302.45875 130.0975) rotate(-90) scale(0.1 -0.1)">
      <use xlink:href="#ArialMT-44"/>
      <use xlink:href="#ArialMT-65" transform="translate(72.216797 0)"/>
      <use xlink:href="#ArialMT-6e" transform="translate(127.832031 0)"/>
      <use xlink:href="#ArialMT-73" transform="translate(183.447266 0)"/>
      <use xlink:href="#ArialMT-69" transform="translate(233.447266 0)"/>
      <use xlink:href="#ArialMT-74" transform="translate(255.664062 0)"/>
      <use xlink:href="#ArialMT-79" transform="translate(283.447266 0)"/>
     </g>
    </g>
   </g>
   <g id="FillBetweenPolyCollection_2">
    <defs>
     <path id="m740b5dfa2e" d="M 345.530284 -36.693725 
L 345.530284 -36.607813 
L 346.586154 -36.607813 
L 347.642025 -36.607813 
L 348.697895 -36.607813 
L 349.753765 -36.607813 
L 350.809635 -36.607813 
L 351.865506 -36.607813 
L 352.921376 -36.607813 
L 353.977246 -36.607813 
L 355.033116 -36.607813 
L 356.088987 -36.607813 
L 357.144857 -36.607813 
L 358.200727 -36.607813 
L 359.256597 -36.607813 
L 360.312468 -36.607813 
L 361.368338 -36.607813 
L 362.424208 -36.607813 
L 363.480079 -36.607813 
L 364.535949 -36.607813 
L 365.591819 -36.607813 
L 366.647689 -36.607813 
L 367.70356 -36.607813 
L 368.75943 -36.607813 
L 369.8153 -36.607813 
L 370.87117 -36.607813 
L 371.927041 -36.607813 
L 372.982911 -36.607813 
L 374.038781 -36.607813 
L 375.094651 -36.607813 
L 376.150522 -36.607813 
L 377.206392 -36.607813 
L 378.262262 -36.607813 
L 379.318132 -36.607813 
L 380.374003 -36.607813 
L 381.429873 -36.607813 
L 382.485743 -36.607813 
L 383.541613 -36.607813 
L 384.597484 -36.607813 
L 385.653354 -36.607813 
L 386.709224 -36.607813 
L 387.765095 -36.607813 
L 388.820965 -36.607813 
L 389.876835 -36.607813 
L 390.932705 -36.607813 
L 391.988576 -36.607813 
L 393.044446 -36.607813 
L 394.100316 -36.607813 
L 395.156186 -36.607813 
L 396.212057 -36.607813 
L 397.267927 -36.607813 
L 398.323797 -36.607813 
L 399.379667 -36.607813 
L 400.435538 -36.607813 
L 401.491408 -36.607813 
L 402.547278 -36.607813 
L 403.603148 -36.607813 
L 404.659019 -36.607813 
L 405.714889 -36.607813 
L 406.770759 -36.607813 
L 407.826629 -36.607813 
L 408.8825 -36.607813 
L 409.93837 -36.607813 
L 410.99424 -36.607813 
L 412.05011 -36.607813 
L 413.105981 -36.607813 
L 414.161851 -36.607813 
L 415.217721 -36.607813 
L 416.273592 -36.607813 
L 417.329462 -36.607813 
L 418.385332 -36.607813 
L 419.441202 -36.607813 
L 420.497073 -36.607813 
L 421.552943 -36.607813 
L 422.608813 -36.607813 
L 423.664683 -36.607813 
L 424.720554 -36.607813 
L 425.776424 -36.607813 
L 426.832294 -36.607813 
L 427.888164 -36.607813 
L 428.944035 -36.607813 
L 429.999905 -36.607813 
L 431.055775 -36.607813 
L 432.111645 -36.607813 
L 433.167516 -36.607813 
L 434.223386 -36.607813 
L 435.279256 -36.607813 
L 436.335126 -36.607813 
L 437.390997 -36.607813 
L 438.446867 -36.607813 
L 439.502737 -36.607813 
L 440.558608 -36.607813 
L 441.614478 -36.607813 
L 442.670348 -36.607813 
L 443.726218 -36.607813 
L 444.782089 -36.607813 
L 445.837959 -36.607813 
L 446.893829 -36.607813 
L 447.949699 -36.607813 
L 449.00557 -36.607813 
L 450.06144 -36.607813 
L 451.11731 -36.607813 
L 452.17318 -36.607813 
L 453.229051 -36.607813 
L 454.284921 -36.607813 
L 455.340791 -36.607813 
L 456.396661 -36.607813 
L 457.452532 -36.607813 
L 458.508402 -36.607813 
L 459.564272 -36.607813 
L 460.620142 -36.607813 
L 461.676013 -36.607813 
L 462.731883 -36.607813 
L 463.787753 -36.607813 
L 464.843624 -36.607813 
L 465.899494 -36.607813 
L 466.955364 -36.607813 
L 468.011234 -36.607813 
L 469.067105 -36.607813 
L 470.122975 -36.607813 
L 471.178845 -36.607813 
L 472.234715 -36.607813 
L 473.290586 -36.607813 
L 474.346456 -36.607813 
L 475.402326 -36.607813 
L 476.458196 -36.607813 
L 477.514067 -36.607813 
L 478.569937 -36.607813 
L 479.625807 -36.607813 
L 480.681677 -36.607813 
L 481.737548 -36.607813 
L 482.793418 -36.607813 
L 483.849288 -36.607813 
L 484.905158 -36.607813 
L 485.961029 -36.607813 
L 487.016899 -36.607813 
L 488.072769 -36.607813 
L 489.12864 -36.607813 
L 490.18451 -36.607813 
L 491.24038 -36.607813 
L 492.29625 -36.607813 
L 493.352121 -36.607813 
L 494.407991 -36.607813 
L 495.463861 -36.607813 
L 496.519731 -36.607813 
L 497.575602 -36.607813 
L 498.631472 -36.607813 
L 499.687342 -36.607813 
L 500.743212 -36.607813 
L 501.799083 -36.607813 
L 502.854953 -36.607813 
L 503.910823 -36.607813 
L 504.966693 -36.607813 
L 506.022564 -36.607813 
L 507.078434 -36.607813 
L 508.134304 -36.607813 
L 509.190174 -36.607813 
L 510.246045 -36.607813 
L 511.301915 -36.607813 
L 512.357785 -36.607813 
L 513.413655 -36.607813 
L 514.469526 -36.607813 
L 515.525396 -36.607813 
L 516.581266 -36.607813 
L 517.637137 -36.607813 
L 518.693007 -36.607813 
L 519.748877 -36.607813 
L 520.804747 -36.607813 
L 521.860618 -36.607813 
L 522.916488 -36.607813 
L 523.972358 -36.607813 
L 525.028228 -36.607813 
L 526.084099 -36.607813 
L 527.139969 -36.607813 
L 528.195839 -36.607813 
L 529.251709 -36.607813 
L 530.30758 -36.607813 
L 531.36345 -36.607813 
L 532.41932 -36.607813 
L 533.47519 -36.607813 
L 534.531061 -36.607813 
L 535.586931 -36.607813 
L 536.642801 -36.607813 
L 537.698671 -36.607813 
L 538.754542 -36.607813 
L 539.810412 -36.607813 
L 540.866282 -36.607813 
L 541.922153 -36.607813 
L 542.978023 -36.607813 
L 544.033893 -36.607813 
L 545.089763 -36.607813 
L 546.145634 -36.607813 
L 547.201504 -36.607813 
L 548.257374 -36.607813 
L 549.313244 -36.607813 
L 550.369115 -36.607813 
L 551.424985 -36.607813 
L 552.480855 -36.607813 
L 553.536725 -36.607813 
L 554.592596 -36.607813 
L 555.648466 -36.607813 
L 555.648466 -36.766543 
L 555.648466 -36.766543 
L 554.592596 -36.813198 
L 553.536725 -36.872165 
L 552.480855 -36.946275 
L 551.424985 -37.03889 
L 550.369115 -37.153973 
L 549.313244 -37.296168 
L 548.257374 -37.470864 
L 547.201504 -37.684272 
L 546.145634 -37.943486 
L 545.089763 -38.256542 
L 544.033893 -38.632466 
L 542.978023 -39.081294 
L 541.922153 -39.614086 
L 540.866282 -40.242901 
L 539.810412 -40.980748 
L 538.754542 -41.8415 
L 537.698671 -42.839759 
L 536.642801 -43.990691 
L 535.586931 -45.309802 
L 534.531061 -46.812667 
L 533.47519 -48.514612 
L 532.41932 -50.430348 
L 531.36345 -52.57356 
L 530.30758 -54.956456 
L 529.251709 -57.58929 
L 528.195839 -60.47986 
L 527.139969 -63.633006 
L 526.084099 -67.050109 
L 525.028228 -70.728621 
L 523.972358 -74.66163 
L 522.916488 -78.837491 
L 521.860618 -83.239537 
L 520.804747 -87.845882 
L 519.748877 -92.629337 
L 518.693007 -97.557462 
L 517.637137 -102.59274 
L 516.581266 -107.69291 
L 515.525396 -112.811438 
L 514.469526 -117.89813 
L 513.413655 -122.899892 
L 512.357785 -127.761596 
L 511.301915 -132.427069 
L 510.246045 -136.840144 
L 509.190174 -140.945784 
L 508.134304 -144.691212 
L 507.078434 -148.027043 
L 506.022564 -150.908372 
L 504.966693 -153.295784 
L 503.910823 -155.156254 
L 502.854953 -156.463918 
L 501.799083 -157.200676 
L 500.743212 -157.356622 
L 499.687342 -156.93027 
L 498.631472 -155.928589 
L 497.575602 -154.366834 
L 496.519731 -152.26818 
L 495.463861 -149.663178 
L 494.407991 -146.589049 
L 493.352121 -143.088838 
L 492.29625 -139.210463 
L 491.24038 -135.005684 
L 490.18451 -130.529023 
L 489.12864 -125.836682 
L 488.072769 -120.985471 
L 487.016899 -116.031794 
L 485.961029 -111.030705 
L 484.905158 -106.035069 
L 483.849288 -101.094841 
L 482.793418 -96.256472 
L 481.737548 -91.562449 
L 480.681677 -87.050989 
L 479.625807 -82.75585 
L 478.569937 -78.706288 
L 477.514067 -74.927122 
L 476.458196 -71.438904 
L 475.402326 -68.258173 
L 474.346456 -65.397778 
L 473.290586 -62.867238 
L 472.234715 -60.67314 
L 471.178845 -58.819528 
L 470.122975 -57.308288 
L 469.067105 -56.139506 
L 468.011234 -55.311769 
L 466.955364 -54.822431 
L 465.899494 -54.667793 
L 464.843624 -54.843239 
L 463.787753 -55.343283 
L 462.731883 -56.161557 
L 461.676013 -57.290734 
L 460.620142 -58.722399 
L 459.564272 -60.446866 
L 458.508402 -62.452972 
L 457.452532 -64.727845 
L 456.396661 -67.25668 
L 455.340791 -70.022513 
L 454.284921 -73.006047 
L 453.229051 -76.185505 
L 452.17318 -79.536558 
L 451.11731 -83.032323 
L 450.06144 -86.643449 
L 449.00557 -90.338293 
L 447.949699 -94.083192 
L 446.893829 -97.842839 
L 445.837959 -101.580747 
L 444.782089 -105.259792 
L 443.726218 -108.842841 
L 442.670348 -112.293427 
L 441.614478 -115.576458 
L 440.558608 -118.658953 
L 439.502737 -121.51075 
L 438.446867 -124.105194 
L 437.390997 -126.419759 
L 436.335126 -128.436581 
L 435.279256 -130.142889 
L 434.223386 -131.531315 
L 433.167516 -132.600049 
L 432.111645 -133.352859 
L 431.055775 -133.798944 
L 429.999905 -133.95264 
L 428.944035 -133.832967 
L 427.888164 -133.463053 
L 426.832294 -132.869428 
L 425.776424 -132.081223 
L 424.720554 -131.129306 
L 423.664683 -130.045361 
L 422.608813 -128.860969 
L 421.552943 -127.606699 
L 420.497073 -126.31125 
L 419.441202 -125.000672 
L 418.385332 -123.697692 
L 417.329462 -122.421156 
L 416.273592 -121.185618 
L 415.217721 -120.001084 
L 414.161851 -118.87291 
L 413.105981 -117.801855 
L 412.05011 -116.784295 
L 410.99424 -115.812573 
L 409.93837 -114.87547 
L 408.8825 -113.958793 
L 407.826629 -113.046032 
L 406.770759 -112.119083 
L 405.714889 -111.158991 
L 404.659019 -110.146709 
L 403.603148 -109.063821 
L 402.547278 -107.893222 
L 401.491408 -106.619732 
L 400.435538 -105.230621 
L 399.379667 -103.716028 
L 398.323797 -102.06928 
L 397.267927 -100.28708 
L 396.212057 -98.369592 
L 395.156186 -96.320399 
L 394.100316 -94.146365 
L 393.044446 -91.85739 
L 391.988576 -89.46609 
L 390.932705 -86.987407 
L 389.876835 -84.438162 
L 388.820965 -81.836587 
L 387.765095 -79.201828 
L 386.709224 -76.553459 
L 385.653354 -73.911009 
L 384.597484 -71.293513 
L 383.541613 -68.719121 
L 382.485743 -66.20474 
L 381.429873 -63.765746 
L 380.374003 -61.415753 
L 379.318132 -59.166449 
L 378.262262 -57.027489 
L 377.206392 -55.006457 
L 376.150522 -53.108876 
L 375.094651 -51.338272 
L 374.038781 -49.696281 
L 372.982911 -48.182788 
L 371.927041 -46.796099 
L 370.87117 -45.533128 
L 369.8153 -44.389598 
L 368.75943 -43.360245 
L 367.70356 -42.439027 
L 366.647689 -41.619317 
L 365.591819 -40.894088 
L 364.535949 -40.256088 
L 363.480079 -39.697991 
L 362.424208 -39.21253 
L 361.368338 -38.792612 
L 360.312468 -38.431411 
L 359.256597 -38.122442 
L 358.200727 -37.859615 
L 357.144857 -37.637273 
L 356.088987 -37.450218 
L 355.033116 -37.293716 
L 353.977246 -37.163495 
L 352.921376 -37.055739 
L 351.865506 -36.96706 
L 350.809635 -36.894481 
L 349.753765 -36.835406 
L 348.697895 -36.787586 
L 347.642025 -36.749088 
L 346.586154 -36.718266 
L 345.530284 -36.693725 
z
" style="stroke: #1f77b4"/>
    </defs>
    <g clip-path="url(#pf3499c52f0)">
     <use xlink:href="#m740b5dfa2e" x="0" y="213.426563" style="fill: #1f77b4; fill-opacity: 0.25; stroke: #1f77b4"/>
    </g>
   </g>
   <g id="patch_8">
    <path d="M 335.024375 176.81875 
L 335.024375 50.0325 
" style="fill: none; stroke: #cccccc; stroke-width: 0.8; stroke-linejoin: miter; stroke-linecap: square"/>
   </g>
   <g id="patch_9">
    <path d="M 566.154375 176.81875 
L 566.154375 50.0325 
" style="fill: none; stroke: #cccccc; stroke-width: 0.8; stroke-linejoin: miter; stroke-linecap: square"/>
   </g>
   <g id="patch_10">
    <path d="M 335.024375 176.81875 
L 566.154375 176.81875 
" style="fill: none; stroke: #cccccc; stroke-width: 0.8; stroke-linejoin: miter; stroke-linecap: square"/>
   </g>
   <g id="patch_11">
    <path d="M 335.024375 50.0325 
L 566.154375 50.0325 
" style="fill: none; stroke: #cccccc; stroke-width: 0.8; stroke-linejoin: miter; stroke-linecap: square"/>
   </g>
   <g id="text_27">
    <!-- Throughput dist -->
    <g style="fill: #262626" transform="translate(408.900625 44.0325) scale(0.12 -0.12)">
     <defs>
      <path id="ArialMT-54" d="M 1659 0 
L 1659 4041 
L 150 4041 
L 150 4581 
L 3781 4581 
L 3781 4041 
L 2266 4041 
L 2266 0 
L 1659 0 
z
" transform="scale(0.015625)"/>
     </defs>
     <use xlink:href="#ArialMT-54"/>
     <use xlink:href="#ArialMT-68" transform="translate(61.083984 0)"/>
     <use xlink:href="#ArialMT-72" transform="translate(116.699219 0)"/>
     <use xlink:href="#ArialMT-6f" transform="translate(150 0)"/>
     <use xlink:href="#ArialMT-75" transform="translate(205.615234 0)"/>
     <use xlink:href="#ArialMT-67" transform="translate(261.230469 0)"/>
     <use xlink:href="#ArialMT-68" transform="translate(316.845703 0)"/>
     <use xlink:href="#ArialMT-70" transform="translate(372.460938 0)"/>
     <use xlink:href="#ArialMT-75" transform="translate(428.076172 0)"/>
     <use xlink:href="#ArialMT-74" transform="translate(483.691406 0)"/>
     <use xlink:href="#ArialMT-20" transform="translate(511.474609 0)"/>
     <use xlink:href="#ArialMT-64" transform="translate(539.257812 0)"/>
     <use xlink:href="#ArialMT-69" transform="translate(594.873047 0)"/>
     <use xlink:href="#ArialMT-73" transform="translate(617.089844 0)"/>
     <use xlink:href="#ArialMT-74" transform="translate(667.089844 0)"/>
    </g>
   </g>
  </g>
  <g id="axes_3">
   <g id="patch_12">
    <path d="M 617.564375 176.81875 
L 848.694375 176.81875 
L 848.694375 50.0325 
L 617.564375 50.0325 
z
" style="fill: #ffffff"/>
   </g>
   <g id="matplotlib.axis_5">
    <g id="xtick_12">
     <g id="line2d_22">
      <path d="M 641.042752 176.81875 
L 641.042752 50.0325 
" clip-path="url(#p451b3b2bc0)" style="fill: none; stroke: #cccccc; stroke-width: 0.8; stroke-linecap: round"/>
     </g>
     <g id="text_28">
      <!-- 0.0 -->
      <g style="fill: #262626" transform="translate(634.092752 190.976562) scale(0.1 -0.1)">
       <use xlink:href="#ArialMT-30"/>
       <use xlink:href="#ArialMT-2e" transform="translate(55.615234 0)"/>
       <use xlink:href="#ArialMT-30" transform="translate(83.398438 0)"/>
      </g>
     </g>
    </g>
    <g id="xtick_13">
     <g id="line2d_23">
      <path d="M 700.659195 176.81875 
L 700.659195 50.0325 
" clip-path="url(#p451b3b2bc0)" style="fill: none; stroke: #cccccc; stroke-width: 0.8; stroke-linecap: round"/>
     </g>
     <g id="text_29">
      <!-- 0.2 -->
      <g style="fill: #262626" transform="translate(693.709195 190.976562) scale(0.1 -0.1)">
       <use xlink:href="#ArialMT-30"/>
       <use xlink:href="#ArialMT-2e" transform="translate(55.615234 0)"/>
       <use xlink:href="#ArialMT-32" transform="translate(83.398438 0)"/>
      </g>
     </g>
    </g>
    <g id="xtick_14">
     <g id="line2d_24">
      <path d="M 760.275638 176.81875 
L 760.275638 50.0325 
" clip-path="url(#p451b3b2bc0)" style="fill: none; stroke: #cccccc; stroke-width: 0.8; stroke-linecap: round"/>
     </g>
     <g id="text_30">
      <!-- 0.4 -->
      <g style="fill: #262626" transform="translate(753.325638 190.976562) scale(0.1 -0.1)">
       <use xlink:href="#ArialMT-30"/>
       <use xlink:href="#ArialMT-2e" transform="translate(55.615234 0)"/>
       <use xlink:href="#ArialMT-34" transform="translate(83.398438 0)"/>
      </g>
     </g>
    </g>
    <g id="xtick_15">
     <g id="line2d_25">
      <path d="M 819.892081 176.81875 
L 819.892081 50.0325 
" clip-path="url(#p451b3b2bc0)" style="fill: none; stroke: #cccccc; stroke-width: 0.8; stroke-linecap: round"/>
     </g>
     <g id="text_31">
      <!-- 0.6 -->
      <g style="fill: #262626" transform="translate(812.942081 190.976562) scale(0.1 -0.1)">
       <use xlink:href="#ArialMT-30"/>
       <use xlink:href="#ArialMT-2e" transform="translate(55.615234 0)"/>
       <use xlink:href="#ArialMT-36" transform="translate(83.398438 0)"/>
      </g>
     </g>
    </g>
    <g id="text_32">
     <!-- error_rate -->
     <g style="fill: #262626" transform="translate(711.178594 204.121875) scale(0.1 -0.1)">
      <use xlink:href="#ArialMT-65"/>
      <use xlink:href="#ArialMT-72" transform="translate(55.615234 0)"/>
      <use xlink:href="#ArialMT-72" transform="translate(88.916016 0)"/>
      <use xlink:href="#ArialMT-6f" transform="translate(122.216797 0)"/>
      <use xlink:href="#ArialMT-72" transform="translate(177.832031 0)"/>
      <use xlink:href="#ArialMT-5f" transform="translate(211.132812 0)"/>
      <use xlink:href="#ArialMT-72" transform="translate(266.748047 0)"/>
      <use xlink:href="#ArialMT-61" transform="translate(300.048828 0)"/>
      <use xlink:href="#ArialMT-74" transform="translate(355.664062 0)"/>
      <use xlink:href="#ArialMT-65" transform="translate(383.447266 0)"/>
     </g>
    </g>
   </g>
   <g id="matplotlib.axis_6">
    <g id="ytick_11">
     <g id="line2d_26">
      <path d="M 617.564375 176.81875 
L 848.694375 176.81875 
" clip-path="url(#p451b3b2bc0)" style="fill: none; stroke: #cccccc; stroke-width: 0.8; stroke-linecap: round"/>
     </g>
     <g id="text_33">
      <!-- 0 -->
      <g style="fill: #262626" transform="translate(605.003438 180.397656) scale(0.1 -0.1)">
       <use xlink:href="#ArialMT-30"/>
      </g>
     </g>
    </g>
    <g id="ytick_12">
     <g id="line2d_27">
      <path d="M 617.564375 154.647182 
L 848.694375 154.647182 
" clip-path="url(#p451b3b2bc0)" style="fill: none; stroke: #cccccc; stroke-width: 0.8; stroke-linecap: round"/>
     </g>
     <g id="text_34">
      <!-- 5 -->
      <g style="fill: #262626" transform="translate(605.003438 158.226089) scale(0.1 -0.1)">
       <use xlink:href="#ArialMT-35"/>
      </g>
     </g>
    </g>
    <g id="ytick_13">
     <g id="line2d_28">
      <path d="M 617.564375 132.475615 
L 848.694375 132.475615 
" clip-path="url(#p451b3b2bc0)" style="fill: none; stroke: #cccccc; stroke-width: 0.8; stroke-linecap: round"/>
     </g>
     <g id="text_35">
      <!-- 10 -->
      <g style="fill: #262626" transform="translate(599.4425 136.054521) scale(0.1 -0.1)">
       <use xlink:href="#ArialMT-31"/>
       <use xlink:href="#ArialMT-30" transform="translate(55.615234 0)"/>
      </g>
     </g>
    </g>
    <g id="ytick_14">
     <g id="line2d_29">
      <path d="M 617.564375 110.304047 
L 848.694375 110.304047 
" clip-path="url(#p451b3b2bc0)" style="fill: none; stroke: #cccccc; stroke-width: 0.8; stroke-linecap: round"/>
     </g>
     <g id="text_36">
      <!-- 15 -->
      <g style="fill: #262626" transform="translate(599.4425 113.882953) scale(0.1 -0.1)">
       <use xlink:href="#ArialMT-31"/>
       <use xlink:href="#ArialMT-35" transform="translate(55.615234 0)"/>
      </g>
     </g>
    </g>
    <g id="ytick_15">
     <g id="line2d_30">
      <path d="M 617.564375 88.132479 
L 848.694375 88.132479 
" clip-path="url(#p451b3b2bc0)" style="fill: none; stroke: #cccccc; stroke-width: 0.8; stroke-linecap: round"/>
     </g>
     <g id="text_37">
      <!-- 20 -->
      <g style="fill: #262626" transform="translate(599.4425 91.711386) scale(0.1 -0.1)">
       <use xlink:href="#ArialMT-32"/>
       <use xlink:href="#ArialMT-30" transform="translate(55.615234 0)"/>
      </g>
     </g>
    </g>
    <g id="ytick_16">
     <g id="line2d_31">
      <path d="M 617.564375 65.960912 
L 848.694375 65.960912 
" clip-path="url(#p451b3b2bc0)" style="fill: none; stroke: #cccccc; stroke-width: 0.8; stroke-linecap: round"/>
     </g>
     <g id="text_38">
      <!-- 25 -->
      <g style="fill: #262626" transform="translate(599.4425 69.539818) scale(0.1 -0.1)">
       <use xlink:href="#ArialMT-32"/>
       <use xlink:href="#ArialMT-35" transform="translate(55.615234 0)"/>
      </g>
     </g>
    </g>
    <g id="text_39">
     <!-- Density -->
     <g style="fill: #262626" transform="translate(593.337813 130.0975) rotate(-90) scale(0.1 -0.1)">
      <use xlink:href="#ArialMT-44"/>
      <use xlink:href="#ArialMT-65" transform="translate(72.216797 0)"/>
      <use xlink:href="#ArialMT-6e" transform="translate(127.832031 0)"/>
      <use xlink:href="#ArialMT-73" transform="translate(183.447266 0)"/>
      <use xlink:href="#ArialMT-69" transform="translate(233.447266 0)"/>
      <use xlink:href="#ArialMT-74" transform="translate(255.664062 0)"/>
      <use xlink:href="#ArialMT-79" transform="translate(283.447266 0)"/>
     </g>
    </g>
   </g>
   <g id="FillBetweenPolyCollection_3">
    <defs>
     <path id="mabba776a16" d="M 628.070284 -37.952487 
L 628.070284 -36.607813 
L 629.126154 -36.607813 
L 630.182025 -36.607813 
L 631.237895 -36.607813 
L 632.293765 -36.607813 
L 633.349635 -36.607813 
L 634.405506 -36.607813 
L 635.461376 -36.607813 
L 636.517246 -36.607813 
L 637.573116 -36.607813 
L 638.628987 -36.607813 
L 639.684857 -36.607813 
L 640.740727 -36.607813 
L 641.796597 -36.607813 
L 642.852468 -36.607813 
L 643.908338 -36.607813 
L 644.964208 -36.607813 
L 646.020079 -36.607813 
L 647.075949 -36.607813 
L 648.131819 -36.607813 
L 649.187689 -36.607813 
L 650.24356 -36.607813 
L 651.29943 -36.607813 
L 652.3553 -36.607813 
L 653.41117 -36.607813 
L 654.467041 -36.607813 
L 655.522911 -36.607813 
L 656.578781 -36.607813 
L 657.634651 -36.607813 
L 658.690522 -36.607813 
L 659.746392 -36.607813 
L 660.802262 -36.607813 
L 661.858132 -36.607813 
L 662.914003 -36.607813 
L 663.969873 -36.607813 
L 665.025743 -36.607813 
L 666.081613 -36.607813 
L 667.137484 -36.607813 
L 668.193354 -36.607813 
L 669.249224 -36.607813 
L 670.305095 -36.607813 
L 671.360965 -36.607813 
L 672.416835 -36.607813 
L 673.472705 -36.607813 
L 674.528576 -36.607813 
L 675.584446 -36.607813 
L 676.640316 -36.607813 
L 677.696186 -36.607813 
L 678.752057 -36.607813 
L 679.807927 -36.607813 
L 680.863797 -36.607813 
L 681.919667 -36.607813 
L 682.975538 -36.607813 
L 684.031408 -36.607813 
L 685.087278 -36.607813 
L 686.143148 -36.607813 
L 687.199019 -36.607813 
L 688.254889 -36.607813 
L 689.310759 -36.607813 
L 690.366629 -36.607813 
L 691.4225 -36.607813 
L 692.47837 -36.607813 
L 693.53424 -36.607813 
L 694.59011 -36.607813 
L 695.645981 -36.607813 
L 696.701851 -36.607813 
L 697.757721 -36.607813 
L 698.813592 -36.607813 
L 699.869462 -36.607813 
L 700.925332 -36.607813 
L 701.981202 -36.607813 
L 703.037073 -36.607813 
L 704.092943 -36.607813 
L 705.148813 -36.607813 
L 706.204683 -36.607813 
L 707.260554 -36.607813 
L 708.316424 -36.607813 
L 709.372294 -36.607813 
L 710.428164 -36.607813 
L 711.484035 -36.607813 
L 712.539905 -36.607813 
L 713.595775 -36.607813 
L 714.651645 -36.607813 
L 715.707516 -36.607813 
L 716.763386 -36.607813 
L 717.819256 -36.607813 
L 718.875126 -36.607813 
L 719.930997 -36.607813 
L 720.986867 -36.607813 
L 722.042737 -36.607813 
L 723.098608 -36.607813 
L 724.154478 -36.607813 
L 725.210348 -36.607813 
L 726.266218 -36.607813 
L 727.322089 -36.607813 
L 728.377959 -36.607813 
L 729.433829 -36.607813 
L 730.489699 -36.607813 
L 731.54557 -36.607813 
L 732.60144 -36.607813 
L 733.65731 -36.607813 
L 734.71318 -36.607813 
L 735.769051 -36.607813 
L 736.824921 -36.607813 
L 737.880791 -36.607813 
L 738.936661 -36.607813 
L 739.992532 -36.607813 
L 741.048402 -36.607813 
L 742.104272 -36.607813 
L 743.160142 -36.607813 
L 744.216013 -36.607813 
L 745.271883 -36.607813 
L 746.327753 -36.607813 
L 747.383624 -36.607813 
L 748.439494 -36.607813 
L 749.495364 -36.607813 
L 750.551234 -36.607813 
L 751.607105 -36.607813 
L 752.662975 -36.607813 
L 753.718845 -36.607813 
L 754.774715 -36.607813 
L 755.830586 -36.607813 
L 756.886456 -36.607813 
L 757.942326 -36.607813 
L 758.998196 -36.607813 
L 760.054067 -36.607813 
L 761.109937 -36.607813 
L 762.165807 -36.607813 
L 763.221677 -36.607813 
L 764.277548 -36.607813 
L 765.333418 -36.607813 
L 766.389288 -36.607813 
L 767.445158 -36.607813 
L 768.501029 -36.607813 
L 769.556899 -36.607813 
L 770.612769 -36.607813 
L 771.66864 -36.607813 
L 772.72451 -36.607813 
L 773.78038 -36.607813 
L 774.83625 -36.607813 
L 775.892121 -36.607813 
L 776.947991 -36.607813 
L 778.003861 -36.607813 
L 779.059731 -36.607813 
L 780.115602 -36.607813 
L 781.171472 -36.607813 
L 782.227342 -36.607813 
L 783.283212 -36.607813 
L 784.339083 -36.607813 
L 785.394953 -36.607813 
L 786.450823 -36.607813 
L 787.506693 -36.607813 
L 788.562564 -36.607813 
L 789.618434 -36.607813 
L 790.674304 -36.607813 
L 791.730174 -36.607813 
L 792.786045 -36.607813 
L 793.841915 -36.607813 
L 794.897785 -36.607813 
L 795.953655 -36.607813 
L 797.009526 -36.607813 
L 798.065396 -36.607813 
L 799.121266 -36.607813 
L 800.177137 -36.607813 
L 801.233007 -36.607813 
L 802.288877 -36.607813 
L 803.344747 -36.607813 
L 804.400618 -36.607813 
L 805.456488 -36.607813 
L 806.512358 -36.607813 
L 807.568228 -36.607813 
L 808.624099 -36.607813 
L 809.679969 -36.607813 
L 810.735839 -36.607813 
L 811.791709 -36.607813 
L 812.84758 -36.607813 
L 813.90345 -36.607813 
L 814.95932 -36.607813 
L 816.01519 -36.607813 
L 817.071061 -36.607813 
L 818.126931 -36.607813 
L 819.182801 -36.607813 
L 820.238671 -36.607813 
L 821.294542 -36.607813 
L 822.350412 -36.607813 
L 823.406282 -36.607813 
L 824.462153 -36.607813 
L 825.518023 -36.607813 
L 826.573893 -36.607813 
L 827.629763 -36.607813 
L 828.685634 -36.607813 
L 829.741504 -36.607813 
L 830.797374 -36.607813 
L 831.853244 -36.607813 
L 832.909115 -36.607813 
L 833.964985 -36.607813 
L 835.020855 -36.607813 
L 836.076725 -36.607813 
L 837.132596 -36.607813 
L 838.188466 -36.607813 
L 838.188466 -36.61283 
L 838.188466 -36.61283 
L 837.132596 -36.617944 
L 836.076725 -36.627086 
L 835.020855 -36.642356 
L 833.964985 -36.666141 
L 832.909115 -36.7006 
L 831.853244 -36.746875 
L 830.797374 -36.804165 
L 829.741504 -36.869009 
L 828.685634 -36.935156 
L 827.629763 -36.994309 
L 826.573893 -37.037739 
L 825.518023 -37.058368 
L 824.462153 -37.052657 
L 823.406282 -37.021596 
L 822.350412 -36.970427 
L 821.294542 -36.907192 
L 820.238671 -36.840678 
L 819.182801 -36.778457 
L 818.126931 -36.725624 
L 817.071061 -36.684441 
L 816.01519 -36.654769 
L 814.95932 -36.634921 
L 813.90345 -36.622557 
L 812.84758 -36.615368 
L 811.791709 -36.61146 
L 810.735839 -36.609471 
L 809.679969 -36.608523 
L 808.624099 -36.608099 
L 807.568228 -36.607922 
L 806.512358 -36.607852 
L 805.456488 -36.607826 
L 804.400618 -36.607817 
L 803.344747 -36.607814 
L 802.288877 -36.607813 
L 801.233007 -36.607813 
L 800.177137 -36.607813 
L 799.121266 -36.607813 
L 798.065396 -36.607813 
L 797.009526 -36.607813 
L 795.953655 -36.607813 
L 794.897785 -36.607813 
L 793.841915 -36.607813 
L 792.786045 -36.607813 
L 791.730174 -36.607813 
L 790.674304 -36.607813 
L 789.618434 -36.607813 
L 788.562564 -36.607813 
L 787.506693 -36.607813 
L 786.450823 -36.607813 
L 785.394953 -36.607813 
L 784.339083 -36.607813 
L 783.283212 -36.607813 
L 782.227342 -36.607813 
L 781.171472 -36.607813 
L 780.115602 -36.607813 
L 779.059731 -36.607815 
L 778.003861 -36.607821 
L 776.947991 -36.607838 
L 775.892121 -36.607884 
L 774.83625 -36.608005 
L 773.78038 -36.608302 
L 772.72451 -36.608985 
L 771.66864 -36.610455 
L 770.612769 -36.613424 
L 769.556899 -36.61904 
L 768.501029 -36.628976 
L 767.445158 -36.645398 
L 766.389288 -36.670697 
L 765.333418 -36.706937 
L 764.277548 -36.755017 
L 763.221677 -36.813764 
L 762.165807 -36.879279 
L 761.109937 -36.944924 
L 760.054067 -37.002213 
L 758.998196 -37.042529 
L 757.942326 -37.059232 
L 756.886456 -37.049445 
L 755.830586 -37.014862 
L 754.774715 -36.961271 
L 753.718845 -36.896972 
L 752.662975 -36.830677 
L 751.607105 -36.769639 
L 750.551234 -36.718517 
L 749.495364 -36.679161 
L 748.439494 -36.651135 
L 747.383624 -36.632595 
L 746.327753 -36.621169 
L 745.271883 -36.614594 
L 744.216013 -36.611056 
L 743.160142 -36.609274 
L 742.104272 -36.608433 
L 741.048402 -36.608061 
L 739.992532 -36.607906 
L 738.936661 -36.607846 
L 737.880791 -36.607824 
L 736.824921 -36.607816 
L 735.769051 -36.607814 
L 734.71318 -36.607813 
L 733.65731 -36.607813 
L 732.60144 -36.607813 
L 731.54557 -36.607813 
L 730.489699 -36.607813 
L 729.433829 -36.607813 
L 728.377959 -36.607813 
L 727.322089 -36.607813 
L 726.266218 -36.607813 
L 725.210348 -36.607813 
L 724.154478 -36.607813 
L 723.098608 -36.607813 
L 722.042737 -36.607813 
L 720.986867 -36.607813 
L 719.930997 -36.607813 
L 718.875126 -36.607813 
L 717.819256 -36.607813 
L 716.763386 -36.607813 
L 715.707516 -36.607813 
L 714.651645 -36.607813 
L 713.595775 -36.607813 
L 712.539905 -36.607813 
L 711.484035 -36.607813 
L 710.428164 -36.607813 
L 709.372294 -36.607813 
L 708.316424 -36.607813 
L 707.260554 -36.607813 
L 706.204683 -36.607813 
L 705.148813 -36.607813 
L 704.092943 -36.607813 
L 703.037073 -36.607813 
L 701.981202 -36.607813 
L 700.925332 -36.607813 
L 699.869462 -36.607813 
L 698.813592 -36.607813 
L 697.757721 -36.607813 
L 696.701851 -36.607813 
L 695.645981 -36.607813 
L 694.59011 -36.607813 
L 693.53424 -36.607813 
L 692.47837 -36.607813 
L 691.4225 -36.607813 
L 690.366629 -36.607813 
L 689.310759 -36.607813 
L 688.254889 -36.607813 
L 687.199019 -36.607813 
L 686.143148 -36.607813 
L 685.087278 -36.607813 
L 684.031408 -36.607813 
L 682.975538 -36.607813 
L 681.919667 -36.607813 
L 680.863797 -36.607813 
L 679.807927 -36.607813 
L 678.752057 -36.607813 
L 677.696186 -36.607813 
L 676.640316 -36.607813 
L 675.584446 -36.607813 
L 674.528576 -36.607813 
L 673.472705 -36.607813 
L 672.416835 -36.607813 
L 671.360965 -36.607813 
L 670.305095 -36.607813 
L 669.249224 -36.607813 
L 668.193354 -36.607813 
L 667.137484 -36.607814 
L 666.081613 -36.607819 
L 665.025743 -36.607838 
L 663.969873 -36.607908 
L 662.914003 -36.60815 
L 661.858132 -36.608938 
L 660.802262 -36.61135 
L 659.746392 -36.618292 
L 658.690522 -36.63706 
L 657.634651 -36.684714 
L 656.578781 -36.798309 
L 655.522911 -37.052389 
L 654.467041 -37.5853 
L 653.41117 -38.632612 
L 652.3553 -40.559281 
L 651.29943 -43.872901 
L 650.24356 -49.192113 
L 649.187689 -57.144151 
L 648.131819 -68.181314 
L 647.075949 -82.340662 
L 646.020079 -99.015711 
L 644.964208 -116.84148 
L 643.908338 -133.788399 
L 642.852468 -147.501845 
L 641.796597 -155.82603 
L 640.740727 -157.356622 
L 639.684857 -151.82808 
L 638.628987 -140.188952 
L 637.573116 -124.335823 
L 636.517246 -106.608396 
L 635.461376 -89.230234 
L 634.405506 -73.876645 
L 633.349635 -61.474992 
L 632.293765 -52.239759 
L 631.237895 -45.865561 
L 630.182025 -41.773207 
L 629.126154 -39.323047 
L 628.070284 -37.952487 
z
" style="stroke: #1f77b4"/>
    </defs>
    <g clip-path="url(#p451b3b2bc0)">
     <use xlink:href="#mabba776a16" x="0" y="213.426563" style="fill: #1f77b4; fill-opacity: 0.25; stroke: #1f77b4"/>
    </g>
   </g>
   <g id="patch_13">
    <path d="M 617.564375 176.81875 
L 617.564375 50.0325 
" style="fill: none; stroke: #cccccc; stroke-width: 0.8; stroke-linejoin: miter; stroke-linecap: square"/>
   </g>
   <g id="patch_14">
    <path d="M 848.694375 176.81875 
L 848.694375 50.0325 
" style="fill: none; stroke: #cccccc; stroke-width: 0.8; stroke-linejoin: miter; stroke-linecap: square"/>
   </g>
   <g id="patch_15">
    <path d="M 617.564375 176.81875 
L 848.694375 176.81875 
" style="fill: none; stroke: #cccccc; stroke-width: 0.8; stroke-linejoin: miter; stroke-linecap: square"/>
   </g>
   <g id="patch_16">
    <path d="M 617.564375 50.0325 
L 848.694375 50.0325 
" style="fill: none; stroke: #cccccc; stroke-width: 0.8; stroke-linejoin: miter; stroke-linecap: square"/>
   </g>
   <g id="text_40">
    <!-- Error rate dist -->
    <g style="fill: #262626" transform="translate(696.789063 44.0325) scale(0.12 -0.12)">
     <defs>
      <path id="ArialMT-45" d="M 506 0 
L 506 4581 
L 3819 4581 
L 3819 4041 
L 1113 4041 
L 1113 2638 
L 3647 2638 
L 3647 2100 
L 1113 2100 
L 1113 541 
L 3925 541 
L 3925 0 
L 506 0 
z
" transform="scale(0.015625)"/>
     </defs>
     <use xlink:href="#ArialMT-45"/>
     <use xlink:href="#ArialMT-72" transform="translate(66.699219 0)"/>
     <use xlink:href="#ArialMT-72" transform="translate(100 0)"/>
     <use xlink:href="#ArialMT-6f" transform="translate(133.300781 0)"/>
     <use xlink:href="#ArialMT-72" transform="translate(188.916016 0)"/>
     <use xlink:href="#ArialMT-20" transform="translate(222.216797 0)"/>
     <use xlink:href="#ArialMT-72" transform="translate(250 0)"/>
     <use xlink:href="#ArialMT-61" transform="translate(283.300781 0)"/>
     <use xlink:href="#ArialMT-74" transform="translate(338.916016 0)"/>
     <use xlink:href="#ArialMT-65" transform="translate(366.699219 0)"/>
     <use xlink:href="#ArialMT-20" transform="translate(422.314453 0)"/>
     <use xlink:href="#ArialMT-64" transform="translate(450.097656 0)"/>
     <use xlink:href="#ArialMT-69" transform="translate(505.712891 0)"/>
     <use xlink:href="#ArialMT-73" transform="translate(527.929688 0)"/>
     <use xlink:href="#ArialMT-74" transform="translate(577.929688 0)"/>
    </g>
   </g>
  </g>
  <g id="text_41">
   <!-- Distributions  login-browse-purchase -->
   <g style="fill: #262626" transform="translate(324.4575 15.789375) scale(0.12 -0.12)">
    <defs>
     <path id="ArialMT-62" d="M 941 0 
L 419 0 
L 419 4581 
L 981 4581 
L 981 2947 
Q 1338 3394 1891 3394 
Q 2197 3394 2470 3270 
Q 2744 3147 2920 2923 
Q 3097 2700 3197 2384 
Q 3297 2069 3297 1709 
Q 3297 856 2875 390 
Q 2453 -75 1863 -75 
Q 1275 -75 941 416 
L 941 0 
z
M 934 1684 
Q 934 1088 1097 822 
Q 1363 388 1816 388 
Q 2184 388 2453 708 
Q 2722 1028 2722 1663 
Q 2722 2313 2464 2622 
Q 2206 2931 1841 2931 
Q 1472 2931 1203 2611 
Q 934 2291 934 1684 
z
" transform="scale(0.015625)"/>
     <path id="ArialMT-2014" d="M 0 1431 
L 0 1884 
L 6400 1884 
L 6400 1431 
L 0 1431 
z
" transform="scale(0.015625)"/>
     <path id="ArialMT-2d" d="M 203 1375 
L 203 1941 
L 1931 1941 
L 1931 1375 
L 203 1375 
z
" transform="scale(0.015625)"/>
     <path id="ArialMT-77" d="M 1034 0 
L 19 3319 
L 600 3319 
L 1128 1403 
L 1325 691 
Q 1338 744 1497 1375 
L 2025 3319 
L 2603 3319 
L 3100 1394 
L 3266 759 
L 3456 1400 
L 4025 3319 
L 4572 3319 
L 3534 0 
L 2950 0 
L 2422 1988 
L 2294 2553 
L 1622 0 
L 1034 0 
z
" transform="scale(0.015625)"/>
    </defs>
    <use xlink:href="#ArialMT-44"/>
    <use xlink:href="#ArialMT-69" transform="translate(72.216797 0)"/>
    <use xlink:href="#ArialMT-73" transform="translate(94.433594 0)"/>
    <use xlink:href="#ArialMT-74" transform="translate(144.433594 0)"/>
    <use xlink:href="#ArialMT-72" transform="translate(172.216797 0)"/>
    <use xlink:href="#ArialMT-69" transform="translate(205.517578 0)"/>
    <use xlink:href="#ArialMT-62" transform="translate(227.734375 0)"/>
    <use xlink:href="#ArialMT-75" transform="translate(283.349609 0)"/>
    <use xlink:href="#ArialMT-74" transform="translate(338.964844 0)"/>
    <use xlink:href="#ArialMT-69" transform="translate(366.748047 0)"/>
    <use xlink:href="#ArialMT-6f" transform="translate(388.964844 0)"/>
    <use xlink:href="#ArialMT-6e" transform="translate(444.580078 0)"/>
    <use xlink:href="#ArialMT-73" transform="translate(500.195312 0)"/>
    <use xlink:href="#ArialMT-20" transform="translate(550.195312 0)"/>
    <use xlink:href="#ArialMT-2014" transform="translate(577.978516 0)"/>
    <use xlink:href="#ArialMT-20" transform="translate(677.978516 0)"/>
    <use xlink:href="#ArialMT-6c" transform="translate(705.761719 0)"/>
    <use xlink:href="#ArialMT-6f" transform="translate(727.978516 0)"/>
    <use xlink:href="#ArialMT-67" transform="translate(783.59375 0)"/>
    <use xlink:href="#ArialMT-69" transform="translate(839.208984 0)"/>
    <use xlink:href="#ArialMT-6e" transform="translate(861.425781 0)"/>
    <use xlink:href="#ArialMT-2d" transform="translate(917.041016 0)"/>
    <use xlink:href="#ArialMT-62" transform="translate(950.341797 0)"/>
    <use xlink:href="#ArialMT-72" transform="translate(1005.957031 0)"/>
    <use xlink:href="#ArialMT-6f" transform="translate(1039.257812 0)"/>
    <use xlink:href="#ArialMT-77" transform="translate(1094.873047 0)"/>
    <use xlink:href="#ArialMT-73" transform="translate(1167.089844 0)"/>
    <use xlink:href="#ArialMT-65" transform="translate(1217.089844 0)"/>
    <use xlink:href="#ArialMT-2d" transform="translate(1272.705078 0)"/>
    <use xlink:href="#ArialMT-70" transform="translate(1306.005859 0)"/>
    <use xlink:href="#ArialMT-75" transform="translate(1361.621094 0)"/>
    <use xlink:href="#ArialMT-72" transform="translate(1417.236328 0)"/>
    <use xlink:href="#ArialMT-63" transform="translate(1450.537109 0)"/>
    <use xlink:href="#ArialMT-68" transform="translate(1500.537109 0)"/>
    <use xlink:href="#ArialMT-61" transform="translate(1556.152344 0)"/>
    <use xlink:href="#ArialMT-73" transform="translate(1611.767578 0)"/>
    <use xlink:href="#ArialMT-65" transform="translate(1661.767578 0)"/>
   </g>
  </g>
 </g>
 <defs>
  <clipPath id="pcb7456af67">
   <rect x="52.484375" y="50.0325" width="231.13" height="126.78625"/>
  </clipPath>
  <clipPath id="pf3499c52f0">
   <rect x="335.024375" y="50.0325" width="231.13" height="126.78625"/>
  </clipPath>
  <clipPath id="p451b3b2bc0">
   <rect x="617.564375" y="50.0325" width="231.13" height="126.78625"/>
  </clipPath>
 </defs>
</svg>
