<?xml version="1.0" encoding="utf-8" standalone="no"?>
<!DOCTYPE svg PUBLIC "-//W3C//DTD SVG 1.1//EN"
  "http://www.w3.org/Graphics/SVG/1.1/DTD/svg11.dtd">
<svg xmlns:xlink="http://www.w3.org/1999/xlink" width="553.545313pt" height="280.04pt" viewBox="0 0 553.545313 280.04" xmlns="http://www.w3.org/2000/svg" version="1.1">
 <metadata>
  <rdf:RDF xmlns:dc="http://purl.org/dc/elements/1.1/" xmlns:cc="http://creativecommons.org/ns#" xmlns:rdf="http://www.w3.org/1999/02/22-rdf-syntax-ns#">
   <cc:Work>
    <dc:type rdf:resource="http://purl.org/dc/dcmitype/StillImage"/>
    <dc:date>2025-11-12T15:39:13.050719</dc:date>
    <dc:format>image/svg+xml</dc:format>
    <dc:creator>
     <cc:Agent>
      <dc:title>Matplotlib v3.10.7, https://matplotlib.org/</dc:title>
     </cc:Agent>
    </dc:creator>
   </cc:Work>
  </rdf:RDF>
 </metadata>
 <defs>
  <style type="text/css">*{stroke-linejoin: round; stroke-linecap: butt}</style>
 </defs>
 <g id="figure_1">
  <g id="patch_1">
   <path d="M 0 280.04 
L 553.545313 280.04 
L 553.545313 0 
L 0 0 
z
" style="fill: #ffffff"/>
  </g>
  <g id="axes_1">
   <g id="patch_2">
    <path d="M 44.145313 243.549375 
L 546.345313 243.549375 
L 546.345313 21.789375 
L 44.145313 21.789375 
z
" style="fill: #ffffff"/>
   </g>
   <g id="matplotlib.axis_1">
    <g id="xtick_1">
     <g id="line2d_1">
      <path d="M 66.972585 243.549375 
L 66.972585 21.789375 
" clip-path="url(#pfa9c0af0db)" style="fill: none; stroke: #cccccc; stroke-width: 0.8; stroke-linecap: round"/>
     </g>
     <g id="text_1">
      <!-- 0 -->
      <g style="fill: #262626" transform="translate(64.192116 257.707188) scale(0.1 -0.1)">
       <defs>
        <path id="ArialMT-30" d="M 266 2259 
Q 266 3072 433 3567 
Q 600 4063 929 4331 
Q 1259 4600 1759 4600 
Q 2128 4600 2406 4451 
Q 2684 4303 2865 4023 
Q 3047 3744 3150 3342 
Q 3253 2941 3253 2259 
Q 3253 1453 3087 958 
Q 2922 463 2592 192 
Q 2263 -78 1759 -78 
Q 1097 -78 719 397 
Q 266 969 266 2259 
z
M 844 2259 
Q 844 1131 1108 757 
Q 1372 384 1759 384 
Q 2147 384 2411 759 
Q 2675 1134 2675 2259 
Q 2675 3391 2411 3762 
Q 2147 4134 1753 4134 
Q 1366 4134 1134 3806 
Q 844 3388 844 2259 
z
" transform="scale(0.015625)"/>
       </defs>
       <use xlink:href="#ArialMT-30"/>
      </g>
     </g>
    </g>
    <g id="xtick_2">
     <g id="line2d_2">
      <path d="M 151.51804 243.549375 
L 151.51804 21.789375 
" clip-path="url(#pfa9c0af0db)" style="fill: none; stroke: #cccccc; stroke-width: 0.8; stroke-linecap: round"/>
     </g>
     <g id="text_2">
      <!-- 50 -->
      <g style="fill: #262626" transform="translate(145.957102 257.707188) scale(0.1 -0.1)">
       <defs>
        <path id="ArialMT-35" d="M 266 1200 
L 856 1250 
Q 922 819 1161 601 
Q 1400 384 1738 384 
Q 2144 384 2425 690 
Q 2706 997 2706 1503 
Q 2706 1984 2436 2262 
Q 2166 2541 1728 2541 
Q 1456 2541 1237 2417 
Q 1019 2294 894 2097 
L 366 2166 
L 809 4519 
L 3088 4519 
L 3088 3981 
L 1259 3981 
L 1013 2750 
Q 1425 3038 1878 3038 
Q 2478 3038 2890 2622 
Q 3303 2206 3303 1553 
Q 3303 931 2941 478 
Q 2500 -78 1738 -78 
Q 1113 -78 717 272 
Q 322 622 266 1200 
z
" transform="scale(0.015625)"/>
       </defs>
       <use xlink:href="#ArialMT-35"/>
       <use xlink:href="#ArialMT-30" transform="translate(55.615234 0)"/>
      </g>
     </g>
    </g>
    <g id="xtick_3">
     <g id="line2d_3">
      <path d="M 236.063494 243.549375 
L 236.063494 21.789375 
" clip-path="url(#pfa9c0af0db)" style="fill: none; stroke: #cccccc; stroke-width: 0.8; stroke-linecap: round"/>
     </g>
     <g id="text_3">
      <!-- 100 -->
      <g style="fill: #262626" transform="translate(227.722088 257.707188) scale(0.1 -0.1)">
       <defs>
        <path id="ArialMT-31" d="M 2384 0 
L 1822 0 
L 1822 3584 
Q 1619 3391 1289 3197 
Q 959 3003 697 2906 
L 697 3450 
Q 1169 3672 1522 3987 
Q 1875 4303 2022 4600 
L 2384 4600 
L 2384 0 
z
" transform="scale(0.015625)"/>
       </defs>
       <use xlink:href="#ArialMT-31"/>
       <use xlink:href="#ArialMT-30" transform="translate(55.615234 0)"/>
       <use xlink:href="#ArialMT-30" transform="translate(111.230469 0)"/>
      </g>
     </g>
    </g>
    <g id="xtick_4">
     <g id="line2d_4">
      <path d="M 320.608949 243.549375 
L 320.608949 21.789375 
" clip-path="url(#pfa9c0af0db)" style="fill: none; stroke: #cccccc; stroke-width: 0.8; stroke-linecap: round"/>
     </g>
     <g id="text_4">
      <!-- 150 -->
      <g style="fill: #262626" transform="translate(312.267543 257.707188) scale(0.1 -0.1)">
       <use xlink:href="#ArialMT-31"/>
       <use xlink:href="#ArialMT-35" transform="translate(55.615234 0)"/>
       <use xlink:href="#ArialMT-30" transform="translate(111.230469 0)"/>
      </g>
     </g>
    </g>
    <g id="xtick_5">
     <g id="line2d_5">
      <path d="M 405.154403 243.549375 
L 405.154403 21.789375 
" clip-path="url(#pfa9c0af0db)" style="fill: none; stroke: #cccccc; stroke-width: 0.8; stroke-linecap: round"/>
     </g>
     <g id="text_5">
      <!-- 200 -->
      <g style="fill: #262626" transform="translate(396.812997 257.707188) scale(0.1 -0.1)">
       <defs>
        <path id="ArialMT-32" d="M 3222 541 
L 3222 0 
L 194 0 
Q 188 203 259 391 
Q 375 700 629 1000 
Q 884 1300 1366 1694 
Q 2113 2306 2375 2664 
Q 2638 3022 2638 3341 
Q 2638 3675 2398 3904 
Q 2159 4134 1775 4134 
Q 1369 4134 1125 3890 
Q 881 3647 878 3216 
L 300 3275 
Q 359 3922 746 4261 
Q 1134 4600 1788 4600 
Q 2447 4600 2831 4234 
Q 3216 3869 3216 3328 
Q 3216 3053 3103 2787 
Q 2991 2522 2730 2228 
Q 2469 1934 1863 1422 
Q 1356 997 1212 845 
Q 1069 694 975 541 
L 3222 541 
z
" transform="scale(0.015625)"/>
       </defs>
       <use xlink:href="#ArialMT-32"/>
       <use xlink:href="#ArialMT-30" transform="translate(55.615234 0)"/>
       <use xlink:href="#ArialMT-30" transform="translate(111.230469 0)"/>
      </g>
     </g>
    </g>
    <g id="xtick_6">
     <g id="line2d_6">
      <path d="M 489.699858 243.549375 
L 489.699858 21.789375 
" clip-path="url(#pfa9c0af0db)" style="fill: none; stroke: #cccccc; stroke-width: 0.8; stroke-linecap: round"/>
     </g>
     <g id="text_6">
      <!-- 250 -->
      <g style="fill: #262626" transform="translate(481.358452 257.707188) scale(0.1 -0.1)">
       <use xlink:href="#ArialMT-32"/>
       <use xlink:href="#ArialMT-35" transform="translate(55.615234 0)"/>
       <use xlink:href="#ArialMT-30" transform="translate(111.230469 0)"/>
      </g>
     </g>
    </g>
    <g id="text_7">
     <!-- t [s] -->
     <g style="fill: #262626" transform="translate(287.189063 270.8525) scale(0.1 -0.1)">
      <defs>
       <path id="ArialMT-74" d="M 1650 503 
L 1731 6 
Q 1494 -44 1306 -44 
Q 1000 -44 831 53 
Q 663 150 594 308 
Q 525 466 525 972 
L 525 2881 
L 113 2881 
L 113 3319 
L 525 3319 
L 525 4141 
L 1084 4478 
L 1084 3319 
L 1650 3319 
L 1650 2881 
L 1084 2881 
L 1084 941 
Q 1084 700 1114 631 
Q 1144 563 1211 522 
Q 1278 481 1403 481 
Q 1497 481 1650 503 
z
" transform="scale(0.015625)"/>
       <path id="ArialMT-20" transform="scale(0.015625)"/>
       <path id="ArialMT-5b" d="M 434 -1272 
L 434 4581 
L 1675 4581 
L 1675 4116 
L 997 4116 
L 997 -806 
L 1675 -806 
L 1675 -1272 
L 434 -1272 
z
" transform="scale(0.015625)"/>
       <path id="ArialMT-73" d="M 197 991 
L 753 1078 
Q 800 744 1014 566 
Q 1228 388 1613 388 
Q 2000 388 2187 545 
Q 2375 703 2375 916 
Q 2375 1106 2209 1216 
Q 2094 1291 1634 1406 
Q 1016 1563 777 1677 
Q 538 1791 414 1992 
Q 291 2194 291 2438 
Q 291 2659 392 2848 
Q 494 3038 669 3163 
Q 800 3259 1026 3326 
Q 1253 3394 1513 3394 
Q 1903 3394 2198 3281 
Q 2494 3169 2634 2976 
Q 2775 2784 2828 2463 
L 2278 2388 
Q 2241 2644 2061 2787 
Q 1881 2931 1553 2931 
Q 1166 2931 1000 2803 
Q 834 2675 834 2503 
Q 834 2394 903 2306 
Q 972 2216 1119 2156 
Q 1203 2125 1616 2013 
Q 2213 1853 2448 1751 
Q 2684 1650 2818 1456 
Q 2953 1263 2953 975 
Q 2953 694 2789 445 
Q 2625 197 2315 61 
Q 2006 -75 1616 -75 
Q 969 -75 630 194 
Q 291 463 197 991 
z
" transform="scale(0.015625)"/>
       <path id="ArialMT-5d" d="M 1363 -1272 
L 122 -1272 
L 122 -806 
L 800 -806 
L 800 4116 
L 122 4116 
L 122 4581 
L 1363 4581 
L 1363 -1272 
z
" transform="scale(0.015625)"/>
      </defs>
      <use xlink:href="#ArialMT-74"/>
      <use xlink:href="#ArialMT-20" transform="translate(27.783203 0)"/>
      <use xlink:href="#ArialMT-5b" transform="translate(55.566406 0)"/>
      <use xlink:href="#ArialMT-73" transform="translate(83.349609 0)"/>
      <use xlink:href="#ArialMT-5d" transform="translate(133.349609 0)"/>
     </g>
    </g>
   </g>
   <g id="matplotlib.axis_2">
    <g id="ytick_1">
     <g id="line2d_7">
      <path d="M 44.145313 201.422462 
L 546.345313 201.422462 
" clip-path="url(#pfa9c0af0db)" style="fill: none; stroke: #cccccc; stroke-width: 0.8; stroke-linecap: round"/>
     </g>
     <g id="text_8">
      <!-- 120 -->
      <g style="fill: #262626" transform="translate(20.4625 205.001369) scale(0.1 -0.1)">
       <use xlink:href="#ArialMT-31"/>
       <use xlink:href="#ArialMT-32" transform="translate(55.615234 0)"/>
       <use xlink:href="#ArialMT-30" transform="translate(111.230469 0)"/>
      </g>
     </g>
    </g>
    <g id="ytick_2">
     <g id="line2d_8">
      <path d="M 44.145313 153.724498 
L 546.345313 153.724498 
" clip-path="url(#pfa9c0af0db)" style="fill: none; stroke: #cccccc; stroke-width: 0.8; stroke-linecap: round"/>
     </g>
     <g id="text_9">
      <!-- 140 -->
      <g style="fill: #262626" transform="translate(20.4625 157.303404) scale(0.1 -0.1)">
       <defs>
        <path id="ArialMT-34" d="M 2069 0 
L 2069 1097 
L 81 1097 
L 81 1613 
L 2172 4581 
L 2631 4581 
L 2631 1613 
L 3250 1613 
L 3250 1097 
L 2631 1097 
L 2631 0 
L 2069 0 
z
M 2069 1613 
L 2069 3678 
L 634 1613 
L 2069 1613 
z
" transform="scale(0.015625)"/>
       </defs>
       <use xlink:href="#ArialMT-31"/>
       <use xlink:href="#ArialMT-34" transform="translate(55.615234 0)"/>
       <use xlink:href="#ArialMT-30" transform="translate(111.230469 0)"/>
      </g>
     </g>
    </g>
    <g id="ytick_3">
     <g id="line2d_9">
      <path d="M 44.145313 106.026534 
L 546.345313 106.026534 
" clip-path="url(#pfa9c0af0db)" style="fill: none; stroke: #cccccc; stroke-width: 0.8; stroke-linecap: round"/>
     </g>
     <g id="text_10">
      <!-- 160 -->
      <g style="fill: #262626" transform="translate(20.4625 109.60544) scale(0.1 -0.1)">
       <defs>
        <path id="ArialMT-36" d="M 3184 3459 
L 2625 3416 
Q 2550 3747 2413 3897 
Q 2184 4138 1850 4138 
Q 1581 4138 1378 3988 
Q 1113 3794 959 3422 
Q 806 3050 800 2363 
Q 1003 2672 1297 2822 
Q 1591 2972 1913 2972 
Q 2475 2972 2870 2558 
Q 3266 2144 3266 1488 
Q 3266 1056 3080 686 
Q 2894 316 2569 119 
Q 2244 -78 1831 -78 
Q 1128 -78 684 439 
Q 241 956 241 2144 
Q 241 3472 731 4075 
Q 1159 4600 1884 4600 
Q 2425 4600 2770 4297 
Q 3116 3994 3184 3459 
z
M 888 1484 
Q 888 1194 1011 928 
Q 1134 663 1356 523 
Q 1578 384 1822 384 
Q 2178 384 2434 671 
Q 2691 959 2691 1453 
Q 2691 1928 2437 2201 
Q 2184 2475 1800 2475 
Q 1419 2475 1153 2201 
Q 888 1928 888 1484 
z
" transform="scale(0.015625)"/>
       </defs>
       <use xlink:href="#ArialMT-31"/>
       <use xlink:href="#ArialMT-36" transform="translate(55.615234 0)"/>
       <use xlink:href="#ArialMT-30" transform="translate(111.230469 0)"/>
      </g>
     </g>
    </g>
    <g id="ytick_4">
     <g id="line2d_10">
      <path d="M 44.145313 58.328569 
L 546.345313 58.328569 
" clip-path="url(#pfa9c0af0db)" style="fill: none; stroke: #cccccc; stroke-width: 0.8; stroke-linecap: round"/>
     </g>
     <g id="text_11">
      <!-- 180 -->
      <g style="fill: #262626" transform="translate(20.4625 61.907476) scale(0.1 -0.1)">
       <defs>
        <path id="ArialMT-38" d="M 1131 2484 
Q 781 2613 612 2850 
Q 444 3088 444 3419 
Q 444 3919 803 4259 
Q 1163 4600 1759 4600 
Q 2359 4600 2725 4251 
Q 3091 3903 3091 3403 
Q 3091 3084 2923 2848 
Q 2756 2613 2416 2484 
Q 2838 2347 3058 2040 
Q 3278 1734 3278 1309 
Q 3278 722 2862 322 
Q 2447 -78 1769 -78 
Q 1091 -78 675 323 
Q 259 725 259 1325 
Q 259 1772 486 2073 
Q 713 2375 1131 2484 
z
M 1019 3438 
Q 1019 3113 1228 2906 
Q 1438 2700 1772 2700 
Q 2097 2700 2305 2904 
Q 2513 3109 2513 3406 
Q 2513 3716 2298 3927 
Q 2084 4138 1766 4138 
Q 1444 4138 1231 3931 
Q 1019 3725 1019 3438 
z
M 838 1322 
Q 838 1081 952 856 
Q 1066 631 1291 507 
Q 1516 384 1775 384 
Q 2178 384 2440 643 
Q 2703 903 2703 1303 
Q 2703 1709 2433 1975 
Q 2163 2241 1756 2241 
Q 1359 2241 1098 1978 
Q 838 1716 838 1322 
z
" transform="scale(0.015625)"/>
       </defs>
       <use xlink:href="#ArialMT-31"/>
       <use xlink:href="#ArialMT-38" transform="translate(55.615234 0)"/>
       <use xlink:href="#ArialMT-30" transform="translate(111.230469 0)"/>
      </g>
     </g>
    </g>
    <g id="text_12">
     <!-- latency [ms] -->
     <g style="fill: #262626" transform="translate(14.357812 159.342813) rotate(-90) scale(0.1 -0.1)">
      <defs>
       <path id="ArialMT-6c" d="M 409 0 
L 409 4581 
L 972 4581 
L 972 0 
L 409 0 
z
" transform="scale(0.015625)"/>
       <path id="ArialMT-61" d="M 2588 409 
Q 2275 144 1986 34 
Q 1697 -75 1366 -75 
Q 819 -75 525 192 
Q 231 459 231 875 
Q 231 1119 342 1320 
Q 453 1522 633 1644 
Q 813 1766 1038 1828 
Q 1203 1872 1538 1913 
Q 2219 1994 2541 2106 
Q 2544 2222 2544 2253 
Q 2544 2597 2384 2738 
Q 2169 2928 1744 2928 
Q 1347 2928 1158 2789 
Q 969 2650 878 2297 
L 328 2372 
Q 403 2725 575 2942 
Q 747 3159 1072 3276 
Q 1397 3394 1825 3394 
Q 2250 3394 2515 3294 
Q 2781 3194 2906 3042 
Q 3031 2891 3081 2659 
Q 3109 2516 3109 2141 
L 3109 1391 
Q 3109 606 3145 398 
Q 3181 191 3288 0 
L 2700 0 
Q 2613 175 2588 409 
z
M 2541 1666 
Q 2234 1541 1622 1453 
Q 1275 1403 1131 1340 
Q 988 1278 909 1158 
Q 831 1038 831 891 
Q 831 666 1001 516 
Q 1172 366 1500 366 
Q 1825 366 2078 508 
Q 2331 650 2450 897 
Q 2541 1088 2541 1459 
L 2541 1666 
z
" transform="scale(0.015625)"/>
       <path id="ArialMT-65" d="M 2694 1069 
L 3275 997 
Q 3138 488 2766 206 
Q 2394 -75 1816 -75 
Q 1088 -75 661 373 
Q 234 822 234 1631 
Q 234 2469 665 2931 
Q 1097 3394 1784 3394 
Q 2450 3394 2872 2941 
Q 3294 2488 3294 1666 
Q 3294 1616 3291 1516 
L 816 1516 
Q 847 969 1125 678 
Q 1403 388 1819 388 
Q 2128 388 2347 550 
Q 2566 713 2694 1069 
z
M 847 1978 
L 2700 1978 
Q 2663 2397 2488 2606 
Q 2219 2931 1791 2931 
Q 1403 2931 1139 2672 
Q 875 2413 847 1978 
z
" transform="scale(0.015625)"/>
       <path id="ArialMT-6e" d="M 422 0 
L 422 3319 
L 928 3319 
L 928 2847 
Q 1294 3394 1984 3394 
Q 2284 3394 2536 3286 
Q 2788 3178 2913 3003 
Q 3038 2828 3088 2588 
Q 3119 2431 3119 2041 
L 3119 0 
L 2556 0 
L 2556 2019 
Q 2556 2363 2490 2533 
Q 2425 2703 2258 2804 
Q 2091 2906 1866 2906 
Q 1506 2906 1245 2678 
Q 984 2450 984 1813 
L 984 0 
L 422 0 
z
" transform="scale(0.015625)"/>
       <path id="ArialMT-63" d="M 2588 1216 
L 3141 1144 
Q 3050 572 2676 248 
Q 2303 -75 1759 -75 
Q 1078 -75 664 370 
Q 250 816 250 1647 
Q 250 2184 428 2587 
Q 606 2991 970 3192 
Q 1334 3394 1763 3394 
Q 2303 3394 2647 3120 
Q 2991 2847 3088 2344 
L 2541 2259 
Q 2463 2594 2264 2762 
Q 2066 2931 1784 2931 
Q 1359 2931 1093 2626 
Q 828 2322 828 1663 
Q 828 994 1084 691 
Q 1341 388 1753 388 
Q 2084 388 2306 591 
Q 2528 794 2588 1216 
z
" transform="scale(0.015625)"/>
       <path id="ArialMT-79" d="M 397 -1278 
L 334 -750 
Q 519 -800 656 -800 
Q 844 -800 956 -737 
Q 1069 -675 1141 -563 
Q 1194 -478 1313 -144 
Q 1328 -97 1363 -6 
L 103 3319 
L 709 3319 
L 1400 1397 
Q 1534 1031 1641 628 
Q 1738 1016 1872 1384 
L 2581 3319 
L 3144 3319 
L 1881 -56 
Q 1678 -603 1566 -809 
Q 1416 -1088 1222 -1217 
Q 1028 -1347 759 -1347 
Q 597 -1347 397 -1278 
z
" transform="scale(0.015625)"/>
       <path id="ArialMT-6d" d="M 422 0 
L 422 3319 
L 925 3319 
L 925 2853 
Q 1081 3097 1340 3245 
Q 1600 3394 1931 3394 
Q 2300 3394 2536 3241 
Q 2772 3088 2869 2813 
Q 3263 3394 3894 3394 
Q 4388 3394 4653 3120 
Q 4919 2847 4919 2278 
L 4919 0 
L 4359 0 
L 4359 2091 
Q 4359 2428 4304 2576 
Q 4250 2725 4106 2815 
Q 3963 2906 3769 2906 
Q 3419 2906 3187 2673 
Q 2956 2441 2956 1928 
L 2956 0 
L 2394 0 
L 2394 2156 
Q 2394 2531 2256 2718 
Q 2119 2906 1806 2906 
Q 1569 2906 1367 2781 
Q 1166 2656 1075 2415 
Q 984 2175 984 1722 
L 984 0 
L 422 0 
z
" transform="scale(0.015625)"/>
      </defs>
      <use xlink:href="#ArialMT-6c"/>
      <use xlink:href="#ArialMT-61" transform="translate(22.216797 0)"/>
      <use xlink:href="#ArialMT-74" transform="translate(77.832031 0)"/>
      <use xlink:href="#ArialMT-65" transform="translate(105.615234 0)"/>
      <use xlink:href="#ArialMT-6e" transform="translate(161.230469 0)"/>
      <use xlink:href="#ArialMT-63" transform="translate(216.845703 0)"/>
      <use xlink:href="#ArialMT-79" transform="translate(266.845703 0)"/>
      <use xlink:href="#ArialMT-20" transform="translate(316.845703 0)"/>
      <use xlink:href="#ArialMT-5b" transform="translate(344.628906 0)"/>
      <use xlink:href="#ArialMT-6d" transform="translate(372.412109 0)"/>
      <use xlink:href="#ArialMT-73" transform="translate(455.712891 0)"/>
      <use xlink:href="#ArialMT-5d" transform="translate(505.712891 0)"/>
     </g>
    </g>
   </g>
   <g id="line2d_11">
    <path d="M 168.427131 207.752929 
L 170.132249 204.505883 
L 171.837368 184.353005 
L 173.542486 196.152888 
L 175.247604 207.168972 
L 176.952723 197.319119 
L 178.657841 221.079605 
L 180.36296 180.063297 
L 182.068078 184.70226 
L 183.773196 176.286531 
L 185.478315 201.119829 
L 187.183433 186.970997 
L 188.888552 210.478632 
L 190.59367 204.118303 
L 192.298788 209.436265 
L 194.003907 224.303136 
L 195.709025 194.116007 
L 197.414144 208.44054 
L 199.119262 211.880757 
L 200.82438 199.929242 
L 202.529499 186.965609 
L 204.234617 196.243458 
L 205.939736 193.210138 
L 207.644854 192.468508 
L 209.349973 200.037764 
L 211.055091 200.658222 
L 212.760209 204.695677 
L 214.465328 214.094404 
L 216.170446 187.401523 
L 217.875565 182.610065 
L 219.580683 193.245162 
L 221.285801 193.078184 
L 222.99092 208.011447 
L 224.696038 202.859946 
L 226.401157 209.217593 
L 228.106275 197.536649 
L 229.811393 215.692764 
L 231.516512 177.322569 
L 233.22163 189.569615 
L 234.926749 211.667206 
L 236.631867 209.131144 
L 238.336986 233.469375 
L 240.042104 189.300124 
L 241.747222 196.690715 
L 243.452341 198.320549 
L 245.157459 171.417901 
L 246.862578 187.455214 
L 248.567696 181.908273 
L 250.272814 195.720038 
L 251.977933 208.442213 
L 253.683051 192.520334 
L 255.38817 201.031925 
L 257.093288 182.822808 
L 258.798406 193.37732 
L 260.503525 184.971508 
L 262.208643 213.000803 
L 263.913762 205.06437 
L 265.61888 199.893762 
L 267.323999 214.482563 
L 269.029117 191.503631 
L 270.734235 201.823061 
L 272.439354 182.995758 
L 274.144472 171.770907 
L 275.849591 219.566858 
L 277.554709 183.008717 
L 279.259827 231.240809 
L 280.964946 210.48627 
L 282.670064 197.31158 
L 284.375183 213.579199 
L 286.080301 200.320717 
L 287.785419 210.174525 
L 289.490538 206.564629 
L 291.195656 184.684586 
L 292.900775 219.159314 
L 294.605893 210.086098 
L 296.311012 200.497706 
L 298.01613 216.327961 
L 299.721248 224.128972 
L 301.426367 202.549816 
L 303.131485 186.305433 
L 304.836604 216.562539 
L 306.541722 206.540031 
L 308.24684 200.781538 
L 309.951959 205.480377 
L 311.657077 220.482673 
L 313.362196 188.691254 
L 315.067314 187.000446 
L 316.772432 192.24212 
L 318.477551 193.269123 
L 320.182669 197.702763 
L 321.887788 185.168035 
L 323.592906 201.087004 
L 325.298024 209.107511 
L 327.003143 183.468373 
L 328.708261 187.247352 
L 330.41338 200.865475 
L 332.118498 189.605808 
L 333.823617 199.553713 
L 335.528735 211.043874 
L 337.233853 214.550889 
L 338.938972 225.792057 
L 340.64409 198.392436 
L 342.349209 196.109179 
L 344.054327 200.344704 
L 345.759445 201.790182 
L 347.464564 198.61376 
L 349.169682 185.644294 
L 350.874801 184.022842 
L 352.579919 210.643171 
L 354.285037 213.851057 
L 355.990156 191.467959 
L 357.695274 205.87508 
L 359.400393 195.14933 
L 361.105511 203.287256 
L 362.81063 200.385319 
L 364.515748 190.872461 
L 366.220866 193.182141 
L 367.925985 202.410874 
L 369.631103 220.728392 
L 371.336222 205.144672 
" clip-path="url(#pfa9c0af0db)" style="fill: none; stroke: #1f77b4; stroke-opacity: 0.9; stroke-width: 1.5; stroke-linecap: round"/>
   </g>
   <g id="line2d_12">
    <path d="M 66.972585 62.686087 
L 68.692154 57.747899 
L 70.411722 46.054521 
L 72.131291 38.99142 
L 73.850859 49.398047 
L 75.570428 68.502525 
L 77.289997 31.869375 
L 79.009565 38.873641 
L 80.729134 61.450029 
L 82.448702 75.755293 
L 84.168271 55.577962 
L 85.887839 60.884938 
L 87.607408 90.286369 
L 89.326977 58.719449 
L 91.046545 84.148986 
L 92.766114 37.147529 
L 94.485682 60.098493 
L 96.205251 65.70361 
L 97.924819 79.93807 
L 99.644388 63.325633 
L 101.363957 56.9317 
L 103.083525 50.54141 
L 104.803094 77.325967 
L 106.522662 60.166483 
L 108.242231 66.907235 
L 109.961799 65.983262 
L 111.681368 62.151321 
L 113.400937 70.03817 
L 115.120505 57.471603 
L 116.840074 83.734738 
L 118.559642 58.615385 
L 120.279211 70.819807 
L 121.998779 56.620332 
L 123.718348 56.608041 
L 125.437917 37.113173 
L 127.157485 63.067337 
L 128.877054 73.536767 
L 130.596622 61.531322 
L 132.316191 67.65553 
L 134.035759 49.719421 
L 135.755328 54.646733 
L 137.474896 58.020872 
L 139.194465 60.31115 
L 140.914034 63.851679 
L 142.633602 51.872921 
L 144.353171 78.544774 
L 146.072739 76.490124 
L 147.792308 65.010353 
L 149.511876 50.376546 
L 151.231445 61.505849 
L 152.951014 71.146734 
L 154.670582 58.558616 
L 156.390151 73.005195 
L 158.109719 51.858926 
L 159.829288 44.326878 
L 161.548856 55.690399 
L 163.268425 50.54869 
L 164.987994 76.305893 
L 166.707562 70.806262 
L 168.427131 48.801362 
" clip-path="url(#pfa9c0af0db)" style="fill: none; stroke: #ff7f0e; stroke-opacity: 0.9; stroke-width: 1.5; stroke-linecap: round"/>
   </g>
   <g id="line2d_13">
    <path d="M 371.336222 132.858319 
L 373.04613 141.9305 
L 374.756038 132.12782 
L 376.465946 134.681998 
L 378.175854 108.864876 
L 379.885762 112.912349 
L 381.59567 120.261845 
L 383.305578 130.490254 
L 385.015486 137.626367 
L 386.725394 137.317555 
L 388.435302 129.001132 
L 390.14521 111.18091 
L 391.855118 113.800194 
L 393.565026 129.91612 
L 395.274935 136.643168 
L 396.984843 129.418087 
L 398.694751 122.103993 
L 400.404659 133.078465 
L 402.114567 127.96027 
L 403.824475 150.643353 
L 405.534383 124.478621 
L 407.244291 142.639736 
L 408.954199 125.584522 
L 410.664107 163.323993 
L 412.374015 135.289245 
L 414.083923 133.75676 
L 415.793831 135.21278 
L 417.503739 131.700685 
L 419.213648 138.505054 
L 420.923556 131.142324 
L 422.633464 137.37062 
L 424.343372 126.844609 
L 426.05328 118.718646 
L 427.763188 138.595056 
L 429.473096 128.557037 
L 431.183004 127.816993 
L 432.892912 143.672581 
L 434.60282 125.909652 
L 436.312728 129.179653 
L 438.022636 122.054036 
L 439.732544 127.013262 
L 441.442452 125.73011 
L 443.152361 118.849361 
L 444.862269 130.325389 
L 446.572177 122.813213 
L 448.282085 129.12044 
L 449.991993 142.116908 
L 451.701901 115.093189 
L 453.411809 126.749416 
L 455.121717 111.480834 
L 456.831625 126.490403 
L 458.541533 124.414195 
L 460.251441 139.034694 
L 461.961349 146.472259 
L 463.671257 116.584338 
L 465.381165 126.352467 
L 467.091073 138.845365 
L 468.800982 142.411938 
L 470.51089 118.58984 
L 472.220798 130.960105 
L 473.930706 134.72711 
L 475.640614 154.016254 
L 477.350522 118.561856 
L 479.06043 150.368933 
L 480.770338 136.628505 
L 482.480246 156.666511 
L 484.190154 145.062321 
L 485.900062 138.666363 
L 487.60997 120.654544 
L 489.319878 131.500718 
L 491.029786 129.659407 
L 492.739695 120.991558 
L 494.449603 138.010647 
L 496.159511 158.45996 
L 497.869419 134.218491 
L 499.579327 128.506902 
L 501.289235 150.596511 
L 502.999143 136.396135 
L 504.709051 133.163158 
L 506.418959 122.221651 
L 508.128867 141.958404 
L 509.838775 116.405479 
L 511.548683 148.553527 
L 513.258591 129.022001 
L 514.968499 128.833209 
L 516.678407 128.426868 
L 518.388316 127.834463 
L 520.098224 126.712537 
L 521.808132 144.47846 
L 523.51804 126.02022 
" clip-path="url(#pfa9c0af0db)" style="fill: none; stroke: #2ca02c; stroke-opacity: 0.9; stroke-width: 1.5; stroke-linecap: round"/>
   </g>
   <g id="patch_3">
    <path d="M 44.145313 243.549375 
L 44.145313 21.789375 
" style="fill: none; stroke: #cccccc; stroke-width: 0.8; stroke-linejoin: miter; stroke-linecap: square"/>
   </g>
   <g id="patch_4">
    <path d="M 546.345313 243.549375 
L 546.345313 21.789375 
" style="fill: none; stroke: #cccccc; stroke-width: 0.8; stroke-linejoin: miter; stroke-linecap: square"/>
   </g>
   <g id="patch_5">
    <path d="M 44.145313 243.549375 
L 546.345313 243.549375 
" style="fill: none; stroke: #cccccc; stroke-width: 0.8; stroke-linejoin: miter; stroke-linecap: square"/>
   </g>
   <g id="patch_6">
    <path d="M 44.145313 21.789375 
L 546.345313 21.789375 
" style="fill: none; stroke: #cccccc; stroke-width: 0.8; stroke-linejoin: miter; stroke-linecap: square"/>
   </g>
   <g id="text_13">
    <!-- Latency over time — login-browse-purchase -->
    <g style="fill: #262626" transform="translate(177.866563 15.789375) scale(0.12 -0.12)">
     <defs>
      <path id="ArialMT-4c" d="M 469 0 
L 469 4581 
L 1075 4581 
L 1075 541 
L 3331 541 
L 3331 0 
L 469 0 
z
" transform="scale(0.015625)"/>
      <path id="ArialMT-6f" d="M 213 1659 
Q 213 2581 725 3025 
Q 1153 3394 1769 3394 
Q 2453 3394 2887 2945 
Q 3322 2497 3322 1706 
Q 3322 1066 3130 698 
Q 2938 331 2570 128 
Q 2203 -75 1769 -75 
Q 1072 -75 642 372 
Q 213 819 213 1659 
z
M 791 1659 
Q 791 1022 1069 705 
Q 1347 388 1769 388 
Q 2188 388 2466 706 
Q 2744 1025 2744 1678 
Q 2744 2294 2464 2611 
Q 2184 2928 1769 2928 
Q 1347 2928 1069 2612 
Q 791 2297 791 1659 
z
" transform="scale(0.015625)"/>
      <path id="ArialMT-76" d="M 1344 0 
L 81 3319 
L 675 3319 
L 1388 1331 
Q 1503 1009 1600 663 
Q 1675 925 1809 1294 
L 2547 3319 
L 3125 3319 
L 1869 0 
L 1344 0 
z
" transform="scale(0.015625)"/>
      <path id="ArialMT-72" d="M 416 0 
L 416 3319 
L 922 3319 
L 922 2816 
Q 1116 3169 1280 3281 
Q 1444 3394 1641 3394 
Q 1925 3394 2219 3213 
L 2025 2691 
Q 1819 2813 1613 2813 
Q 1428 2813 1281 2702 
Q 1134 2591 1072 2394 
Q 978 2094 978 1738 
L 978 0 
L 416 0 
z
" transform="scale(0.015625)"/>
      <path id="ArialMT-69" d="M 425 3934 
L 425 4581 
L 988 4581 
L 988 3934 
L 425 3934 
z
M 425 0 
L 425 3319 
L 988 3319 
L 988 0 
L 425 0 
z
" transform="scale(0.015625)"/>
      <path id="ArialMT-2014" d="M 0 1431 
L 0 1884 
L 6400 1884 
L 6400 1431 
L 0 1431 
z
" transform="scale(0.015625)"/>
      <path id="ArialMT-67" d="M 319 -275 
L 866 -356 
Q 900 -609 1056 -725 
Q 1266 -881 1628 -881 
Q 2019 -881 2231 -725 
Q 2444 -569 2519 -288 
Q 2563 -116 2559 434 
Q 2191 0 1641 0 
Q 956 0 581 494 
Q 206 988 206 1678 
Q 206 2153 378 2554 
Q 550 2956 876 3175 
Q 1203 3394 1644 3394 
Q 2231 3394 2613 2919 
L 2613 3319 
L 3131 3319 
L 3131 450 
Q 3131 -325 2973 -648 
Q 2816 -972 2473 -1159 
Q 2131 -1347 1631 -1347 
Q 1038 -1347 672 -1080 
Q 306 -813 319 -275 
z
M 784 1719 
Q 784 1066 1043 766 
Q 1303 466 1694 466 
Q 2081 466 2343 764 
Q 2606 1063 2606 1700 
Q 2606 2309 2336 2618 
Q 2066 2928 1684 2928 
Q 1309 2928 1046 2623 
Q 784 2319 784 1719 
z
" transform="scale(0.015625)"/>
      <path id="ArialMT-2d" d="M 203 1375 
L 203 1941 
L 1931 1941 
L 1931 1375 
L 203 1375 
z
" transform="scale(0.015625)"/>
      <path id="ArialMT-62" d="M 941 0 
L 419 0 
L 419 4581 
L 981 4581 
L 981 2947 
Q 1338 3394 1891 3394 
Q 2197 3394 2470 3270 
Q 2744 3147 2920 2923 
Q 3097 2700 3197 2384 
Q 3297 2069 3297 1709 
Q 3297 856 2875 390 
Q 2453 -75 1863 -75 
Q 1275 -75 941 416 
L 941 0 
z
M 934 1684 
Q 934 1088 1097 822 
Q 1363 388 1816 388 
Q 2184 388 2453 708 
Q 2722 1028 2722 1663 
Q 2722 2313 2464 2622 
Q 2206 2931 1841 2931 
Q 1472 2931 1203 2611 
Q 934 2291 934 1684 
z
" transform="scale(0.015625)"/>
      <path id="ArialMT-77" d="M 1034 0 
L 19 3319 
L 600 3319 
L 1128 1403 
L 1325 691 
Q 1338 744 1497 1375 
L 2025 3319 
L 2603 3319 
L 3100 1394 
L 3266 759 
L 3456 1400 
L 4025 3319 
L 4572 3319 
L 3534 0 
L 2950 0 
L 2422 1988 
L 2294 2553 
L 1622 0 
L 1034 0 
z
" transform="scale(0.015625)"/>
      <path id="ArialMT-70" d="M 422 -1272 
L 422 3319 
L 934 3319 
L 934 2888 
Q 1116 3141 1344 3267 
Q 1572 3394 1897 3394 
Q 2322 3394 2647 3175 
Q 2972 2956 3137 2557 
Q 3303 2159 3303 1684 
Q 3303 1175 3120 767 
Q 2938 359 2589 142 
Q 2241 -75 1856 -75 
Q 1575 -75 1351 44 
Q 1128 163 984 344 
L 984 -1272 
L 422 -1272 
z
M 931 1641 
Q 931 1000 1190 694 
Q 1450 388 1819 388 
Q 2194 388 2461 705 
Q 2728 1022 2728 1688 
Q 2728 2322 2467 2637 
Q 2206 2953 1844 2953 
Q 1484 2953 1207 2617 
Q 931 2281 931 1641 
z
" transform="scale(0.015625)"/>
      <path id="ArialMT-75" d="M 2597 0 
L 2597 488 
Q 2209 -75 1544 -75 
Q 1250 -75 995 37 
Q 741 150 617 320 
Q 494 491 444 738 
Q 409 903 409 1263 
L 409 3319 
L 972 3319 
L 972 1478 
Q 972 1038 1006 884 
Q 1059 663 1231 536 
Q 1403 409 1656 409 
Q 1909 409 2131 539 
Q 2353 669 2445 892 
Q 2538 1116 2538 1541 
L 2538 3319 
L 3100 3319 
L 3100 0 
L 2597 0 
z
" transform="scale(0.015625)"/>
      <path id="ArialMT-68" d="M 422 0 
L 422 4581 
L 984 4581 
L 984 2938 
Q 1378 3394 1978 3394 
Q 2347 3394 2619 3248 
Q 2891 3103 3008 2847 
Q 3125 2591 3125 2103 
L 3125 0 
L 2563 0 
L 2563 2103 
Q 2563 2525 2380 2717 
Q 2197 2909 1863 2909 
Q 1613 2909 1392 2779 
Q 1172 2650 1078 2428 
Q 984 2206 984 1816 
L 984 0 
L 422 0 
z
" transform="scale(0.015625)"/>
     </defs>
     <use xlink:href="#ArialMT-4c"/>
     <use xlink:href="#ArialMT-61" transform="translate(55.615234 0)"/>
     <use xlink:href="#ArialMT-74" transform="translate(111.230469 0)"/>
     <use xlink:href="#ArialMT-65" transform="translate(139.013672 0)"/>
     <use xlink:href="#ArialMT-6e" transform="translate(194.628906 0)"/>
     <use xlink:href="#ArialMT-63" transform="translate(250.244141 0)"/>
     <use xlink:href="#ArialMT-79" transform="translate(300.244141 0)"/>
     <use xlink:href="#ArialMT-20" transform="translate(350.244141 0)"/>
     <use xlink:href="#ArialMT-6f" transform="translate(378.027344 0)"/>
     <use xlink:href="#ArialMT-76" transform="translate(433.642578 0)"/>
     <use xlink:href="#ArialMT-65" transform="translate(483.642578 0)"/>
     <use xlink:href="#ArialMT-72" transform="translate(539.257812 0)"/>
     <use xlink:href="#ArialMT-20" transform="translate(572.558594 0)"/>
     <use xlink:href="#ArialMT-74" transform="translate(600.341797 0)"/>
     <use xlink:href="#ArialMT-69" transform="translate(628.125 0)"/>
     <use xlink:href="#ArialMT-6d" transform="translate(650.341797 0)"/>
     <use xlink:href="#ArialMT-65" transform="translate(733.642578 0)"/>
     <use xlink:href="#ArialMT-20" transform="translate(789.257812 0)"/>
     <use xlink:href="#ArialMT-2014" transform="translate(817.041016 0)"/>
     <use xlink:href="#ArialMT-20" transform="translate(917.041016 0)"/>
     <use xlink:href="#ArialMT-6c" transform="translate(944.824219 0)"/>
     <use xlink:href="#ArialMT-6f" transform="translate(967.041016 0)"/>
     <use xlink:href="#ArialMT-67" transform="translate(1022.65625 0)"/>
     <use xlink:href="#ArialMT-69" transform="translate(1078.271484 0)"/>
     <use xlink:href="#ArialMT-6e" transform="translate(1100.488281 0)"/>
     <use xlink:href="#ArialMT-2d" transform="translate(1156.103516 0)"/>
     <use xlink:href="#ArialMT-62" transform="translate(1189.404297 0)"/>
     <use xlink:href="#ArialMT-72" transform="translate(1245.019531 0)"/>
     <use xlink:href="#ArialMT-6f" transform="translate(1278.320312 0)"/>
     <use xlink:href="#ArialMT-77" transform="translate(1333.935547 0)"/>
     <use xlink:href="#ArialMT-73" transform="translate(1406.152344 0)"/>
     <use xlink:href="#ArialMT-65" transform="translate(1456.152344 0)"/>
     <use xlink:href="#ArialMT-2d" transform="translate(1511.767578 0)"/>
     <use xlink:href="#ArialMT-70" transform="translate(1545.068359 0)"/>
     <use xlink:href="#ArialMT-75" transform="translate(1600.683594 0)"/>
     <use xlink:href="#ArialMT-72" transform="translate(1656.298828 0)"/>
     <use xlink:href="#ArialMT-63" transform="translate(1689.599609 0)"/>
     <use xlink:href="#ArialMT-68" transform="translate(1739.599609 0)"/>
     <use xlink:href="#ArialMT-61" transform="translate(1795.214844 0)"/>
     <use xlink:href="#ArialMT-73" transform="translate(1850.830078 0)"/>
     <use xlink:href="#ArialMT-65" transform="translate(1900.830078 0)"/>
    </g>
   </g>
   <g id="legend_1">
    <g id="patch_7">
     <path d="M 466.210938 72.3425 
L 539.345313 72.3425 
Q 541.345313 72.3425 541.345313 70.3425 
L 541.345313 28.789375 
Q 541.345313 26.789375 539.345313 26.789375 
L 466.210938 26.789375 
Q 464.210938 26.789375 464.210938 28.789375 
L 464.210938 70.3425 
Q 464.210938 72.3425 466.210938 72.3425 
z
" style="fill: #ffffff; opacity: 0.8; stroke: #cccccc; stroke-linejoin: miter"/>
    </g>
    <g id="line2d_14">
     <path d="M 468.210938 34.447187 
L 478.210938 34.447187 
L 488.210938 34.447187 
" style="fill: none; stroke: #1f77b4; stroke-opacity: 0.9; stroke-width: 1.5; stroke-linecap: round"/>
    </g>
    <g id="text_14">
     <!-- browse -->
     <g style="fill: #262626" transform="translate(496.210938 37.947187) scale(0.1 -0.1)">
      <use xlink:href="#ArialMT-62"/>
      <use xlink:href="#ArialMT-72" transform="translate(55.615234 0)"/>
      <use xlink:href="#ArialMT-6f" transform="translate(88.916016 0)"/>
      <use xlink:href="#ArialMT-77" transform="translate(144.53125 0)"/>
      <use xlink:href="#ArialMT-73" transform="translate(216.748047 0)"/>
      <use xlink:href="#ArialMT-65" transform="translate(266.748047 0)"/>
     </g>
    </g>
    <g id="line2d_15">
     <path d="M 468.210938 48.5925 
L 478.210938 48.5925 
L 488.210938 48.5925 
" style="fill: none; stroke: #ff7f0e; stroke-opacity: 0.9; stroke-width: 1.5; stroke-linecap: round"/>
    </g>
    <g id="text_15">
     <!-- login -->
     <g style="fill: #262626" transform="translate(496.210938 52.0925) scale(0.1 -0.1)">
      <use xlink:href="#ArialMT-6c"/>
      <use xlink:href="#ArialMT-6f" transform="translate(22.216797 0)"/>
      <use xlink:href="#ArialMT-67" transform="translate(77.832031 0)"/>
      <use xlink:href="#ArialMT-69" transform="translate(133.447266 0)"/>
      <use xlink:href="#ArialMT-6e" transform="translate(155.664062 0)"/>
     </g>
    </g>
    <g id="line2d_16">
     <path d="M 468.210938 62.855 
L 478.210938 62.855 
L 488.210938 62.855 
" style="fill: none; stroke: #2ca02c; stroke-opacity: 0.9; stroke-width: 1.5; stroke-linecap: round"/>
    </g>
    <g id="text_16">
     <!-- purchase -->
     <g style="fill: #262626" transform="translate(496.210938 66.355) scale(0.1 -0.1)">
      <use xlink:href="#ArialMT-70"/>
      <use xlink:href="#ArialMT-75" transform="translate(55.615234 0)"/>
      <use xlink:href="#ArialMT-72" transform="translate(111.230469 0)"/>
      <use xlink:href="#ArialMT-63" transform="translate(144.53125 0)"/>
      <use xlink:href="#ArialMT-68" transform="translate(194.53125 0)"/>
      <use xlink:href="#ArialMT-61" transform="translate(250.146484 0)"/>
      <use xlink:href="#ArialMT-73" transform="translate(305.761719 0)"/>
      <use xlink:href="#ArialMT-65" transform="translate(355.761719 0)"/>
     </g>
    </g>
   </g>
  </g>
 </g>
 <defs>
  <clipPath id="pfa9c0af0db">
   <rect x="44.145313" y="21.789375" width="502.2" height="221.76"/>
  </clipPath>
 </defs>
</svg>
