<?xml version="1.0" encoding="utf-8" standalone="no"?>
<!DOCTYPE svg PUBLIC "-//W3C//DTD SVG 1.1//EN"
  "http://www.w3.org/Graphics/SVG/1.1/DTD/svg11.dtd">
<svg xmlns:xlink="http://www.w3.org/1999/xlink" width="547.984375pt" height="280.04pt" viewBox="0 0 547.984375 280.04" xmlns="http://www.w3.org/2000/svg" version="1.1">
 <metadata>
  <rdf:RDF xmlns:dc="http://purl.org/dc/elements/1.1/" xmlns:cc="http://creativecommons.org/ns#" xmlns:rdf="http://www.w3.org/1999/02/22-rdf-syntax-ns#">
   <cc:Work>
    <dc:type rdf:resource="http://purl.org/dc/dcmitype/StillImage"/>
    <dc:date>2025-11-12T15:39:13.217149</dc:date>
    <dc:format>image/svg+xml</dc:format>
    <dc:creator>
     <cc:Agent>
      <dc:title>Matplotlib v3.10.7, https://matplotlib.org/</dc:title>
     </cc:Agent>
    </dc:creator>
   </cc:Work>
  </rdf:RDF>
 </metadata>
 <defs>
  <style type="text/css">*{stroke-linejoin: round; stroke-linecap: butt}</style>
 </defs>
 <g id="figure_1">
  <g id="patch_1">
   <path d="M 0 280.04 
L 547.984375 280.04 
L 547.984375 0 
L 0 0 
z
" style="fill: #ffffff"/>
  </g>
  <g id="axes_1">
   <g id="patch_2">
    <path d="M 38.584375 243.549375 
L 540.784375 243.549375 
L 540.784375 21.789375 
L 38.584375 21.789375 
z
" style="fill: #ffffff"/>
   </g>
   <g id="matplotlib.axis_1">
    <g id="xtick_1">
     <g id="line2d_1">
      <path d="M 61.411648 243.549375 
L 61.411648 21.789375 
" clip-path="url(#pb1bbf073f4)" style="fill: none; stroke: #cccccc; stroke-width: 0.8; stroke-linecap: round"/>
     </g>
     <g id="text_1">
      <!-- 0 -->
      <g style="fill: #262626" transform="translate(58.631179 257.707188) scale(0.1 -0.1)">
       <defs>
        <path id="ArialMT-30" d="M 266 2259 
Q 266 3072 433 3567 
Q 600 4063 929 4331 
Q 1259 4600 1759 4600 
Q 2128 4600 2406 4451 
Q 2684 4303 2865 4023 
Q 3047 3744 3150 3342 
Q 3253 2941 3253 2259 
Q 3253 1453 3087 958 
Q 2922 463 2592 192 
Q 2263 -78 1759 -78 
Q 1097 -78 719 397 
Q 266 969 266 2259 
z
M 844 2259 
Q 844 1131 1108 757 
Q 1372 384 1759 384 
Q 2147 384 2411 759 
Q 2675 1134 2675 2259 
Q 2675 3391 2411 3762 
Q 2147 4134 1753 4134 
Q 1366 4134 1134 3806 
Q 844 3388 844 2259 
z
" transform="scale(0.015625)"/>
       </defs>
       <use xlink:href="#ArialMT-30"/>
      </g>
     </g>
    </g>
    <g id="xtick_2">
     <g id="line2d_2">
      <path d="M 145.957102 243.549375 
L 145.957102 21.789375 
" clip-path="url(#pb1bbf073f4)" style="fill: none; stroke: #cccccc; stroke-width: 0.8; stroke-linecap: round"/>
     </g>
     <g id="text_2">
      <!-- 50 -->
      <g style="fill: #262626" transform="translate(140.396165 257.707188) scale(0.1 -0.1)">
       <defs>
        <path id="ArialMT-35" d="M 266 1200 
L 856 1250 
Q 922 819 1161 601 
Q 1400 384 1738 384 
Q 2144 384 2425 690 
Q 2706 997 2706 1503 
Q 2706 1984 2436 2262 
Q 2166 2541 1728 2541 
Q 1456 2541 1237 2417 
Q 1019 2294 894 2097 
L 366 2166 
L 809 4519 
L 3088 4519 
L 3088 3981 
L 1259 3981 
L 1013 2750 
Q 1425 3038 1878 3038 
Q 2478 3038 2890 2622 
Q 3303 2206 3303 1553 
Q 3303 931 2941 478 
Q 2500 -78 1738 -78 
Q 1113 -78 717 272 
Q 322 622 266 1200 
z
" transform="scale(0.015625)"/>
       </defs>
       <use xlink:href="#ArialMT-35"/>
       <use xlink:href="#ArialMT-30" transform="translate(55.615234 0)"/>
      </g>
     </g>
    </g>
    <g id="xtick_3">
     <g id="line2d_3">
      <path d="M 230.502557 243.549375 
L 230.502557 21.789375 
" clip-path="url(#pb1bbf073f4)" style="fill: none; stroke: #cccccc; stroke-width: 0.8; stroke-linecap: round"/>
     </g>
     <g id="text_3">
      <!-- 100 -->
      <g style="fill: #262626" transform="translate(222.161151 257.707188) scale(0.1 -0.1)">
       <defs>
        <path id="ArialMT-31" d="M 2384 0 
L 1822 0 
L 1822 3584 
Q 1619 3391 1289 3197 
Q 959 3003 697 2906 
L 697 3450 
Q 1169 3672 1522 3987 
Q 1875 4303 2022 4600 
L 2384 4600 
L 2384 0 
z
" transform="scale(0.015625)"/>
       </defs>
       <use xlink:href="#ArialMT-31"/>
       <use xlink:href="#ArialMT-30" transform="translate(55.615234 0)"/>
       <use xlink:href="#ArialMT-30" transform="translate(111.230469 0)"/>
      </g>
     </g>
    </g>
    <g id="xtick_4">
     <g id="line2d_4">
      <path d="M 315.048011 243.549375 
L 315.048011 21.789375 
" clip-path="url(#pb1bbf073f4)" style="fill: none; stroke: #cccccc; stroke-width: 0.8; stroke-linecap: round"/>
     </g>
     <g id="text_4">
      <!-- 150 -->
      <g style="fill: #262626" transform="translate(306.706605 257.707188) scale(0.1 -0.1)">
       <use xlink:href="#ArialMT-31"/>
       <use xlink:href="#ArialMT-35" transform="translate(55.615234 0)"/>
       <use xlink:href="#ArialMT-30" transform="translate(111.230469 0)"/>
      </g>
     </g>
    </g>
    <g id="xtick_5">
     <g id="line2d_5">
      <path d="M 399.593466 243.549375 
L 399.593466 21.789375 
" clip-path="url(#pb1bbf073f4)" style="fill: none; stroke: #cccccc; stroke-width: 0.8; stroke-linecap: round"/>
     </g>
     <g id="text_5">
      <!-- 200 -->
      <g style="fill: #262626" transform="translate(391.25206 257.707188) scale(0.1 -0.1)">
       <defs>
        <path id="ArialMT-32" d="M 3222 541 
L 3222 0 
L 194 0 
Q 188 203 259 391 
Q 375 700 629 1000 
Q 884 1300 1366 1694 
Q 2113 2306 2375 2664 
Q 2638 3022 2638 3341 
Q 2638 3675 2398 3904 
Q 2159 4134 1775 4134 
Q 1369 4134 1125 3890 
Q 881 3647 878 3216 
L 300 3275 
Q 359 3922 746 4261 
Q 1134 4600 1788 4600 
Q 2447 4600 2831 4234 
Q 3216 3869 3216 3328 
Q 3216 3053 3103 2787 
Q 2991 2522 2730 2228 
Q 2469 1934 1863 1422 
Q 1356 997 1212 845 
Q 1069 694 975 541 
L 3222 541 
z
" transform="scale(0.015625)"/>
       </defs>
       <use xlink:href="#ArialMT-32"/>
       <use xlink:href="#ArialMT-30" transform="translate(55.615234 0)"/>
       <use xlink:href="#ArialMT-30" transform="translate(111.230469 0)"/>
      </g>
     </g>
    </g>
    <g id="xtick_6">
     <g id="line2d_6">
      <path d="M 484.13892 243.549375 
L 484.13892 21.789375 
" clip-path="url(#pb1bbf073f4)" style="fill: none; stroke: #cccccc; stroke-width: 0.8; stroke-linecap: round"/>
     </g>
     <g id="text_6">
      <!-- 250 -->
      <g style="fill: #262626" transform="translate(475.797514 257.707188) scale(0.1 -0.1)">
       <use xlink:href="#ArialMT-32"/>
       <use xlink:href="#ArialMT-35" transform="translate(55.615234 0)"/>
       <use xlink:href="#ArialMT-30" transform="translate(111.230469 0)"/>
      </g>
     </g>
    </g>
    <g id="text_7">
     <!-- t [s] -->
     <g style="fill: #262626" transform="translate(281.628125 270.8525) scale(0.1 -0.1)">
      <defs>
       <path id="ArialMT-74" d="M 1650 503 
L 1731 6 
Q 1494 -44 1306 -44 
Q 1000 -44 831 53 
Q 663 150 594 308 
Q 525 466 525 972 
L 525 2881 
L 113 2881 
L 113 3319 
L 525 3319 
L 525 4141 
L 1084 4478 
L 1084 3319 
L 1650 3319 
L 1650 2881 
L 1084 2881 
L 1084 941 
Q 1084 700 1114 631 
Q 1144 563 1211 522 
Q 1278 481 1403 481 
Q 1497 481 1650 503 
z
" transform="scale(0.015625)"/>
       <path id="ArialMT-20" transform="scale(0.015625)"/>
       <path id="ArialMT-5b" d="M 434 -1272 
L 434 4581 
L 1675 4581 
L 1675 4116 
L 997 4116 
L 997 -806 
L 1675 -806 
L 1675 -1272 
L 434 -1272 
z
" transform="scale(0.015625)"/>
       <path id="ArialMT-73" d="M 197 991 
L 753 1078 
Q 800 744 1014 566 
Q 1228 388 1613 388 
Q 2000 388 2187 545 
Q 2375 703 2375 916 
Q 2375 1106 2209 1216 
Q 2094 1291 1634 1406 
Q 1016 1563 777 1677 
Q 538 1791 414 1992 
Q 291 2194 291 2438 
Q 291 2659 392 2848 
Q 494 3038 669 3163 
Q 800 3259 1026 3326 
Q 1253 3394 1513 3394 
Q 1903 3394 2198 3281 
Q 2494 3169 2634 2976 
Q 2775 2784 2828 2463 
L 2278 2388 
Q 2241 2644 2061 2787 
Q 1881 2931 1553 2931 
Q 1166 2931 1000 2803 
Q 834 2675 834 2503 
Q 834 2394 903 2306 
Q 972 2216 1119 2156 
Q 1203 2125 1616 2013 
Q 2213 1853 2448 1751 
Q 2684 1650 2818 1456 
Q 2953 1263 2953 975 
Q 2953 694 2789 445 
Q 2625 197 2315 61 
Q 2006 -75 1616 -75 
Q 969 -75 630 194 
Q 291 463 197 991 
z
" transform="scale(0.015625)"/>
       <path id="ArialMT-5d" d="M 1363 -1272 
L 122 -1272 
L 122 -806 
L 800 -806 
L 800 4116 
L 122 4116 
L 122 4581 
L 1363 4581 
L 1363 -1272 
z
" transform="scale(0.015625)"/>
      </defs>
      <use xlink:href="#ArialMT-74"/>
      <use xlink:href="#ArialMT-20" transform="translate(27.783203 0)"/>
      <use xlink:href="#ArialMT-5b" transform="translate(55.566406 0)"/>
      <use xlink:href="#ArialMT-73" transform="translate(83.349609 0)"/>
      <use xlink:href="#ArialMT-5d" transform="translate(133.349609 0)"/>
     </g>
    </g>
   </g>
   <g id="matplotlib.axis_2">
    <g id="ytick_1">
     <g id="line2d_7">
      <path d="M 38.584375 239.439105 
L 540.784375 239.439105 
" clip-path="url(#pb1bbf073f4)" style="fill: none; stroke: #cccccc; stroke-width: 0.8; stroke-linecap: round"/>
     </g>
     <g id="text_8">
      <!-- 25 -->
      <g style="fill: #262626" transform="translate(20.4625 243.018011) scale(0.1 -0.1)">
       <use xlink:href="#ArialMT-32"/>
       <use xlink:href="#ArialMT-35" transform="translate(55.615234 0)"/>
      </g>
     </g>
    </g>
    <g id="ytick_2">
     <g id="line2d_8">
      <path d="M 38.584375 212.862513 
L 540.784375 212.862513 
" clip-path="url(#pb1bbf073f4)" style="fill: none; stroke: #cccccc; stroke-width: 0.8; stroke-linecap: round"/>
     </g>
     <g id="text_9">
      <!-- 30 -->
      <g style="fill: #262626" transform="translate(20.4625 216.441419) scale(0.1 -0.1)">
       <defs>
        <path id="ArialMT-33" d="M 269 1209 
L 831 1284 
Q 928 806 1161 595 
Q 1394 384 1728 384 
Q 2125 384 2398 659 
Q 2672 934 2672 1341 
Q 2672 1728 2419 1979 
Q 2166 2231 1775 2231 
Q 1616 2231 1378 2169 
L 1441 2663 
Q 1497 2656 1531 2656 
Q 1891 2656 2178 2843 
Q 2466 3031 2466 3422 
Q 2466 3731 2256 3934 
Q 2047 4138 1716 4138 
Q 1388 4138 1169 3931 
Q 950 3725 888 3313 
L 325 3413 
Q 428 3978 793 4289 
Q 1159 4600 1703 4600 
Q 2078 4600 2393 4439 
Q 2709 4278 2876 4000 
Q 3044 3722 3044 3409 
Q 3044 3113 2884 2869 
Q 2725 2625 2413 2481 
Q 2819 2388 3044 2092 
Q 3269 1797 3269 1353 
Q 3269 753 2831 336 
Q 2394 -81 1725 -81 
Q 1122 -81 723 278 
Q 325 638 269 1209 
z
" transform="scale(0.015625)"/>
       </defs>
       <use xlink:href="#ArialMT-33"/>
       <use xlink:href="#ArialMT-30" transform="translate(55.615234 0)"/>
      </g>
     </g>
    </g>
    <g id="ytick_3">
     <g id="line2d_9">
      <path d="M 38.584375 186.285921 
L 540.784375 186.285921 
" clip-path="url(#pb1bbf073f4)" style="fill: none; stroke: #cccccc; stroke-width: 0.8; stroke-linecap: round"/>
     </g>
     <g id="text_10">
      <!-- 35 -->
      <g style="fill: #262626" transform="translate(20.4625 189.864827) scale(0.1 -0.1)">
       <use xlink:href="#ArialMT-33"/>
       <use xlink:href="#ArialMT-35" transform="translate(55.615234 0)"/>
      </g>
     </g>
    </g>
    <g id="ytick_4">
     <g id="line2d_10">
      <path d="M 38.584375 159.709329 
L 540.784375 159.709329 
" clip-path="url(#pb1bbf073f4)" style="fill: none; stroke: #cccccc; stroke-width: 0.8; stroke-linecap: round"/>
     </g>
     <g id="text_11">
      <!-- 40 -->
      <g style="fill: #262626" transform="translate(20.4625 163.288235) scale(0.1 -0.1)">
       <defs>
        <path id="ArialMT-34" d="M 2069 0 
L 2069 1097 
L 81 1097 
L 81 1613 
L 2172 4581 
L 2631 4581 
L 2631 1613 
L 3250 1613 
L 3250 1097 
L 2631 1097 
L 2631 0 
L 2069 0 
z
M 2069 1613 
L 2069 3678 
L 634 1613 
L 2069 1613 
z
" transform="scale(0.015625)"/>
       </defs>
       <use xlink:href="#ArialMT-34"/>
       <use xlink:href="#ArialMT-30" transform="translate(55.615234 0)"/>
      </g>
     </g>
    </g>
    <g id="ytick_5">
     <g id="line2d_11">
      <path d="M 38.584375 133.132736 
L 540.784375 133.132736 
" clip-path="url(#pb1bbf073f4)" style="fill: none; stroke: #cccccc; stroke-width: 0.8; stroke-linecap: round"/>
     </g>
     <g id="text_12">
      <!-- 45 -->
      <g style="fill: #262626" transform="translate(20.4625 136.711643) scale(0.1 -0.1)">
       <use xlink:href="#ArialMT-34"/>
       <use xlink:href="#ArialMT-35" transform="translate(55.615234 0)"/>
      </g>
     </g>
    </g>
    <g id="ytick_6">
     <g id="line2d_12">
      <path d="M 38.584375 106.556144 
L 540.784375 106.556144 
" clip-path="url(#pb1bbf073f4)" style="fill: none; stroke: #cccccc; stroke-width: 0.8; stroke-linecap: round"/>
     </g>
     <g id="text_13">
      <!-- 50 -->
      <g style="fill: #262626" transform="translate(20.4625 110.13505) scale(0.1 -0.1)">
       <use xlink:href="#ArialMT-35"/>
       <use xlink:href="#ArialMT-30" transform="translate(55.615234 0)"/>
      </g>
     </g>
    </g>
    <g id="ytick_7">
     <g id="line2d_13">
      <path d="M 38.584375 79.979552 
L 540.784375 79.979552 
" clip-path="url(#pb1bbf073f4)" style="fill: none; stroke: #cccccc; stroke-width: 0.8; stroke-linecap: round"/>
     </g>
     <g id="text_14">
      <!-- 55 -->
      <g style="fill: #262626" transform="translate(20.4625 83.558458) scale(0.1 -0.1)">
       <use xlink:href="#ArialMT-35"/>
       <use xlink:href="#ArialMT-35" transform="translate(55.615234 0)"/>
      </g>
     </g>
    </g>
    <g id="ytick_8">
     <g id="line2d_14">
      <path d="M 38.584375 53.40296 
L 540.784375 53.40296 
" clip-path="url(#pb1bbf073f4)" style="fill: none; stroke: #cccccc; stroke-width: 0.8; stroke-linecap: round"/>
     </g>
     <g id="text_15">
      <!-- 60 -->
      <g style="fill: #262626" transform="translate(20.4625 56.981866) scale(0.1 -0.1)">
       <defs>
        <path id="ArialMT-36" d="M 3184 3459 
L 2625 3416 
Q 2550 3747 2413 3897 
Q 2184 4138 1850 4138 
Q 1581 4138 1378 3988 
Q 1113 3794 959 3422 
Q 806 3050 800 2363 
Q 1003 2672 1297 2822 
Q 1591 2972 1913 2972 
Q 2475 2972 2870 2558 
Q 3266 2144 3266 1488 
Q 3266 1056 3080 686 
Q 2894 316 2569 119 
Q 2244 -78 1831 -78 
Q 1128 -78 684 439 
Q 241 956 241 2144 
Q 241 3472 731 4075 
Q 1159 4600 1884 4600 
Q 2425 4600 2770 4297 
Q 3116 3994 3184 3459 
z
M 888 1484 
Q 888 1194 1011 928 
Q 1134 663 1356 523 
Q 1578 384 1822 384 
Q 2178 384 2434 671 
Q 2691 959 2691 1453 
Q 2691 1928 2437 2201 
Q 2184 2475 1800 2475 
Q 1419 2475 1153 2201 
Q 888 1928 888 1484 
z
" transform="scale(0.015625)"/>
       </defs>
       <use xlink:href="#ArialMT-36"/>
       <use xlink:href="#ArialMT-30" transform="translate(55.615234 0)"/>
      </g>
     </g>
    </g>
    <g id="ytick_9">
     <g id="line2d_15">
      <path d="M 38.584375 26.826368 
L 540.784375 26.826368 
" clip-path="url(#pb1bbf073f4)" style="fill: none; stroke: #cccccc; stroke-width: 0.8; stroke-linecap: round"/>
     </g>
     <g id="text_16">
      <!-- 65 -->
      <g style="fill: #262626" transform="translate(20.4625 30.405274) scale(0.1 -0.1)">
       <use xlink:href="#ArialMT-36"/>
       <use xlink:href="#ArialMT-35" transform="translate(55.615234 0)"/>
      </g>
     </g>
    </g>
    <g id="text_17">
     <!-- throughput [rps] -->
     <g style="fill: #262626" transform="translate(14.357813 167.688125) rotate(-90) scale(0.1 -0.1)">
      <defs>
       <path id="ArialMT-68" d="M 422 0 
L 422 4581 
L 984 4581 
L 984 2938 
Q 1378 3394 1978 3394 
Q 2347 3394 2619 3248 
Q 2891 3103 3008 2847 
Q 3125 2591 3125 2103 
L 3125 0 
L 2563 0 
L 2563 2103 
Q 2563 2525 2380 2717 
Q 2197 2909 1863 2909 
Q 1613 2909 1392 2779 
Q 1172 2650 1078 2428 
Q 984 2206 984 1816 
L 984 0 
L 422 0 
z
" transform="scale(0.015625)"/>
       <path id="ArialMT-72" d="M 416 0 
L 416 3319 
L 922 3319 
L 922 2816 
Q 1116 3169 1280 3281 
Q 1444 3394 1641 3394 
Q 1925 3394 2219 3213 
L 2025 2691 
Q 1819 2813 1613 2813 
Q 1428 2813 1281 2702 
Q 1134 2591 1072 2394 
Q 978 2094 978 1738 
L 978 0 
L 416 0 
z
" transform="scale(0.015625)"/>
       <path id="ArialMT-6f" d="M 213 1659 
Q 213 2581 725 3025 
Q 1153 3394 1769 3394 
Q 2453 3394 2887 2945 
Q 3322 2497 3322 1706 
Q 3322 1066 3130 698 
Q 2938 331 2570 128 
Q 2203 -75 1769 -75 
Q 1072 -75 642 372 
Q 213 819 213 1659 
z
M 791 1659 
Q 791 1022 1069 705 
Q 1347 388 1769 388 
Q 2188 388 2466 706 
Q 2744 1025 2744 1678 
Q 2744 2294 2464 2611 
Q 2184 2928 1769 2928 
Q 1347 2928 1069 2612 
Q 791 2297 791 1659 
z
" transform="scale(0.015625)"/>
       <path id="ArialMT-75" d="M 2597 0 
L 2597 488 
Q 2209 -75 1544 -75 
Q 1250 -75 995 37 
Q 741 150 617 320 
Q 494 491 444 738 
Q 409 903 409 1263 
L 409 3319 
L 972 3319 
L 972 1478 
Q 972 1038 1006 884 
Q 1059 663 1231 536 
Q 1403 409 1656 409 
Q 1909 409 2131 539 
Q 2353 669 2445 892 
Q 2538 1116 2538 1541 
L 2538 3319 
L 3100 3319 
L 3100 0 
L 2597 0 
z
" transform="scale(0.015625)"/>
       <path id="ArialMT-67" d="M 319 -275 
L 866 -356 
Q 900 -609 1056 -725 
Q 1266 -881 1628 -881 
Q 2019 -881 2231 -725 
Q 2444 -569 2519 -288 
Q 2563 -116 2559 434 
Q 2191 0 1641 0 
Q 956 0 581 494 
Q 206 988 206 1678 
Q 206 2153 378 2554 
Q 550 2956 876 3175 
Q 1203 3394 1644 3394 
Q 2231 3394 2613 2919 
L 2613 3319 
L 3131 3319 
L 3131 450 
Q 3131 -325 2973 -648 
Q 2816 -972 2473 -1159 
Q 2131 -1347 1631 -1347 
Q 1038 -1347 672 -1080 
Q 306 -813 319 -275 
z
M 784 1719 
Q 784 1066 1043 766 
Q 1303 466 1694 466 
Q 2081 466 2343 764 
Q 2606 1063 2606 1700 
Q 2606 2309 2336 2618 
Q 2066 2928 1684 2928 
Q 1309 2928 1046 2623 
Q 784 2319 784 1719 
z
" transform="scale(0.015625)"/>
       <path id="ArialMT-70" d="M 422 -1272 
L 422 3319 
L 934 3319 
L 934 2888 
Q 1116 3141 1344 3267 
Q 1572 3394 1897 3394 
Q 2322 3394 2647 3175 
Q 2972 2956 3137 2557 
Q 3303 2159 3303 1684 
Q 3303 1175 3120 767 
Q 2938 359 2589 142 
Q 2241 -75 1856 -75 
Q 1575 -75 1351 44 
Q 1128 163 984 344 
L 984 -1272 
L 422 -1272 
z
M 931 1641 
Q 931 1000 1190 694 
Q 1450 388 1819 388 
Q 2194 388 2461 705 
Q 2728 1022 2728 1688 
Q 2728 2322 2467 2637 
Q 2206 2953 1844 2953 
Q 1484 2953 1207 2617 
Q 931 2281 931 1641 
z
" transform="scale(0.015625)"/>
      </defs>
      <use xlink:href="#ArialMT-74"/>
      <use xlink:href="#ArialMT-68" transform="translate(27.783203 0)"/>
      <use xlink:href="#ArialMT-72" transform="translate(83.398438 0)"/>
      <use xlink:href="#ArialMT-6f" transform="translate(116.699219 0)"/>
      <use xlink:href="#ArialMT-75" transform="translate(172.314453 0)"/>
      <use xlink:href="#ArialMT-67" transform="translate(227.929688 0)"/>
      <use xlink:href="#ArialMT-68" transform="translate(283.544922 0)"/>
      <use xlink:href="#ArialMT-70" transform="translate(339.160156 0)"/>
      <use xlink:href="#ArialMT-75" transform="translate(394.775391 0)"/>
      <use xlink:href="#ArialMT-74" transform="translate(450.390625 0)"/>
      <use xlink:href="#ArialMT-20" transform="translate(478.173828 0)"/>
      <use xlink:href="#ArialMT-5b" transform="translate(505.957031 0)"/>
      <use xlink:href="#ArialMT-72" transform="translate(533.740234 0)"/>
      <use xlink:href="#ArialMT-70" transform="translate(567.041016 0)"/>
      <use xlink:href="#ArialMT-73" transform="translate(622.65625 0)"/>
      <use xlink:href="#ArialMT-5d" transform="translate(672.65625 0)"/>
     </g>
    </g>
   </g>
   <g id="line2d_16">
    <path d="M 162.866193 72.116177 
L 164.571312 55.935035 
L 166.27643 58.733087 
L 167.981548 45.444468 
L 169.686667 45.605326 
L 171.391785 36.973508 
L 173.096904 48.229666 
L 174.802022 44.757875 
L 176.50714 56.522246 
L 178.212259 44.824403 
L 179.917377 77.131881 
L 181.622496 70.787467 
L 183.327614 53.506633 
L 185.032733 54.268072 
L 186.737851 60.480206 
L 188.442969 54.196786 
L 190.148088 38.416317 
L 191.853206 56.770338 
L 193.558325 42.988372 
L 195.263443 55.325549 
L 196.968561 51.605199 
L 198.67368 56.236062 
L 200.378798 41.682651 
L 202.083917 44.735088 
L 203.789035 40.838312 
L 205.494153 49.183169 
L 207.199272 31.869375 
L 208.90439 66.935626 
L 210.609509 53.254096 
L 212.314627 35.252258 
L 214.019746 53.221969 
L 215.724864 37.728535 
L 217.429982 58.002911 
L 219.135101 54.977633 
L 220.840219 65.62709 
L 222.545338 62.877471 
L 224.250456 42.211378 
L 225.955574 37.8287 
L 227.660693 33.929178 
L 229.365811 68.716068 
L 231.07093 56.40431 
L 232.776048 49.330477 
L 234.481166 43.510623 
L 236.186285 69.257536 
L 237.891403 55.956396 
L 239.596522 57.000453 
L 241.30164 37.932973 
L 243.006758 55.560116 
L 244.711877 55.377013 
L 246.416995 52.06682 
L 248.122114 70.327431 
L 249.827232 48.897267 
L 251.532351 58.732671 
L 253.237469 46.794197 
L 254.942587 62.794518 
L 256.647706 58.209784 
L 258.352824 63.307506 
L 260.057943 35.868135 
L 261.763061 60.789043 
L 263.468179 48.641156 
L 265.173298 62.206306 
L 266.878416 55.6812 
L 268.583535 58.975937 
L 270.288653 47.727577 
L 271.993771 62.23381 
L 273.69889 61.492745 
L 275.404008 50.151736 
L 277.109127 69.619062 
L 278.814245 54.467687 
L 280.519364 68.944298 
L 282.224482 51.188412 
L 283.9296 48.493006 
L 285.634719 46.407896 
L 287.339837 45.512081 
L 289.044956 51.669178 
L 290.750074 56.454122 
L 292.455192 57.382603 
L 294.160311 54.877343 
L 295.865429 33.432314 
L 297.570548 38.485935 
L 299.275666 40.813787 
L 300.980784 57.765626 
L 302.685903 54.768227 
L 304.391021 49.444994 
L 306.09614 48.627007 
L 307.801258 71.752603 
L 309.506377 38.300126 
L 311.211495 51.741869 
L 312.916613 39.521214 
L 314.621732 66.638821 
L 316.32685 53.947547 
L 318.031969 55.569401 
L 319.737087 50.196088 
L 321.442205 77.44892 
L 323.147324 48.48851 
L 324.852442 47.556702 
L 326.557561 59.724646 
L 328.262679 49.830629 
L 329.967797 52.885495 
L 331.672916 56.053476 
L 333.378034 42.588273 
L 335.083153 41.555468 
L 336.788271 49.625046 
L 338.49339 45.870387 
L 340.198508 69.3568 
L 341.903626 50.489046 
L 343.608745 54.108393 
L 345.313863 76.094481 
L 347.018982 40.598112 
L 348.7241 59.813079 
L 350.429218 59.266956 
L 352.134337 53.390448 
L 353.839455 58.794203 
L 355.544574 53.6656 
L 357.249692 48.389102 
L 358.95481 46.222486 
L 360.659929 55.074701 
L 362.365047 56.908564 
L 364.070166 42.326172 
L 365.775284 60.654486 
" clip-path="url(#pb1bbf073f4)" style="fill: none; stroke: #1f77b4; stroke-opacity: 0.9; stroke-width: 1.5; stroke-linecap: round"/>
   </g>
   <g id="line2d_17">
    <path d="M 61.411648 207.251755 
L 63.131216 214.017942 
L 64.850785 207.733797 
L 66.570353 210.744035 
L 68.289922 216.397159 
L 70.009491 213.18874 
L 71.729059 216.30778 
L 73.448628 210.889665 
L 75.168196 211.104113 
L 76.887765 215.967705 
L 78.607333 208.516848 
L 80.326902 202.260315 
L 82.046471 221.491032 
L 83.766039 225.00679 
L 85.485608 215.142281 
L 87.205176 220.070752 
L 88.924745 217.24309 
L 90.644313 206.835409 
L 92.363882 233.175181 
L 94.083451 214.537429 
L 95.803019 189.690183 
L 97.522588 215.503766 
L 99.242156 221.432904 
L 100.961725 205.33021 
L 102.681293 213.981129 
L 104.400862 211.201042 
L 106.12043 195.978608 
L 107.839999 218.84807 
L 109.559568 212.163093 
L 111.279136 233.469375 
L 112.998705 205.214197 
L 114.718273 223.05874 
L 116.437842 188.186134 
L 118.15741 231.779137 
L 119.876979 227.849102 
L 121.596548 197.471226 
L 123.316116 208.539081 
L 125.035685 198.446902 
L 126.755253 214.224338 
L 128.474822 192.105588 
L 130.19439 219.193468 
L 131.913959 196.746082 
L 133.633528 193.873935 
L 135.353096 207.99039 
L 137.072665 211.277217 
L 138.792233 200.949901 
L 140.511802 219.743607 
L 142.23137 211.286831 
L 143.950939 211.824994 
L 145.670508 203.585719 
L 147.390076 207.400418 
L 149.109645 202.17081 
L 150.829213 204.345181 
L 152.548782 199.597294 
L 154.26835 223.006418 
L 155.987919 196.656499 
L 157.707487 231.374634 
L 159.427056 220.500658 
L 161.146625 206.007883 
L 162.866193 225.825428 
" clip-path="url(#pb1bbf073f4)" style="fill: none; stroke: #ff7f0e; stroke-opacity: 0.9; stroke-width: 1.5; stroke-linecap: round"/>
   </g>
   <g id="line2d_18">
    <path d="M 365.775284 150.633827 
L 367.485192 144.364298 
L 369.1951 161.625531 
L 370.905008 156.907068 
L 372.614916 171.709305 
L 374.324824 163.095599 
L 376.034733 167.448075 
L 377.744641 168.550587 
L 379.454549 161.474799 
L 381.164457 150.739112 
L 382.874365 174.486001 
L 384.584273 155.906175 
L 386.294181 156.571131 
L 388.004089 160.395627 
L 389.713997 192.737766 
L 391.423905 158.369658 
L 393.133813 162.685225 
L 394.843721 141.944282 
L 396.553629 159.474304 
L 398.263537 158.537985 
L 399.973445 166.279676 
L 401.683354 154.182236 
L 403.393262 164.157329 
L 405.10317 155.841009 
L 406.813078 157.396248 
L 408.522986 160.220391 
L 410.232894 166.351297 
L 411.942802 166.905113 
L 413.65271 163.408597 
L 415.362618 153.30354 
L 417.072526 156.485981 
L 418.782434 165.934637 
L 420.492342 171.756223 
L 422.20225 161.867803 
L 423.912158 178.264195 
L 425.622067 156.03241 
L 427.331975 168.869508 
L 429.041883 154.540179 
L 430.751791 170.229159 
L 432.461699 149.818219 
L 434.171607 159.67837 
L 435.881515 162.705476 
L 437.591423 163.672695 
L 439.301331 168.172183 
L 441.011239 163.591327 
L 442.721147 158.254546 
L 444.431055 160.681481 
L 446.140963 182.490455 
L 447.850871 149.797416 
L 449.560779 173.474002 
L 451.270688 156.260696 
L 452.980596 151.056603 
L 454.690504 165.366667 
L 456.400412 167.810365 
L 458.11032 151.580472 
L 459.820228 175.549181 
L 461.530136 133.842488 
L 463.240044 172.142488 
L 464.949952 156.490446 
L 466.65986 174.576272 
L 468.369768 169.184347 
L 470.079676 137.793184 
L 471.789584 152.363271 
L 473.499492 141.575161 
L 475.209401 155.455566 
L 476.919309 176.627259 
L 478.629217 132.82505 
L 480.339125 154.107864 
L 482.049033 156.674465 
L 483.758941 158.229924 
L 485.468849 156.111864 
L 487.178757 164.946422 
L 488.888665 151.267184 
L 490.598573 156.058588 
L 492.308481 172.593809 
L 494.018389 143.495263 
L 495.728297 159.901776 
L 497.438205 155.022007 
L 499.148114 175.34631 
L 500.858022 162.75249 
L 502.56793 173.969709 
L 504.277838 175.078318 
L 505.987746 175.826268 
L 507.697654 155.264582 
L 509.407562 145.368707 
L 511.11747 145.30126 
L 512.827378 142.208132 
L 514.537286 157.413802 
L 516.247194 151.530504 
L 517.957102 147.568779 
" clip-path="url(#pb1bbf073f4)" style="fill: none; stroke: #2ca02c; stroke-opacity: 0.9; stroke-width: 1.5; stroke-linecap: round"/>
   </g>
   <g id="patch_3">
    <path d="M 38.584375 243.549375 
L 38.584375 21.789375 
" style="fill: none; stroke: #cccccc; stroke-width: 0.8; stroke-linejoin: miter; stroke-linecap: square"/>
   </g>
   <g id="patch_4">
    <path d="M 540.784375 243.549375 
L 540.784375 21.789375 
" style="fill: none; stroke: #cccccc; stroke-width: 0.8; stroke-linejoin: miter; stroke-linecap: square"/>
   </g>
   <g id="patch_5">
    <path d="M 38.584375 243.549375 
L 540.784375 243.549375 
" style="fill: none; stroke: #cccccc; stroke-width: 0.8; stroke-linejoin: miter; stroke-linecap: square"/>
   </g>
   <g id="patch_6">
    <path d="M 38.584375 21.789375 
L 540.784375 21.789375 
" style="fill: none; stroke: #cccccc; stroke-width: 0.8; stroke-linejoin: miter; stroke-linecap: square"/>
   </g>
   <g id="text_18">
    <!-- Throughput over time — login-browse-purchase -->
    <g style="fill: #262626" transform="translate(162.633438 15.789375) scale(0.12 -0.12)">
     <defs>
      <path id="ArialMT-54" d="M 1659 0 
L 1659 4041 
L 150 4041 
L 150 4581 
L 3781 4581 
L 3781 4041 
L 2266 4041 
L 2266 0 
L 1659 0 
z
" transform="scale(0.015625)"/>
      <path id="ArialMT-76" d="M 1344 0 
L 81 3319 
L 675 3319 
L 1388 1331 
Q 1503 1009 1600 663 
Q 1675 925 1809 1294 
L 2547 3319 
L 3125 3319 
L 1869 0 
L 1344 0 
z
" transform="scale(0.015625)"/>
      <path id="ArialMT-65" d="M 2694 1069 
L 3275 997 
Q 3138 488 2766 206 
Q 2394 -75 1816 -75 
Q 1088 -75 661 373 
Q 234 822 234 1631 
Q 234 2469 665 2931 
Q 1097 3394 1784 3394 
Q 2450 3394 2872 2941 
Q 3294 2488 3294 1666 
Q 3294 1616 3291 1516 
L 816 1516 
Q 847 969 1125 678 
Q 1403 388 1819 388 
Q 2128 388 2347 550 
Q 2566 713 2694 1069 
z
M 847 1978 
L 2700 1978 
Q 2663 2397 2488 2606 
Q 2219 2931 1791 2931 
Q 1403 2931 1139 2672 
Q 875 2413 847 1978 
z
" transform="scale(0.015625)"/>
      <path id="ArialMT-69" d="M 425 3934 
L 425 4581 
L 988 4581 
L 988 3934 
L 425 3934 
z
M 425 0 
L 425 3319 
L 988 3319 
L 988 0 
L 425 0 
z
" transform="scale(0.015625)"/>
      <path id="ArialMT-6d" d="M 422 0 
L 422 3319 
L 925 3319 
L 925 2853 
Q 1081 3097 1340 3245 
Q 1600 3394 1931 3394 
Q 2300 3394 2536 3241 
Q 2772 3088 2869 2813 
Q 3263 3394 3894 3394 
Q 4388 3394 4653 3120 
Q 4919 2847 4919 2278 
L 4919 0 
L 4359 0 
L 4359 2091 
Q 4359 2428 4304 2576 
Q 4250 2725 4106 2815 
Q 3963 2906 3769 2906 
Q 3419 2906 3187 2673 
Q 2956 2441 2956 1928 
L 2956 0 
L 2394 0 
L 2394 2156 
Q 2394 2531 2256 2718 
Q 2119 2906 1806 2906 
Q 1569 2906 1367 2781 
Q 1166 2656 1075 2415 
Q 984 2175 984 1722 
L 984 0 
L 422 0 
z
" transform="scale(0.015625)"/>
      <path id="ArialMT-2014" d="M 0 1431 
L 0 1884 
L 6400 1884 
L 6400 1431 
L 0 1431 
z
" transform="scale(0.015625)"/>
      <path id="ArialMT-6c" d="M 409 0 
L 409 4581 
L 972 4581 
L 972 0 
L 409 0 
z
" transform="scale(0.015625)"/>
      <path id="ArialMT-6e" d="M 422 0 
L 422 3319 
L 928 3319 
L 928 2847 
Q 1294 3394 1984 3394 
Q 2284 3394 2536 3286 
Q 2788 3178 2913 3003 
Q 3038 2828 3088 2588 
Q 3119 2431 3119 2041 
L 3119 0 
L 2556 0 
L 2556 2019 
Q 2556 2363 2490 2533 
Q 2425 2703 2258 2804 
Q 2091 2906 1866 2906 
Q 1506 2906 1245 2678 
Q 984 2450 984 1813 
L 984 0 
L 422 0 
z
" transform="scale(0.015625)"/>
      <path id="ArialMT-2d" d="M 203 1375 
L 203 1941 
L 1931 1941 
L 1931 1375 
L 203 1375 
z
" transform="scale(0.015625)"/>
      <path id="ArialMT-62" d="M 941 0 
L 419 0 
L 419 4581 
L 981 4581 
L 981 2947 
Q 1338 3394 1891 3394 
Q 2197 3394 2470 3270 
Q 2744 3147 2920 2923 
Q 3097 2700 3197 2384 
Q 3297 2069 3297 1709 
Q 3297 856 2875 390 
Q 2453 -75 1863 -75 
Q 1275 -75 941 416 
L 941 0 
z
M 934 1684 
Q 934 1088 1097 822 
Q 1363 388 1816 388 
Q 2184 388 2453 708 
Q 2722 1028 2722 1663 
Q 2722 2313 2464 2622 
Q 2206 2931 1841 2931 
Q 1472 2931 1203 2611 
Q 934 2291 934 1684 
z
" transform="scale(0.015625)"/>
      <path id="ArialMT-77" d="M 1034 0 
L 19 3319 
L 600 3319 
L 1128 1403 
L 1325 691 
Q 1338 744 1497 1375 
L 2025 3319 
L 2603 3319 
L 3100 1394 
L 3266 759 
L 3456 1400 
L 4025 3319 
L 4572 3319 
L 3534 0 
L 2950 0 
L 2422 1988 
L 2294 2553 
L 1622 0 
L 1034 0 
z
" transform="scale(0.015625)"/>
      <path id="ArialMT-63" d="M 2588 1216 
L 3141 1144 
Q 3050 572 2676 248 
Q 2303 -75 1759 -75 
Q 1078 -75 664 370 
Q 250 816 250 1647 
Q 250 2184 428 2587 
Q 606 2991 970 3192 
Q 1334 3394 1763 3394 
Q 2303 3394 2647 3120 
Q 2991 2847 3088 2344 
L 2541 2259 
Q 2463 2594 2264 2762 
Q 2066 2931 1784 2931 
Q 1359 2931 1093 2626 
Q 828 2322 828 1663 
Q 828 994 1084 691 
Q 1341 388 1753 388 
Q 2084 388 2306 591 
Q 2528 794 2588 1216 
z
" transform="scale(0.015625)"/>
      <path id="ArialMT-61" d="M 2588 409 
Q 2275 144 1986 34 
Q 1697 -75 1366 -75 
Q 819 -75 525 192 
Q 231 459 231 875 
Q 231 1119 342 1320 
Q 453 1522 633 1644 
Q 813 1766 1038 1828 
Q 1203 1872 1538 1913 
Q 2219 1994 2541 2106 
Q 2544 2222 2544 2253 
Q 2544 2597 2384 2738 
Q 2169 2928 1744 2928 
Q 1347 2928 1158 2789 
Q 969 2650 878 2297 
L 328 2372 
Q 403 2725 575 2942 
Q 747 3159 1072 3276 
Q 1397 3394 1825 3394 
Q 2250 3394 2515 3294 
Q 2781 3194 2906 3042 
Q 3031 2891 3081 2659 
Q 3109 2516 3109 2141 
L 3109 1391 
Q 3109 606 3145 398 
Q 3181 191 3288 0 
L 2700 0 
Q 2613 175 2588 409 
z
M 2541 1666 
Q 2234 1541 1622 1453 
Q 1275 1403 1131 1340 
Q 988 1278 909 1158 
Q 831 1038 831 891 
Q 831 666 1001 516 
Q 1172 366 1500 366 
Q 1825 366 2078 508 
Q 2331 650 2450 897 
Q 2541 1088 2541 1459 
L 2541 1666 
z
" transform="scale(0.015625)"/>
     </defs>
     <use xlink:href="#ArialMT-54"/>
     <use xlink:href="#ArialMT-68" transform="translate(61.083984 0)"/>
     <use xlink:href="#ArialMT-72" transform="translate(116.699219 0)"/>
     <use xlink:href="#ArialMT-6f" transform="translate(150 0)"/>
     <use xlink:href="#ArialMT-75" transform="translate(205.615234 0)"/>
     <use xlink:href="#ArialMT-67" transform="translate(261.230469 0)"/>
     <use xlink:href="#ArialMT-68" transform="translate(316.845703 0)"/>
     <use xlink:href="#ArialMT-70" transform="translate(372.460938 0)"/>
     <use xlink:href="#ArialMT-75" transform="translate(428.076172 0)"/>
     <use xlink:href="#ArialMT-74" transform="translate(483.691406 0)"/>
     <use xlink:href="#ArialMT-20" transform="translate(511.474609 0)"/>
     <use xlink:href="#ArialMT-6f" transform="translate(539.257812 0)"/>
     <use xlink:href="#ArialMT-76" transform="translate(594.873047 0)"/>
     <use xlink:href="#ArialMT-65" transform="translate(644.873047 0)"/>
     <use xlink:href="#ArialMT-72" transform="translate(700.488281 0)"/>
     <use xlink:href="#ArialMT-20" transform="translate(733.789062 0)"/>
     <use xlink:href="#ArialMT-74" transform="translate(761.572266 0)"/>
     <use xlink:href="#ArialMT-69" transform="translate(789.355469 0)"/>
     <use xlink:href="#ArialMT-6d" transform="translate(811.572266 0)"/>
     <use xlink:href="#ArialMT-65" transform="translate(894.873047 0)"/>
     <use xlink:href="#ArialMT-20" transform="translate(950.488281 0)"/>
     <use xlink:href="#ArialMT-2014" transform="translate(978.271484 0)"/>
     <use xlink:href="#ArialMT-20" transform="translate(1078.271484 0)"/>
     <use xlink:href="#ArialMT-6c" transform="translate(1106.054688 0)"/>
     <use xlink:href="#ArialMT-6f" transform="translate(1128.271484 0)"/>
     <use xlink:href="#ArialMT-67" transform="translate(1183.886719 0)"/>
     <use xlink:href="#ArialMT-69" transform="translate(1239.501953 0)"/>
     <use xlink:href="#ArialMT-6e" transform="translate(1261.71875 0)"/>
     <use xlink:href="#ArialMT-2d" transform="translate(1317.333984 0)"/>
     <use xlink:href="#ArialMT-62" transform="translate(1350.634766 0)"/>
     <use xlink:href="#ArialMT-72" transform="translate(1406.25 0)"/>
     <use xlink:href="#ArialMT-6f" transform="translate(1439.550781 0)"/>
     <use xlink:href="#ArialMT-77" transform="translate(1495.166016 0)"/>
     <use xlink:href="#ArialMT-73" transform="translate(1567.382812 0)"/>
     <use xlink:href="#ArialMT-65" transform="translate(1617.382812 0)"/>
     <use xlink:href="#ArialMT-2d" transform="translate(1672.998047 0)"/>
     <use xlink:href="#ArialMT-70" transform="translate(1706.298828 0)"/>
     <use xlink:href="#ArialMT-75" transform="translate(1761.914062 0)"/>
     <use xlink:href="#ArialMT-72" transform="translate(1817.529297 0)"/>
     <use xlink:href="#ArialMT-63" transform="translate(1850.830078 0)"/>
     <use xlink:href="#ArialMT-68" transform="translate(1900.830078 0)"/>
     <use xlink:href="#ArialMT-61" transform="translate(1956.445312 0)"/>
     <use xlink:href="#ArialMT-73" transform="translate(2012.060547 0)"/>
     <use xlink:href="#ArialMT-65" transform="translate(2062.060547 0)"/>
    </g>
   </g>
   <g id="legend_1">
    <g id="patch_7">
     <path d="M 460.65 72.3425 
L 533.784375 72.3425 
Q 535.784375 72.3425 535.784375 70.3425 
L 535.784375 28.789375 
Q 535.784375 26.789375 533.784375 26.789375 
L 460.65 26.789375 
Q 458.65 26.789375 458.65 28.789375 
L 458.65 70.3425 
Q 458.65 72.3425 460.65 72.3425 
z
" style="fill: #ffffff; opacity: 0.8; stroke: #cccccc; stroke-linejoin: miter"/>
    </g>
    <g id="line2d_19">
     <path d="M 462.65 34.447187 
L 472.65 34.447187 
L 482.65 34.447187 
" style="fill: none; stroke: #1f77b4; stroke-opacity: 0.9; stroke-width: 1.5; stroke-linecap: round"/>
    </g>
    <g id="text_19">
     <!-- browse -->
     <g style="fill: #262626" transform="translate(490.65 37.947187) scale(0.1 -0.1)">
      <use xlink:href="#ArialMT-62"/>
      <use xlink:href="#ArialMT-72" transform="translate(55.615234 0)"/>
      <use xlink:href="#ArialMT-6f" transform="translate(88.916016 0)"/>
      <use xlink:href="#ArialMT-77" transform="translate(144.53125 0)"/>
      <use xlink:href="#ArialMT-73" transform="translate(216.748047 0)"/>
      <use xlink:href="#ArialMT-65" transform="translate(266.748047 0)"/>
     </g>
    </g>
    <g id="line2d_20">
     <path d="M 462.65 48.5925 
L 472.65 48.5925 
L 482.65 48.5925 
" style="fill: none; stroke: #ff7f0e; stroke-opacity: 0.9; stroke-width: 1.5; stroke-linecap: round"/>
    </g>
    <g id="text_20">
     <!-- login -->
     <g style="fill: #262626" transform="translate(490.65 52.0925) scale(0.1 -0.1)">
      <use xlink:href="#ArialMT-6c"/>
      <use xlink:href="#ArialMT-6f" transform="translate(22.216797 0)"/>
      <use xlink:href="#ArialMT-67" transform="translate(77.832031 0)"/>
      <use xlink:href="#ArialMT-69" transform="translate(133.447266 0)"/>
      <use xlink:href="#ArialMT-6e" transform="translate(155.664062 0)"/>
     </g>
    </g>
    <g id="line2d_21">
     <path d="M 462.65 62.855 
L 472.65 62.855 
L 482.65 62.855 
" style="fill: none; stroke: #2ca02c; stroke-opacity: 0.9; stroke-width: 1.5; stroke-linecap: round"/>
    </g>
    <g id="text_21">
     <!-- purchase -->
     <g style="fill: #262626" transform="translate(490.65 66.355) scale(0.1 -0.1)">
      <use xlink:href="#ArialMT-70"/>
      <use xlink:href="#ArialMT-75" transform="translate(55.615234 0)"/>
      <use xlink:href="#ArialMT-72" transform="translate(111.230469 0)"/>
      <use xlink:href="#ArialMT-63" transform="translate(144.53125 0)"/>
      <use xlink:href="#ArialMT-68" transform="translate(194.53125 0)"/>
      <use xlink:href="#ArialMT-61" transform="translate(250.146484 0)"/>
      <use xlink:href="#ArialMT-73" transform="translate(305.761719 0)"/>
      <use xlink:href="#ArialMT-65" transform="translate(355.761719 0)"/>
     </g>
    </g>
   </g>
  </g>
 </g>
 <defs>
  <clipPath id="pb1bbf073f4">
   <rect x="38.584375" y="21.789375" width="502.2" height="221.76"/>
  </clipPath>
 </defs>
</svg>
