<?xml version="1.0" encoding="utf-8" standalone="no"?>
<!DOCTYPE svg PUBLIC "-//W3C//DTD SVG 1.1//EN"
  "http://www.w3.org/Graphics/SVG/1.1/DTD/svg11.dtd">
<svg xmlns:xlink="http://www.w3.org/1999/xlink" width="547.984375pt" height="280.18625pt" viewBox="0 0 547.984375 280.18625" xmlns="http://www.w3.org/2000/svg" version="1.1">
 <metadata>
  <rdf:RDF xmlns:dc="http://purl.org/dc/elements/1.1/" xmlns:cc="http://creativecommons.org/ns#" xmlns:rdf="http://www.w3.org/1999/02/22-rdf-syntax-ns#">
   <cc:Work>
    <dc:type rdf:resource="http://purl.org/dc/dcmitype/StillImage"/>
    <dc:date>2025-11-12T15:39:14.231932</dc:date>
    <dc:format>image/svg+xml</dc:format>
    <dc:creator>
     <cc:Agent>
      <dc:title>Matplotlib v3.10.7, https://matplotlib.org/</dc:title>
     </cc:Agent>
    </dc:creator>
   </cc:Work>
  </rdf:RDF>
 </metadata>
 <defs>
  <style type="text/css">*{stroke-linejoin: round; stroke-linecap: butt}</style>
 </defs>
 <g id="figure_1">
  <g id="patch_1">
   <path d="M 0 280.18625 
L 547.984375 280.18625 
L 547.984375 0 
L 0 0 
z
" style="fill: #ffffff"/>
  </g>
  <g id="axes_1">
   <g id="patch_2">
    <path d="M 38.584375 243.695625 
L 540.784375 243.695625 
L 540.784375 21.935625 
L 38.584375 21.935625 
z
" style="fill: #ffffff"/>
   </g>
   <g id="matplotlib.axis_1">
    <g id="xtick_1">
     <g id="line2d_1">
      <path d="M 61.411648 243.695625 
L 61.411648 21.935625 
" clip-path="url(#p48279dddc5)" style="fill: none; stroke: #cccccc; stroke-width: 0.8; stroke-linecap: round"/>
     </g>
     <g id="text_1">
      <!-- 0 -->
      <g style="fill: #262626" transform="translate(58.631179 257.853437) scale(0.1 -0.1)">
       <defs>
        <path id="ArialMT-30" d="M 266 2259 
Q 266 3072 433 3567 
Q 600 4063 929 4331 
Q 1259 4600 1759 4600 
Q 2128 4600 2406 4451 
Q 2684 4303 2865 4023 
Q 3047 3744 3150 3342 
Q 3253 2941 3253 2259 
Q 3253 1453 3087 958 
Q 2922 463 2592 192 
Q 2263 -78 1759 -78 
Q 1097 -78 719 397 
Q 266 969 266 2259 
z
M 844 2259 
Q 844 1131 1108 757 
Q 1372 384 1759 384 
Q 2147 384 2411 759 
Q 2675 1134 2675 2259 
Q 2675 3391 2411 3762 
Q 2147 4134 1753 4134 
Q 1366 4134 1134 3806 
Q 844 3388 844 2259 
z
" transform="scale(0.015625)"/>
       </defs>
       <use xlink:href="#ArialMT-30"/>
      </g>
     </g>
    </g>
    <g id="xtick_2">
     <g id="line2d_2">
      <path d="M 132.746875 243.695625 
L 132.746875 21.935625 
" clip-path="url(#p48279dddc5)" style="fill: none; stroke: #cccccc; stroke-width: 0.8; stroke-linecap: round"/>
     </g>
     <g id="text_2">
      <!-- 50 -->
      <g style="fill: #262626" transform="translate(127.185938 257.853437) scale(0.1 -0.1)">
       <defs>
        <path id="ArialMT-35" d="M 266 1200 
L 856 1250 
Q 922 819 1161 601 
Q 1400 384 1738 384 
Q 2144 384 2425 690 
Q 2706 997 2706 1503 
Q 2706 1984 2436 2262 
Q 2166 2541 1728 2541 
Q 1456 2541 1237 2417 
Q 1019 2294 894 2097 
L 366 2166 
L 809 4519 
L 3088 4519 
L 3088 3981 
L 1259 3981 
L 1013 2750 
Q 1425 3038 1878 3038 
Q 2478 3038 2890 2622 
Q 3303 2206 3303 1553 
Q 3303 931 2941 478 
Q 2500 -78 1738 -78 
Q 1113 -78 717 272 
Q 322 622 266 1200 
z
" transform="scale(0.015625)"/>
       </defs>
       <use xlink:href="#ArialMT-35"/>
       <use xlink:href="#ArialMT-30" transform="translate(55.615234 0)"/>
      </g>
     </g>
    </g>
    <g id="xtick_3">
     <g id="line2d_3">
      <path d="M 204.082102 243.695625 
L 204.082102 21.935625 
" clip-path="url(#p48279dddc5)" style="fill: none; stroke: #cccccc; stroke-width: 0.8; stroke-linecap: round"/>
     </g>
     <g id="text_3">
      <!-- 100 -->
      <g style="fill: #262626" transform="translate(195.740696 257.853437) scale(0.1 -0.1)">
       <defs>
        <path id="ArialMT-31" d="M 2384 0 
L 1822 0 
L 1822 3584 
Q 1619 3391 1289 3197 
Q 959 3003 697 2906 
L 697 3450 
Q 1169 3672 1522 3987 
Q 1875 4303 2022 4600 
L 2384 4600 
L 2384 0 
z
" transform="scale(0.015625)"/>
       </defs>
       <use xlink:href="#ArialMT-31"/>
       <use xlink:href="#ArialMT-30" transform="translate(55.615234 0)"/>
       <use xlink:href="#ArialMT-30" transform="translate(111.230469 0)"/>
      </g>
     </g>
    </g>
    <g id="xtick_4">
     <g id="line2d_4">
      <path d="M 275.41733 243.695625 
L 275.41733 21.935625 
" clip-path="url(#p48279dddc5)" style="fill: none; stroke: #cccccc; stroke-width: 0.8; stroke-linecap: round"/>
     </g>
     <g id="text_4">
      <!-- 150 -->
      <g style="fill: #262626" transform="translate(267.075923 257.853437) scale(0.1 -0.1)">
       <use xlink:href="#ArialMT-31"/>
       <use xlink:href="#ArialMT-35" transform="translate(55.615234 0)"/>
       <use xlink:href="#ArialMT-30" transform="translate(111.230469 0)"/>
      </g>
     </g>
    </g>
    <g id="xtick_5">
     <g id="line2d_5">
      <path d="M 346.752557 243.695625 
L 346.752557 21.935625 
" clip-path="url(#p48279dddc5)" style="fill: none; stroke: #cccccc; stroke-width: 0.8; stroke-linecap: round"/>
     </g>
     <g id="text_5">
      <!-- 200 -->
      <g style="fill: #262626" transform="translate(338.411151 257.853437) scale(0.1 -0.1)">
       <defs>
        <path id="ArialMT-32" d="M 3222 541 
L 3222 0 
L 194 0 
Q 188 203 259 391 
Q 375 700 629 1000 
Q 884 1300 1366 1694 
Q 2113 2306 2375 2664 
Q 2638 3022 2638 3341 
Q 2638 3675 2398 3904 
Q 2159 4134 1775 4134 
Q 1369 4134 1125 3890 
Q 881 3647 878 3216 
L 300 3275 
Q 359 3922 746 4261 
Q 1134 4600 1788 4600 
Q 2447 4600 2831 4234 
Q 3216 3869 3216 3328 
Q 3216 3053 3103 2787 
Q 2991 2522 2730 2228 
Q 2469 1934 1863 1422 
Q 1356 997 1212 845 
Q 1069 694 975 541 
L 3222 541 
z
" transform="scale(0.015625)"/>
       </defs>
       <use xlink:href="#ArialMT-32"/>
       <use xlink:href="#ArialMT-30" transform="translate(55.615234 0)"/>
       <use xlink:href="#ArialMT-30" transform="translate(111.230469 0)"/>
      </g>
     </g>
    </g>
    <g id="xtick_6">
     <g id="line2d_6">
      <path d="M 418.087784 243.695625 
L 418.087784 21.935625 
" clip-path="url(#p48279dddc5)" style="fill: none; stroke: #cccccc; stroke-width: 0.8; stroke-linecap: round"/>
     </g>
     <g id="text_6">
      <!-- 250 -->
      <g style="fill: #262626" transform="translate(409.746378 257.853437) scale(0.1 -0.1)">
       <use xlink:href="#ArialMT-32"/>
       <use xlink:href="#ArialMT-35" transform="translate(55.615234 0)"/>
       <use xlink:href="#ArialMT-30" transform="translate(111.230469 0)"/>
      </g>
     </g>
    </g>
    <g id="xtick_7">
     <g id="line2d_7">
      <path d="M 489.423011 243.695625 
L 489.423011 21.935625 
" clip-path="url(#p48279dddc5)" style="fill: none; stroke: #cccccc; stroke-width: 0.8; stroke-linecap: round"/>
     </g>
     <g id="text_7">
      <!-- 300 -->
      <g style="fill: #262626" transform="translate(481.081605 257.853437) scale(0.1 -0.1)">
       <defs>
        <path id="ArialMT-33" d="M 269 1209 
L 831 1284 
Q 928 806 1161 595 
Q 1394 384 1728 384 
Q 2125 384 2398 659 
Q 2672 934 2672 1341 
Q 2672 1728 2419 1979 
Q 2166 2231 1775 2231 
Q 1616 2231 1378 2169 
L 1441 2663 
Q 1497 2656 1531 2656 
Q 1891 2656 2178 2843 
Q 2466 3031 2466 3422 
Q 2466 3731 2256 3934 
Q 2047 4138 1716 4138 
Q 1388 4138 1169 3931 
Q 950 3725 888 3313 
L 325 3413 
Q 428 3978 793 4289 
Q 1159 4600 1703 4600 
Q 2078 4600 2393 4439 
Q 2709 4278 2876 4000 
Q 3044 3722 3044 3409 
Q 3044 3113 2884 2869 
Q 2725 2625 2413 2481 
Q 2819 2388 3044 2092 
Q 3269 1797 3269 1353 
Q 3269 753 2831 336 
Q 2394 -81 1725 -81 
Q 1122 -81 723 278 
Q 325 638 269 1209 
z
" transform="scale(0.015625)"/>
       </defs>
       <use xlink:href="#ArialMT-33"/>
       <use xlink:href="#ArialMT-30" transform="translate(55.615234 0)"/>
       <use xlink:href="#ArialMT-30" transform="translate(111.230469 0)"/>
      </g>
     </g>
    </g>
    <g id="text_8">
     <!-- t [s] -->
     <g style="fill: #262626" transform="translate(281.628125 270.99875) scale(0.1 -0.1)">
      <defs>
       <path id="ArialMT-74" d="M 1650 503 
L 1731 6 
Q 1494 -44 1306 -44 
Q 1000 -44 831 53 
Q 663 150 594 308 
Q 525 466 525 972 
L 525 2881 
L 113 2881 
L 113 3319 
L 525 3319 
L 525 4141 
L 1084 4478 
L 1084 3319 
L 1650 3319 
L 1650 2881 
L 1084 2881 
L 1084 941 
Q 1084 700 1114 631 
Q 1144 563 1211 522 
Q 1278 481 1403 481 
Q 1497 481 1650 503 
z
" transform="scale(0.015625)"/>
       <path id="ArialMT-20" transform="scale(0.015625)"/>
       <path id="ArialMT-5b" d="M 434 -1272 
L 434 4581 
L 1675 4581 
L 1675 4116 
L 997 4116 
L 997 -806 
L 1675 -806 
L 1675 -1272 
L 434 -1272 
z
" transform="scale(0.015625)"/>
       <path id="ArialMT-73" d="M 197 991 
L 753 1078 
Q 800 744 1014 566 
Q 1228 388 1613 388 
Q 2000 388 2187 545 
Q 2375 703 2375 916 
Q 2375 1106 2209 1216 
Q 2094 1291 1634 1406 
Q 1016 1563 777 1677 
Q 538 1791 414 1992 
Q 291 2194 291 2438 
Q 291 2659 392 2848 
Q 494 3038 669 3163 
Q 800 3259 1026 3326 
Q 1253 3394 1513 3394 
Q 1903 3394 2198 3281 
Q 2494 3169 2634 2976 
Q 2775 2784 2828 2463 
L 2278 2388 
Q 2241 2644 2061 2787 
Q 1881 2931 1553 2931 
Q 1166 2931 1000 2803 
Q 834 2675 834 2503 
Q 834 2394 903 2306 
Q 972 2216 1119 2156 
Q 1203 2125 1616 2013 
Q 2213 1853 2448 1751 
Q 2684 1650 2818 1456 
Q 2953 1263 2953 975 
Q 2953 694 2789 445 
Q 2625 197 2315 61 
Q 2006 -75 1616 -75 
Q 969 -75 630 194 
Q 291 463 197 991 
z
" transform="scale(0.015625)"/>
       <path id="ArialMT-5d" d="M 1363 -1272 
L 122 -1272 
L 122 -806 
L 800 -806 
L 800 4116 
L 122 4116 
L 122 4581 
L 1363 4581 
L 1363 -1272 
z
" transform="scale(0.015625)"/>
      </defs>
      <use xlink:href="#ArialMT-74"/>
      <use xlink:href="#ArialMT-20" transform="translate(27.783203 0)"/>
      <use xlink:href="#ArialMT-5b" transform="translate(55.566406 0)"/>
      <use xlink:href="#ArialMT-73" transform="translate(83.349609 0)"/>
      <use xlink:href="#ArialMT-5d" transform="translate(133.349609 0)"/>
     </g>
    </g>
   </g>
   <g id="matplotlib.axis_2">
    <g id="ytick_1">
     <g id="line2d_8">
      <path d="M 38.584375 236.996319 
L 540.784375 236.996319 
" clip-path="url(#p48279dddc5)" style="fill: none; stroke: #cccccc; stroke-width: 0.8; stroke-linecap: round"/>
     </g>
     <g id="text_9">
      <!-- 40 -->
      <g style="fill: #262626" transform="translate(20.4625 240.575225) scale(0.1 -0.1)">
       <defs>
        <path id="ArialMT-34" d="M 2069 0 
L 2069 1097 
L 81 1097 
L 81 1613 
L 2172 4581 
L 2631 4581 
L 2631 1613 
L 3250 1613 
L 3250 1097 
L 2631 1097 
L 2631 0 
L 2069 0 
z
M 2069 1613 
L 2069 3678 
L 634 1613 
L 2069 1613 
z
" transform="scale(0.015625)"/>
       </defs>
       <use xlink:href="#ArialMT-34"/>
       <use xlink:href="#ArialMT-30" transform="translate(55.615234 0)"/>
      </g>
     </g>
    </g>
    <g id="ytick_2">
     <g id="line2d_9">
      <path d="M 38.584375 202.911133 
L 540.784375 202.911133 
" clip-path="url(#p48279dddc5)" style="fill: none; stroke: #cccccc; stroke-width: 0.8; stroke-linecap: round"/>
     </g>
     <g id="text_10">
      <!-- 45 -->
      <g style="fill: #262626" transform="translate(20.4625 206.490039) scale(0.1 -0.1)">
       <use xlink:href="#ArialMT-34"/>
       <use xlink:href="#ArialMT-35" transform="translate(55.615234 0)"/>
      </g>
     </g>
    </g>
    <g id="ytick_3">
     <g id="line2d_10">
      <path d="M 38.584375 168.825947 
L 540.784375 168.825947 
" clip-path="url(#p48279dddc5)" style="fill: none; stroke: #cccccc; stroke-width: 0.8; stroke-linecap: round"/>
     </g>
     <g id="text_11">
      <!-- 50 -->
      <g style="fill: #262626" transform="translate(20.4625 172.404853) scale(0.1 -0.1)">
       <use xlink:href="#ArialMT-35"/>
       <use xlink:href="#ArialMT-30" transform="translate(55.615234 0)"/>
      </g>
     </g>
    </g>
    <g id="ytick_4">
     <g id="line2d_11">
      <path d="M 38.584375 134.74076 
L 540.784375 134.74076 
" clip-path="url(#p48279dddc5)" style="fill: none; stroke: #cccccc; stroke-width: 0.8; stroke-linecap: round"/>
     </g>
     <g id="text_12">
      <!-- 55 -->
      <g style="fill: #262626" transform="translate(20.4625 138.319667) scale(0.1 -0.1)">
       <use xlink:href="#ArialMT-35"/>
       <use xlink:href="#ArialMT-35" transform="translate(55.615234 0)"/>
      </g>
     </g>
    </g>
    <g id="ytick_5">
     <g id="line2d_12">
      <path d="M 38.584375 100.655574 
L 540.784375 100.655574 
" clip-path="url(#p48279dddc5)" style="fill: none; stroke: #cccccc; stroke-width: 0.8; stroke-linecap: round"/>
     </g>
     <g id="text_13">
      <!-- 60 -->
      <g style="fill: #262626" transform="translate(20.4625 104.23448) scale(0.1 -0.1)">
       <defs>
        <path id="ArialMT-36" d="M 3184 3459 
L 2625 3416 
Q 2550 3747 2413 3897 
Q 2184 4138 1850 4138 
Q 1581 4138 1378 3988 
Q 1113 3794 959 3422 
Q 806 3050 800 2363 
Q 1003 2672 1297 2822 
Q 1591 2972 1913 2972 
Q 2475 2972 2870 2558 
Q 3266 2144 3266 1488 
Q 3266 1056 3080 686 
Q 2894 316 2569 119 
Q 2244 -78 1831 -78 
Q 1128 -78 684 439 
Q 241 956 241 2144 
Q 241 3472 731 4075 
Q 1159 4600 1884 4600 
Q 2425 4600 2770 4297 
Q 3116 3994 3184 3459 
z
M 888 1484 
Q 888 1194 1011 928 
Q 1134 663 1356 523 
Q 1578 384 1822 384 
Q 2178 384 2434 671 
Q 2691 959 2691 1453 
Q 2691 1928 2437 2201 
Q 2184 2475 1800 2475 
Q 1419 2475 1153 2201 
Q 888 1928 888 1484 
z
" transform="scale(0.015625)"/>
       </defs>
       <use xlink:href="#ArialMT-36"/>
       <use xlink:href="#ArialMT-30" transform="translate(55.615234 0)"/>
      </g>
     </g>
    </g>
    <g id="ytick_6">
     <g id="line2d_13">
      <path d="M 38.584375 66.570388 
L 540.784375 66.570388 
" clip-path="url(#p48279dddc5)" style="fill: none; stroke: #cccccc; stroke-width: 0.8; stroke-linecap: round"/>
     </g>
     <g id="text_14">
      <!-- 65 -->
      <g style="fill: #262626" transform="translate(20.4625 70.149294) scale(0.1 -0.1)">
       <use xlink:href="#ArialMT-36"/>
       <use xlink:href="#ArialMT-35" transform="translate(55.615234 0)"/>
      </g>
     </g>
    </g>
    <g id="ytick_7">
     <g id="line2d_14">
      <path d="M 38.584375 32.485202 
L 540.784375 32.485202 
" clip-path="url(#p48279dddc5)" style="fill: none; stroke: #cccccc; stroke-width: 0.8; stroke-linecap: round"/>
     </g>
     <g id="text_15">
      <!-- 70 -->
      <g style="fill: #262626" transform="translate(20.4625 36.064108) scale(0.1 -0.1)">
       <defs>
        <path id="ArialMT-37" d="M 303 3981 
L 303 4522 
L 3269 4522 
L 3269 4084 
Q 2831 3619 2401 2847 
Q 1972 2075 1738 1259 
Q 1569 684 1522 0 
L 944 0 
Q 953 541 1156 1306 
Q 1359 2072 1739 2783 
Q 2119 3494 2547 3981 
L 303 3981 
z
" transform="scale(0.015625)"/>
       </defs>
       <use xlink:href="#ArialMT-37"/>
       <use xlink:href="#ArialMT-30" transform="translate(55.615234 0)"/>
      </g>
     </g>
    </g>
    <g id="text_16">
     <!-- throughput [rps] -->
     <g style="fill: #262626" transform="translate(14.357813 167.834375) rotate(-90) scale(0.1 -0.1)">
      <defs>
       <path id="ArialMT-68" d="M 422 0 
L 422 4581 
L 984 4581 
L 984 2938 
Q 1378 3394 1978 3394 
Q 2347 3394 2619 3248 
Q 2891 3103 3008 2847 
Q 3125 2591 3125 2103 
L 3125 0 
L 2563 0 
L 2563 2103 
Q 2563 2525 2380 2717 
Q 2197 2909 1863 2909 
Q 1613 2909 1392 2779 
Q 1172 2650 1078 2428 
Q 984 2206 984 1816 
L 984 0 
L 422 0 
z
" transform="scale(0.015625)"/>
       <path id="ArialMT-72" d="M 416 0 
L 416 3319 
L 922 3319 
L 922 2816 
Q 1116 3169 1280 3281 
Q 1444 3394 1641 3394 
Q 1925 3394 2219 3213 
L 2025 2691 
Q 1819 2813 1613 2813 
Q 1428 2813 1281 2702 
Q 1134 2591 1072 2394 
Q 978 2094 978 1738 
L 978 0 
L 416 0 
z
" transform="scale(0.015625)"/>
       <path id="ArialMT-6f" d="M 213 1659 
Q 213 2581 725 3025 
Q 1153 3394 1769 3394 
Q 2453 3394 2887 2945 
Q 3322 2497 3322 1706 
Q 3322 1066 3130 698 
Q 2938 331 2570 128 
Q 2203 -75 1769 -75 
Q 1072 -75 642 372 
Q 213 819 213 1659 
z
M 791 1659 
Q 791 1022 1069 705 
Q 1347 388 1769 388 
Q 2188 388 2466 706 
Q 2744 1025 2744 1678 
Q 2744 2294 2464 2611 
Q 2184 2928 1769 2928 
Q 1347 2928 1069 2612 
Q 791 2297 791 1659 
z
" transform="scale(0.015625)"/>
       <path id="ArialMT-75" d="M 2597 0 
L 2597 488 
Q 2209 -75 1544 -75 
Q 1250 -75 995 37 
Q 741 150 617 320 
Q 494 491 444 738 
Q 409 903 409 1263 
L 409 3319 
L 972 3319 
L 972 1478 
Q 972 1038 1006 884 
Q 1059 663 1231 536 
Q 1403 409 1656 409 
Q 1909 409 2131 539 
Q 2353 669 2445 892 
Q 2538 1116 2538 1541 
L 2538 3319 
L 3100 3319 
L 3100 0 
L 2597 0 
z
" transform="scale(0.015625)"/>
       <path id="ArialMT-67" d="M 319 -275 
L 866 -356 
Q 900 -609 1056 -725 
Q 1266 -881 1628 -881 
Q 2019 -881 2231 -725 
Q 2444 -569 2519 -288 
Q 2563 -116 2559 434 
Q 2191 0 1641 0 
Q 956 0 581 494 
Q 206 988 206 1678 
Q 206 2153 378 2554 
Q 550 2956 876 3175 
Q 1203 3394 1644 3394 
Q 2231 3394 2613 2919 
L 2613 3319 
L 3131 3319 
L 3131 450 
Q 3131 -325 2973 -648 
Q 2816 -972 2473 -1159 
Q 2131 -1347 1631 -1347 
Q 1038 -1347 672 -1080 
Q 306 -813 319 -275 
z
M 784 1719 
Q 784 1066 1043 766 
Q 1303 466 1694 466 
Q 2081 466 2343 764 
Q 2606 1063 2606 1700 
Q 2606 2309 2336 2618 
Q 2066 2928 1684 2928 
Q 1309 2928 1046 2623 
Q 784 2319 784 1719 
z
" transform="scale(0.015625)"/>
       <path id="ArialMT-70" d="M 422 -1272 
L 422 3319 
L 934 3319 
L 934 2888 
Q 1116 3141 1344 3267 
Q 1572 3394 1897 3394 
Q 2322 3394 2647 3175 
Q 2972 2956 3137 2557 
Q 3303 2159 3303 1684 
Q 3303 1175 3120 767 
Q 2938 359 2589 142 
Q 2241 -75 1856 -75 
Q 1575 -75 1351 44 
Q 1128 163 984 344 
L 984 -1272 
L 422 -1272 
z
M 931 1641 
Q 931 1000 1190 694 
Q 1450 388 1819 388 
Q 2194 388 2461 705 
Q 2728 1022 2728 1688 
Q 2728 2322 2467 2637 
Q 2206 2953 1844 2953 
Q 1484 2953 1207 2617 
Q 931 2281 931 1641 
z
" transform="scale(0.015625)"/>
      </defs>
      <use xlink:href="#ArialMT-74"/>
      <use xlink:href="#ArialMT-68" transform="translate(27.783203 0)"/>
      <use xlink:href="#ArialMT-72" transform="translate(83.398438 0)"/>
      <use xlink:href="#ArialMT-6f" transform="translate(116.699219 0)"/>
      <use xlink:href="#ArialMT-75" transform="translate(172.314453 0)"/>
      <use xlink:href="#ArialMT-67" transform="translate(227.929688 0)"/>
      <use xlink:href="#ArialMT-68" transform="translate(283.544922 0)"/>
      <use xlink:href="#ArialMT-70" transform="translate(339.160156 0)"/>
      <use xlink:href="#ArialMT-75" transform="translate(394.775391 0)"/>
      <use xlink:href="#ArialMT-74" transform="translate(450.390625 0)"/>
      <use xlink:href="#ArialMT-20" transform="translate(478.173828 0)"/>
      <use xlink:href="#ArialMT-5b" transform="translate(505.957031 0)"/>
      <use xlink:href="#ArialMT-72" transform="translate(533.740234 0)"/>
      <use xlink:href="#ArialMT-70" transform="translate(567.041016 0)"/>
      <use xlink:href="#ArialMT-73" transform="translate(622.65625 0)"/>
      <use xlink:href="#ArialMT-5d" transform="translate(672.65625 0)"/>
     </g>
    </g>
   </g>
   <g id="line2d_15">
    <path d="M 204.082102 188.968231 
L 205.526866 193.976305 
L 206.97163 203.124004 
L 208.416395 209.207641 
L 209.861159 191.3621 
L 211.305923 211.997613 
L 212.750687 204.383836 
L 214.195451 210.271005 
L 215.640215 210.070893 
L 217.084979 202.387768 
L 218.529743 177.108268 
L 219.974507 208.032254 
L 221.419271 202.433013 
L 222.864036 224.985903 
L 224.3088 194.513486 
L 225.753564 219.223109 
L 227.198328 214.815805 
L 228.643092 218.670645 
L 230.087856 214.935833 
L 231.53262 187.023912 
L 232.977384 201.459021 
L 234.422148 207.864731 
L 235.866912 183.822255 
L 237.311676 214.088427 
L 238.756441 198.806872 
L 240.201205 213.172167 
L 241.645969 192.104212 
L 243.090733 201.607576 
L 244.535497 204.679137 
L 245.980261 222.621324 
L 247.425025 205.019832 
L 248.869789 180.31465 
L 250.314553 215.193001 
L 251.759317 211.683507 
L 253.204082 195.043585 
L 254.648846 185.1947 
L 256.09361 203.695822 
L 257.538374 208.42063 
L 258.983138 185.47662 
L 260.427902 180.87234 
L 261.872666 183.253207 
L 263.31743 202.228394 
L 264.762194 207.605695 
L 266.206958 185.856121 
L 267.651723 187.882627 
L 269.096487 197.124204 
L 270.541251 194.49152 
L 271.986015 189.900876 
L 273.430779 185.414995 
L 274.875543 199.884717 
L 276.320307 220.868384 
L 277.765071 214.015873 
L 279.209835 181.331327 
L 280.654599 187.193539 
L 282.099363 187.287113 
L 283.544128 217.643453 
L 284.988892 233.615625 
L 286.433656 176.49083 
L 287.87842 191.973418 
L 289.323184 192.467068 
L 290.767948 203.933624 
L 292.212712 228.303509 
L 293.657476 197.002146 
L 295.10224 215.356522 
L 296.547004 199.846448 
L 297.991769 198.628652 
L 299.436533 207.449094 
L 300.881297 192.473834 
L 302.326061 196.138293 
L 303.770825 229.834306 
L 305.215589 222.735824 
L 306.660353 208.525812 
L 308.105117 214.181715 
L 309.549881 214.52358 
L 310.994645 200.009587 
L 312.43941 209.545191 
L 313.884174 210.277008 
L 315.328938 214.669461 
L 316.773702 226.719377 
L 318.218466 174.408684 
" clip-path="url(#p48279dddc5)" style="fill: none; stroke: #1f77b4; stroke-opacity: 0.9; stroke-width: 1.5; stroke-linecap: round"/>
   </g>
   <g id="line2d_16">
    <path d="M 318.218466 56.833688 
L 319.655435 35.250242 
L 321.092403 68.585837 
L 322.529372 58.856483 
L 323.96634 62.172226 
L 325.403309 51.375693 
L 326.840278 56.711265 
L 328.277246 44.077663 
L 329.714215 67.173315 
L 331.151183 54.357829 
L 332.588152 65.999816 
L 334.025121 70.388439 
L 335.462089 59.904686 
L 336.899058 59.135516 
L 338.336026 44.288393 
L 339.772995 76.639482 
L 341.209964 68.430904 
L 342.646932 79.930626 
L 344.083901 60.287742 
L 345.520869 52.35074 
L 346.957838 58.270152 
L 348.394807 71.933857 
L 349.831775 40.823744 
L 351.268744 56.90899 
L 352.705712 70.593287 
L 354.142681 57.677144 
L 355.57965 56.504531 
L 357.016618 63.150576 
L 358.453587 53.832015 
L 359.890556 45.505476 
L 361.327524 72.575266 
L 362.764493 74.886697 
L 364.201461 78.144283 
L 365.63843 56.52086 
L 367.075399 72.970215 
L 368.512367 86.661248 
L 369.949336 87.047107 
L 371.386304 61.119253 
L 372.823273 83.720323 
L 375.69721 43.114832 
L 377.134179 71.427354 
L 378.571147 58.935926 
L 380.008116 56.828522 
L 381.445085 84.138782 
L 382.882053 70.031936 
L 384.319022 54.494179 
L 385.75599 46.79248 
L 387.192959 81.595521 
L 388.629928 67.745961 
L 390.066896 49.225584 
L 391.503865 74.707605 
L 392.940833 41.043804 
L 394.377802 82.263555 
L 395.814771 61.012193 
L 397.251739 56.163296 
L 398.688708 58.55213 
L 400.125677 69.573208 
L 401.562645 84.089505 
L 402.999614 56.506337 
L 404.436582 64.111087 
L 405.873551 68.595256 
L 407.31052 77.956222 
L 408.747488 59.652125 
L 410.184457 48.451969 
L 411.621425 43.948124 
L 413.058394 62.036836 
L 414.495363 78.213079 
L 415.932331 64.035134 
L 417.3693 62.673842 
L 418.806268 70.034599 
L 420.243237 80.583467 
L 421.680206 48.232424 
L 423.117174 71.077608 
L 424.554143 59.002731 
L 425.991111 93.276747 
L 427.42808 69.145944 
L 428.865049 65.209406 
L 430.302017 80.471191 
L 431.738986 59.031373 
L 433.175954 49.973635 
L 434.612923 71.330453 
L 436.049892 63.509967 
L 437.48686 86.25006 
L 438.923829 62.015728 
L 440.360797 65.554546 
L 441.797766 84.383678 
L 443.234735 85.986601 
L 444.671703 56.446415 
L 446.108672 69.007928 
L 447.545641 59.893171 
L 448.982609 52.476295 
L 450.419578 67.529644 
L 451.856546 99.684451 
L 453.293515 81.196117 
L 454.730484 90.576279 
L 456.167452 75.344926 
L 457.604421 65.037302 
L 459.041389 76.43862 
L 460.478358 81.368416 
L 461.915327 100.540185 
L 463.352295 64.163955 
L 464.789264 82.618368 
L 466.226232 67.312282 
L 467.663201 78.975594 
L 469.10017 44.982581 
L 470.537138 77.179874 
L 471.974107 84.382778 
L 473.411075 57.83721 
L 474.848044 67.18809 
L 476.285013 96.642975 
L 477.721981 63.353679 
L 479.15895 68.342098 
L 480.595918 41.992683 
L 482.032887 85.573451 
L 483.469856 81.622633 
L 484.906824 53.847038 
L 487.780762 73.651332 
L 489.21773 68.742503 
L 490.654699 75.002598 
L 492.091667 45.486838 
L 493.528636 46.663408 
L 494.965605 77.464511 
L 496.402573 81.476331 
L 497.839542 80.055066 
L 499.27651 76.994068 
L 500.713479 72.249966 
L 502.150448 32.015625 
L 503.587416 56.288318 
L 505.024385 42.788701 
L 506.461353 57.439283 
L 509.335291 90.263943 
L 510.772259 68.91615 
L 512.209228 77.527717 
L 513.646196 83.125702 
L 515.083165 78.302447 
L 516.520134 75.98785 
L 517.957102 47.392609 
L 517.957102 47.392609 
" clip-path="url(#p48279dddc5)" style="fill: none; stroke: #ff7f0e; stroke-opacity: 0.9; stroke-width: 1.5; stroke-linecap: round"/>
   </g>
   <g id="line2d_17">
    <path d="M 61.411648 113.77509 
L 62.852763 128.818187 
L 64.293879 135.476856 
L 65.734995 133.665354 
L 67.176111 141.104784 
L 68.617226 135.041922 
L 70.058342 112.42053 
L 71.499458 153.345756 
L 72.940573 149.084735 
L 74.381689 153.069133 
L 75.822805 124.644757 
L 77.26392 164.785879 
L 78.705036 152.112155 
L 80.146152 110.368648 
L 81.587268 120.379266 
L 83.028383 122.159004 
L 84.469499 104.523127 
L 85.910615 106.799225 
L 87.35173 141.523769 
L 88.792846 130.738991 
L 90.233962 156.428284 
L 91.675077 175.137858 
L 93.116193 155.727873 
L 94.557309 146.959209 
L 95.998425 149.715604 
L 97.43954 131.155809 
L 98.880656 126.243 
L 100.321772 134.873471 
L 101.762887 141.675765 
L 103.204003 128.164009 
L 104.645119 144.141622 
L 106.086235 149.010841 
L 107.52735 118.807968 
L 108.968466 134.072808 
L 110.409582 132.361726 
L 111.850697 137.132594 
L 113.291813 140.847486 
L 114.732929 131.330907 
L 116.174044 152.049345 
L 117.61516 147.041932 
L 119.056276 169.285689 
L 120.497392 142.719096 
L 121.938507 130.327465 
L 123.379623 129.227117 
L 124.820739 144.626961 
L 126.261854 164.141961 
L 127.70297 144.614967 
L 129.144086 136.834867 
L 130.585201 116.078134 
L 132.026317 120.791525 
L 133.467433 125.444304 
L 134.908549 120.78343 
L 136.349664 112.215301 
L 137.79078 161.789731 
L 139.231896 130.127187 
L 140.673011 118.846537 
L 142.114127 147.528614 
L 143.555243 150.823872 
L 144.996358 139.59474 
L 146.437474 163.01262 
L 147.87859 129.926865 
L 149.319706 134.840723 
L 150.760821 131.127064 
L 152.201937 145.459634 
L 153.643053 152.809621 
L 155.084168 152.90012 
L 156.525284 129.183708 
L 157.9664 129.65576 
L 159.407515 122.043114 
L 160.848631 126.776337 
L 162.289747 131.707038 
L 163.730863 147.044883 
L 165.171978 126.160044 
L 166.613094 122.924957 
L 168.05421 150.130069 
L 169.495325 160.446202 
L 170.936441 135.810005 
L 172.377557 136.588217 
L 173.818673 166.790883 
L 175.259788 146.288739 
L 176.700904 118.296726 
L 178.14202 142.723818 
L 179.583135 129.52658 
L 181.024251 133.174509 
L 182.465367 90.717496 
L 183.906482 156.362802 
L 185.347598 133.191641 
L 186.788714 158.309615 
L 188.22983 152.328876 
L 189.670945 145.43079 
L 191.112061 140.096773 
L 192.553177 137.096659 
L 193.994292 144.252972 
L 195.435408 137.886941 
L 196.876524 121.771452 
L 198.317639 135.133869 
L 199.758755 134.900732 
L 201.199871 143.664749 
L 202.640987 117.781519 
L 204.082102 134.430652 
" clip-path="url(#p48279dddc5)" style="fill: none; stroke: #2ca02c; stroke-opacity: 0.9; stroke-width: 1.5; stroke-linecap: round"/>
   </g>
   <g id="patch_3">
    <path d="M 38.584375 243.695625 
L 38.584375 21.935625 
" style="fill: none; stroke: #cccccc; stroke-width: 0.8; stroke-linejoin: miter; stroke-linecap: square"/>
   </g>
   <g id="patch_4">
    <path d="M 540.784375 243.695625 
L 540.784375 21.935625 
" style="fill: none; stroke: #cccccc; stroke-width: 0.8; stroke-linejoin: miter; stroke-linecap: square"/>
   </g>
   <g id="patch_5">
    <path d="M 38.584375 243.695625 
L 540.784375 243.695625 
" style="fill: none; stroke: #cccccc; stroke-width: 0.8; stroke-linejoin: miter; stroke-linecap: square"/>
   </g>
   <g id="patch_6">
    <path d="M 38.584375 21.935625 
L 540.784375 21.935625 
" style="fill: none; stroke: #cccccc; stroke-width: 0.8; stroke-linejoin: miter; stroke-linecap: square"/>
   </g>
   <g id="text_17">
    <!-- Throughput over time — search-filter-paginate -->
    <g style="fill: #262626" transform="translate(166.969375 15.935625) scale(0.12 -0.12)">
     <defs>
      <path id="ArialMT-54" d="M 1659 0 
L 1659 4041 
L 150 4041 
L 150 4581 
L 3781 4581 
L 3781 4041 
L 2266 4041 
L 2266 0 
L 1659 0 
z
" transform="scale(0.015625)"/>
      <path id="ArialMT-76" d="M 1344 0 
L 81 3319 
L 675 3319 
L 1388 1331 
Q 1503 1009 1600 663 
Q 1675 925 1809 1294 
L 2547 3319 
L 3125 3319 
L 1869 0 
L 1344 0 
z
" transform="scale(0.015625)"/>
      <path id="ArialMT-65" d="M 2694 1069 
L 3275 997 
Q 3138 488 2766 206 
Q 2394 -75 1816 -75 
Q 1088 -75 661 373 
Q 234 822 234 1631 
Q 234 2469 665 2931 
Q 1097 3394 1784 3394 
Q 2450 3394 2872 2941 
Q 3294 2488 3294 1666 
Q 3294 1616 3291 1516 
L 816 1516 
Q 847 969 1125 678 
Q 1403 388 1819 388 
Q 2128 388 2347 550 
Q 2566 713 2694 1069 
z
M 847 1978 
L 2700 1978 
Q 2663 2397 2488 2606 
Q 2219 2931 1791 2931 
Q 1403 2931 1139 2672 
Q 875 2413 847 1978 
z
" transform="scale(0.015625)"/>
      <path id="ArialMT-69" d="M 425 3934 
L 425 4581 
L 988 4581 
L 988 3934 
L 425 3934 
z
M 425 0 
L 425 3319 
L 988 3319 
L 988 0 
L 425 0 
z
" transform="scale(0.015625)"/>
      <path id="ArialMT-6d" d="M 422 0 
L 422 3319 
L 925 3319 
L 925 2853 
Q 1081 3097 1340 3245 
Q 1600 3394 1931 3394 
Q 2300 3394 2536 3241 
Q 2772 3088 2869 2813 
Q 3263 3394 3894 3394 
Q 4388 3394 4653 3120 
Q 4919 2847 4919 2278 
L 4919 0 
L 4359 0 
L 4359 2091 
Q 4359 2428 4304 2576 
Q 4250 2725 4106 2815 
Q 3963 2906 3769 2906 
Q 3419 2906 3187 2673 
Q 2956 2441 2956 1928 
L 2956 0 
L 2394 0 
L 2394 2156 
Q 2394 2531 2256 2718 
Q 2119 2906 1806 2906 
Q 1569 2906 1367 2781 
Q 1166 2656 1075 2415 
Q 984 2175 984 1722 
L 984 0 
L 422 0 
z
" transform="scale(0.015625)"/>
      <path id="ArialMT-2014" d="M 0 1431 
L 0 1884 
L 6400 1884 
L 6400 1431 
L 0 1431 
z
" transform="scale(0.015625)"/>
      <path id="ArialMT-61" d="M 2588 409 
Q 2275 144 1986 34 
Q 1697 -75 1366 -75 
Q 819 -75 525 192 
Q 231 459 231 875 
Q 231 1119 342 1320 
Q 453 1522 633 1644 
Q 813 1766 1038 1828 
Q 1203 1872 1538 1913 
Q 2219 1994 2541 2106 
Q 2544 2222 2544 2253 
Q 2544 2597 2384 2738 
Q 2169 2928 1744 2928 
Q 1347 2928 1158 2789 
Q 969 2650 878 2297 
L 328 2372 
Q 403 2725 575 2942 
Q 747 3159 1072 3276 
Q 1397 3394 1825 3394 
Q 2250 3394 2515 3294 
Q 2781 3194 2906 3042 
Q 3031 2891 3081 2659 
Q 3109 2516 3109 2141 
L 3109 1391 
Q 3109 606 3145 398 
Q 3181 191 3288 0 
L 2700 0 
Q 2613 175 2588 409 
z
M 2541 1666 
Q 2234 1541 1622 1453 
Q 1275 1403 1131 1340 
Q 988 1278 909 1158 
Q 831 1038 831 891 
Q 831 666 1001 516 
Q 1172 366 1500 366 
Q 1825 366 2078 508 
Q 2331 650 2450 897 
Q 2541 1088 2541 1459 
L 2541 1666 
z
" transform="scale(0.015625)"/>
      <path id="ArialMT-63" d="M 2588 1216 
L 3141 1144 
Q 3050 572 2676 248 
Q 2303 -75 1759 -75 
Q 1078 -75 664 370 
Q 250 816 250 1647 
Q 250 2184 428 2587 
Q 606 2991 970 3192 
Q 1334 3394 1763 3394 
Q 2303 3394 2647 3120 
Q 2991 2847 3088 2344 
L 2541 2259 
Q 2463 2594 2264 2762 
Q 2066 2931 1784 2931 
Q 1359 2931 1093 2626 
Q 828 2322 828 1663 
Q 828 994 1084 691 
Q 1341 388 1753 388 
Q 2084 388 2306 591 
Q 2528 794 2588 1216 
z
" transform="scale(0.015625)"/>
      <path id="ArialMT-2d" d="M 203 1375 
L 203 1941 
L 1931 1941 
L 1931 1375 
L 203 1375 
z
" transform="scale(0.015625)"/>
      <path id="ArialMT-66" d="M 556 0 
L 556 2881 
L 59 2881 
L 59 3319 
L 556 3319 
L 556 3672 
Q 556 4006 616 4169 
Q 697 4388 901 4523 
Q 1106 4659 1475 4659 
Q 1713 4659 2000 4603 
L 1916 4113 
Q 1741 4144 1584 4144 
Q 1328 4144 1222 4034 
Q 1116 3925 1116 3625 
L 1116 3319 
L 1763 3319 
L 1763 2881 
L 1116 2881 
L 1116 0 
L 556 0 
z
" transform="scale(0.015625)"/>
      <path id="ArialMT-6c" d="M 409 0 
L 409 4581 
L 972 4581 
L 972 0 
L 409 0 
z
" transform="scale(0.015625)"/>
      <path id="ArialMT-6e" d="M 422 0 
L 422 3319 
L 928 3319 
L 928 2847 
Q 1294 3394 1984 3394 
Q 2284 3394 2536 3286 
Q 2788 3178 2913 3003 
Q 3038 2828 3088 2588 
Q 3119 2431 3119 2041 
L 3119 0 
L 2556 0 
L 2556 2019 
Q 2556 2363 2490 2533 
Q 2425 2703 2258 2804 
Q 2091 2906 1866 2906 
Q 1506 2906 1245 2678 
Q 984 2450 984 1813 
L 984 0 
L 422 0 
z
" transform="scale(0.015625)"/>
     </defs>
     <use xlink:href="#ArialMT-54"/>
     <use xlink:href="#ArialMT-68" transform="translate(61.083984 0)"/>
     <use xlink:href="#ArialMT-72" transform="translate(116.699219 0)"/>
     <use xlink:href="#ArialMT-6f" transform="translate(150 0)"/>
     <use xlink:href="#ArialMT-75" transform="translate(205.615234 0)"/>
     <use xlink:href="#ArialMT-67" transform="translate(261.230469 0)"/>
     <use xlink:href="#ArialMT-68" transform="translate(316.845703 0)"/>
     <use xlink:href="#ArialMT-70" transform="translate(372.460938 0)"/>
     <use xlink:href="#ArialMT-75" transform="translate(428.076172 0)"/>
     <use xlink:href="#ArialMT-74" transform="translate(483.691406 0)"/>
     <use xlink:href="#ArialMT-20" transform="translate(511.474609 0)"/>
     <use xlink:href="#ArialMT-6f" transform="translate(539.257812 0)"/>
     <use xlink:href="#ArialMT-76" transform="translate(594.873047 0)"/>
     <use xlink:href="#ArialMT-65" transform="translate(644.873047 0)"/>
     <use xlink:href="#ArialMT-72" transform="translate(700.488281 0)"/>
     <use xlink:href="#ArialMT-20" transform="translate(733.789062 0)"/>
     <use xlink:href="#ArialMT-74" transform="translate(761.572266 0)"/>
     <use xlink:href="#ArialMT-69" transform="translate(789.355469 0)"/>
     <use xlink:href="#ArialMT-6d" transform="translate(811.572266 0)"/>
     <use xlink:href="#ArialMT-65" transform="translate(894.873047 0)"/>
     <use xlink:href="#ArialMT-20" transform="translate(950.488281 0)"/>
     <use xlink:href="#ArialMT-2014" transform="translate(978.271484 0)"/>
     <use xlink:href="#ArialMT-20" transform="translate(1078.271484 0)"/>
     <use xlink:href="#ArialMT-73" transform="translate(1106.054688 0)"/>
     <use xlink:href="#ArialMT-65" transform="translate(1156.054688 0)"/>
     <use xlink:href="#ArialMT-61" transform="translate(1211.669922 0)"/>
     <use xlink:href="#ArialMT-72" transform="translate(1267.285156 0)"/>
     <use xlink:href="#ArialMT-63" transform="translate(1300.585938 0)"/>
     <use xlink:href="#ArialMT-68" transform="translate(1350.585938 0)"/>
     <use xlink:href="#ArialMT-2d" transform="translate(1406.201172 0)"/>
     <use xlink:href="#ArialMT-66" transform="translate(1439.501953 0)"/>
     <use xlink:href="#ArialMT-69" transform="translate(1467.285156 0)"/>
     <use xlink:href="#ArialMT-6c" transform="translate(1489.501953 0)"/>
     <use xlink:href="#ArialMT-74" transform="translate(1511.71875 0)"/>
     <use xlink:href="#ArialMT-65" transform="translate(1539.501953 0)"/>
     <use xlink:href="#ArialMT-72" transform="translate(1595.117188 0)"/>
     <use xlink:href="#ArialMT-2d" transform="translate(1628.417969 0)"/>
     <use xlink:href="#ArialMT-70" transform="translate(1661.71875 0)"/>
     <use xlink:href="#ArialMT-61" transform="translate(1717.333984 0)"/>
     <use xlink:href="#ArialMT-67" transform="translate(1772.949219 0)"/>
     <use xlink:href="#ArialMT-69" transform="translate(1828.564453 0)"/>
     <use xlink:href="#ArialMT-6e" transform="translate(1850.78125 0)"/>
     <use xlink:href="#ArialMT-61" transform="translate(1906.396484 0)"/>
     <use xlink:href="#ArialMT-74" transform="translate(1962.011719 0)"/>
     <use xlink:href="#ArialMT-65" transform="translate(1989.794922 0)"/>
    </g>
   </g>
   <g id="legend_1">
    <g id="patch_7">
     <path d="M 45.584375 72.48875 
L 115.95 72.48875 
Q 117.95 72.48875 117.95 70.48875 
L 117.95 28.935625 
Q 117.95 26.935625 115.95 26.935625 
L 45.584375 26.935625 
Q 43.584375 26.935625 43.584375 28.935625 
L 43.584375 70.48875 
Q 43.584375 72.48875 45.584375 72.48875 
z
" style="fill: #ffffff; opacity: 0.8; stroke: #cccccc; stroke-linejoin: miter"/>
    </g>
    <g id="line2d_18">
     <path d="M 47.584375 34.593437 
L 57.584375 34.593437 
L 67.584375 34.593437 
" style="fill: none; stroke: #1f77b4; stroke-opacity: 0.9; stroke-width: 1.5; stroke-linecap: round"/>
    </g>
    <g id="text_18">
     <!-- filter -->
     <g style="fill: #262626" transform="translate(75.584375 38.093437) scale(0.1 -0.1)">
      <use xlink:href="#ArialMT-66"/>
      <use xlink:href="#ArialMT-69" transform="translate(27.783203 0)"/>
      <use xlink:href="#ArialMT-6c" transform="translate(50 0)"/>
      <use xlink:href="#ArialMT-74" transform="translate(72.216797 0)"/>
      <use xlink:href="#ArialMT-65" transform="translate(100 0)"/>
      <use xlink:href="#ArialMT-72" transform="translate(155.615234 0)"/>
     </g>
    </g>
    <g id="line2d_19">
     <path d="M 47.584375 48.73875 
L 57.584375 48.73875 
L 67.584375 48.73875 
" style="fill: none; stroke: #ff7f0e; stroke-opacity: 0.9; stroke-width: 1.5; stroke-linecap: round"/>
    </g>
    <g id="text_19">
     <!-- paginate -->
     <g style="fill: #262626" transform="translate(75.584375 52.23875) scale(0.1 -0.1)">
      <use xlink:href="#ArialMT-70"/>
      <use xlink:href="#ArialMT-61" transform="translate(55.615234 0)"/>
      <use xlink:href="#ArialMT-67" transform="translate(111.230469 0)"/>
      <use xlink:href="#ArialMT-69" transform="translate(166.845703 0)"/>
      <use xlink:href="#ArialMT-6e" transform="translate(189.0625 0)"/>
      <use xlink:href="#ArialMT-61" transform="translate(244.677734 0)"/>
      <use xlink:href="#ArialMT-74" transform="translate(300.292969 0)"/>
      <use xlink:href="#ArialMT-65" transform="translate(328.076172 0)"/>
     </g>
    </g>
    <g id="line2d_20">
     <path d="M 47.584375 63.00125 
L 57.584375 63.00125 
L 67.584375 63.00125 
" style="fill: none; stroke: #2ca02c; stroke-opacity: 0.9; stroke-width: 1.5; stroke-linecap: round"/>
    </g>
    <g id="text_20">
     <!-- search -->
     <g style="fill: #262626" transform="translate(75.584375 66.50125) scale(0.1 -0.1)">
      <use xlink:href="#ArialMT-73"/>
      <use xlink:href="#ArialMT-65" transform="translate(50 0)"/>
      <use xlink:href="#ArialMT-61" transform="translate(105.615234 0)"/>
      <use xlink:href="#ArialMT-72" transform="translate(161.230469 0)"/>
      <use xlink:href="#ArialMT-63" transform="translate(194.53125 0)"/>
      <use xlink:href="#ArialMT-68" transform="translate(244.53125 0)"/>
     </g>
    </g>
   </g>
  </g>
 </g>
 <defs>
  <clipPath id="p48279dddc5">
   <rect x="38.584375" y="21.935625" width="502.2" height="221.76"/>
  </clipPath>
 </defs>
</svg>
