<?xml version="1.0" encoding="utf-8" standalone="no"?>
<!DOCTYPE svg PUBLIC "-//W3C//DTD SVG 1.1//EN"
  "http://www.w3.org/Graphics/SVG/1.1/DTD/svg11.dtd">
<svg xmlns:xlink="http://www.w3.org/1999/xlink" width="850.333438pt" height="213.426563pt" viewBox="0 0 850.333438 213.426563" xmlns="http://www.w3.org/2000/svg" version="1.1">
 <metadata>
  <rdf:RDF xmlns:dc="http://purl.org/dc/elements/1.1/" xmlns:cc="http://creativecommons.org/ns#" xmlns:rdf="http://www.w3.org/1999/02/22-rdf-syntax-ns#">
   <cc:Work>
    <dc:type rdf:resource="http://purl.org/dc/dcmitype/StillImage"/>
    <dc:date>2025-11-12T15:39:14.665488</dc:date>
    <dc:format>image/svg+xml</dc:format>
    <dc:creator>
     <cc:Agent>
      <dc:title>Matplotlib v3.10.7, https://matplotlib.org/</dc:title>
     </cc:Agent>
    </dc:creator>
   </cc:Work>
  </rdf:RDF>
 </metadata>
 <defs>
  <style type="text/css">*{stroke-linejoin: round; stroke-linecap: butt}</style>
 </defs>
 <g id="figure_1">
  <g id="patch_1">
   <path d="M 0 213.426563 
L 850.333438 213.426563 
L 850.333438 0 
L 0 0 
z
" style="fill: #ffffff"/>
  </g>
  <g id="axes_1">
   <g id="patch_2">
    <path d="M 46.923438 176.81875 
L 278.053437 176.81875 
L 278.053437 50.0325 
L 46.923438 50.0325 
z
" style="fill: #ffffff"/>
   </g>
   <g id="matplotlib.axis_1">
    <g id="xtick_1">
     <g id="line2d_1">
      <path d="M 90.430275 176.81875 
L 90.430275 50.0325 
" clip-path="url(#p381304d536)" style="fill: none; stroke: #cccccc; stroke-width: 0.8; stroke-linecap: round"/>
     </g>
     <g id="text_1">
      <!-- 120 -->
      <g style="fill: #262626" transform="translate(82.088869 190.976562) scale(0.1 -0.1)">
       <defs>
        <path id="ArialMT-31" d="M 2384 0 
L 1822 0 
L 1822 3584 
Q 1619 3391 1289 3197 
Q 959 3003 697 2906 
L 697 3450 
Q 1169 3672 1522 3987 
Q 1875 4303 2022 4600 
L 2384 4600 
L 2384 0 
z
" transform="scale(0.015625)"/>
        <path id="ArialMT-32" d="M 3222 541 
L 3222 0 
L 194 0 
Q 188 203 259 391 
Q 375 700 629 1000 
Q 884 1300 1366 1694 
Q 2113 2306 2375 2664 
Q 2638 3022 2638 3341 
Q 2638 3675 2398 3904 
Q 2159 4134 1775 4134 
Q 1369 4134 1125 3890 
Q 881 3647 878 3216 
L 300 3275 
Q 359 3922 746 4261 
Q 1134 4600 1788 4600 
Q 2447 4600 2831 4234 
Q 3216 3869 3216 3328 
Q 3216 3053 3103 2787 
Q 2991 2522 2730 2228 
Q 2469 1934 1863 1422 
Q 1356 997 1212 845 
Q 1069 694 975 541 
L 3222 541 
z
" transform="scale(0.015625)"/>
        <path id="ArialMT-30" d="M 266 2259 
Q 266 3072 433 3567 
Q 600 4063 929 4331 
Q 1259 4600 1759 4600 
Q 2128 4600 2406 4451 
Q 2684 4303 2865 4023 
Q 3047 3744 3150 3342 
Q 3253 2941 3253 2259 
Q 3253 1453 3087 958 
Q 2922 463 2592 192 
Q 2263 -78 1759 -78 
Q 1097 -78 719 397 
Q 266 969 266 2259 
z
M 844 2259 
Q 844 1131 1108 757 
Q 1372 384 1759 384 
Q 2147 384 2411 759 
Q 2675 1134 2675 2259 
Q 2675 3391 2411 3762 
Q 2147 4134 1753 4134 
Q 1366 4134 1134 3806 
Q 844 3388 844 2259 
z
" transform="scale(0.015625)"/>
       </defs>
       <use xlink:href="#ArialMT-31"/>
       <use xlink:href="#ArialMT-32" transform="translate(55.615234 0)"/>
       <use xlink:href="#ArialMT-30" transform="translate(111.230469 0)"/>
      </g>
     </g>
    </g>
    <g id="xtick_2">
     <g id="line2d_2">
      <path d="M 146.199429 176.81875 
L 146.199429 50.0325 
" clip-path="url(#p381304d536)" style="fill: none; stroke: #cccccc; stroke-width: 0.8; stroke-linecap: round"/>
     </g>
     <g id="text_2">
      <!-- 140 -->
      <g style="fill: #262626" transform="translate(137.858023 190.976562) scale(0.1 -0.1)">
       <defs>
        <path id="ArialMT-34" d="M 2069 0 
L 2069 1097 
L 81 1097 
L 81 1613 
L 2172 4581 
L 2631 4581 
L 2631 1613 
L 3250 1613 
L 3250 1097 
L 2631 1097 
L 2631 0 
L 2069 0 
z
M 2069 1613 
L 2069 3678 
L 634 1613 
L 2069 1613 
z
" transform="scale(0.015625)"/>
       </defs>
       <use xlink:href="#ArialMT-31"/>
       <use xlink:href="#ArialMT-34" transform="translate(55.615234 0)"/>
       <use xlink:href="#ArialMT-30" transform="translate(111.230469 0)"/>
      </g>
     </g>
    </g>
    <g id="xtick_3">
     <g id="line2d_3">
      <path d="M 201.968584 176.81875 
L 201.968584 50.0325 
" clip-path="url(#p381304d536)" style="fill: none; stroke: #cccccc; stroke-width: 0.8; stroke-linecap: round"/>
     </g>
     <g id="text_3">
      <!-- 160 -->
      <g style="fill: #262626" transform="translate(193.627178 190.976562) scale(0.1 -0.1)">
       <defs>
        <path id="ArialMT-36" d="M 3184 3459 
L 2625 3416 
Q 2550 3747 2413 3897 
Q 2184 4138 1850 4138 
Q 1581 4138 1378 3988 
Q 1113 3794 959 3422 
Q 806 3050 800 2363 
Q 1003 2672 1297 2822 
Q 1591 2972 1913 2972 
Q 2475 2972 2870 2558 
Q 3266 2144 3266 1488 
Q 3266 1056 3080 686 
Q 2894 316 2569 119 
Q 2244 -78 1831 -78 
Q 1128 -78 684 439 
Q 241 956 241 2144 
Q 241 3472 731 4075 
Q 1159 4600 1884 4600 
Q 2425 4600 2770 4297 
Q 3116 3994 3184 3459 
z
M 888 1484 
Q 888 1194 1011 928 
Q 1134 663 1356 523 
Q 1578 384 1822 384 
Q 2178 384 2434 671 
Q 2691 959 2691 1453 
Q 2691 1928 2437 2201 
Q 2184 2475 1800 2475 
Q 1419 2475 1153 2201 
Q 888 1928 888 1484 
z
" transform="scale(0.015625)"/>
       </defs>
       <use xlink:href="#ArialMT-31"/>
       <use xlink:href="#ArialMT-36" transform="translate(55.615234 0)"/>
       <use xlink:href="#ArialMT-30" transform="translate(111.230469 0)"/>
      </g>
     </g>
    </g>
    <g id="xtick_4">
     <g id="line2d_4">
      <path d="M 257.737738 176.81875 
L 257.737738 50.0325 
" clip-path="url(#p381304d536)" style="fill: none; stroke: #cccccc; stroke-width: 0.8; stroke-linecap: round"/>
     </g>
     <g id="text_4">
      <!-- 180 -->
      <g style="fill: #262626" transform="translate(249.396332 190.976562) scale(0.1 -0.1)">
       <defs>
        <path id="ArialMT-38" d="M 1131 2484 
Q 781 2613 612 2850 
Q 444 3088 444 3419 
Q 444 3919 803 4259 
Q 1163 4600 1759 4600 
Q 2359 4600 2725 4251 
Q 3091 3903 3091 3403 
Q 3091 3084 2923 2848 
Q 2756 2613 2416 2484 
Q 2838 2347 3058 2040 
Q 3278 1734 3278 1309 
Q 3278 722 2862 322 
Q 2447 -78 1769 -78 
Q 1091 -78 675 323 
Q 259 725 259 1325 
Q 259 1772 486 2073 
Q 713 2375 1131 2484 
z
M 1019 3438 
Q 1019 3113 1228 2906 
Q 1438 2700 1772 2700 
Q 2097 2700 2305 2904 
Q 2513 3109 2513 3406 
Q 2513 3716 2298 3927 
Q 2084 4138 1766 4138 
Q 1444 4138 1231 3931 
Q 1019 3725 1019 3438 
z
M 838 1322 
Q 838 1081 952 856 
Q 1066 631 1291 507 
Q 1516 384 1775 384 
Q 2178 384 2440 643 
Q 2703 903 2703 1303 
Q 2703 1709 2433 1975 
Q 2163 2241 1756 2241 
Q 1359 2241 1098 1978 
Q 838 1716 838 1322 
z
" transform="scale(0.015625)"/>
       </defs>
       <use xlink:href="#ArialMT-31"/>
       <use xlink:href="#ArialMT-38" transform="translate(55.615234 0)"/>
       <use xlink:href="#ArialMT-30" transform="translate(111.230469 0)"/>
      </g>
     </g>
    </g>
    <g id="text_5">
     <!-- latency_ms -->
     <g style="fill: #262626" transform="translate(137.201719 204.121875) scale(0.1 -0.1)">
      <defs>
       <path id="ArialMT-6c" d="M 409 0 
L 409 4581 
L 972 4581 
L 972 0 
L 409 0 
z
" transform="scale(0.015625)"/>
       <path id="ArialMT-61" d="M 2588 409 
Q 2275 144 1986 34 
Q 1697 -75 1366 -75 
Q 819 -75 525 192 
Q 231 459 231 875 
Q 231 1119 342 1320 
Q 453 1522 633 1644 
Q 813 1766 1038 1828 
Q 1203 1872 1538 1913 
Q 2219 1994 2541 2106 
Q 2544 2222 2544 2253 
Q 2544 2597 2384 2738 
Q 2169 2928 1744 2928 
Q 1347 2928 1158 2789 
Q 969 2650 878 2297 
L 328 2372 
Q 403 2725 575 2942 
Q 747 3159 1072 3276 
Q 1397 3394 1825 3394 
Q 2250 3394 2515 3294 
Q 2781 3194 2906 3042 
Q 3031 2891 3081 2659 
Q 3109 2516 3109 2141 
L 3109 1391 
Q 3109 606 3145 398 
Q 3181 191 3288 0 
L 2700 0 
Q 2613 175 2588 409 
z
M 2541 1666 
Q 2234 1541 1622 1453 
Q 1275 1403 1131 1340 
Q 988 1278 909 1158 
Q 831 1038 831 891 
Q 831 666 1001 516 
Q 1172 366 1500 366 
Q 1825 366 2078 508 
Q 2331 650 2450 897 
Q 2541 1088 2541 1459 
L 2541 1666 
z
" transform="scale(0.015625)"/>
       <path id="ArialMT-74" d="M 1650 503 
L 1731 6 
Q 1494 -44 1306 -44 
Q 1000 -44 831 53 
Q 663 150 594 308 
Q 525 466 525 972 
L 525 2881 
L 113 2881 
L 113 3319 
L 525 3319 
L 525 4141 
L 1084 4478 
L 1084 3319 
L 1650 3319 
L 1650 2881 
L 1084 2881 
L 1084 941 
Q 1084 700 1114 631 
Q 1144 563 1211 522 
Q 1278 481 1403 481 
Q 1497 481 1650 503 
z
" transform="scale(0.015625)"/>
       <path id="ArialMT-65" d="M 2694 1069 
L 3275 997 
Q 3138 488 2766 206 
Q 2394 -75 1816 -75 
Q 1088 -75 661 373 
Q 234 822 234 1631 
Q 234 2469 665 2931 
Q 1097 3394 1784 3394 
Q 2450 3394 2872 2941 
Q 3294 2488 3294 1666 
Q 3294 1616 3291 1516 
L 816 1516 
Q 847 969 1125 678 
Q 1403 388 1819 388 
Q 2128 388 2347 550 
Q 2566 713 2694 1069 
z
M 847 1978 
L 2700 1978 
Q 2663 2397 2488 2606 
Q 2219 2931 1791 2931 
Q 1403 2931 1139 2672 
Q 875 2413 847 1978 
z
" transform="scale(0.015625)"/>
       <path id="ArialMT-6e" d="M 422 0 
L 422 3319 
L 928 3319 
L 928 2847 
Q 1294 3394 1984 3394 
Q 2284 3394 2536 3286 
Q 2788 3178 2913 3003 
Q 3038 2828 3088 2588 
Q 3119 2431 3119 2041 
L 3119 0 
L 2556 0 
L 2556 2019 
Q 2556 2363 2490 2533 
Q 2425 2703 2258 2804 
Q 2091 2906 1866 2906 
Q 1506 2906 1245 2678 
Q 984 2450 984 1813 
L 984 0 
L 422 0 
z
" transform="scale(0.015625)"/>
       <path id="ArialMT-63" d="M 2588 1216 
L 3141 1144 
Q 3050 572 2676 248 
Q 2303 -75 1759 -75 
Q 1078 -75 664 370 
Q 250 816 250 1647 
Q 250 2184 428 2587 
Q 606 2991 970 3192 
Q 1334 3394 1763 3394 
Q 2303 3394 2647 3120 
Q 2991 2847 3088 2344 
L 2541 2259 
Q 2463 2594 2264 2762 
Q 2066 2931 1784 2931 
Q 1359 2931 1093 2626 
Q 828 2322 828 1663 
Q 828 994 1084 691 
Q 1341 388 1753 388 
Q 2084 388 2306 591 
Q 2528 794 2588 1216 
z
" transform="scale(0.015625)"/>
       <path id="ArialMT-79" d="M 397 -1278 
L 334 -750 
Q 519 -800 656 -800 
Q 844 -800 956 -737 
Q 1069 -675 1141 -563 
Q 1194 -478 1313 -144 
Q 1328 -97 1363 -6 
L 103 3319 
L 709 3319 
L 1400 1397 
Q 1534 1031 1641 628 
Q 1738 1016 1872 1384 
L 2581 3319 
L 3144 3319 
L 1881 -56 
Q 1678 -603 1566 -809 
Q 1416 -1088 1222 -1217 
Q 1028 -1347 759 -1347 
Q 597 -1347 397 -1278 
z
" transform="scale(0.015625)"/>
       <path id="ArialMT-5f" d="M -97 -1272 
L -97 -866 
L 3631 -866 
L 3631 -1272 
L -97 -1272 
z
" transform="scale(0.015625)"/>
       <path id="ArialMT-6d" d="M 422 0 
L 422 3319 
L 925 3319 
L 925 2853 
Q 1081 3097 1340 3245 
Q 1600 3394 1931 3394 
Q 2300 3394 2536 3241 
Q 2772 3088 2869 2813 
Q 3263 3394 3894 3394 
Q 4388 3394 4653 3120 
Q 4919 2847 4919 2278 
L 4919 0 
L 4359 0 
L 4359 2091 
Q 4359 2428 4304 2576 
Q 4250 2725 4106 2815 
Q 3963 2906 3769 2906 
Q 3419 2906 3187 2673 
Q 2956 2441 2956 1928 
L 2956 0 
L 2394 0 
L 2394 2156 
Q 2394 2531 2256 2718 
Q 2119 2906 1806 2906 
Q 1569 2906 1367 2781 
Q 1166 2656 1075 2415 
Q 984 2175 984 1722 
L 984 0 
L 422 0 
z
" transform="scale(0.015625)"/>
       <path id="ArialMT-73" d="M 197 991 
L 753 1078 
Q 800 744 1014 566 
Q 1228 388 1613 388 
Q 2000 388 2187 545 
Q 2375 703 2375 916 
Q 2375 1106 2209 1216 
Q 2094 1291 1634 1406 
Q 1016 1563 777 1677 
Q 538 1791 414 1992 
Q 291 2194 291 2438 
Q 291 2659 392 2848 
Q 494 3038 669 3163 
Q 800 3259 1026 3326 
Q 1253 3394 1513 3394 
Q 1903 3394 2198 3281 
Q 2494 3169 2634 2976 
Q 2775 2784 2828 2463 
L 2278 2388 
Q 2241 2644 2061 2787 
Q 1881 2931 1553 2931 
Q 1166 2931 1000 2803 
Q 834 2675 834 2503 
Q 834 2394 903 2306 
Q 972 2216 1119 2156 
Q 1203 2125 1616 2013 
Q 2213 1853 2448 1751 
Q 2684 1650 2818 1456 
Q 2953 1263 2953 975 
Q 2953 694 2789 445 
Q 2625 197 2315 61 
Q 2006 -75 1616 -75 
Q 969 -75 630 194 
Q 291 463 197 991 
z
" transform="scale(0.015625)"/>
      </defs>
      <use xlink:href="#ArialMT-6c"/>
      <use xlink:href="#ArialMT-61" transform="translate(22.216797 0)"/>
      <use xlink:href="#ArialMT-74" transform="translate(77.832031 0)"/>
      <use xlink:href="#ArialMT-65" transform="translate(105.615234 0)"/>
      <use xlink:href="#ArialMT-6e" transform="translate(161.230469 0)"/>
      <use xlink:href="#ArialMT-63" transform="translate(216.845703 0)"/>
      <use xlink:href="#ArialMT-79" transform="translate(266.845703 0)"/>
      <use xlink:href="#ArialMT-5f" transform="translate(316.845703 0)"/>
      <use xlink:href="#ArialMT-6d" transform="translate(372.460938 0)"/>
      <use xlink:href="#ArialMT-73" transform="translate(455.761719 0)"/>
     </g>
    </g>
   </g>
   <g id="matplotlib.axis_2">
    <g id="ytick_1">
     <g id="line2d_5">
      <path d="M 46.923438 176.81875 
L 278.053437 176.81875 
" clip-path="url(#p381304d536)" style="fill: none; stroke: #cccccc; stroke-width: 0.8; stroke-linecap: round"/>
     </g>
     <g id="text_6">
      <!-- 0.00 -->
      <g style="fill: #262626" transform="translate(20.4625 180.397656) scale(0.1 -0.1)">
       <defs>
        <path id="ArialMT-2e" d="M 581 0 
L 581 641 
L 1222 641 
L 1222 0 
L 581 0 
z
" transform="scale(0.015625)"/>
       </defs>
       <use xlink:href="#ArialMT-30"/>
       <use xlink:href="#ArialMT-2e" transform="translate(55.615234 0)"/>
       <use xlink:href="#ArialMT-30" transform="translate(83.398438 0)"/>
       <use xlink:href="#ArialMT-30" transform="translate(139.013672 0)"/>
      </g>
     </g>
    </g>
    <g id="ytick_2">
     <g id="line2d_6">
      <path d="M 46.923438 142.559143 
L 278.053437 142.559143 
" clip-path="url(#p381304d536)" style="fill: none; stroke: #cccccc; stroke-width: 0.8; stroke-linecap: round"/>
     </g>
     <g id="text_7">
      <!-- 0.01 -->
      <g style="fill: #262626" transform="translate(20.4625 146.138049) scale(0.1 -0.1)">
       <use xlink:href="#ArialMT-30"/>
       <use xlink:href="#ArialMT-2e" transform="translate(55.615234 0)"/>
       <use xlink:href="#ArialMT-30" transform="translate(83.398438 0)"/>
       <use xlink:href="#ArialMT-31" transform="translate(139.013672 0)"/>
      </g>
     </g>
    </g>
    <g id="ytick_3">
     <g id="line2d_7">
      <path d="M 46.923438 108.299536 
L 278.053437 108.299536 
" clip-path="url(#p381304d536)" style="fill: none; stroke: #cccccc; stroke-width: 0.8; stroke-linecap: round"/>
     </g>
     <g id="text_8">
      <!-- 0.02 -->
      <g style="fill: #262626" transform="translate(20.4625 111.878442) scale(0.1 -0.1)">
       <use xlink:href="#ArialMT-30"/>
       <use xlink:href="#ArialMT-2e" transform="translate(55.615234 0)"/>
       <use xlink:href="#ArialMT-30" transform="translate(83.398438 0)"/>
       <use xlink:href="#ArialMT-32" transform="translate(139.013672 0)"/>
      </g>
     </g>
    </g>
    <g id="ytick_4">
     <g id="line2d_8">
      <path d="M 46.923438 74.039929 
L 278.053437 74.039929 
" clip-path="url(#p381304d536)" style="fill: none; stroke: #cccccc; stroke-width: 0.8; stroke-linecap: round"/>
     </g>
     <g id="text_9">
      <!-- 0.03 -->
      <g style="fill: #262626" transform="translate(20.4625 77.618835) scale(0.1 -0.1)">
       <defs>
        <path id="ArialMT-33" d="M 269 1209 
L 831 1284 
Q 928 806 1161 595 
Q 1394 384 1728 384 
Q 2125 384 2398 659 
Q 2672 934 2672 1341 
Q 2672 1728 2419 1979 
Q 2166 2231 1775 2231 
Q 1616 2231 1378 2169 
L 1441 2663 
Q 1497 2656 1531 2656 
Q 1891 2656 2178 2843 
Q 2466 3031 2466 3422 
Q 2466 3731 2256 3934 
Q 2047 4138 1716 4138 
Q 1388 4138 1169 3931 
Q 950 3725 888 3313 
L 325 3413 
Q 428 3978 793 4289 
Q 1159 4600 1703 4600 
Q 2078 4600 2393 4439 
Q 2709 4278 2876 4000 
Q 3044 3722 3044 3409 
Q 3044 3113 2884 2869 
Q 2725 2625 2413 2481 
Q 2819 2388 3044 2092 
Q 3269 1797 3269 1353 
Q 3269 753 2831 336 
Q 2394 -81 1725 -81 
Q 1122 -81 723 278 
Q 325 638 269 1209 
z
" transform="scale(0.015625)"/>
       </defs>
       <use xlink:href="#ArialMT-30"/>
       <use xlink:href="#ArialMT-2e" transform="translate(55.615234 0)"/>
       <use xlink:href="#ArialMT-30" transform="translate(83.398438 0)"/>
       <use xlink:href="#ArialMT-33" transform="translate(139.013672 0)"/>
      </g>
     </g>
    </g>
    <g id="text_10">
     <!-- Density -->
     <g style="fill: #262626" transform="translate(14.357813 130.0975) rotate(-90) scale(0.1 -0.1)">
      <defs>
       <path id="ArialMT-44" d="M 494 0 
L 494 4581 
L 2072 4581 
Q 2606 4581 2888 4516 
Q 3281 4425 3559 4188 
Q 3922 3881 4101 3404 
Q 4281 2928 4281 2316 
Q 4281 1794 4159 1391 
Q 4038 988 3847 723 
Q 3656 459 3429 307 
Q 3203 156 2883 78 
Q 2563 0 2147 0 
L 494 0 
z
M 1100 541 
L 2078 541 
Q 2531 541 2789 625 
Q 3047 709 3200 863 
Q 3416 1078 3536 1442 
Q 3656 1806 3656 2325 
Q 3656 3044 3420 3430 
Q 3184 3816 2847 3947 
Q 2603 4041 2063 4041 
L 1100 4041 
L 1100 541 
z
" transform="scale(0.015625)"/>
       <path id="ArialMT-69" d="M 425 3934 
L 425 4581 
L 988 4581 
L 988 3934 
L 425 3934 
z
M 425 0 
L 425 3319 
L 988 3319 
L 988 0 
L 425 0 
z
" transform="scale(0.015625)"/>
      </defs>
      <use xlink:href="#ArialMT-44"/>
      <use xlink:href="#ArialMT-65" transform="translate(72.216797 0)"/>
      <use xlink:href="#ArialMT-6e" transform="translate(127.832031 0)"/>
      <use xlink:href="#ArialMT-73" transform="translate(183.447266 0)"/>
      <use xlink:href="#ArialMT-69" transform="translate(233.447266 0)"/>
      <use xlink:href="#ArialMT-74" transform="translate(255.664062 0)"/>
      <use xlink:href="#ArialMT-79" transform="translate(283.447266 0)"/>
     </g>
    </g>
   </g>
   <g id="FillBetweenPolyCollection_1">
    <defs>
     <path id="m6714561947" d="M 57.429347 -36.682257 
L 57.429347 -36.607813 
L 58.485217 -36.607813 
L 59.541087 -36.607813 
L 60.596957 -36.607813 
L 61.652828 -36.607813 
L 62.708698 -36.607813 
L 63.764568 -36.607813 
L 64.820438 -36.607813 
L 65.876309 -36.607813 
L 66.932179 -36.607813 
L 67.988049 -36.607813 
L 69.043919 -36.607813 
L 70.09979 -36.607813 
L 71.15566 -36.607813 
L 72.21153 -36.607813 
L 73.2674 -36.607813 
L 74.323271 -36.607813 
L 75.379141 -36.607813 
L 76.435011 -36.607813 
L 77.490882 -36.607813 
L 78.546752 -36.607813 
L 79.602622 -36.607813 
L 80.658492 -36.607813 
L 81.714363 -36.607813 
L 82.770233 -36.607813 
L 83.826103 -36.607813 
L 84.881973 -36.607813 
L 85.937844 -36.607813 
L 86.993714 -36.607813 
L 88.049584 -36.607813 
L 89.105454 -36.607813 
L 90.161325 -36.607813 
L 91.217195 -36.607813 
L 92.273065 -36.607813 
L 93.328935 -36.607813 
L 94.384806 -36.607813 
L 95.440676 -36.607813 
L 96.496546 -36.607813 
L 97.552416 -36.607813 
L 98.608287 -36.607813 
L 99.664157 -36.607813 
L 100.720027 -36.607813 
L 101.775898 -36.607813 
L 102.831768 -36.607813 
L 103.887638 -36.607813 
L 104.943508 -36.607813 
L 105.999379 -36.607813 
L 107.055249 -36.607813 
L 108.111119 -36.607813 
L 109.166989 -36.607813 
L 110.22286 -36.607813 
L 111.27873 -36.607813 
L 112.3346 -36.607813 
L 113.39047 -36.607813 
L 114.446341 -36.607813 
L 115.502211 -36.607813 
L 116.558081 -36.607813 
L 117.613951 -36.607813 
L 118.669822 -36.607813 
L 119.725692 -36.607813 
L 120.781562 -36.607813 
L 121.837432 -36.607813 
L 122.893303 -36.607813 
L 123.949173 -36.607813 
L 125.005043 -36.607813 
L 126.060914 -36.607813 
L 127.116784 -36.607813 
L 128.172654 -36.607813 
L 129.228524 -36.607813 
L 130.284395 -36.607813 
L 131.340265 -36.607813 
L 132.396135 -36.607813 
L 133.452005 -36.607813 
L 134.507876 -36.607813 
L 135.563746 -36.607813 
L 136.619616 -36.607813 
L 137.675486 -36.607813 
L 138.731357 -36.607813 
L 139.787227 -36.607813 
L 140.843097 -36.607813 
L 141.898967 -36.607813 
L 142.954838 -36.607813 
L 144.010708 -36.607813 
L 145.066578 -36.607813 
L 146.122448 -36.607813 
L 147.178319 -36.607813 
L 148.234189 -36.607813 
L 149.290059 -36.607813 
L 150.34593 -36.607813 
L 151.4018 -36.607813 
L 152.45767 -36.607813 
L 153.51354 -36.607813 
L 154.569411 -36.607813 
L 155.625281 -36.607813 
L 156.681151 -36.607813 
L 157.737021 -36.607813 
L 158.792892 -36.607813 
L 159.848762 -36.607813 
L 160.904632 -36.607813 
L 161.960502 -36.607813 
L 163.016373 -36.607813 
L 164.072243 -36.607813 
L 165.128113 -36.607813 
L 166.183983 -36.607813 
L 167.239854 -36.607813 
L 168.295724 -36.607813 
L 169.351594 -36.607813 
L 170.407464 -36.607813 
L 171.463335 -36.607813 
L 172.519205 -36.607813 
L 173.575075 -36.607813 
L 174.630945 -36.607813 
L 175.686816 -36.607813 
L 176.742686 -36.607813 
L 177.798556 -36.607813 
L 178.854427 -36.607813 
L 179.910297 -36.607813 
L 180.966167 -36.607813 
L 182.022037 -36.607813 
L 183.077908 -36.607813 
L 184.133778 -36.607813 
L 185.189648 -36.607813 
L 186.245518 -36.607813 
L 187.301389 -36.607813 
L 188.357259 -36.607813 
L 189.413129 -36.607813 
L 190.468999 -36.607813 
L 191.52487 -36.607813 
L 192.58074 -36.607813 
L 193.63661 -36.607813 
L 194.69248 -36.607813 
L 195.748351 -36.607813 
L 196.804221 -36.607813 
L 197.860091 -36.607813 
L 198.915961 -36.607813 
L 199.971832 -36.607813 
L 201.027702 -36.607813 
L 202.083572 -36.607813 
L 203.139443 -36.607813 
L 204.195313 -36.607813 
L 205.251183 -36.607813 
L 206.307053 -36.607813 
L 207.362924 -36.607813 
L 208.418794 -36.607813 
L 209.474664 -36.607813 
L 210.530534 -36.607813 
L 211.586405 -36.607813 
L 212.642275 -36.607813 
L 213.698145 -36.607813 
L 214.754015 -36.607813 
L 215.809886 -36.607813 
L 216.865756 -36.607813 
L 217.921626 -36.607813 
L 218.977496 -36.607813 
L 220.033367 -36.607813 
L 221.089237 -36.607813 
L 222.145107 -36.607813 
L 223.200977 -36.607813 
L 224.256848 -36.607813 
L 225.312718 -36.607813 
L 226.368588 -36.607813 
L 227.424459 -36.607813 
L 228.480329 -36.607813 
L 229.536199 -36.607813 
L 230.592069 -36.607813 
L 231.64794 -36.607813 
L 232.70381 -36.607813 
L 233.75968 -36.607813 
L 234.81555 -36.607813 
L 235.871421 -36.607813 
L 236.927291 -36.607813 
L 237.983161 -36.607813 
L 239.039031 -36.607813 
L 240.094902 -36.607813 
L 241.150772 -36.607813 
L 242.206642 -36.607813 
L 243.262512 -36.607813 
L 244.318383 -36.607813 
L 245.374253 -36.607813 
L 246.430123 -36.607813 
L 247.485993 -36.607813 
L 248.541864 -36.607813 
L 249.597734 -36.607813 
L 250.653604 -36.607813 
L 251.709475 -36.607813 
L 252.765345 -36.607813 
L 253.821215 -36.607813 
L 254.877085 -36.607813 
L 255.932956 -36.607813 
L 256.988826 -36.607813 
L 258.044696 -36.607813 
L 259.100566 -36.607813 
L 260.156437 -36.607813 
L 261.212307 -36.607813 
L 262.268177 -36.607813 
L 263.324047 -36.607813 
L 264.379918 -36.607813 
L 265.435788 -36.607813 
L 266.491658 -36.607813 
L 267.547528 -36.607813 
L 267.547528 -36.62991 
L 267.547528 -36.62991 
L 266.491658 -36.637662 
L 265.435788 -36.647831 
L 264.379918 -36.661064 
L 263.324047 -36.678149 
L 262.268177 -36.700032 
L 261.212307 -36.727841 
L 260.156437 -36.762904 
L 259.100566 -36.806771 
L 258.044696 -36.861226 
L 256.988826 -36.928308 
L 255.932956 -37.010314 
L 254.877085 -37.109807 
L 253.821215 -37.229613 
L 252.765345 -37.372808 
L 251.709475 -37.542703 
L 250.653604 -37.742815 
L 249.597734 -37.976832 
L 248.541864 -38.248571 
L 247.485993 -38.561924 
L 246.430123 -38.920803 
L 245.374253 -39.329077 
L 244.318383 -39.790511 
L 243.262512 -40.308698 
L 242.206642 -40.886998 
L 241.150772 -41.528483 
L 240.094902 -42.235876 
L 239.039031 -43.01151 
L 237.983161 -43.857285 
L 236.927291 -44.774633 
L 235.871421 -45.76449 
L 234.81555 -46.827272 
L 233.75968 -47.962849 
L 232.70381 -49.170519 
L 231.64794 -50.448983 
L 230.592069 -51.796306 
L 229.536199 -53.209878 
L 228.480329 -54.686363 
L 227.424459 -56.221647 
L 226.368588 -57.810771 
L 225.312718 -59.447878 
L 224.256848 -61.126156 
L 223.200977 -62.837795 
L 222.145107 -64.573965 
L 221.089237 -66.324823 
L 220.033367 -68.079548 
L 218.977496 -69.826428 
L 217.921626 -71.55298 
L 216.865756 -73.246127 
L 215.809886 -74.892418 
L 214.754015 -76.478287 
L 213.698145 -77.990355 
L 212.642275 -79.415752 
L 211.586405 -80.74245 
L 210.530534 -81.959603 
L 209.474664 -83.057859 
L 208.418794 -84.029642 
L 207.362924 -84.869393 
L 206.307053 -85.573741 
L 205.251183 -86.141611 
L 204.195313 -86.574252 
L 203.139443 -86.875189 
L 202.083572 -87.050104 
L 201.027702 -87.106637 
L 199.971832 -87.05414 
L 198.915961 -86.903381 
L 197.860091 -86.666216 
L 196.804221 -86.35525 
L 195.748351 -85.983505 
L 194.69248 -85.564098 
L 193.63661 -85.109959 
L 192.58074 -84.633589 
L 191.52487 -84.146867 
L 190.468999 -83.660912 
L 189.413129 -83.185996 
L 188.357259 -82.731507 
L 187.301389 -82.305953 
L 186.245518 -81.917 
L 185.189648 -81.57153 
L 184.133778 -81.275717 
L 183.077908 -81.035093 
L 182.022037 -80.854615 
L 180.966167 -80.738719 
L 179.910297 -80.691348 
L 178.854427 -80.715971 
L 177.798556 -80.815579 
L 176.742686 -80.992678 
L 175.686816 -81.249267 
L 174.630945 -81.586831 
L 173.575075 -82.006348 
L 172.519205 -82.508306 
L 171.463335 -83.092764 
L 170.407464 -83.759431 
L 169.351594 -84.507781 
L 168.295724 -85.337197 
L 167.239854 -86.247133 
L 166.183983 -87.237276 
L 165.128113 -88.307713 
L 164.072243 -89.459061 
L 163.016373 -90.692571 
L 161.960502 -92.01016 
L 160.904632 -93.414387 
L 159.848762 -94.908347 
L 158.792892 -96.495485 
L 157.737021 -98.179334 
L 156.681151 -99.963187 
L 155.625281 -101.849717 
L 154.569411 -103.840571 
L 153.51354 -105.935957 
L 152.45767 -108.134259 
L 151.4018 -110.431707 
L 150.34593 -112.822118 
L 149.290059 -115.296748 
L 148.234189 -117.844255 
L 147.178319 -120.450785 
L 146.122448 -123.100184 
L 145.066578 -125.774326 
L 144.010708 -128.453535 
L 142.954838 -131.117082 
L 141.898967 -133.743724 
L 140.843097 -136.312254 
L 139.787227 -138.802023 
L 138.731357 -141.193419 
L 137.675486 -143.468247 
L 136.619616 -145.610019 
L 135.563746 -147.60412 
L 134.507876 -149.437856 
L 133.452005 -151.100381 
L 132.396135 -152.582526 
L 131.340265 -153.876547 
L 130.284395 -154.975811 
L 129.228524 -155.874467 
L 128.172654 -156.567122 
L 127.116784 -157.048561 
L 126.060914 -157.313531 
L 125.005043 -157.356622 
L 123.949173 -157.172247 
L 122.893303 -156.754743 
L 121.837432 -156.098567 
L 120.781562 -155.198604 
L 119.725692 -154.050534 
L 118.669822 -152.651262 
L 117.613951 -150.999352 
L 116.558081 -149.095458 
L 115.502211 -146.942692 
L 114.446341 -144.546925 
L 113.39047 -141.916979 
L 112.3346 -139.064696 
L 111.27873 -136.004889 
L 110.22286 -132.755155 
L 109.166989 -129.335573 
L 108.111119 -125.768303 
L 107.055249 -122.077106 
L 105.999379 -118.286812 
L 104.943508 -114.422772 
L 103.887638 -110.510316 
L 102.831768 -106.574255 
L 101.775898 -102.638432 
L 100.720027 -98.725359 
L 99.664157 -94.855934 
L 98.608287 -91.049255 
L 97.552416 -87.322508 
L 96.496546 -83.690941 
L 95.440676 -80.167901 
L 94.384806 -76.764912 
L 93.328935 -73.491788 
L 92.273065 -70.356756 
L 91.217195 -67.366583 
L 90.161325 -64.526685 
L 89.105454 -61.841222 
L 88.049584 -59.313162 
L 86.993714 -56.944333 
L 85.937844 -54.73545 
L 84.881973 -52.686125 
L 83.826103 -50.794883 
L 82.770233 -49.059171 
L 81.714363 -47.475383 
L 80.658492 -46.038897 
L 79.602622 -44.744139 
L 78.546752 -43.584667 
L 77.490882 -42.553273 
L 76.435011 -41.642115 
L 75.379141 -40.842857 
L 74.323271 -40.146824 
L 73.2674 -39.545161 
L 72.21153 -39.028987 
L 71.15566 -38.589545 
L 70.09979 -38.218335 
L 69.043919 -37.907231 
L 67.988049 -37.648578 
L 66.932179 -37.435263 
L 65.876309 -37.260767 
L 64.820438 -37.119194 
L 63.764568 -37.005278 
L 62.708698 -36.914375 
L 61.652828 -36.842442 
L 60.596957 -36.785995 
L 59.541087 -36.742072 
L 58.485217 -36.708183 
L 57.429347 -36.682257 
z
" style="stroke: #1f77b4"/>
    </defs>
    <g clip-path="url(#p381304d536)">
     <use xlink:href="#m6714561947" x="0" y="213.426563" style="fill: #1f77b4; fill-opacity: 0.25; stroke: #1f77b4"/>
    </g>
   </g>
   <g id="patch_3">
    <path d="M 46.923438 176.81875 
L 46.923438 50.0325 
" style="fill: none; stroke: #cccccc; stroke-width: 0.8; stroke-linejoin: miter; stroke-linecap: square"/>
   </g>
   <g id="patch_4">
    <path d="M 278.053437 176.81875 
L 278.053437 50.0325 
" style="fill: none; stroke: #cccccc; stroke-width: 0.8; stroke-linejoin: miter; stroke-linecap: square"/>
   </g>
   <g id="patch_5">
    <path d="M 46.923438 176.81875 
L 278.053437 176.81875 
" style="fill: none; stroke: #cccccc; stroke-width: 0.8; stroke-linejoin: miter; stroke-linecap: square"/>
   </g>
   <g id="patch_6">
    <path d="M 46.923438 50.0325 
L 278.053437 50.0325 
" style="fill: none; stroke: #cccccc; stroke-width: 0.8; stroke-linejoin: miter; stroke-linecap: square"/>
   </g>
   <g id="text_11">
    <!-- Latency dist -->
    <g style="fill: #262626" transform="translate(130.471875 44.0325) scale(0.12 -0.12)">
     <defs>
      <path id="ArialMT-4c" d="M 469 0 
L 469 4581 
L 1075 4581 
L 1075 541 
L 3331 541 
L 3331 0 
L 469 0 
z
" transform="scale(0.015625)"/>
      <path id="ArialMT-20" transform="scale(0.015625)"/>
      <path id="ArialMT-64" d="M 2575 0 
L 2575 419 
Q 2259 -75 1647 -75 
Q 1250 -75 917 144 
Q 584 363 401 755 
Q 219 1147 219 1656 
Q 219 2153 384 2558 
Q 550 2963 881 3178 
Q 1213 3394 1622 3394 
Q 1922 3394 2156 3267 
Q 2391 3141 2538 2938 
L 2538 4581 
L 3097 4581 
L 3097 0 
L 2575 0 
z
M 797 1656 
Q 797 1019 1065 703 
Q 1334 388 1700 388 
Q 2069 388 2326 689 
Q 2584 991 2584 1609 
Q 2584 2291 2321 2609 
Q 2059 2928 1675 2928 
Q 1300 2928 1048 2622 
Q 797 2316 797 1656 
z
" transform="scale(0.015625)"/>
     </defs>
     <use xlink:href="#ArialMT-4c"/>
     <use xlink:href="#ArialMT-61" transform="translate(55.615234 0)"/>
     <use xlink:href="#ArialMT-74" transform="translate(111.230469 0)"/>
     <use xlink:href="#ArialMT-65" transform="translate(139.013672 0)"/>
     <use xlink:href="#ArialMT-6e" transform="translate(194.628906 0)"/>
     <use xlink:href="#ArialMT-63" transform="translate(250.244141 0)"/>
     <use xlink:href="#ArialMT-79" transform="translate(300.244141 0)"/>
     <use xlink:href="#ArialMT-20" transform="translate(350.244141 0)"/>
     <use xlink:href="#ArialMT-64" transform="translate(378.027344 0)"/>
     <use xlink:href="#ArialMT-69" transform="translate(433.642578 0)"/>
     <use xlink:href="#ArialMT-73" transform="translate(455.859375 0)"/>
     <use xlink:href="#ArialMT-74" transform="translate(505.859375 0)"/>
    </g>
   </g>
  </g>
  <g id="axes_2">
   <g id="patch_7">
    <path d="M 329.463438 176.81875 
L 560.593438 176.81875 
L 560.593438 50.0325 
L 329.463438 50.0325 
z
" style="fill: #ffffff"/>
   </g>
   <g id="matplotlib.axis_3">
    <g id="xtick_5">
     <g id="line2d_9">
      <path d="M 374.325686 176.81875 
L 374.325686 50.0325 
" clip-path="url(#paef788591f)" style="fill: none; stroke: #cccccc; stroke-width: 0.8; stroke-linecap: round"/>
     </g>
     <g id="text_12">
      <!-- 40 -->
      <g style="fill: #262626" transform="translate(368.764748 190.976562) scale(0.1 -0.1)">
       <use xlink:href="#ArialMT-34"/>
       <use xlink:href="#ArialMT-30" transform="translate(55.615234 0)"/>
      </g>
     </g>
    </g>
    <g id="xtick_6">
     <g id="line2d_10">
      <path d="M 420.589852 176.81875 
L 420.589852 50.0325 
" clip-path="url(#paef788591f)" style="fill: none; stroke: #cccccc; stroke-width: 0.8; stroke-linecap: round"/>
     </g>
     <g id="text_13">
      <!-- 50 -->
      <g style="fill: #262626" transform="translate(415.028914 190.976562) scale(0.1 -0.1)">
       <defs>
        <path id="ArialMT-35" d="M 266 1200 
L 856 1250 
Q 922 819 1161 601 
Q 1400 384 1738 384 
Q 2144 384 2425 690 
Q 2706 997 2706 1503 
Q 2706 1984 2436 2262 
Q 2166 2541 1728 2541 
Q 1456 2541 1237 2417 
Q 1019 2294 894 2097 
L 366 2166 
L 809 4519 
L 3088 4519 
L 3088 3981 
L 1259 3981 
L 1013 2750 
Q 1425 3038 1878 3038 
Q 2478 3038 2890 2622 
Q 3303 2206 3303 1553 
Q 3303 931 2941 478 
Q 2500 -78 1738 -78 
Q 1113 -78 717 272 
Q 322 622 266 1200 
z
" transform="scale(0.015625)"/>
       </defs>
       <use xlink:href="#ArialMT-35"/>
       <use xlink:href="#ArialMT-30" transform="translate(55.615234 0)"/>
      </g>
     </g>
    </g>
    <g id="xtick_7">
     <g id="line2d_11">
      <path d="M 466.854018 176.81875 
L 466.854018 50.0325 
" clip-path="url(#paef788591f)" style="fill: none; stroke: #cccccc; stroke-width: 0.8; stroke-linecap: round"/>
     </g>
     <g id="text_14">
      <!-- 60 -->
      <g style="fill: #262626" transform="translate(461.29308 190.976562) scale(0.1 -0.1)">
       <use xlink:href="#ArialMT-36"/>
       <use xlink:href="#ArialMT-30" transform="translate(55.615234 0)"/>
      </g>
     </g>
    </g>
    <g id="xtick_8">
     <g id="line2d_12">
      <path d="M 513.118184 176.81875 
L 513.118184 50.0325 
" clip-path="url(#paef788591f)" style="fill: none; stroke: #cccccc; stroke-width: 0.8; stroke-linecap: round"/>
     </g>
     <g id="text_15">
      <!-- 70 -->
      <g style="fill: #262626" transform="translate(507.557246 190.976562) scale(0.1 -0.1)">
       <defs>
        <path id="ArialMT-37" d="M 303 3981 
L 303 4522 
L 3269 4522 
L 3269 4084 
Q 2831 3619 2401 2847 
Q 1972 2075 1738 1259 
Q 1569 684 1522 0 
L 944 0 
Q 953 541 1156 1306 
Q 1359 2072 1739 2783 
Q 2119 3494 2547 3981 
L 303 3981 
z
" transform="scale(0.015625)"/>
       </defs>
       <use xlink:href="#ArialMT-37"/>
       <use xlink:href="#ArialMT-30" transform="translate(55.615234 0)"/>
      </g>
     </g>
    </g>
    <g id="xtick_9">
     <g id="line2d_13">
      <path d="M 559.38235 176.81875 
L 559.38235 50.0325 
" clip-path="url(#paef788591f)" style="fill: none; stroke: #cccccc; stroke-width: 0.8; stroke-linecap: round"/>
     </g>
     <g id="text_16">
      <!-- 80 -->
      <g style="fill: #262626" transform="translate(553.821412 190.976562) scale(0.1 -0.1)">
       <use xlink:href="#ArialMT-38"/>
       <use xlink:href="#ArialMT-30" transform="translate(55.615234 0)"/>
      </g>
     </g>
    </g>
    <g id="text_17">
     <!-- throughput_rps -->
     <g style="fill: #262626" transform="translate(411.396406 204.121875) scale(0.1 -0.1)">
      <defs>
       <path id="ArialMT-68" d="M 422 0 
L 422 4581 
L 984 4581 
L 984 2938 
Q 1378 3394 1978 3394 
Q 2347 3394 2619 3248 
Q 2891 3103 3008 2847 
Q 3125 2591 3125 2103 
L 3125 0 
L 2563 0 
L 2563 2103 
Q 2563 2525 2380 2717 
Q 2197 2909 1863 2909 
Q 1613 2909 1392 2779 
Q 1172 2650 1078 2428 
Q 984 2206 984 1816 
L 984 0 
L 422 0 
z
" transform="scale(0.015625)"/>
       <path id="ArialMT-72" d="M 416 0 
L 416 3319 
L 922 3319 
L 922 2816 
Q 1116 3169 1280 3281 
Q 1444 3394 1641 3394 
Q 1925 3394 2219 3213 
L 2025 2691 
Q 1819 2813 1613 2813 
Q 1428 2813 1281 2702 
Q 1134 2591 1072 2394 
Q 978 2094 978 1738 
L 978 0 
L 416 0 
z
" transform="scale(0.015625)"/>
       <path id="ArialMT-6f" d="M 213 1659 
Q 213 2581 725 3025 
Q 1153 3394 1769 3394 
Q 2453 3394 2887 2945 
Q 3322 2497 3322 1706 
Q 3322 1066 3130 698 
Q 2938 331 2570 128 
Q 2203 -75 1769 -75 
Q 1072 -75 642 372 
Q 213 819 213 1659 
z
M 791 1659 
Q 791 1022 1069 705 
Q 1347 388 1769 388 
Q 2188 388 2466 706 
Q 2744 1025 2744 1678 
Q 2744 2294 2464 2611 
Q 2184 2928 1769 2928 
Q 1347 2928 1069 2612 
Q 791 2297 791 1659 
z
" transform="scale(0.015625)"/>
       <path id="ArialMT-75" d="M 2597 0 
L 2597 488 
Q 2209 -75 1544 -75 
Q 1250 -75 995 37 
Q 741 150 617 320 
Q 494 491 444 738 
Q 409 903 409 1263 
L 409 3319 
L 972 3319 
L 972 1478 
Q 972 1038 1006 884 
Q 1059 663 1231 536 
Q 1403 409 1656 409 
Q 1909 409 2131 539 
Q 2353 669 2445 892 
Q 2538 1116 2538 1541 
L 2538 3319 
L 3100 3319 
L 3100 0 
L 2597 0 
z
" transform="scale(0.015625)"/>
       <path id="ArialMT-67" d="M 319 -275 
L 866 -356 
Q 900 -609 1056 -725 
Q 1266 -881 1628 -881 
Q 2019 -881 2231 -725 
Q 2444 -569 2519 -288 
Q 2563 -116 2559 434 
Q 2191 0 1641 0 
Q 956 0 581 494 
Q 206 988 206 1678 
Q 206 2153 378 2554 
Q 550 2956 876 3175 
Q 1203 3394 1644 3394 
Q 2231 3394 2613 2919 
L 2613 3319 
L 3131 3319 
L 3131 450 
Q 3131 -325 2973 -648 
Q 2816 -972 2473 -1159 
Q 2131 -1347 1631 -1347 
Q 1038 -1347 672 -1080 
Q 306 -813 319 -275 
z
M 784 1719 
Q 784 1066 1043 766 
Q 1303 466 1694 466 
Q 2081 466 2343 764 
Q 2606 1063 2606 1700 
Q 2606 2309 2336 2618 
Q 2066 2928 1684 2928 
Q 1309 2928 1046 2623 
Q 784 2319 784 1719 
z
" transform="scale(0.015625)"/>
       <path id="ArialMT-70" d="M 422 -1272 
L 422 3319 
L 934 3319 
L 934 2888 
Q 1116 3141 1344 3267 
Q 1572 3394 1897 3394 
Q 2322 3394 2647 3175 
Q 2972 2956 3137 2557 
Q 3303 2159 3303 1684 
Q 3303 1175 3120 767 
Q 2938 359 2589 142 
Q 2241 -75 1856 -75 
Q 1575 -75 1351 44 
Q 1128 163 984 344 
L 984 -1272 
L 422 -1272 
z
M 931 1641 
Q 931 1000 1190 694 
Q 1450 388 1819 388 
Q 2194 388 2461 705 
Q 2728 1022 2728 1688 
Q 2728 2322 2467 2637 
Q 2206 2953 1844 2953 
Q 1484 2953 1207 2617 
Q 931 2281 931 1641 
z
" transform="scale(0.015625)"/>
      </defs>
      <use xlink:href="#ArialMT-74"/>
      <use xlink:href="#ArialMT-68" transform="translate(27.783203 0)"/>
      <use xlink:href="#ArialMT-72" transform="translate(83.398438 0)"/>
      <use xlink:href="#ArialMT-6f" transform="translate(116.699219 0)"/>
      <use xlink:href="#ArialMT-75" transform="translate(172.314453 0)"/>
      <use xlink:href="#ArialMT-67" transform="translate(227.929688 0)"/>
      <use xlink:href="#ArialMT-68" transform="translate(283.544922 0)"/>
      <use xlink:href="#ArialMT-70" transform="translate(339.160156 0)"/>
      <use xlink:href="#ArialMT-75" transform="translate(394.775391 0)"/>
      <use xlink:href="#ArialMT-74" transform="translate(450.390625 0)"/>
      <use xlink:href="#ArialMT-5f" transform="translate(478.173828 0)"/>
      <use xlink:href="#ArialMT-72" transform="translate(533.789062 0)"/>
      <use xlink:href="#ArialMT-70" transform="translate(567.089844 0)"/>
      <use xlink:href="#ArialMT-73" transform="translate(622.705078 0)"/>
     </g>
    </g>
   </g>
   <g id="matplotlib.axis_4">
    <g id="ytick_5">
     <g id="line2d_14">
      <path d="M 329.463438 176.81875 
L 560.593438 176.81875 
" clip-path="url(#paef788591f)" style="fill: none; stroke: #cccccc; stroke-width: 0.8; stroke-linecap: round"/>
     </g>
     <g id="text_18">
      <!-- 0.00 -->
      <g style="fill: #262626" transform="translate(303.0025 180.397656) scale(0.1 -0.1)">
       <use xlink:href="#ArialMT-30"/>
       <use xlink:href="#ArialMT-2e" transform="translate(55.615234 0)"/>
       <use xlink:href="#ArialMT-30" transform="translate(83.398438 0)"/>
       <use xlink:href="#ArialMT-30" transform="translate(139.013672 0)"/>
      </g>
     </g>
    </g>
    <g id="ytick_6">
     <g id="line2d_15">
      <path d="M 329.463438 153.732757 
L 560.593438 153.732757 
" clip-path="url(#paef788591f)" style="fill: none; stroke: #cccccc; stroke-width: 0.8; stroke-linecap: round"/>
     </g>
     <g id="text_19">
      <!-- 0.01 -->
      <g style="fill: #262626" transform="translate(303.0025 157.311663) scale(0.1 -0.1)">
       <use xlink:href="#ArialMT-30"/>
       <use xlink:href="#ArialMT-2e" transform="translate(55.615234 0)"/>
       <use xlink:href="#ArialMT-30" transform="translate(83.398438 0)"/>
       <use xlink:href="#ArialMT-31" transform="translate(139.013672 0)"/>
      </g>
     </g>
    </g>
    <g id="ytick_7">
     <g id="line2d_16">
      <path d="M 329.463438 130.646764 
L 560.593438 130.646764 
" clip-path="url(#paef788591f)" style="fill: none; stroke: #cccccc; stroke-width: 0.8; stroke-linecap: round"/>
     </g>
     <g id="text_20">
      <!-- 0.02 -->
      <g style="fill: #262626" transform="translate(303.0025 134.22567) scale(0.1 -0.1)">
       <use xlink:href="#ArialMT-30"/>
       <use xlink:href="#ArialMT-2e" transform="translate(55.615234 0)"/>
       <use xlink:href="#ArialMT-30" transform="translate(83.398438 0)"/>
       <use xlink:href="#ArialMT-32" transform="translate(139.013672 0)"/>
      </g>
     </g>
    </g>
    <g id="ytick_8">
     <g id="line2d_17">
      <path d="M 329.463438 107.560771 
L 560.593438 107.560771 
" clip-path="url(#paef788591f)" style="fill: none; stroke: #cccccc; stroke-width: 0.8; stroke-linecap: round"/>
     </g>
     <g id="text_21">
      <!-- 0.03 -->
      <g style="fill: #262626" transform="translate(303.0025 111.139677) scale(0.1 -0.1)">
       <use xlink:href="#ArialMT-30"/>
       <use xlink:href="#ArialMT-2e" transform="translate(55.615234 0)"/>
       <use xlink:href="#ArialMT-30" transform="translate(83.398438 0)"/>
       <use xlink:href="#ArialMT-33" transform="translate(139.013672 0)"/>
      </g>
     </g>
    </g>
    <g id="ytick_9">
     <g id="line2d_18">
      <path d="M 329.463438 84.474778 
L 560.593438 84.474778 
" clip-path="url(#paef788591f)" style="fill: none; stroke: #cccccc; stroke-width: 0.8; stroke-linecap: round"/>
     </g>
     <g id="text_22">
      <!-- 0.04 -->
      <g style="fill: #262626" transform="translate(303.0025 88.053684) scale(0.1 -0.1)">
       <use xlink:href="#ArialMT-30"/>
       <use xlink:href="#ArialMT-2e" transform="translate(55.615234 0)"/>
       <use xlink:href="#ArialMT-30" transform="translate(83.398438 0)"/>
       <use xlink:href="#ArialMT-34" transform="translate(139.013672 0)"/>
      </g>
     </g>
    </g>
    <g id="ytick_10">
     <g id="line2d_19">
      <path d="M 329.463438 61.388785 
L 560.593438 61.388785 
" clip-path="url(#paef788591f)" style="fill: none; stroke: #cccccc; stroke-width: 0.8; stroke-linecap: round"/>
     </g>
     <g id="text_23">
      <!-- 0.05 -->
      <g style="fill: #262626" transform="translate(303.0025 64.967691) scale(0.1 -0.1)">
       <use xlink:href="#ArialMT-30"/>
       <use xlink:href="#ArialMT-2e" transform="translate(55.615234 0)"/>
       <use xlink:href="#ArialMT-30" transform="translate(83.398438 0)"/>
       <use xlink:href="#ArialMT-35" transform="translate(139.013672 0)"/>
      </g>
     </g>
    </g>
    <g id="text_24">
     <!-- Density -->
     <g style="fill: #262626" transform="translate(296.897813 130.0975) rotate(-90) scale(0.1 -0.1)">
      <use xlink:href="#ArialMT-44"/>
      <use xlink:href="#ArialMT-65" transform="translate(72.216797 0)"/>
      <use xlink:href="#ArialMT-6e" transform="translate(127.832031 0)"/>
      <use xlink:href="#ArialMT-73" transform="translate(183.447266 0)"/>
      <use xlink:href="#ArialMT-69" transform="translate(233.447266 0)"/>
      <use xlink:href="#ArialMT-74" transform="translate(255.664062 0)"/>
      <use xlink:href="#ArialMT-79" transform="translate(283.447266 0)"/>
     </g>
    </g>
   </g>
   <g id="FillBetweenPolyCollection_2">
    <defs>
     <path id="me9353d0ef4" d="M 339.969347 -36.647901 
L 339.969347 -36.607813 
L 341.025217 -36.607813 
L 342.081087 -36.607813 
L 343.136957 -36.607813 
L 344.192828 -36.607813 
L 345.248698 -36.607813 
L 346.304568 -36.607813 
L 347.360438 -36.607813 
L 348.416309 -36.607813 
L 349.472179 -36.607813 
L 350.528049 -36.607813 
L 351.583919 -36.607813 
L 352.63979 -36.607813 
L 353.69566 -36.607813 
L 354.75153 -36.607813 
L 355.8074 -36.607813 
L 356.863271 -36.607813 
L 357.919141 -36.607813 
L 358.975011 -36.607813 
L 360.030882 -36.607813 
L 361.086752 -36.607813 
L 362.142622 -36.607813 
L 363.198492 -36.607813 
L 364.254363 -36.607813 
L 365.310233 -36.607813 
L 366.366103 -36.607813 
L 367.421973 -36.607813 
L 368.477844 -36.607813 
L 369.533714 -36.607813 
L 370.589584 -36.607813 
L 371.645454 -36.607813 
L 372.701325 -36.607813 
L 373.757195 -36.607813 
L 374.813065 -36.607813 
L 375.868935 -36.607813 
L 376.924806 -36.607813 
L 377.980676 -36.607813 
L 379.036546 -36.607813 
L 380.092416 -36.607813 
L 381.148287 -36.607813 
L 382.204157 -36.607813 
L 383.260027 -36.607813 
L 384.315898 -36.607813 
L 385.371768 -36.607813 
L 386.427638 -36.607813 
L 387.483508 -36.607813 
L 388.539379 -36.607813 
L 389.595249 -36.607813 
L 390.651119 -36.607813 
L 391.706989 -36.607813 
L 392.76286 -36.607813 
L 393.81873 -36.607813 
L 394.8746 -36.607813 
L 395.93047 -36.607813 
L 396.986341 -36.607813 
L 398.042211 -36.607813 
L 399.098081 -36.607813 
L 400.153951 -36.607813 
L 401.209822 -36.607813 
L 402.265692 -36.607813 
L 403.321562 -36.607813 
L 404.377432 -36.607813 
L 405.433303 -36.607813 
L 406.489173 -36.607813 
L 407.545043 -36.607813 
L 408.600914 -36.607813 
L 409.656784 -36.607813 
L 410.712654 -36.607813 
L 411.768524 -36.607813 
L 412.824395 -36.607813 
L 413.880265 -36.607813 
L 414.936135 -36.607813 
L 415.992005 -36.607813 
L 417.047876 -36.607813 
L 418.103746 -36.607813 
L 419.159616 -36.607813 
L 420.215486 -36.607813 
L 421.271357 -36.607813 
L 422.327227 -36.607813 
L 423.383097 -36.607813 
L 424.438967 -36.607813 
L 425.494838 -36.607813 
L 426.550708 -36.607813 
L 427.606578 -36.607813 
L 428.662448 -36.607813 
L 429.718319 -36.607813 
L 430.774189 -36.607813 
L 431.830059 -36.607813 
L 432.88593 -36.607813 
L 433.9418 -36.607813 
L 434.99767 -36.607813 
L 436.05354 -36.607813 
L 437.109411 -36.607813 
L 438.165281 -36.607813 
L 439.221151 -36.607813 
L 440.277021 -36.607813 
L 441.332892 -36.607813 
L 442.388762 -36.607813 
L 443.444632 -36.607813 
L 444.500502 -36.607813 
L 445.556373 -36.607813 
L 446.612243 -36.607813 
L 447.668113 -36.607813 
L 448.723983 -36.607813 
L 449.779854 -36.607813 
L 450.835724 -36.607813 
L 451.891594 -36.607813 
L 452.947464 -36.607813 
L 454.003335 -36.607813 
L 455.059205 -36.607813 
L 456.115075 -36.607813 
L 457.170945 -36.607813 
L 458.226816 -36.607813 
L 459.282686 -36.607813 
L 460.338556 -36.607813 
L 461.394427 -36.607813 
L 462.450297 -36.607813 
L 463.506167 -36.607813 
L 464.562037 -36.607813 
L 465.617908 -36.607813 
L 466.673778 -36.607813 
L 467.729648 -36.607813 
L 468.785518 -36.607813 
L 469.841389 -36.607813 
L 470.897259 -36.607813 
L 471.953129 -36.607813 
L 473.008999 -36.607813 
L 474.06487 -36.607813 
L 475.12074 -36.607813 
L 476.17661 -36.607813 
L 477.23248 -36.607813 
L 478.288351 -36.607813 
L 479.344221 -36.607813 
L 480.400091 -36.607813 
L 481.455961 -36.607813 
L 482.511832 -36.607813 
L 483.567702 -36.607813 
L 484.623572 -36.607813 
L 485.679443 -36.607813 
L 486.735313 -36.607813 
L 487.791183 -36.607813 
L 488.847053 -36.607813 
L 489.902924 -36.607813 
L 490.958794 -36.607813 
L 492.014664 -36.607813 
L 493.070534 -36.607813 
L 494.126405 -36.607813 
L 495.182275 -36.607813 
L 496.238145 -36.607813 
L 497.294015 -36.607813 
L 498.349886 -36.607813 
L 499.405756 -36.607813 
L 500.461626 -36.607813 
L 501.517496 -36.607813 
L 502.573367 -36.607813 
L 503.629237 -36.607813 
L 504.685107 -36.607813 
L 505.740977 -36.607813 
L 506.796848 -36.607813 
L 507.852718 -36.607813 
L 508.908588 -36.607813 
L 509.964459 -36.607813 
L 511.020329 -36.607813 
L 512.076199 -36.607813 
L 513.132069 -36.607813 
L 514.18794 -36.607813 
L 515.24381 -36.607813 
L 516.29968 -36.607813 
L 517.35555 -36.607813 
L 518.411421 -36.607813 
L 519.467291 -36.607813 
L 520.523161 -36.607813 
L 521.579031 -36.607813 
L 522.634902 -36.607813 
L 523.690772 -36.607813 
L 524.746642 -36.607813 
L 525.802512 -36.607813 
L 526.858383 -36.607813 
L 527.914253 -36.607813 
L 528.970123 -36.607813 
L 530.025993 -36.607813 
L 531.081864 -36.607813 
L 532.137734 -36.607813 
L 533.193604 -36.607813 
L 534.249475 -36.607813 
L 535.305345 -36.607813 
L 536.361215 -36.607813 
L 537.417085 -36.607813 
L 538.472956 -36.607813 
L 539.528826 -36.607813 
L 540.584696 -36.607813 
L 541.640566 -36.607813 
L 542.696437 -36.607813 
L 543.752307 -36.607813 
L 544.808177 -36.607813 
L 545.864047 -36.607813 
L 546.919918 -36.607813 
L 547.975788 -36.607813 
L 549.031658 -36.607813 
L 550.087528 -36.607813 
L 550.087528 -36.650882 
L 550.087528 -36.650882 
L 549.031658 -36.665643 
L 547.975788 -36.684978 
L 546.919918 -36.710142 
L 545.864047 -36.742675 
L 544.808177 -36.784463 
L 543.752307 -36.83779 
L 542.696437 -36.905401 
L 541.640566 -36.990568 
L 540.584696 -37.097159 
L 539.528826 -37.229709 
L 538.472956 -37.393483 
L 537.417085 -37.594547 
L 536.361215 -37.839822 
L 535.305345 -38.137131 
L 534.249475 -38.495234 
L 533.193604 -38.923843 
L 532.137734 -39.433615 
L 531.081864 -40.036114 
L 530.025993 -40.743751 
L 528.970123 -41.569684 
L 527.914253 -42.527676 
L 526.858383 -43.631926 
L 525.802512 -44.896846 
L 524.746642 -46.336807 
L 523.690772 -47.965838 
L 522.634902 -49.797298 
L 521.579031 -51.843507 
L 520.523161 -54.115358 
L 519.467291 -56.621912 
L 518.411421 -59.369981 
L 517.35555 -62.363724 
L 516.29968 -65.604242 
L 515.24381 -69.08922 
L 514.18794 -72.812595 
L 513.132069 -76.764282 
L 512.076199 -80.929975 
L 511.020329 -85.291007 
L 509.964459 -89.824318 
L 508.908588 -94.502505 
L 507.852718 -99.293977 
L 506.796848 -104.163219 
L 505.740977 -109.071159 
L 504.685107 -113.975636 
L 503.629237 -118.831964 
L 502.573367 -123.593597 
L 501.517496 -128.212851 
L 500.461626 -132.641707 
L 499.405756 -136.83265 
L 498.349886 -140.739543 
L 497.294015 -144.318502 
L 496.238145 -147.528769 
L 495.182275 -150.333545 
L 494.126405 -152.700777 
L 493.070534 -154.603869 
L 492.014664 -156.02231 
L 490.958794 -156.942194 
L 489.902924 -157.356622 
L 488.847053 -157.265972 
L 487.791183 -156.67804 
L 486.735313 -155.608029 
L 485.679443 -154.078393 
L 484.623572 -152.118547 
L 483.567702 -149.764423 
L 482.511832 -147.057898 
L 481.455961 -144.046101 
L 480.400091 -140.780605 
L 479.344221 -137.316527 
L 478.288351 -133.711548 
L 477.23248 -130.024879 
L 476.17661 -126.316185 
L 475.12074 -122.644506 
L 474.06487 -119.067177 
L 473.008999 -115.63879 
L 471.953129 -112.410202 
L 470.897259 -109.42763 
L 469.841389 -106.731835 
L 468.785518 -104.357416 
L 467.729648 -102.332246 
L 466.673778 -100.677028 
L 465.617908 -99.405011 
L 464.562037 -98.521852 
L 463.506167 -98.025632 
L 462.450297 -97.907025 
L 461.394427 -98.149607 
L 460.338556 -98.730309 
L 459.282686 -99.61999 
L 458.226816 -100.784134 
L 457.170945 -102.18363 
L 456.115075 -103.775647 
L 455.059205 -105.514566 
L 454.003335 -107.35295 
L 452.947464 -109.242548 
L 451.891594 -111.13529 
L 450.835724 -112.984273 
L 449.779854 -114.744695 
L 448.723983 -116.374749 
L 447.668113 -117.836423 
L 446.612243 -119.096221 
L 445.556373 -120.125774 
L 444.500502 -120.902328 
L 443.444632 -121.40911 
L 442.388762 -121.635566 
L 441.332892 -121.577452 
L 440.277021 -121.236797 
L 439.221151 -120.621733 
L 438.165281 -119.746196 
L 437.109411 -118.629507 
L 436.05354 -117.29585 
L 434.99767 -115.773654 
L 433.9418 -114.094893 
L 432.88593 -112.294328 
L 431.830059 -110.408695 
L 430.774189 -108.475875 
L 429.718319 -106.534048 
L 428.662448 -104.620857 
L 427.606578 -102.772599 
L 426.550708 -101.023463 
L 425.494838 -99.404821 
L 424.438967 -97.944602 
L 423.383097 -96.666741 
L 422.327227 -95.590742 
L 421.271357 -94.731325 
L 420.215486 -94.098197 
L 419.159616 -93.695932 
L 418.103746 -93.523958 
L 417.047876 -93.576654 
L 415.992005 -93.843553 
L 414.936135 -94.309634 
L 413.880265 -94.9557 
L 412.824395 -95.758829 
L 411.768524 -96.692892 
L 410.712654 -97.729106 
L 409.656784 -98.836636 
L 408.600914 -99.983212 
L 407.545043 -101.135759 
L 406.489173 -102.261027 
L 405.433303 -103.326207 
L 404.377432 -104.29953 
L 403.321562 -105.15083 
L 402.265692 -105.852079 
L 401.209822 -106.377868 
L 400.153951 -106.705836 
L 399.098081 -106.817046 
L 398.042211 -106.696289 
L 396.986341 -106.33232 
L 395.93047 -105.718023 
L 394.8746 -104.850487 
L 393.81873 -103.731008 
L 392.76286 -102.365004 
L 391.706989 -100.761851 
L 390.651119 -98.934633 
L 389.595249 -96.899826 
L 388.539379 -94.676906 
L 387.483508 -92.287902 
L 386.427638 -89.756904 
L 385.371768 -87.109534 
L 384.315898 -84.372397 
L 383.260027 -81.572534 
L 382.204157 -78.736873 
L 381.148287 -75.891718 
L 380.092416 -73.062268 
L 379.036546 -70.27219 
L 377.980676 -67.54325 
L 376.924806 -64.895011 
L 375.868935 -62.344607 
L 374.813065 -59.906587 
L 373.757195 -57.59283 
L 372.701325 -55.412541 
L 371.645454 -53.372295 
L 370.589584 -51.476155 
L 369.533714 -49.725831 
L 368.477844 -48.12088 
L 367.421973 -46.658937 
L 366.366103 -45.335971 
L 365.310233 -44.146543 
L 364.254363 -43.084074 
L 363.198492 -42.141108 
L 362.142622 -41.309558 
L 361.086752 -40.580937 
L 360.030882 -39.946571 
L 358.975011 -39.397779 
L 357.919141 -38.926037 
L 356.863271 -38.523108 
L 355.8074 -38.181144 
L 354.75153 -37.892774 
L 353.69566 -37.651152 
L 352.63979 -37.449998 
L 351.583919 -37.28361 
L 350.528049 -37.146867 
L 349.472179 -37.035214 
L 348.416309 -36.944641 
L 347.360438 -36.871647 
L 346.304568 -36.813205 
L 345.248698 -36.766722 
L 344.192828 -36.729995 
L 343.136957 -36.701169 
L 342.081087 -36.678694 
L 341.025217 -36.66129 
L 339.969347 -36.647901 
z
" style="stroke: #1f77b4"/>
    </defs>
    <g clip-path="url(#paef788591f)">
     <use xlink:href="#me9353d0ef4" x="0" y="213.426563" style="fill: #1f77b4; fill-opacity: 0.25; stroke: #1f77b4"/>
    </g>
   </g>
   <g id="patch_8">
    <path d="M 329.463438 176.81875 
L 329.463438 50.0325 
" style="fill: none; stroke: #cccccc; stroke-width: 0.8; stroke-linejoin: miter; stroke-linecap: square"/>
   </g>
   <g id="patch_9">
    <path d="M 560.593438 176.81875 
L 560.593438 50.0325 
" style="fill: none; stroke: #cccccc; stroke-width: 0.8; stroke-linejoin: miter; stroke-linecap: square"/>
   </g>
   <g id="patch_10">
    <path d="M 329.463438 176.81875 
L 560.593438 176.81875 
" style="fill: none; stroke: #cccccc; stroke-width: 0.8; stroke-linejoin: miter; stroke-linecap: square"/>
   </g>
   <g id="patch_11">
    <path d="M 329.463438 50.0325 
L 560.593438 50.0325 
" style="fill: none; stroke: #cccccc; stroke-width: 0.8; stroke-linejoin: miter; stroke-linecap: square"/>
   </g>
   <g id="text_25">
    <!-- Throughput dist -->
    <g style="fill: #262626" transform="translate(403.339688 44.0325) scale(0.12 -0.12)">
     <defs>
      <path id="ArialMT-54" d="M 1659 0 
L 1659 4041 
L 150 4041 
L 150 4581 
L 3781 4581 
L 3781 4041 
L 2266 4041 
L 2266 0 
L 1659 0 
z
" transform="scale(0.015625)"/>
     </defs>
     <use xlink:href="#ArialMT-54"/>
     <use xlink:href="#ArialMT-68" transform="translate(61.083984 0)"/>
     <use xlink:href="#ArialMT-72" transform="translate(116.699219 0)"/>
     <use xlink:href="#ArialMT-6f" transform="translate(150 0)"/>
     <use xlink:href="#ArialMT-75" transform="translate(205.615234 0)"/>
     <use xlink:href="#ArialMT-67" transform="translate(261.230469 0)"/>
     <use xlink:href="#ArialMT-68" transform="translate(316.845703 0)"/>
     <use xlink:href="#ArialMT-70" transform="translate(372.460938 0)"/>
     <use xlink:href="#ArialMT-75" transform="translate(428.076172 0)"/>
     <use xlink:href="#ArialMT-74" transform="translate(483.691406 0)"/>
     <use xlink:href="#ArialMT-20" transform="translate(511.474609 0)"/>
     <use xlink:href="#ArialMT-64" transform="translate(539.257812 0)"/>
     <use xlink:href="#ArialMT-69" transform="translate(594.873047 0)"/>
     <use xlink:href="#ArialMT-73" transform="translate(617.089844 0)"/>
     <use xlink:href="#ArialMT-74" transform="translate(667.089844 0)"/>
    </g>
   </g>
  </g>
  <g id="axes_3">
   <g id="patch_12">
    <path d="M 612.003438 176.81875 
L 843.133438 176.81875 
L 843.133438 50.0325 
L 612.003438 50.0325 
z
" style="fill: #ffffff"/>
   </g>
   <g id="matplotlib.axis_5">
    <g id="xtick_10">
     <g id="line2d_20">
      <path d="M 637.635251 176.81875 
L 637.635251 50.0325 
" clip-path="url(#p496037dc29)" style="fill: none; stroke: #cccccc; stroke-width: 0.8; stroke-linecap: round"/>
     </g>
     <g id="text_26">
      <!-- 0.0 -->
      <g style="fill: #262626" transform="translate(630.685251 190.976562) scale(0.1 -0.1)">
       <use xlink:href="#ArialMT-30"/>
       <use xlink:href="#ArialMT-2e" transform="translate(55.615234 0)"/>
       <use xlink:href="#ArialMT-30" transform="translate(83.398438 0)"/>
      </g>
     </g>
    </g>
    <g id="xtick_11">
     <g id="line2d_21">
      <path d="M 689.796449 176.81875 
L 689.796449 50.0325 
" clip-path="url(#p496037dc29)" style="fill: none; stroke: #cccccc; stroke-width: 0.8; stroke-linecap: round"/>
     </g>
     <g id="text_27">
      <!-- 0.2 -->
      <g style="fill: #262626" transform="translate(682.846449 190.976562) scale(0.1 -0.1)">
       <use xlink:href="#ArialMT-30"/>
       <use xlink:href="#ArialMT-2e" transform="translate(55.615234 0)"/>
       <use xlink:href="#ArialMT-32" transform="translate(83.398438 0)"/>
      </g>
     </g>
    </g>
    <g id="xtick_12">
     <g id="line2d_22">
      <path d="M 741.957648 176.81875 
L 741.957648 50.0325 
" clip-path="url(#p496037dc29)" style="fill: none; stroke: #cccccc; stroke-width: 0.8; stroke-linecap: round"/>
     </g>
     <g id="text_28">
      <!-- 0.4 -->
      <g style="fill: #262626" transform="translate(735.007648 190.976562) scale(0.1 -0.1)">
       <use xlink:href="#ArialMT-30"/>
       <use xlink:href="#ArialMT-2e" transform="translate(55.615234 0)"/>
       <use xlink:href="#ArialMT-34" transform="translate(83.398438 0)"/>
      </g>
     </g>
    </g>
    <g id="xtick_13">
     <g id="line2d_23">
      <path d="M 794.118847 176.81875 
L 794.118847 50.0325 
" clip-path="url(#p496037dc29)" style="fill: none; stroke: #cccccc; stroke-width: 0.8; stroke-linecap: round"/>
     </g>
     <g id="text_29">
      <!-- 0.6 -->
      <g style="fill: #262626" transform="translate(787.168847 190.976562) scale(0.1 -0.1)">
       <use xlink:href="#ArialMT-30"/>
       <use xlink:href="#ArialMT-2e" transform="translate(55.615234 0)"/>
       <use xlink:href="#ArialMT-36" transform="translate(83.398438 0)"/>
      </g>
     </g>
    </g>
    <g id="text_30">
     <!-- error_rate -->
     <g style="fill: #262626" transform="translate(705.617656 204.121875) scale(0.1 -0.1)">
      <use xlink:href="#ArialMT-65"/>
      <use xlink:href="#ArialMT-72" transform="translate(55.615234 0)"/>
      <use xlink:href="#ArialMT-72" transform="translate(88.916016 0)"/>
      <use xlink:href="#ArialMT-6f" transform="translate(122.216797 0)"/>
      <use xlink:href="#ArialMT-72" transform="translate(177.832031 0)"/>
      <use xlink:href="#ArialMT-5f" transform="translate(211.132812 0)"/>
      <use xlink:href="#ArialMT-72" transform="translate(266.748047 0)"/>
      <use xlink:href="#ArialMT-61" transform="translate(300.048828 0)"/>
      <use xlink:href="#ArialMT-74" transform="translate(355.664062 0)"/>
      <use xlink:href="#ArialMT-65" transform="translate(383.447266 0)"/>
     </g>
    </g>
   </g>
   <g id="matplotlib.axis_6">
    <g id="ytick_11">
     <g id="line2d_24">
      <path d="M 612.003438 176.81875 
L 843.133438 176.81875 
" clip-path="url(#p496037dc29)" style="fill: none; stroke: #cccccc; stroke-width: 0.8; stroke-linecap: round"/>
     </g>
     <g id="text_31">
      <!-- 0 -->
      <g style="fill: #262626" transform="translate(599.4425 180.397656) scale(0.1 -0.1)">
       <use xlink:href="#ArialMT-30"/>
      </g>
     </g>
    </g>
    <g id="ytick_12">
     <g id="line2d_25">
      <path d="M 612.003438 147.028516 
L 843.133438 147.028516 
" clip-path="url(#p496037dc29)" style="fill: none; stroke: #cccccc; stroke-width: 0.8; stroke-linecap: round"/>
     </g>
     <g id="text_32">
      <!-- 5 -->
      <g style="fill: #262626" transform="translate(599.4425 150.607422) scale(0.1 -0.1)">
       <use xlink:href="#ArialMT-35"/>
      </g>
     </g>
    </g>
    <g id="ytick_13">
     <g id="line2d_26">
      <path d="M 612.003438 117.238282 
L 843.133438 117.238282 
" clip-path="url(#p496037dc29)" style="fill: none; stroke: #cccccc; stroke-width: 0.8; stroke-linecap: round"/>
     </g>
     <g id="text_33">
      <!-- 10 -->
      <g style="fill: #262626" transform="translate(593.881562 120.817189) scale(0.1 -0.1)">
       <use xlink:href="#ArialMT-31"/>
       <use xlink:href="#ArialMT-30" transform="translate(55.615234 0)"/>
      </g>
     </g>
    </g>
    <g id="ytick_14">
     <g id="line2d_27">
      <path d="M 612.003438 87.448049 
L 843.133438 87.448049 
" clip-path="url(#p496037dc29)" style="fill: none; stroke: #cccccc; stroke-width: 0.8; stroke-linecap: round"/>
     </g>
     <g id="text_34">
      <!-- 15 -->
      <g style="fill: #262626" transform="translate(593.881562 91.026955) scale(0.1 -0.1)">
       <use xlink:href="#ArialMT-31"/>
       <use xlink:href="#ArialMT-35" transform="translate(55.615234 0)"/>
      </g>
     </g>
    </g>
    <g id="ytick_15">
     <g id="line2d_28">
      <path d="M 612.003438 57.657815 
L 843.133438 57.657815 
" clip-path="url(#p496037dc29)" style="fill: none; stroke: #cccccc; stroke-width: 0.8; stroke-linecap: round"/>
     </g>
     <g id="text_35">
      <!-- 20 -->
      <g style="fill: #262626" transform="translate(593.881562 61.236721) scale(0.1 -0.1)">
       <use xlink:href="#ArialMT-32"/>
       <use xlink:href="#ArialMT-30" transform="translate(55.615234 0)"/>
      </g>
     </g>
    </g>
    <g id="text_36">
     <!-- Density -->
     <g style="fill: #262626" transform="translate(587.776875 130.0975) rotate(-90) scale(0.1 -0.1)">
      <use xlink:href="#ArialMT-44"/>
      <use xlink:href="#ArialMT-65" transform="translate(72.216797 0)"/>
      <use xlink:href="#ArialMT-6e" transform="translate(127.832031 0)"/>
      <use xlink:href="#ArialMT-73" transform="translate(183.447266 0)"/>
      <use xlink:href="#ArialMT-69" transform="translate(233.447266 0)"/>
      <use xlink:href="#ArialMT-74" transform="translate(255.664062 0)"/>
      <use xlink:href="#ArialMT-79" transform="translate(283.447266 0)"/>
     </g>
    </g>
   </g>
   <g id="FillBetweenPolyCollection_3">
    <defs>
     <path id="mae125306e1" d="M 622.509347 -37.952331 
L 622.509347 -36.607813 
L 623.565217 -36.607813 
L 624.621087 -36.607813 
L 625.676957 -36.607813 
L 626.732828 -36.607813 
L 627.788698 -36.607813 
L 628.844568 -36.607813 
L 629.900438 -36.607813 
L 630.956309 -36.607813 
L 632.012179 -36.607813 
L 633.068049 -36.607813 
L 634.123919 -36.607813 
L 635.17979 -36.607813 
L 636.23566 -36.607813 
L 637.29153 -36.607813 
L 638.3474 -36.607813 
L 639.403271 -36.607813 
L 640.459141 -36.607813 
L 641.515011 -36.607813 
L 642.570882 -36.607813 
L 643.626752 -36.607813 
L 644.682622 -36.607813 
L 645.738492 -36.607813 
L 646.794363 -36.607813 
L 647.850233 -36.607813 
L 648.906103 -36.607813 
L 649.961973 -36.607813 
L 651.017844 -36.607813 
L 652.073714 -36.607813 
L 653.129584 -36.607813 
L 654.185454 -36.607813 
L 655.241325 -36.607813 
L 656.297195 -36.607813 
L 657.353065 -36.607813 
L 658.408935 -36.607813 
L 659.464806 -36.607813 
L 660.520676 -36.607813 
L 661.576546 -36.607813 
L 662.632416 -36.607813 
L 663.688287 -36.607813 
L 664.744157 -36.607813 
L 665.800027 -36.607813 
L 666.855898 -36.607813 
L 667.911768 -36.607813 
L 668.967638 -36.607813 
L 670.023508 -36.607813 
L 671.079379 -36.607813 
L 672.135249 -36.607813 
L 673.191119 -36.607813 
L 674.246989 -36.607813 
L 675.30286 -36.607813 
L 676.35873 -36.607813 
L 677.4146 -36.607813 
L 678.47047 -36.607813 
L 679.526341 -36.607813 
L 680.582211 -36.607813 
L 681.638081 -36.607813 
L 682.693951 -36.607813 
L 683.749822 -36.607813 
L 684.805692 -36.607813 
L 685.861562 -36.607813 
L 686.917432 -36.607813 
L 687.973303 -36.607813 
L 689.029173 -36.607813 
L 690.085043 -36.607813 
L 691.140914 -36.607813 
L 692.196784 -36.607813 
L 693.252654 -36.607813 
L 694.308524 -36.607813 
L 695.364395 -36.607813 
L 696.420265 -36.607813 
L 697.476135 -36.607813 
L 698.532005 -36.607813 
L 699.587876 -36.607813 
L 700.643746 -36.607813 
L 701.699616 -36.607813 
L 702.755486 -36.607813 
L 703.811357 -36.607813 
L 704.867227 -36.607813 
L 705.923097 -36.607813 
L 706.978967 -36.607813 
L 708.034838 -36.607813 
L 709.090708 -36.607813 
L 710.146578 -36.607813 
L 711.202448 -36.607813 
L 712.258319 -36.607813 
L 713.314189 -36.607813 
L 714.370059 -36.607813 
L 715.42593 -36.607813 
L 716.4818 -36.607813 
L 717.53767 -36.607813 
L 718.59354 -36.607813 
L 719.649411 -36.607813 
L 720.705281 -36.607813 
L 721.761151 -36.607813 
L 722.817021 -36.607813 
L 723.872892 -36.607813 
L 724.928762 -36.607813 
L 725.984632 -36.607813 
L 727.040502 -36.607813 
L 728.096373 -36.607813 
L 729.152243 -36.607813 
L 730.208113 -36.607813 
L 731.263983 -36.607813 
L 732.319854 -36.607813 
L 733.375724 -36.607813 
L 734.431594 -36.607813 
L 735.487464 -36.607813 
L 736.543335 -36.607813 
L 737.599205 -36.607813 
L 738.655075 -36.607813 
L 739.710945 -36.607813 
L 740.766816 -36.607813 
L 741.822686 -36.607813 
L 742.878556 -36.607813 
L 743.934427 -36.607813 
L 744.990297 -36.607813 
L 746.046167 -36.607813 
L 747.102037 -36.607813 
L 748.157908 -36.607813 
L 749.213778 -36.607813 
L 750.269648 -36.607813 
L 751.325518 -36.607813 
L 752.381389 -36.607813 
L 753.437259 -36.607813 
L 754.493129 -36.607813 
L 755.548999 -36.607813 
L 756.60487 -36.607813 
L 757.66074 -36.607813 
L 758.71661 -36.607813 
L 759.77248 -36.607813 
L 760.828351 -36.607813 
L 761.884221 -36.607813 
L 762.940091 -36.607813 
L 763.995961 -36.607813 
L 765.051832 -36.607813 
L 766.107702 -36.607813 
L 767.163572 -36.607813 
L 768.219443 -36.607813 
L 769.275313 -36.607813 
L 770.331183 -36.607813 
L 771.387053 -36.607813 
L 772.442924 -36.607813 
L 773.498794 -36.607813 
L 774.554664 -36.607813 
L 775.610534 -36.607813 
L 776.666405 -36.607813 
L 777.722275 -36.607813 
L 778.778145 -36.607813 
L 779.834015 -36.607813 
L 780.889886 -36.607813 
L 781.945756 -36.607813 
L 783.001626 -36.607813 
L 784.057496 -36.607813 
L 785.113367 -36.607813 
L 786.169237 -36.607813 
L 787.225107 -36.607813 
L 788.280977 -36.607813 
L 789.336848 -36.607813 
L 790.392718 -36.607813 
L 791.448588 -36.607813 
L 792.504459 -36.607813 
L 793.560329 -36.607813 
L 794.616199 -36.607813 
L 795.672069 -36.607813 
L 796.72794 -36.607813 
L 797.78381 -36.607813 
L 798.83968 -36.607813 
L 799.89555 -36.607813 
L 800.951421 -36.607813 
L 802.007291 -36.607813 
L 803.063161 -36.607813 
L 804.119031 -36.607813 
L 805.174902 -36.607813 
L 806.230772 -36.607813 
L 807.286642 -36.607813 
L 808.342512 -36.607813 
L 809.398383 -36.607813 
L 810.454253 -36.607813 
L 811.510123 -36.607813 
L 812.565993 -36.607813 
L 813.621864 -36.607813 
L 814.677734 -36.607813 
L 815.733604 -36.607813 
L 816.789475 -36.607813 
L 817.845345 -36.607813 
L 818.901215 -36.607813 
L 819.957085 -36.607813 
L 821.012956 -36.607813 
L 822.068826 -36.607813 
L 823.124696 -36.607813 
L 824.180566 -36.607813 
L 825.236437 -36.607813 
L 826.292307 -36.607813 
L 827.348177 -36.607813 
L 828.404047 -36.607813 
L 829.459918 -36.607813 
L 830.515788 -36.607813 
L 831.571658 -36.607813 
L 832.627528 -36.607813 
L 832.627528 -36.612081 
L 832.627528 -36.612081 
L 831.571658 -36.615639 
L 830.515788 -36.621548 
L 829.459918 -36.630884 
L 828.404047 -36.644903 
L 827.348177 -36.664882 
L 826.292307 -36.691855 
L 825.236437 -36.726265 
L 824.180566 -36.7676 
L 823.124696 -36.814111 
L 822.068826 -36.862732 
L 821.012956 -36.909297 
L 819.957085 -36.949068 
L 818.901215 -36.977512 
L 817.845345 -36.991142 
L 816.789475 -36.98822 
L 815.733604 -36.969123 
L 814.677734 -36.93626 
L 813.621864 -36.893576 
L 812.565993 -36.845773 
L 811.510123 -36.797469 
L 810.454253 -36.752497 
L 809.398383 -36.713485 
L 808.342512 -36.681755 
L 807.286642 -36.657498 
L 806.230772 -36.640123 
L 805.174902 -36.62865 
L 804.119031 -36.622084 
L 803.063161 -36.619686 
L 802.007291 -36.621149 
L 800.951421 -36.626664 
L 799.89555 -36.636877 
L 798.83968 -36.652743 
L 797.78381 -36.675276 
L 796.72794 -36.705198 
L 795.672069 -36.742539 
L 794.616199 -36.786273 
L 793.560329 -36.834087 
L 792.504459 -36.882411 
L 791.448588 -36.92676 
L 790.392718 -36.962377 
L 789.336848 -36.98506 
L 788.280977 -36.991972 
L 787.225107 -36.982225 
L 786.169237 -36.957068 
L 785.113367 -36.919622 
L 784.057496 -36.874247 
L 783.001626 -36.825707 
L 781.945756 -36.778366 
L 780.889886 -36.735587 
L 779.834015 -36.699443 
L 778.778145 -36.670733 
L 777.722275 -36.649234 
L 776.666405 -36.634066 
L 775.610534 -36.624075 
L 774.554664 -36.618143 
L 773.498794 -36.615419 
L 772.442924 -36.615448 
L 771.387053 -36.618235 
L 770.331183 -36.624244 
L 769.275313 -36.634334 
L 768.219443 -36.649626 
L 767.163572 -36.671272 
L 766.107702 -36.700143 
L 765.051832 -36.736443 
L 763.995961 -36.779346 
L 762.940091 -36.826753 
L 761.884221 -36.875273 
L 760.828351 -36.920528 
L 759.77248 -36.957753 
L 758.71661 -36.982608 
L 757.66074 -36.992007 
L 756.60487 -36.984753 
L 755.548999 -36.961789 
L 754.493129 -36.926011 
L 753.437259 -36.881688 
L 752.381389 -36.833669 
L 751.325518 -36.786582 
L 750.269648 -36.744238 
L 749.213778 -36.70934 
L 748.157908 -36.683504 
L 747.102037 -36.667511 
L 746.046167 -36.661639 
L 744.990297 -36.665948 
L 743.934427 -36.680398 
L 742.878556 -36.704757 
L 741.822686 -36.738344 
L 740.766816 -36.779691 
L 739.710945 -36.826272 
L 738.655075 -36.874434 
L 737.599205 -36.919642 
L 736.543335 -36.957033 
L 735.487464 -36.982196 
L 734.431594 -36.991977 
L 733.375724 -36.985109 
L 732.319854 -36.962469 
L 731.263983 -36.926884 
L 730.208113 -36.882553 
L 729.152243 -36.83423 
L 728.096373 -36.786401 
L 727.040502 -36.742631 
L 725.984632 -36.705222 
L 724.928762 -36.675174 
L 723.872892 -36.652398 
L 722.817021 -36.636062 
L 721.761151 -36.624956 
L 720.705281 -36.617802 
L 719.649411 -36.613459 
L 718.59354 -36.611036 
L 717.53767 -36.609935 
L 716.4818 -36.609844 
L 715.42593 -36.610738 
L 714.370059 -36.612871 
L 713.314189 -36.616788 
L 712.258319 -36.623325 
L 711.202448 -36.633581 
L 710.146578 -36.648821 
L 709.090708 -36.670289 
L 708.034838 -36.698916 
L 706.978967 -36.734962 
L 705.923097 -36.777656 
L 704.867227 -36.82495 
L 703.811357 -36.873504 
L 702.755486 -36.918965 
L 701.699616 -36.956569 
L 700.643746 -36.981945 
L 699.587876 -36.991947 
L 698.532005 -36.985293 
L 697.476135 -36.962838 
L 696.420265 -36.927392 
L 695.364395 -36.883142 
L 694.308524 -36.83484 
L 693.252654 -36.78698 
L 692.196784 -36.743143 
L 691.140914 -36.705645 
L 690.085043 -36.675503 
L 689.029173 -36.652638 
L 687.973303 -36.636223 
L 686.917432 -36.625046 
L 685.861562 -36.617818 
L 684.805692 -36.613372 
L 683.749822 -36.610769 
L 682.693951 -36.609317 
L 681.638081 -36.608546 
L 680.582211 -36.608154 
L 679.526341 -36.607965 
L 678.47047 -36.607878 
L 677.4146 -36.607839 
L 676.35873 -36.607823 
L 675.30286 -36.607816 
L 674.246989 -36.607814 
L 673.191119 -36.607813 
L 672.135249 -36.607813 
L 671.079379 -36.607813 
L 670.023508 -36.607813 
L 668.967638 -36.607813 
L 667.911768 -36.607814 
L 666.855898 -36.607819 
L 665.800027 -36.607833 
L 664.744157 -36.607876 
L 663.688287 -36.608005 
L 662.632416 -36.608369 
L 661.576546 -36.60935 
L 660.520676 -36.611878 
L 659.464806 -36.618103 
L 658.408935 -36.63274 
L 657.353065 -36.665605 
L 656.297195 -36.736052 
L 655.241325 -36.880163 
L 654.185454 -37.161403 
L 653.129584 -37.684779 
L 652.073714 -38.61307 
L 651.017844 -40.181297 
L 649.961973 -42.702727 
L 648.906103 -46.557221 
L 647.850233 -52.152458 
L 646.794363 -59.852211 
L 645.738492 -69.874514 
L 644.682622 -82.175303 
L 643.626752 -96.346326 
L 642.570882 -111.564027 
L 641.515011 -126.622798 
L 640.459141 -140.068635 
L 639.403271 -150.420576 
L 638.3474 -156.436263 
L 637.29153 -157.356622 
L 636.23566 -153.063233 
L 635.17979 -144.103363 
L 634.123919 -131.575357 
L 633.068049 -116.907502 
L 632.012179 -101.591815 
L 630.956309 -86.940831 
L 629.900438 -73.920235 
L 628.844568 -63.081098 
L 627.788698 -54.584769 
L 626.732828 -48.29146 
L 625.676957 -43.875473 
L 624.621087 -40.934592 
L 623.565217 -39.073221 
L 622.509347 -37.952331 
z
" style="stroke: #1f77b4"/>
    </defs>
    <g clip-path="url(#p496037dc29)">
     <use xlink:href="#mae125306e1" x="0" y="213.426563" style="fill: #1f77b4; fill-opacity: 0.25; stroke: #1f77b4"/>
    </g>
   </g>
   <g id="patch_13">
    <path d="M 612.003438 176.81875 
L 612.003438 50.0325 
" style="fill: none; stroke: #cccccc; stroke-width: 0.8; stroke-linejoin: miter; stroke-linecap: square"/>
   </g>
   <g id="patch_14">
    <path d="M 843.133438 176.81875 
L 843.133438 50.0325 
" style="fill: none; stroke: #cccccc; stroke-width: 0.8; stroke-linejoin: miter; stroke-linecap: square"/>
   </g>
   <g id="patch_15">
    <path d="M 612.003438 176.81875 
L 843.133438 176.81875 
" style="fill: none; stroke: #cccccc; stroke-width: 0.8; stroke-linejoin: miter; stroke-linecap: square"/>
   </g>
   <g id="patch_16">
    <path d="M 612.003438 50.0325 
L 843.133438 50.0325 
" style="fill: none; stroke: #cccccc; stroke-width: 0.8; stroke-linejoin: miter; stroke-linecap: square"/>
   </g>
   <g id="text_37">
    <!-- Error rate dist -->
    <g style="fill: #262626" transform="translate(691.228125 44.0325) scale(0.12 -0.12)">
     <defs>
      <path id="ArialMT-45" d="M 506 0 
L 506 4581 
L 3819 4581 
L 3819 4041 
L 1113 4041 
L 1113 2638 
L 3647 2638 
L 3647 2100 
L 1113 2100 
L 1113 541 
L 3925 541 
L 3925 0 
L 506 0 
z
" transform="scale(0.015625)"/>
     </defs>
     <use xlink:href="#ArialMT-45"/>
     <use xlink:href="#ArialMT-72" transform="translate(66.699219 0)"/>
     <use xlink:href="#ArialMT-72" transform="translate(100 0)"/>
     <use xlink:href="#ArialMT-6f" transform="translate(133.300781 0)"/>
     <use xlink:href="#ArialMT-72" transform="translate(188.916016 0)"/>
     <use xlink:href="#ArialMT-20" transform="translate(222.216797 0)"/>
     <use xlink:href="#ArialMT-72" transform="translate(250 0)"/>
     <use xlink:href="#ArialMT-61" transform="translate(283.300781 0)"/>
     <use xlink:href="#ArialMT-74" transform="translate(338.916016 0)"/>
     <use xlink:href="#ArialMT-65" transform="translate(366.699219 0)"/>
     <use xlink:href="#ArialMT-20" transform="translate(422.314453 0)"/>
     <use xlink:href="#ArialMT-64" transform="translate(450.097656 0)"/>
     <use xlink:href="#ArialMT-69" transform="translate(505.712891 0)"/>
     <use xlink:href="#ArialMT-73" transform="translate(527.929688 0)"/>
     <use xlink:href="#ArialMT-74" transform="translate(577.929688 0)"/>
    </g>
   </g>
  </g>
  <g id="text_38">
   <!-- Distributions  search-filter-paginate -->
   <g style="fill: #262626" transform="translate(323.2325 15.935625) scale(0.12 -0.12)">
    <defs>
     <path id="ArialMT-62" d="M 941 0 
L 419 0 
L 419 4581 
L 981 4581 
L 981 2947 
Q 1338 3394 1891 3394 
Q 2197 3394 2470 3270 
Q 2744 3147 2920 2923 
Q 3097 2700 3197 2384 
Q 3297 2069 3297 1709 
Q 3297 856 2875 390 
Q 2453 -75 1863 -75 
Q 1275 -75 941 416 
L 941 0 
z
M 934 1684 
Q 934 1088 1097 822 
Q 1363 388 1816 388 
Q 2184 388 2453 708 
Q 2722 1028 2722 1663 
Q 2722 2313 2464 2622 
Q 2206 2931 1841 2931 
Q 1472 2931 1203 2611 
Q 934 2291 934 1684 
z
" transform="scale(0.015625)"/>
     <path id="ArialMT-2014" d="M 0 1431 
L 0 1884 
L 6400 1884 
L 6400 1431 
L 0 1431 
z
" transform="scale(0.015625)"/>
     <path id="ArialMT-2d" d="M 203 1375 
L 203 1941 
L 1931 1941 
L 1931 1375 
L 203 1375 
z
" transform="scale(0.015625)"/>
     <path id="ArialMT-66" d="M 556 0 
L 556 2881 
L 59 2881 
L 59 3319 
L 556 3319 
L 556 3672 
Q 556 4006 616 4169 
Q 697 4388 901 4523 
Q 1106 4659 1475 4659 
Q 1713 4659 2000 4603 
L 1916 4113 
Q 1741 4144 1584 4144 
Q 1328 4144 1222 4034 
Q 1116 3925 1116 3625 
L 1116 3319 
L 1763 3319 
L 1763 2881 
L 1116 2881 
L 1116 0 
L 556 0 
z
" transform="scale(0.015625)"/>
    </defs>
    <use xlink:href="#ArialMT-44"/>
    <use xlink:href="#ArialMT-69" transform="translate(72.216797 0)"/>
    <use xlink:href="#ArialMT-73" transform="translate(94.433594 0)"/>
    <use xlink:href="#ArialMT-74" transform="translate(144.433594 0)"/>
    <use xlink:href="#ArialMT-72" transform="translate(172.216797 0)"/>
    <use xlink:href="#ArialMT-69" transform="translate(205.517578 0)"/>
    <use xlink:href="#ArialMT-62" transform="translate(227.734375 0)"/>
    <use xlink:href="#ArialMT-75" transform="translate(283.349609 0)"/>
    <use xlink:href="#ArialMT-74" transform="translate(338.964844 0)"/>
    <use xlink:href="#ArialMT-69" transform="translate(366.748047 0)"/>
    <use xlink:href="#ArialMT-6f" transform="translate(388.964844 0)"/>
    <use xlink:href="#ArialMT-6e" transform="translate(444.580078 0)"/>
    <use xlink:href="#ArialMT-73" transform="translate(500.195312 0)"/>
    <use xlink:href="#ArialMT-20" transform="translate(550.195312 0)"/>
    <use xlink:href="#ArialMT-2014" transform="translate(577.978516 0)"/>
    <use xlink:href="#ArialMT-20" transform="translate(677.978516 0)"/>
    <use xlink:href="#ArialMT-73" transform="translate(705.761719 0)"/>
    <use xlink:href="#ArialMT-65" transform="translate(755.761719 0)"/>
    <use xlink:href="#ArialMT-61" transform="translate(811.376953 0)"/>
    <use xlink:href="#ArialMT-72" transform="translate(866.992188 0)"/>
    <use xlink:href="#ArialMT-63" transform="translate(900.292969 0)"/>
    <use xlink:href="#ArialMT-68" transform="translate(950.292969 0)"/>
    <use xlink:href="#ArialMT-2d" transform="translate(1005.908203 0)"/>
    <use xlink:href="#ArialMT-66" transform="translate(1039.208984 0)"/>
    <use xlink:href="#ArialMT-69" transform="translate(1066.992188 0)"/>
    <use xlink:href="#ArialMT-6c" transform="translate(1089.208984 0)"/>
    <use xlink:href="#ArialMT-74" transform="translate(1111.425781 0)"/>
    <use xlink:href="#ArialMT-65" transform="translate(1139.208984 0)"/>
    <use xlink:href="#ArialMT-72" transform="translate(1194.824219 0)"/>
    <use xlink:href="#ArialMT-2d" transform="translate(1228.125 0)"/>
    <use xlink:href="#ArialMT-70" transform="translate(1261.425781 0)"/>
    <use xlink:href="#ArialMT-61" transform="translate(1317.041016 0)"/>
    <use xlink:href="#ArialMT-67" transform="translate(1372.65625 0)"/>
    <use xlink:href="#ArialMT-69" transform="translate(1428.271484 0)"/>
    <use xlink:href="#ArialMT-6e" transform="translate(1450.488281 0)"/>
    <use xlink:href="#ArialMT-61" transform="translate(1506.103516 0)"/>
    <use xlink:href="#ArialMT-74" transform="translate(1561.71875 0)"/>
    <use xlink:href="#ArialMT-65" transform="translate(1589.501953 0)"/>
   </g>
  </g>
 </g>
 <defs>
  <clipPath id="p381304d536">
   <rect x="46.923438" y="50.0325" width="231.13" height="126.78625"/>
  </clipPath>
  <clipPath id="paef788591f">
   <rect x="329.463438" y="50.0325" width="231.13" height="126.78625"/>
  </clipPath>
  <clipPath id="p496037dc29">
   <rect x="612.003438" y="50.0325" width="231.13" height="126.78625"/>
  </clipPath>
 </defs>
</svg>
