<?xml version="1.0" encoding="utf-8" standalone="no"?>
<!DOCTYPE svg PUBLIC "-//W3C//DTD SVG 1.1//EN"
  "http://www.w3.org/Graphics/SVG/1.1/DTD/svg11.dtd">
<svg xmlns:xlink="http://www.w3.org/1999/xlink" width="553.545313pt" height="280.18625pt" viewBox="0 0 553.545313 280.18625" xmlns="http://www.w3.org/2000/svg" version="1.1">
 <metadata>
  <rdf:RDF xmlns:dc="http://purl.org/dc/elements/1.1/" xmlns:cc="http://creativecommons.org/ns#" xmlns:rdf="http://www.w3.org/1999/02/22-rdf-syntax-ns#">
   <cc:Work>
    <dc:type rdf:resource="http://purl.org/dc/dcmitype/StillImage"/>
    <dc:date>2025-11-12T15:39:14.069112</dc:date>
    <dc:format>image/svg+xml</dc:format>
    <dc:creator>
     <cc:Agent>
      <dc:title>Matplotlib v3.10.7, https://matplotlib.org/</dc:title>
     </cc:Agent>
    </dc:creator>
   </cc:Work>
  </rdf:RDF>
 </metadata>
 <defs>
  <style type="text/css">*{stroke-linejoin: round; stroke-linecap: butt}</style>
 </defs>
 <g id="figure_1">
  <g id="patch_1">
   <path d="M 0 280.18625 
L 553.545313 280.18625 
L 553.545313 0 
L 0 0 
z
" style="fill: #ffffff"/>
  </g>
  <g id="axes_1">
   <g id="patch_2">
    <path d="M 44.145313 243.695625 
L 546.345313 243.695625 
L 546.345313 21.935625 
L 44.145313 21.935625 
z
" style="fill: #ffffff"/>
   </g>
   <g id="matplotlib.axis_1">
    <g id="xtick_1">
     <g id="line2d_1">
      <path d="M 66.972585 243.695625 
L 66.972585 21.935625 
" clip-path="url(#p9d5b7f9507)" style="fill: none; stroke: #cccccc; stroke-width: 0.8; stroke-linecap: round"/>
     </g>
     <g id="text_1">
      <!-- 0 -->
      <g style="fill: #262626" transform="translate(64.192116 257.853437) scale(0.1 -0.1)">
       <defs>
        <path id="ArialMT-30" d="M 266 2259 
Q 266 3072 433 3567 
Q 600 4063 929 4331 
Q 1259 4600 1759 4600 
Q 2128 4600 2406 4451 
Q 2684 4303 2865 4023 
Q 3047 3744 3150 3342 
Q 3253 2941 3253 2259 
Q 3253 1453 3087 958 
Q 2922 463 2592 192 
Q 2263 -78 1759 -78 
Q 1097 -78 719 397 
Q 266 969 266 2259 
z
M 844 2259 
Q 844 1131 1108 757 
Q 1372 384 1759 384 
Q 2147 384 2411 759 
Q 2675 1134 2675 2259 
Q 2675 3391 2411 3762 
Q 2147 4134 1753 4134 
Q 1366 4134 1134 3806 
Q 844 3388 844 2259 
z
" transform="scale(0.015625)"/>
       </defs>
       <use xlink:href="#ArialMT-30"/>
      </g>
     </g>
    </g>
    <g id="xtick_2">
     <g id="line2d_2">
      <path d="M 138.307813 243.695625 
L 138.307813 21.935625 
" clip-path="url(#p9d5b7f9507)" style="fill: none; stroke: #cccccc; stroke-width: 0.8; stroke-linecap: round"/>
     </g>
     <g id="text_2">
      <!-- 50 -->
      <g style="fill: #262626" transform="translate(132.746875 257.853437) scale(0.1 -0.1)">
       <defs>
        <path id="ArialMT-35" d="M 266 1200 
L 856 1250 
Q 922 819 1161 601 
Q 1400 384 1738 384 
Q 2144 384 2425 690 
Q 2706 997 2706 1503 
Q 2706 1984 2436 2262 
Q 2166 2541 1728 2541 
Q 1456 2541 1237 2417 
Q 1019 2294 894 2097 
L 366 2166 
L 809 4519 
L 3088 4519 
L 3088 3981 
L 1259 3981 
L 1013 2750 
Q 1425 3038 1878 3038 
Q 2478 3038 2890 2622 
Q 3303 2206 3303 1553 
Q 3303 931 2941 478 
Q 2500 -78 1738 -78 
Q 1113 -78 717 272 
Q 322 622 266 1200 
z
" transform="scale(0.015625)"/>
       </defs>
       <use xlink:href="#ArialMT-35"/>
       <use xlink:href="#ArialMT-30" transform="translate(55.615234 0)"/>
      </g>
     </g>
    </g>
    <g id="xtick_3">
     <g id="line2d_3">
      <path d="M 209.64304 243.695625 
L 209.64304 21.935625 
" clip-path="url(#p9d5b7f9507)" style="fill: none; stroke: #cccccc; stroke-width: 0.8; stroke-linecap: round"/>
     </g>
     <g id="text_3">
      <!-- 100 -->
      <g style="fill: #262626" transform="translate(201.301634 257.853437) scale(0.1 -0.1)">
       <defs>
        <path id="ArialMT-31" d="M 2384 0 
L 1822 0 
L 1822 3584 
Q 1619 3391 1289 3197 
Q 959 3003 697 2906 
L 697 3450 
Q 1169 3672 1522 3987 
Q 1875 4303 2022 4600 
L 2384 4600 
L 2384 0 
z
" transform="scale(0.015625)"/>
       </defs>
       <use xlink:href="#ArialMT-31"/>
       <use xlink:href="#ArialMT-30" transform="translate(55.615234 0)"/>
       <use xlink:href="#ArialMT-30" transform="translate(111.230469 0)"/>
      </g>
     </g>
    </g>
    <g id="xtick_4">
     <g id="line2d_4">
      <path d="M 280.978267 243.695625 
L 280.978267 21.935625 
" clip-path="url(#p9d5b7f9507)" style="fill: none; stroke: #cccccc; stroke-width: 0.8; stroke-linecap: round"/>
     </g>
     <g id="text_4">
      <!-- 150 -->
      <g style="fill: #262626" transform="translate(272.636861 257.853437) scale(0.1 -0.1)">
       <use xlink:href="#ArialMT-31"/>
       <use xlink:href="#ArialMT-35" transform="translate(55.615234 0)"/>
       <use xlink:href="#ArialMT-30" transform="translate(111.230469 0)"/>
      </g>
     </g>
    </g>
    <g id="xtick_5">
     <g id="line2d_5">
      <path d="M 352.313494 243.695625 
L 352.313494 21.935625 
" clip-path="url(#p9d5b7f9507)" style="fill: none; stroke: #cccccc; stroke-width: 0.8; stroke-linecap: round"/>
     </g>
     <g id="text_5">
      <!-- 200 -->
      <g style="fill: #262626" transform="translate(343.972088 257.853437) scale(0.1 -0.1)">
       <defs>
        <path id="ArialMT-32" d="M 3222 541 
L 3222 0 
L 194 0 
Q 188 203 259 391 
Q 375 700 629 1000 
Q 884 1300 1366 1694 
Q 2113 2306 2375 2664 
Q 2638 3022 2638 3341 
Q 2638 3675 2398 3904 
Q 2159 4134 1775 4134 
Q 1369 4134 1125 3890 
Q 881 3647 878 3216 
L 300 3275 
Q 359 3922 746 4261 
Q 1134 4600 1788 4600 
Q 2447 4600 2831 4234 
Q 3216 3869 3216 3328 
Q 3216 3053 3103 2787 
Q 2991 2522 2730 2228 
Q 2469 1934 1863 1422 
Q 1356 997 1212 845 
Q 1069 694 975 541 
L 3222 541 
z
" transform="scale(0.015625)"/>
       </defs>
       <use xlink:href="#ArialMT-32"/>
       <use xlink:href="#ArialMT-30" transform="translate(55.615234 0)"/>
       <use xlink:href="#ArialMT-30" transform="translate(111.230469 0)"/>
      </g>
     </g>
    </g>
    <g id="xtick_6">
     <g id="line2d_6">
      <path d="M 423.648722 243.695625 
L 423.648722 21.935625 
" clip-path="url(#p9d5b7f9507)" style="fill: none; stroke: #cccccc; stroke-width: 0.8; stroke-linecap: round"/>
     </g>
     <g id="text_6">
      <!-- 250 -->
      <g style="fill: #262626" transform="translate(415.307315 257.853437) scale(0.1 -0.1)">
       <use xlink:href="#ArialMT-32"/>
       <use xlink:href="#ArialMT-35" transform="translate(55.615234 0)"/>
       <use xlink:href="#ArialMT-30" transform="translate(111.230469 0)"/>
      </g>
     </g>
    </g>
    <g id="xtick_7">
     <g id="line2d_7">
      <path d="M 494.983949 243.695625 
L 494.983949 21.935625 
" clip-path="url(#p9d5b7f9507)" style="fill: none; stroke: #cccccc; stroke-width: 0.8; stroke-linecap: round"/>
     </g>
     <g id="text_7">
      <!-- 300 -->
      <g style="fill: #262626" transform="translate(486.642543 257.853437) scale(0.1 -0.1)">
       <defs>
        <path id="ArialMT-33" d="M 269 1209 
L 831 1284 
Q 928 806 1161 595 
Q 1394 384 1728 384 
Q 2125 384 2398 659 
Q 2672 934 2672 1341 
Q 2672 1728 2419 1979 
Q 2166 2231 1775 2231 
Q 1616 2231 1378 2169 
L 1441 2663 
Q 1497 2656 1531 2656 
Q 1891 2656 2178 2843 
Q 2466 3031 2466 3422 
Q 2466 3731 2256 3934 
Q 2047 4138 1716 4138 
Q 1388 4138 1169 3931 
Q 950 3725 888 3313 
L 325 3413 
Q 428 3978 793 4289 
Q 1159 4600 1703 4600 
Q 2078 4600 2393 4439 
Q 2709 4278 2876 4000 
Q 3044 3722 3044 3409 
Q 3044 3113 2884 2869 
Q 2725 2625 2413 2481 
Q 2819 2388 3044 2092 
Q 3269 1797 3269 1353 
Q 3269 753 2831 336 
Q 2394 -81 1725 -81 
Q 1122 -81 723 278 
Q 325 638 269 1209 
z
" transform="scale(0.015625)"/>
       </defs>
       <use xlink:href="#ArialMT-33"/>
       <use xlink:href="#ArialMT-30" transform="translate(55.615234 0)"/>
       <use xlink:href="#ArialMT-30" transform="translate(111.230469 0)"/>
      </g>
     </g>
    </g>
    <g id="text_8">
     <!-- t [s] -->
     <g style="fill: #262626" transform="translate(287.189063 270.99875) scale(0.1 -0.1)">
      <defs>
       <path id="ArialMT-74" d="M 1650 503 
L 1731 6 
Q 1494 -44 1306 -44 
Q 1000 -44 831 53 
Q 663 150 594 308 
Q 525 466 525 972 
L 525 2881 
L 113 2881 
L 113 3319 
L 525 3319 
L 525 4141 
L 1084 4478 
L 1084 3319 
L 1650 3319 
L 1650 2881 
L 1084 2881 
L 1084 941 
Q 1084 700 1114 631 
Q 1144 563 1211 522 
Q 1278 481 1403 481 
Q 1497 481 1650 503 
z
" transform="scale(0.015625)"/>
       <path id="ArialMT-20" transform="scale(0.015625)"/>
       <path id="ArialMT-5b" d="M 434 -1272 
L 434 4581 
L 1675 4581 
L 1675 4116 
L 997 4116 
L 997 -806 
L 1675 -806 
L 1675 -1272 
L 434 -1272 
z
" transform="scale(0.015625)"/>
       <path id="ArialMT-73" d="M 197 991 
L 753 1078 
Q 800 744 1014 566 
Q 1228 388 1613 388 
Q 2000 388 2187 545 
Q 2375 703 2375 916 
Q 2375 1106 2209 1216 
Q 2094 1291 1634 1406 
Q 1016 1563 777 1677 
Q 538 1791 414 1992 
Q 291 2194 291 2438 
Q 291 2659 392 2848 
Q 494 3038 669 3163 
Q 800 3259 1026 3326 
Q 1253 3394 1513 3394 
Q 1903 3394 2198 3281 
Q 2494 3169 2634 2976 
Q 2775 2784 2828 2463 
L 2278 2388 
Q 2241 2644 2061 2787 
Q 1881 2931 1553 2931 
Q 1166 2931 1000 2803 
Q 834 2675 834 2503 
Q 834 2394 903 2306 
Q 972 2216 1119 2156 
Q 1203 2125 1616 2013 
Q 2213 1853 2448 1751 
Q 2684 1650 2818 1456 
Q 2953 1263 2953 975 
Q 2953 694 2789 445 
Q 2625 197 2315 61 
Q 2006 -75 1616 -75 
Q 969 -75 630 194 
Q 291 463 197 991 
z
" transform="scale(0.015625)"/>
       <path id="ArialMT-5d" d="M 1363 -1272 
L 122 -1272 
L 122 -806 
L 800 -806 
L 800 4116 
L 122 4116 
L 122 4581 
L 1363 4581 
L 1363 -1272 
z
" transform="scale(0.015625)"/>
      </defs>
      <use xlink:href="#ArialMT-74"/>
      <use xlink:href="#ArialMT-20" transform="translate(27.783203 0)"/>
      <use xlink:href="#ArialMT-5b" transform="translate(55.566406 0)"/>
      <use xlink:href="#ArialMT-73" transform="translate(83.349609 0)"/>
      <use xlink:href="#ArialMT-5d" transform="translate(133.349609 0)"/>
     </g>
    </g>
   </g>
   <g id="matplotlib.axis_2">
    <g id="ytick_1">
     <g id="line2d_8">
      <path d="M 44.145313 235.220186 
L 546.345313 235.220186 
" clip-path="url(#p9d5b7f9507)" style="fill: none; stroke: #cccccc; stroke-width: 0.8; stroke-linecap: round"/>
     </g>
     <g id="text_9">
      <!-- 120 -->
      <g style="fill: #262626" transform="translate(20.4625 238.799092) scale(0.1 -0.1)">
       <use xlink:href="#ArialMT-31"/>
       <use xlink:href="#ArialMT-32" transform="translate(55.615234 0)"/>
       <use xlink:href="#ArialMT-30" transform="translate(111.230469 0)"/>
      </g>
     </g>
    </g>
    <g id="ytick_2">
     <g id="line2d_9">
      <path d="M 44.145313 195.592366 
L 546.345313 195.592366 
" clip-path="url(#p9d5b7f9507)" style="fill: none; stroke: #cccccc; stroke-width: 0.8; stroke-linecap: round"/>
     </g>
     <g id="text_10">
      <!-- 130 -->
      <g style="fill: #262626" transform="translate(20.4625 199.171272) scale(0.1 -0.1)">
       <use xlink:href="#ArialMT-31"/>
       <use xlink:href="#ArialMT-33" transform="translate(55.615234 0)"/>
       <use xlink:href="#ArialMT-30" transform="translate(111.230469 0)"/>
      </g>
     </g>
    </g>
    <g id="ytick_3">
     <g id="line2d_10">
      <path d="M 44.145313 155.964546 
L 546.345313 155.964546 
" clip-path="url(#p9d5b7f9507)" style="fill: none; stroke: #cccccc; stroke-width: 0.8; stroke-linecap: round"/>
     </g>
     <g id="text_11">
      <!-- 140 -->
      <g style="fill: #262626" transform="translate(20.4625 159.543452) scale(0.1 -0.1)">
       <defs>
        <path id="ArialMT-34" d="M 2069 0 
L 2069 1097 
L 81 1097 
L 81 1613 
L 2172 4581 
L 2631 4581 
L 2631 1613 
L 3250 1613 
L 3250 1097 
L 2631 1097 
L 2631 0 
L 2069 0 
z
M 2069 1613 
L 2069 3678 
L 634 1613 
L 2069 1613 
z
" transform="scale(0.015625)"/>
       </defs>
       <use xlink:href="#ArialMT-31"/>
       <use xlink:href="#ArialMT-34" transform="translate(55.615234 0)"/>
       <use xlink:href="#ArialMT-30" transform="translate(111.230469 0)"/>
      </g>
     </g>
    </g>
    <g id="ytick_4">
     <g id="line2d_11">
      <path d="M 44.145313 116.336726 
L 546.345313 116.336726 
" clip-path="url(#p9d5b7f9507)" style="fill: none; stroke: #cccccc; stroke-width: 0.8; stroke-linecap: round"/>
     </g>
     <g id="text_12">
      <!-- 150 -->
      <g style="fill: #262626" transform="translate(20.4625 119.915632) scale(0.1 -0.1)">
       <use xlink:href="#ArialMT-31"/>
       <use xlink:href="#ArialMT-35" transform="translate(55.615234 0)"/>
       <use xlink:href="#ArialMT-30" transform="translate(111.230469 0)"/>
      </g>
     </g>
    </g>
    <g id="ytick_5">
     <g id="line2d_12">
      <path d="M 44.145313 76.708906 
L 546.345313 76.708906 
" clip-path="url(#p9d5b7f9507)" style="fill: none; stroke: #cccccc; stroke-width: 0.8; stroke-linecap: round"/>
     </g>
     <g id="text_13">
      <!-- 160 -->
      <g style="fill: #262626" transform="translate(20.4625 80.287813) scale(0.1 -0.1)">
       <defs>
        <path id="ArialMT-36" d="M 3184 3459 
L 2625 3416 
Q 2550 3747 2413 3897 
Q 2184 4138 1850 4138 
Q 1581 4138 1378 3988 
Q 1113 3794 959 3422 
Q 806 3050 800 2363 
Q 1003 2672 1297 2822 
Q 1591 2972 1913 2972 
Q 2475 2972 2870 2558 
Q 3266 2144 3266 1488 
Q 3266 1056 3080 686 
Q 2894 316 2569 119 
Q 2244 -78 1831 -78 
Q 1128 -78 684 439 
Q 241 956 241 2144 
Q 241 3472 731 4075 
Q 1159 4600 1884 4600 
Q 2425 4600 2770 4297 
Q 3116 3994 3184 3459 
z
M 888 1484 
Q 888 1194 1011 928 
Q 1134 663 1356 523 
Q 1578 384 1822 384 
Q 2178 384 2434 671 
Q 2691 959 2691 1453 
Q 2691 1928 2437 2201 
Q 2184 2475 1800 2475 
Q 1419 2475 1153 2201 
Q 888 1928 888 1484 
z
" transform="scale(0.015625)"/>
       </defs>
       <use xlink:href="#ArialMT-31"/>
       <use xlink:href="#ArialMT-36" transform="translate(55.615234 0)"/>
       <use xlink:href="#ArialMT-30" transform="translate(111.230469 0)"/>
      </g>
     </g>
    </g>
    <g id="ytick_6">
     <g id="line2d_13">
      <path d="M 44.145313 37.081087 
L 546.345313 37.081087 
" clip-path="url(#p9d5b7f9507)" style="fill: none; stroke: #cccccc; stroke-width: 0.8; stroke-linecap: round"/>
     </g>
     <g id="text_14">
      <!-- 170 -->
      <g style="fill: #262626" transform="translate(20.4625 40.659993) scale(0.1 -0.1)">
       <defs>
        <path id="ArialMT-37" d="M 303 3981 
L 303 4522 
L 3269 4522 
L 3269 4084 
Q 2831 3619 2401 2847 
Q 1972 2075 1738 1259 
Q 1569 684 1522 0 
L 944 0 
Q 953 541 1156 1306 
Q 1359 2072 1739 2783 
Q 2119 3494 2547 3981 
L 303 3981 
z
" transform="scale(0.015625)"/>
       </defs>
       <use xlink:href="#ArialMT-31"/>
       <use xlink:href="#ArialMT-37" transform="translate(55.615234 0)"/>
       <use xlink:href="#ArialMT-30" transform="translate(111.230469 0)"/>
      </g>
     </g>
    </g>
    <g id="text_15">
     <!-- latency [ms] -->
     <g style="fill: #262626" transform="translate(14.357812 159.489062) rotate(-90) scale(0.1 -0.1)">
      <defs>
       <path id="ArialMT-6c" d="M 409 0 
L 409 4581 
L 972 4581 
L 972 0 
L 409 0 
z
" transform="scale(0.015625)"/>
       <path id="ArialMT-61" d="M 2588 409 
Q 2275 144 1986 34 
Q 1697 -75 1366 -75 
Q 819 -75 525 192 
Q 231 459 231 875 
Q 231 1119 342 1320 
Q 453 1522 633 1644 
Q 813 1766 1038 1828 
Q 1203 1872 1538 1913 
Q 2219 1994 2541 2106 
Q 2544 2222 2544 2253 
Q 2544 2597 2384 2738 
Q 2169 2928 1744 2928 
Q 1347 2928 1158 2789 
Q 969 2650 878 2297 
L 328 2372 
Q 403 2725 575 2942 
Q 747 3159 1072 3276 
Q 1397 3394 1825 3394 
Q 2250 3394 2515 3294 
Q 2781 3194 2906 3042 
Q 3031 2891 3081 2659 
Q 3109 2516 3109 2141 
L 3109 1391 
Q 3109 606 3145 398 
Q 3181 191 3288 0 
L 2700 0 
Q 2613 175 2588 409 
z
M 2541 1666 
Q 2234 1541 1622 1453 
Q 1275 1403 1131 1340 
Q 988 1278 909 1158 
Q 831 1038 831 891 
Q 831 666 1001 516 
Q 1172 366 1500 366 
Q 1825 366 2078 508 
Q 2331 650 2450 897 
Q 2541 1088 2541 1459 
L 2541 1666 
z
" transform="scale(0.015625)"/>
       <path id="ArialMT-65" d="M 2694 1069 
L 3275 997 
Q 3138 488 2766 206 
Q 2394 -75 1816 -75 
Q 1088 -75 661 373 
Q 234 822 234 1631 
Q 234 2469 665 2931 
Q 1097 3394 1784 3394 
Q 2450 3394 2872 2941 
Q 3294 2488 3294 1666 
Q 3294 1616 3291 1516 
L 816 1516 
Q 847 969 1125 678 
Q 1403 388 1819 388 
Q 2128 388 2347 550 
Q 2566 713 2694 1069 
z
M 847 1978 
L 2700 1978 
Q 2663 2397 2488 2606 
Q 2219 2931 1791 2931 
Q 1403 2931 1139 2672 
Q 875 2413 847 1978 
z
" transform="scale(0.015625)"/>
       <path id="ArialMT-6e" d="M 422 0 
L 422 3319 
L 928 3319 
L 928 2847 
Q 1294 3394 1984 3394 
Q 2284 3394 2536 3286 
Q 2788 3178 2913 3003 
Q 3038 2828 3088 2588 
Q 3119 2431 3119 2041 
L 3119 0 
L 2556 0 
L 2556 2019 
Q 2556 2363 2490 2533 
Q 2425 2703 2258 2804 
Q 2091 2906 1866 2906 
Q 1506 2906 1245 2678 
Q 984 2450 984 1813 
L 984 0 
L 422 0 
z
" transform="scale(0.015625)"/>
       <path id="ArialMT-63" d="M 2588 1216 
L 3141 1144 
Q 3050 572 2676 248 
Q 2303 -75 1759 -75 
Q 1078 -75 664 370 
Q 250 816 250 1647 
Q 250 2184 428 2587 
Q 606 2991 970 3192 
Q 1334 3394 1763 3394 
Q 2303 3394 2647 3120 
Q 2991 2847 3088 2344 
L 2541 2259 
Q 2463 2594 2264 2762 
Q 2066 2931 1784 2931 
Q 1359 2931 1093 2626 
Q 828 2322 828 1663 
Q 828 994 1084 691 
Q 1341 388 1753 388 
Q 2084 388 2306 591 
Q 2528 794 2588 1216 
z
" transform="scale(0.015625)"/>
       <path id="ArialMT-79" d="M 397 -1278 
L 334 -750 
Q 519 -800 656 -800 
Q 844 -800 956 -737 
Q 1069 -675 1141 -563 
Q 1194 -478 1313 -144 
Q 1328 -97 1363 -6 
L 103 3319 
L 709 3319 
L 1400 1397 
Q 1534 1031 1641 628 
Q 1738 1016 1872 1384 
L 2581 3319 
L 3144 3319 
L 1881 -56 
Q 1678 -603 1566 -809 
Q 1416 -1088 1222 -1217 
Q 1028 -1347 759 -1347 
Q 597 -1347 397 -1278 
z
" transform="scale(0.015625)"/>
       <path id="ArialMT-6d" d="M 422 0 
L 422 3319 
L 925 3319 
L 925 2853 
Q 1081 3097 1340 3245 
Q 1600 3394 1931 3394 
Q 2300 3394 2536 3241 
Q 2772 3088 2869 2813 
Q 3263 3394 3894 3394 
Q 4388 3394 4653 3120 
Q 4919 2847 4919 2278 
L 4919 0 
L 4359 0 
L 4359 2091 
Q 4359 2428 4304 2576 
Q 4250 2725 4106 2815 
Q 3963 2906 3769 2906 
Q 3419 2906 3187 2673 
Q 2956 2441 2956 1928 
L 2956 0 
L 2394 0 
L 2394 2156 
Q 2394 2531 2256 2718 
Q 2119 2906 1806 2906 
Q 1569 2906 1367 2781 
Q 1166 2656 1075 2415 
Q 984 2175 984 1722 
L 984 0 
L 422 0 
z
" transform="scale(0.015625)"/>
      </defs>
      <use xlink:href="#ArialMT-6c"/>
      <use xlink:href="#ArialMT-61" transform="translate(22.216797 0)"/>
      <use xlink:href="#ArialMT-74" transform="translate(77.832031 0)"/>
      <use xlink:href="#ArialMT-65" transform="translate(105.615234 0)"/>
      <use xlink:href="#ArialMT-6e" transform="translate(161.230469 0)"/>
      <use xlink:href="#ArialMT-63" transform="translate(216.845703 0)"/>
      <use xlink:href="#ArialMT-79" transform="translate(266.845703 0)"/>
      <use xlink:href="#ArialMT-20" transform="translate(316.845703 0)"/>
      <use xlink:href="#ArialMT-5b" transform="translate(344.628906 0)"/>
      <use xlink:href="#ArialMT-6d" transform="translate(372.412109 0)"/>
      <use xlink:href="#ArialMT-73" transform="translate(455.712891 0)"/>
      <use xlink:href="#ArialMT-5d" transform="translate(505.712891 0)"/>
     </g>
    </g>
   </g>
   <g id="line2d_14">
    <path d="M 209.64304 90.204155 
L 211.087804 67.541178 
L 212.532568 100.093568 
L 213.977332 55.025507 
L 215.422096 71.865338 
L 216.86686 66.2924 
L 218.311624 97.17861 
L 219.756388 111.605465 
L 221.201153 101.018614 
L 222.645917 111.836966 
L 224.090681 94.750889 
L 225.535445 98.689818 
L 226.980209 76.461199 
L 228.424973 84.185396 
L 229.869737 103.958919 
L 231.314501 100.43599 
L 232.759265 121.141367 
L 234.204029 51.967644 
L 235.648794 59.425637 
L 237.093558 46.899704 
L 238.538322 57.585113 
L 239.983086 80.803149 
L 241.42785 80.756031 
L 242.872614 89.522749 
L 244.317378 32.015625 
L 245.762142 90.576226 
L 247.206906 95.765719 
L 248.65167 99.127231 
L 250.096434 77.939847 
L 251.541199 111.153466 
L 252.985963 76.836521 
L 254.430727 82.316824 
L 255.875491 70.756928 
L 257.320255 61.011359 
L 258.765019 106.769323 
L 260.209783 75.384304 
L 261.654547 67.972463 
L 263.099311 73.589226 
L 264.544075 99.483968 
L 265.98884 63.106009 
L 267.433604 66.660613 
L 268.878368 66.630187 
L 270.323132 101.144983 
L 271.767896 86.837579 
L 273.21266 83.917502 
L 274.657424 37.859134 
L 276.102188 62.262049 
L 277.546952 70.653895 
L 278.991716 98.803146 
L 280.436481 74.281332 
L 281.881245 85.633204 
L 283.326009 77.468012 
L 284.770773 88.528233 
L 286.215537 109.303632 
L 287.660301 45.925985 
L 289.105065 74.02699 
L 290.549829 42.450464 
L 291.994593 61.531841 
L 293.439357 67.21526 
L 294.884121 106.920331 
L 296.328886 54.203041 
L 297.77365 53.34362 
L 299.218414 88.695444 
L 300.663178 73.037933 
L 302.107942 40.506937 
L 303.552706 67.892197 
L 304.99747 68.154027 
L 306.442234 67.977191 
L 307.886998 130.746539 
L 309.331762 42.070876 
L 310.776527 77.762811 
L 312.221291 82.555001 
L 313.666055 81.196988 
L 315.110819 61.717633 
L 316.555583 74.617329 
L 318.000347 49.706912 
L 319.445111 113.699526 
L 320.889875 66.876098 
L 322.334639 89.780513 
L 323.779403 55.78745 
" clip-path="url(#p9d5b7f9507)" style="fill: none; stroke: #1f77b4; stroke-opacity: 0.9; stroke-width: 1.5; stroke-linecap: round"/>
   </g>
   <g id="line2d_15">
    <path d="M 323.779403 203.505428 
L 325.216372 209.557911 
L 326.653341 189.210644 
L 328.090309 220.526417 
L 329.527278 185.45475 
L 330.964246 212.325005 
L 332.401215 211.88563 
L 333.838184 162.215549 
L 335.275152 172.927845 
L 336.712121 201.615578 
L 338.149089 198.967992 
L 339.586058 185.775404 
L 341.023027 198.511955 
L 342.459995 172.773766 
L 343.896964 176.309682 
L 345.333933 201.043067 
L 346.770901 211.450868 
L 348.20787 220.133636 
L 349.644838 199.57184 
L 351.081807 206.431366 
L 352.518776 196.650963 
L 353.955744 180.248924 
L 355.392713 176.651908 
L 356.829681 214.820213 
L 358.26665 192.122462 
L 359.703619 180.158341 
L 361.140587 191.623797 
L 362.577556 199.877851 
L 364.014524 181.783307 
L 365.451493 182.297607 
L 366.888462 187.55448 
L 368.32543 197.448245 
L 369.762399 203.600564 
L 371.199367 177.7093 
L 372.636336 182.727615 
L 374.073305 172.571953 
L 375.510273 172.154417 
L 376.947242 188.408222 
L 378.38421 196.048271 
L 379.821179 173.99042 
L 381.258148 225.45764 
L 382.695116 214.52509 
L 384.132085 209.489975 
L 385.569054 186.855694 
L 387.006022 161.582505 
L 388.442991 203.344442 
L 389.879959 180.29328 
L 391.316928 183.573592 
L 392.753897 227.877685 
L 394.190865 205.240945 
L 395.627834 223.409663 
L 397.064802 168.253535 
L 398.501771 192.303099 
L 399.93874 220.804025 
L 401.375708 204.695631 
L 402.812677 166.01735 
L 404.249645 175.053231 
L 405.686614 171.549159 
L 408.560551 201.275803 
L 409.99752 190.642835 
L 411.434488 198.207629 
L 412.871457 170.584335 
L 414.308426 187.206965 
L 415.745394 209.320449 
L 417.182363 194.881329 
L 418.619331 192.373266 
L 420.0563 200.622928 
L 421.493269 169.734479 
L 422.930237 226.604441 
L 424.367206 226.890047 
L 425.804175 165.20068 
L 427.241143 188.123457 
L 428.678112 233.342101 
L 430.11508 233.615625 
L 431.552049 198.916833 
L 432.989018 202.891685 
L 434.425986 179.656441 
L 435.862955 200.088721 
L 437.299923 213.002607 
L 438.736892 213.413706 
L 440.173861 193.466768 
L 441.610829 228.511056 
L 443.047798 208.455353 
L 444.484766 231.313771 
L 445.921735 216.549111 
L 447.358704 193.130772 
L 448.795672 205.04567 
L 450.232641 198.526937 
L 451.669609 176.151658 
L 453.106578 174.522449 
L 454.543547 164.637865 
L 455.980515 180.420261 
L 457.417484 170.149681 
L 458.854452 189.76956 
L 460.291421 198.094413 
L 461.72839 198.328 
L 463.165358 214.578716 
L 464.602327 198.621054 
L 466.039295 213.603291 
L 467.476264 209.243571 
L 468.913233 198.868835 
L 470.350201 221.844803 
L 471.78717 228.86982 
L 473.224139 196.784687 
L 474.661107 174.914178 
L 476.098076 182.682561 
L 477.535044 186.448863 
L 478.972013 207.469137 
L 480.408982 172.148824 
L 481.84595 200.631584 
L 483.282919 198.122632 
L 484.719887 206.175225 
L 486.156856 196.976611 
L 487.593825 186.099121 
L 489.030793 202.327337 
L 490.467762 188.470175 
L 491.90473 209.723205 
L 493.341699 172.571586 
L 494.778668 195.916586 
L 496.215636 193.58708 
L 497.652605 205.015471 
L 499.089573 179.663069 
L 500.526542 229.192949 
L 501.963511 210.718635 
L 503.400479 187.896354 
L 504.837448 230.616239 
L 506.274416 204.865159 
L 507.711385 207.546371 
L 509.148354 182.264478 
L 510.585322 197.372593 
L 512.022291 150.138005 
L 513.45926 205.893408 
L 514.896228 207.761874 
L 516.333197 182.659209 
L 517.770165 196.454618 
L 519.207134 177.580682 
L 520.644103 219.204669 
L 522.081071 157.080469 
L 523.51804 192.003872 
L 523.51804 192.003872 
" clip-path="url(#p9d5b7f9507)" style="fill: none; stroke: #ff7f0e; stroke-opacity: 0.9; stroke-width: 1.5; stroke-linecap: round"/>
   </g>
   <g id="line2d_16">
    <path d="M 66.972585 162.355916 
L 68.413701 146.736249 
L 69.854817 121.449665 
L 71.295932 186.86845 
L 72.737048 163.64798 
L 74.178164 138.781635 
L 75.619279 177.732751 
L 77.060395 160.71061 
L 78.501511 197.181435 
L 79.942627 135.375996 
L 81.383742 136.433391 
L 82.824858 174.953898 
L 84.265974 170.248911 
L 85.707089 139.069317 
L 87.148205 160.778081 
L 88.589321 118.53806 
L 90.030436 170.512005 
L 91.471552 166.888055 
L 92.912668 144.916031 
L 94.353784 140.122912 
L 95.794899 147.477464 
L 97.236015 173.011658 
L 98.677131 112.413074 
L 100.118246 181.425179 
L 101.559362 162.78839 
L 103.000478 177.057116 
L 104.441593 128.931807 
L 105.882709 165.863106 
L 107.323825 165.512315 
L 108.764941 154.977936 
L 110.206056 125.972792 
L 111.647172 149.471131 
L 113.088288 157.891605 
L 114.529403 172.5349 
L 115.970519 141.203981 
L 117.411635 172.944709 
L 118.852751 141.370464 
L 120.293866 162.127252 
L 121.734982 135.949958 
L 123.176098 129.605667 
L 124.617213 187.399751 
L 126.058329 135.634985 
L 127.499445 105.045314 
L 128.94056 200.84752 
L 130.381676 210.50225 
L 131.822792 228.905121 
L 133.263908 142.272058 
L 134.705023 160.300574 
L 136.146139 160.929974 
L 137.587255 183.555155 
L 139.02837 129.61019 
L 140.469486 131.266563 
L 141.910602 139.350467 
L 143.351717 155.502938 
L 144.792833 161.219015 
L 146.233949 142.872789 
L 147.675065 116.448155 
L 149.11618 179.143376 
L 150.557296 120.999658 
L 151.998412 150.497468 
L 153.439527 158.476257 
L 154.880643 150.652041 
L 156.321759 112.698378 
L 157.762874 172.292131 
L 159.20399 193.067782 
L 160.645106 164.448051 
L 162.086222 162.778365 
L 163.527337 147.026668 
L 164.968453 173.40367 
L 166.409569 151.971166 
L 167.850684 155.134558 
L 169.2918 195.493654 
L 170.732916 124.268088 
L 172.174032 178.422444 
L 173.615147 179.863481 
L 175.056263 137.775763 
L 176.497379 140.315714 
L 177.938494 171.331995 
L 179.37961 134.415733 
L 180.820726 187.591961 
L 182.261841 142.463891 
L 183.702957 166.166006 
L 185.144073 113.131797 
L 186.585189 165.558208 
L 188.026304 157.682443 
L 189.46742 132.640878 
L 190.908536 134.95777 
L 192.349651 155.302385 
L 193.790767 161.93728 
L 195.231883 158.727151 
L 196.672998 162.698444 
L 198.114114 158.584205 
L 199.55523 134.206982 
L 200.996346 119.176975 
L 202.437461 167.962949 
L 203.878577 127.130741 
L 205.319693 126.544699 
L 206.760808 141.904679 
L 208.201924 162.849939 
L 209.64304 167.075205 
" clip-path="url(#p9d5b7f9507)" style="fill: none; stroke: #2ca02c; stroke-opacity: 0.9; stroke-width: 1.5; stroke-linecap: round"/>
   </g>
   <g id="patch_3">
    <path d="M 44.145313 243.695625 
L 44.145313 21.935625 
" style="fill: none; stroke: #cccccc; stroke-width: 0.8; stroke-linejoin: miter; stroke-linecap: square"/>
   </g>
   <g id="patch_4">
    <path d="M 546.345313 243.695625 
L 546.345313 21.935625 
" style="fill: none; stroke: #cccccc; stroke-width: 0.8; stroke-linejoin: miter; stroke-linecap: square"/>
   </g>
   <g id="patch_5">
    <path d="M 44.145313 243.695625 
L 546.345313 243.695625 
" style="fill: none; stroke: #cccccc; stroke-width: 0.8; stroke-linejoin: miter; stroke-linecap: square"/>
   </g>
   <g id="patch_6">
    <path d="M 44.145313 21.935625 
L 546.345313 21.935625 
" style="fill: none; stroke: #cccccc; stroke-width: 0.8; stroke-linejoin: miter; stroke-linecap: square"/>
   </g>
   <g id="text_16">
    <!-- Latency over time — search-filter-paginate -->
    <g style="fill: #262626" transform="translate(182.2025 15.935625) scale(0.12 -0.12)">
     <defs>
      <path id="ArialMT-4c" d="M 469 0 
L 469 4581 
L 1075 4581 
L 1075 541 
L 3331 541 
L 3331 0 
L 469 0 
z
" transform="scale(0.015625)"/>
      <path id="ArialMT-6f" d="M 213 1659 
Q 213 2581 725 3025 
Q 1153 3394 1769 3394 
Q 2453 3394 2887 2945 
Q 3322 2497 3322 1706 
Q 3322 1066 3130 698 
Q 2938 331 2570 128 
Q 2203 -75 1769 -75 
Q 1072 -75 642 372 
Q 213 819 213 1659 
z
M 791 1659 
Q 791 1022 1069 705 
Q 1347 388 1769 388 
Q 2188 388 2466 706 
Q 2744 1025 2744 1678 
Q 2744 2294 2464 2611 
Q 2184 2928 1769 2928 
Q 1347 2928 1069 2612 
Q 791 2297 791 1659 
z
" transform="scale(0.015625)"/>
      <path id="ArialMT-76" d="M 1344 0 
L 81 3319 
L 675 3319 
L 1388 1331 
Q 1503 1009 1600 663 
Q 1675 925 1809 1294 
L 2547 3319 
L 3125 3319 
L 1869 0 
L 1344 0 
z
" transform="scale(0.015625)"/>
      <path id="ArialMT-72" d="M 416 0 
L 416 3319 
L 922 3319 
L 922 2816 
Q 1116 3169 1280 3281 
Q 1444 3394 1641 3394 
Q 1925 3394 2219 3213 
L 2025 2691 
Q 1819 2813 1613 2813 
Q 1428 2813 1281 2702 
Q 1134 2591 1072 2394 
Q 978 2094 978 1738 
L 978 0 
L 416 0 
z
" transform="scale(0.015625)"/>
      <path id="ArialMT-69" d="M 425 3934 
L 425 4581 
L 988 4581 
L 988 3934 
L 425 3934 
z
M 425 0 
L 425 3319 
L 988 3319 
L 988 0 
L 425 0 
z
" transform="scale(0.015625)"/>
      <path id="ArialMT-2014" d="M 0 1431 
L 0 1884 
L 6400 1884 
L 6400 1431 
L 0 1431 
z
" transform="scale(0.015625)"/>
      <path id="ArialMT-68" d="M 422 0 
L 422 4581 
L 984 4581 
L 984 2938 
Q 1378 3394 1978 3394 
Q 2347 3394 2619 3248 
Q 2891 3103 3008 2847 
Q 3125 2591 3125 2103 
L 3125 0 
L 2563 0 
L 2563 2103 
Q 2563 2525 2380 2717 
Q 2197 2909 1863 2909 
Q 1613 2909 1392 2779 
Q 1172 2650 1078 2428 
Q 984 2206 984 1816 
L 984 0 
L 422 0 
z
" transform="scale(0.015625)"/>
      <path id="ArialMT-2d" d="M 203 1375 
L 203 1941 
L 1931 1941 
L 1931 1375 
L 203 1375 
z
" transform="scale(0.015625)"/>
      <path id="ArialMT-66" d="M 556 0 
L 556 2881 
L 59 2881 
L 59 3319 
L 556 3319 
L 556 3672 
Q 556 4006 616 4169 
Q 697 4388 901 4523 
Q 1106 4659 1475 4659 
Q 1713 4659 2000 4603 
L 1916 4113 
Q 1741 4144 1584 4144 
Q 1328 4144 1222 4034 
Q 1116 3925 1116 3625 
L 1116 3319 
L 1763 3319 
L 1763 2881 
L 1116 2881 
L 1116 0 
L 556 0 
z
" transform="scale(0.015625)"/>
      <path id="ArialMT-70" d="M 422 -1272 
L 422 3319 
L 934 3319 
L 934 2888 
Q 1116 3141 1344 3267 
Q 1572 3394 1897 3394 
Q 2322 3394 2647 3175 
Q 2972 2956 3137 2557 
Q 3303 2159 3303 1684 
Q 3303 1175 3120 767 
Q 2938 359 2589 142 
Q 2241 -75 1856 -75 
Q 1575 -75 1351 44 
Q 1128 163 984 344 
L 984 -1272 
L 422 -1272 
z
M 931 1641 
Q 931 1000 1190 694 
Q 1450 388 1819 388 
Q 2194 388 2461 705 
Q 2728 1022 2728 1688 
Q 2728 2322 2467 2637 
Q 2206 2953 1844 2953 
Q 1484 2953 1207 2617 
Q 931 2281 931 1641 
z
" transform="scale(0.015625)"/>
      <path id="ArialMT-67" d="M 319 -275 
L 866 -356 
Q 900 -609 1056 -725 
Q 1266 -881 1628 -881 
Q 2019 -881 2231 -725 
Q 2444 -569 2519 -288 
Q 2563 -116 2559 434 
Q 2191 0 1641 0 
Q 956 0 581 494 
Q 206 988 206 1678 
Q 206 2153 378 2554 
Q 550 2956 876 3175 
Q 1203 3394 1644 3394 
Q 2231 3394 2613 2919 
L 2613 3319 
L 3131 3319 
L 3131 450 
Q 3131 -325 2973 -648 
Q 2816 -972 2473 -1159 
Q 2131 -1347 1631 -1347 
Q 1038 -1347 672 -1080 
Q 306 -813 319 -275 
z
M 784 1719 
Q 784 1066 1043 766 
Q 1303 466 1694 466 
Q 2081 466 2343 764 
Q 2606 1063 2606 1700 
Q 2606 2309 2336 2618 
Q 2066 2928 1684 2928 
Q 1309 2928 1046 2623 
Q 784 2319 784 1719 
z
" transform="scale(0.015625)"/>
     </defs>
     <use xlink:href="#ArialMT-4c"/>
     <use xlink:href="#ArialMT-61" transform="translate(55.615234 0)"/>
     <use xlink:href="#ArialMT-74" transform="translate(111.230469 0)"/>
     <use xlink:href="#ArialMT-65" transform="translate(139.013672 0)"/>
     <use xlink:href="#ArialMT-6e" transform="translate(194.628906 0)"/>
     <use xlink:href="#ArialMT-63" transform="translate(250.244141 0)"/>
     <use xlink:href="#ArialMT-79" transform="translate(300.244141 0)"/>
     <use xlink:href="#ArialMT-20" transform="translate(350.244141 0)"/>
     <use xlink:href="#ArialMT-6f" transform="translate(378.027344 0)"/>
     <use xlink:href="#ArialMT-76" transform="translate(433.642578 0)"/>
     <use xlink:href="#ArialMT-65" transform="translate(483.642578 0)"/>
     <use xlink:href="#ArialMT-72" transform="translate(539.257812 0)"/>
     <use xlink:href="#ArialMT-20" transform="translate(572.558594 0)"/>
     <use xlink:href="#ArialMT-74" transform="translate(600.341797 0)"/>
     <use xlink:href="#ArialMT-69" transform="translate(628.125 0)"/>
     <use xlink:href="#ArialMT-6d" transform="translate(650.341797 0)"/>
     <use xlink:href="#ArialMT-65" transform="translate(733.642578 0)"/>
     <use xlink:href="#ArialMT-20" transform="translate(789.257812 0)"/>
     <use xlink:href="#ArialMT-2014" transform="translate(817.041016 0)"/>
     <use xlink:href="#ArialMT-20" transform="translate(917.041016 0)"/>
     <use xlink:href="#ArialMT-73" transform="translate(944.824219 0)"/>
     <use xlink:href="#ArialMT-65" transform="translate(994.824219 0)"/>
     <use xlink:href="#ArialMT-61" transform="translate(1050.439453 0)"/>
     <use xlink:href="#ArialMT-72" transform="translate(1106.054688 0)"/>
     <use xlink:href="#ArialMT-63" transform="translate(1139.355469 0)"/>
     <use xlink:href="#ArialMT-68" transform="translate(1189.355469 0)"/>
     <use xlink:href="#ArialMT-2d" transform="translate(1244.970703 0)"/>
     <use xlink:href="#ArialMT-66" transform="translate(1278.271484 0)"/>
     <use xlink:href="#ArialMT-69" transform="translate(1306.054688 0)"/>
     <use xlink:href="#ArialMT-6c" transform="translate(1328.271484 0)"/>
     <use xlink:href="#ArialMT-74" transform="translate(1350.488281 0)"/>
     <use xlink:href="#ArialMT-65" transform="translate(1378.271484 0)"/>
     <use xlink:href="#ArialMT-72" transform="translate(1433.886719 0)"/>
     <use xlink:href="#ArialMT-2d" transform="translate(1467.1875 0)"/>
     <use xlink:href="#ArialMT-70" transform="translate(1500.488281 0)"/>
     <use xlink:href="#ArialMT-61" transform="translate(1556.103516 0)"/>
     <use xlink:href="#ArialMT-67" transform="translate(1611.71875 0)"/>
     <use xlink:href="#ArialMT-69" transform="translate(1667.333984 0)"/>
     <use xlink:href="#ArialMT-6e" transform="translate(1689.550781 0)"/>
     <use xlink:href="#ArialMT-61" transform="translate(1745.166016 0)"/>
     <use xlink:href="#ArialMT-74" transform="translate(1800.78125 0)"/>
     <use xlink:href="#ArialMT-65" transform="translate(1828.564453 0)"/>
    </g>
   </g>
   <g id="legend_1">
    <g id="patch_7">
     <path d="M 468.979688 72.48875 
L 539.345313 72.48875 
Q 541.345313 72.48875 541.345313 70.48875 
L 541.345313 28.935625 
Q 541.345313 26.935625 539.345313 26.935625 
L 468.979688 26.935625 
Q 466.979688 26.935625 466.979688 28.935625 
L 466.979688 70.48875 
Q 466.979688 72.48875 468.979688 72.48875 
z
" style="fill: #ffffff; opacity: 0.8; stroke: #cccccc; stroke-linejoin: miter"/>
    </g>
    <g id="line2d_17">
     <path d="M 470.979688 34.593437 
L 480.979688 34.593437 
L 490.979688 34.593437 
" style="fill: none; stroke: #1f77b4; stroke-opacity: 0.9; stroke-width: 1.5; stroke-linecap: round"/>
    </g>
    <g id="text_17">
     <!-- filter -->
     <g style="fill: #262626" transform="translate(498.979688 38.093437) scale(0.1 -0.1)">
      <use xlink:href="#ArialMT-66"/>
      <use xlink:href="#ArialMT-69" transform="translate(27.783203 0)"/>
      <use xlink:href="#ArialMT-6c" transform="translate(50 0)"/>
      <use xlink:href="#ArialMT-74" transform="translate(72.216797 0)"/>
      <use xlink:href="#ArialMT-65" transform="translate(100 0)"/>
      <use xlink:href="#ArialMT-72" transform="translate(155.615234 0)"/>
     </g>
    </g>
    <g id="line2d_18">
     <path d="M 470.979688 48.73875 
L 480.979688 48.73875 
L 490.979688 48.73875 
" style="fill: none; stroke: #ff7f0e; stroke-opacity: 0.9; stroke-width: 1.5; stroke-linecap: round"/>
    </g>
    <g id="text_18">
     <!-- paginate -->
     <g style="fill: #262626" transform="translate(498.979688 52.23875) scale(0.1 -0.1)">
      <use xlink:href="#ArialMT-70"/>
      <use xlink:href="#ArialMT-61" transform="translate(55.615234 0)"/>
      <use xlink:href="#ArialMT-67" transform="translate(111.230469 0)"/>
      <use xlink:href="#ArialMT-69" transform="translate(166.845703 0)"/>
      <use xlink:href="#ArialMT-6e" transform="translate(189.0625 0)"/>
      <use xlink:href="#ArialMT-61" transform="translate(244.677734 0)"/>
      <use xlink:href="#ArialMT-74" transform="translate(300.292969 0)"/>
      <use xlink:href="#ArialMT-65" transform="translate(328.076172 0)"/>
     </g>
    </g>
    <g id="line2d_19">
     <path d="M 470.979688 63.00125 
L 480.979688 63.00125 
L 490.979688 63.00125 
" style="fill: none; stroke: #2ca02c; stroke-opacity: 0.9; stroke-width: 1.5; stroke-linecap: round"/>
    </g>
    <g id="text_19">
     <!-- search -->
     <g style="fill: #262626" transform="translate(498.979688 66.50125) scale(0.1 -0.1)">
      <use xlink:href="#ArialMT-73"/>
      <use xlink:href="#ArialMT-65" transform="translate(50 0)"/>
      <use xlink:href="#ArialMT-61" transform="translate(105.615234 0)"/>
      <use xlink:href="#ArialMT-72" transform="translate(161.230469 0)"/>
      <use xlink:href="#ArialMT-63" transform="translate(194.53125 0)"/>
      <use xlink:href="#ArialMT-68" transform="translate(244.53125 0)"/>
     </g>
    </g>
   </g>
  </g>
 </g>
 <defs>
  <clipPath id="p9d5b7f9507">
   <rect x="44.145313" y="21.935625" width="502.2" height="221.76"/>
  </clipPath>
 </defs>
</svg>
